<svg width="44" height="44" viewBox="0 0 44 44" fill="none" xmlns="http://www.w3.org/2000/svg">
<path fill-rule="evenodd" clip-rule="evenodd" d="M42.4 19.2C43.3 19.7 44 20.6 44 21.8C44 23 43.3 23.9 42.4 24.4L38.9 26.2L42.4 28C43.3 28.5 44 29.5 44 30.6C44 31.7 43.4 32.7 42.4 33.2L23.4 43.2C23 43.5 22.5 43.6 22 43.6C21.5 43.6 21 43.4 20.6 43.2L1.6 33.2C0.7 32.7 0 31.7 0 30.6C0 29.5 0.6 28.5 1.6 28L5.1 26.2L1.6 24.4C0.7 23.9 0 22.9 0 21.8C0 20.7 0.6 19.7 1.6 19.2L5.1 17.4L1.6 15.6C0.7 15.1 0 14.1 0 13C0 11.9 0.6 10.9 1.6 10.4L20.6 0.4C21 0.1 21.5 0 22 0C22.5 0 23 0.2 23.4 0.4L42.4 10.4C43.3 10.9 44 11.9 44 13C44 14.1 43.4 15.1 42.4 15.6L38.9 17.4L42.4 19.2ZM1.99994 12.8C1.99994 13.2 2.19994 13.5 2.49994 13.7L21.4999 23.7C21.5999 23.7 21.6749 23.725 21.7499 23.75C21.8249 23.775 21.8999 23.8 21.9999 23.8C22.1999 23.8 22.3999 23.8 22.4999 23.7L41.4999 13.7C41.7999 13.5 41.9999 13.2 41.9999 12.8C41.9999 12.4 41.7999 12.1 41.4999 11.9L22.4999 1.90005C22.3999 1.90005 22.3249 1.87505 22.2499 1.85005C22.1749 1.82505 22.0999 1.80005 21.9999 1.80005C21.7999 1.80005 21.5999 1.80005 21.4999 1.90005L2.49994 11.9C2.19994 12.1 1.99994 12.4 1.99994 12.8ZM41.4999 29.8999C41.7999 30.0999 41.9999 30.3999 41.9999 30.7999C41.9999 31.1999 41.7999 31.4999 41.4999 31.6999L22.4999 41.6999C22.3999 41.7999 22.1999 41.7999 21.9999 41.7999C21.8999 41.7999 21.8249 41.7749 21.7499 41.7499C21.6749 41.7249 21.5999 41.6999 21.4999 41.6999L2.49994 31.6999C2.19994 31.4999 1.99994 31.1999 1.99994 30.7999C1.99994 30.3999 2.19994 30.0999 2.49994 29.8999L7.19994 27.3999L20.4999 34.3999C20.8999 34.5999 21.3999 34.7999 21.8999 34.7999C22.3999 34.7999 22.8999 34.6999 23.2999 34.3999L36.5999 27.3999L41.4999 29.8999ZM22.4999 32.6999L41.4999 22.6999C41.7999 22.4999 41.9999 22.1999 41.7999 21.7999C41.7999 21.3999 41.5999 21.0999 41.2999 20.8999L36.5999 18.3999L23.2999 25.3999C22.8999 25.6999 22.3999 25.7999 21.8999 25.7999C21.3999 25.7999 20.8999 25.5999 20.4999 25.3999L7.19994 18.3999L2.49994 20.8999C2.19994 21.0999 1.99994 21.3999 1.99994 21.7999C1.99994 22.1999 2.19994 22.4999 2.49994 22.6999L21.4999 32.6999C21.5999 32.6999 21.6749 32.7249 21.7499 32.7499C21.8249 32.7749 21.8999 32.7999 21.9999 32.7999C22.1999 32.7999 22.3999 32.7999 22.4999 32.6999Z" fill="url(#paint0_linear_231_1653)"/>
<defs>
<linearGradient id="paint0_linear_231_1653" x1="-3.91808e-07" y1="-44.7679" x2="59.6698" y2="-37.8924" gradientUnits="userSpaceOnUse">
<stop stop-color="#00FFA6"/>
<stop offset="0.497631" stop-color="#008CFF"/>
<stop offset="1" stop-color="#0026FF"/>
</linearGradient>
</defs>
</svg>
