<svg width="44" height="44" viewBox="0 0 44 44" fill="none" xmlns="http://www.w3.org/2000/svg">
<path fill-rule="evenodd" clip-rule="evenodd" d="M44 22C44 19.6 41.1 17.5 36.5 16C38.7 11.7 39.3 8.1 37.6 6.4C35.9 4.7 32.3 5.2 28 7.5C26.5 2.9 24.4 0 22 0C19.6 0 17.5 2.9 16 7.5C11.7 5.3 8.1 4.7 6.4 6.4C4.7 8.1 5.2 11.7 7.5 16C2.9 17.5 0 19.6 0 22C0 24.4 2.9 26.5 7.5 28C5.3 32.3 4.7 35.9 6.4 37.6C8.1 39.3 11.7 38.8 16 36.5C17.5 41.1 19.6 44 22 44C24.4 44 26.5 41.1 28 36.5C32.3 38.7 35.9 39.3 37.6 37.6C39.3 35.9 38.8 32.3 36.5 28C41.1 26.5 44 24.4 44 22ZM22 20C20.9 20 20 20.9 20 22C20 23.1 20.9 24 22 24C23.1 24 24 23.1 24 22C24 20.9 23.1 20 22 20ZM8.4 17.6001C4.5 18.7001 2 20.3001 2 22.0001C2 23.7001 4.5 25.3001 8.4 26.4001C9.2 25.0001 10.3 23.5001 11.4 22.0001C10.2 20.5001 9.2 19.0001 8.4 17.6001ZM14.1 18.6999C13.6 19.2999 13.1 19.8999 12.6 20.3999C11.7 19.2999 10.9 18.1999 10.3 17.0999C11.5 16.7999 12.8999 16.5999 14.2999 16.3999L14.3 16.3999C14.2 17.1999 14.1 17.9999 14.1 18.6999ZM14.2999 27.5L14.3 27.5C14.2 26.8 14.1 26 14.1 25.2C13.85 24.9 13.6 24.625 13.35 24.35C13.1 24.075 12.85 23.8 12.6 23.5C11.8 24.6 11 25.7 10.3 26.8C11.5 27.1 12.8999 27.3 14.2999 27.5L14.2999 27.5ZM7.90001 36.1C6.70001 34.9 7.30001 32 9.30001 28.5C10.9 28.9 12.6 29.3 14.5 29.5C14.7 31.4 15.1 33.1 15.5 34.7C11.9 36.7 9.10001 37.4 7.90001 36.1ZM9.30001 15.4999C10.9 15.0999 12.6 14.6999 14.5 14.4999C14.7 12.5999 15.1 10.8999 15.5 9.29988C12 7.29988 9.10001 6.69988 7.90001 7.89988C6.70001 9.09988 7.30001 11.8999 9.30001 15.4999ZM27.5 14.3C27.1391 14.2485 26.7516 14.2235 26.3512 14.1977C25.975 14.1735 25.5875 14.1485 25.2 14.1C24.9 13.85 24.625 13.6 24.35 13.35C24.075 13.1 23.8 12.85 23.5 12.6C24.6 11.7 25.7 10.9 26.8 10.3C27.1 11.5 27.4 12.8 27.5 14.3ZM26.4 8.4C25.3 4.5 23.7 2 22 2C20.3 2 18.7 4.5 17.6 8.4C19 9.2 20.5 10.2 22 11.4C23.5 10.2 25 9.2 26.4 8.4ZM17.1 10.3C18.2 11 19.3 11.8 20.4 12.6C19.8 13.1 19.2 13.6 18.7 14.1C17.9808 14.1 17.3425 14.1809 16.6396 14.2698L16.4 14.3C16.5262 13.3534 16.6923 12.4865 16.8479 11.674V11.674L16.8479 11.674L16.8479 11.674C16.9389 11.199 17.0262 10.7427 17.1 10.3ZM17.6488 29.8023L17.6488 29.8023C17.2484 29.7765 16.8609 29.7515 16.5 29.7C16.6 31.2 16.9 32.5 17.2 33.7C18.3 33.1 19.4 32.2999 20.5 31.4C20.2 31.15 19.925 30.9 19.65 30.65C19.375 30.4 19.1 30.15 18.8 29.9C18.4125 29.8515 18.025 29.8265 17.6488 29.8023ZM22 42.0001C20.3 42.0001 18.7 39.5001 17.6 35.6001C19 34.8001 20.5 33.8001 22 32.6001C23.5 33.8001 25 34.8001 26.4 35.6001C25.3 39.5001 23.7 42.0001 22 42.0001ZM23.6 31.4C24.7 32.2 25.8 33 26.9 33.7C26.9738 33.2573 27.0611 32.801 27.1521 32.326L27.1521 32.326L27.1521 32.3259C27.3077 31.5135 27.4738 30.6465 27.6 29.7L27.3604 29.7302C26.6575 29.8191 26.0192 29.9 25.3 29.9C24.8 30.4 24.2 30.9 23.6 31.4ZM27.9 24.4999C27.4 25.0999 26.8 25.6999 26.2 26.2999L26.2 26.2999L26.2 26.2999C25.6 26.8999 25 27.4999 24.4 27.9999C24.0118 27.9999 23.6237 28.0235 23.2241 28.0477H23.2241H23.224H23.224H23.2239H23.2239C22.8 28.0734 22.3632 28.0999 21.9 28.0999C21.1 28.0999 20.2 28.0999 19.4 27.9999C18.8 27.4999 18.2 26.8999 17.6 26.2999L17.5999 26.2998C16.9999 25.6999 16.4 25.0999 15.9 24.4999C15.9 24.1117 15.8764 23.7235 15.8522 23.3238C15.8265 22.8999 15.8 22.4632 15.8 21.9999C15.8 21.0999 15.8 20.2999 15.9 19.4999C16.4 18.8999 17 18.2999 17.6 17.6999L17.6 17.6999L17.6 17.6999C18.2 17.0999 18.8 16.4999 19.4 15.9999C19.7882 15.9999 20.1764 15.9764 20.5761 15.9521C21 15.9264 21.4367 15.8999 21.9 15.8999C22.7 15.8999 23.6 15.8999 24.4 15.9999C25 16.4999 25.5999 17.0999 26.1999 17.6998L26.2 17.6999C26.8 18.2999 27.4 18.8999 27.9 19.4999C27.9 19.8881 27.9235 20.2762 27.9478 20.6758V20.6758V20.6759V20.6759V20.676V20.676C27.9735 21.0999 28 21.5367 28 21.9999C28 22.8999 28 23.6999 27.9 24.4999ZM34.7 15.5001C36.7 12.0001 37.3 9.10009 36.1 7.90009C34.9 6.60009 32.1 7.30009 28.5 9.30009C28.9 10.9001 29.3 12.6001 29.5 14.5001C31.4 14.7001 33.1 15.1001 34.7 15.5001ZM31.4 20.3999C31.15 20.0999 30.9 19.8249 30.65 19.5499C30.4 19.2749 30.15 18.9999 29.9 18.6999C29.9 17.9807 29.8192 17.3423 29.7302 16.6395L29.7 16.3999L29.7001 16.3999L29.7001 16.3999C31.1001 16.5999 32.5 16.7999 33.7 17.0999C33 18.1999 32.3 19.2999 31.4 20.3999ZM33.7 26.9001C33.1 25.8001 32.3 24.7001 31.4 23.6001C30.9 24.1001 30.4 24.7001 29.9 25.3001C29.8516 25.6876 29.8266 26.0751 29.8024 26.4513L29.8023 26.4513C29.7765 26.8517 29.7516 27.2392 29.7 27.6001L29.7001 27.6001L29.7001 27.6001C31.1001 27.4001 32.5 27.2001 33.7 26.9001ZM36.1 36.1C34.9 37.3 32 36.7 28.5 34.7C28.9 33.1 29.3 31.4 29.5 29.5C31.4 29.3 33.1 28.9 34.7 28.5C36.7 32.1 37.4 34.9 36.1 36.1ZM32.6 22.0001C33.8 23.5001 34.8 25.0001 35.6 26.4001C39.5 25.3001 42 23.7001 42 22.0001C42 20.3001 39.5 18.7001 35.6 17.6001C34.8 19.0001 33.7 20.5 32.6 22L32.6 22.0001Z" fill="url(#paint0_linear_231_1610)"/>
<defs>
<linearGradient id="paint0_linear_231_1610" x1="-3.91808e-07" y1="-45.1786" x2="59.6839" y2="-38.364" gradientUnits="userSpaceOnUse">
<stop stop-color="#00FFA6"/>
<stop offset="0.497631" stop-color="#008CFF"/>
<stop offset="1" stop-color="#0026FF"/>
</linearGradient>
</defs>
</svg>
