<svg width="16" height="18" viewBox="0 0 16 18" fill="none" xmlns="http://www.w3.org/2000/svg">
<path fill-rule="evenodd" clip-rule="evenodd" d="M3.50055 9.49994C3.50055 9.19994 3.70055 8.99994 4.00055 8.99994C4.15055 8.99994 4.25055 9.04994 4.35055 9.14993L7.50053 12.2999V0.5C7.50053 0.199997 7.70053 0 8.00053 0C8.30053 0 8.50053 0.199997 8.50053 0.5V12.2999L11.6505 9.14993C11.7505 9.04994 11.8505 8.99994 12.0005 8.99994C12.3005 8.99994 12.5005 9.19994 12.5005 9.49994C12.5005 9.64993 12.4505 9.74994 12.3505 9.84995L8.35053 13.8499C8.25053 13.9499 8.15053 13.9999 8.00053 13.9999C7.85053 13.9999 7.75053 13.9499 7.65053 13.8499L3.65055 9.84995C3.55055 9.74994 3.50055 9.64993 3.50055 9.49994ZM9.99995 3H15.4999C15.7999 3 15.9999 3.2 15.9999 3.5V17.4999C15.9999 17.7999 15.7999 17.9999 15.4999 17.9999H0.499998C0.199999 17.9999 0 17.7999 0 17.4999V3.5C0 3.2 0.199999 3 0.499998 3H5.99997C6.29997 3 6.49997 3.2 6.49997 3.5C6.49997 3.8 6.29997 4 5.99997 4H0.999995V16.9999H14.9999V4H9.99995C9.69996 4 9.49996 3.8 9.49996 3.5C9.49996 3.2 9.69996 3 9.99995 3Z" fill="white"/>
</svg>
