<svg width="16" height="18" viewBox="0 0 16 18" fill="none" xmlns="http://www.w3.org/2000/svg">
<path fill-rule="evenodd" clip-rule="evenodd" d="M3.50055 9.49994C3.50055 9.19994 3.70055 8.99994 4.00055 8.99994C4.15055 8.99994 4.25055 9.04994 4.35055 9.14994L7.50053 12.2999V0.499998C7.50053 0.199999 7.70053 0 8.00053 0C8.30053 0 8.50053 0.199999 8.50053 0.499998V12.2999L11.6505 9.14994C11.7505 9.04994 11.8505 8.99994 12.0005 8.99994C12.3005 8.99994 12.5005 9.19994 12.5005 9.49994C12.5005 9.64994 12.4505 9.74994 12.3505 9.84994L8.35053 13.8499C8.25053 13.9499 8.15053 13.9999 8.00053 13.9999C7.85053 13.9999 7.75053 13.9499 7.65053 13.8499L3.65055 9.84994C3.55055 9.74994 3.50055 9.64994 3.50055 9.49994ZM9.99995 3.00006H15.4999C15.7999 3.00006 15.9999 3.20006 15.9999 3.50006V17.5C15.9999 17.8 15.7999 18 15.4999 18H0.499998C0.199999 18 0 17.8 0 17.5V3.50006C0 3.20006 0.199999 3.00006 0.499998 3.00006H5.99997C6.29997 3.00006 6.49997 3.20006 6.49997 3.50006C6.49997 3.80006 6.29997 4.00006 5.99997 4.00006H0.999995V17H14.9999V4.00006H9.99995C9.69996 4.00006 9.49996 3.80006 9.49996 3.50006C9.49996 3.20006 9.69996 3.00006 9.99995 3.00006Z" fill="url(#paint0_linear_443_434)"/>
<defs>
<linearGradient id="paint0_linear_443_434" x1="-1.42475e-07" y1="-18.4821" x2="21.7619" y2="-16.2735" gradientUnits="userSpaceOnUse">
<stop stop-color="#00FFA6"/>
<stop offset="0.497631" stop-color="#008CFF"/>
<stop offset="1" stop-color="#0026FF"/>
</linearGradient>
</defs>
</svg>
