<svg width="44" height="44" viewBox="0 0 44 44" fill="none" xmlns="http://www.w3.org/2000/svg">
<path fill-rule="evenodd" clip-rule="evenodd" d="M16 0H4C1.8 0 0 1.8 0 4V16C0 18.2 1.8 20 4 20H16C18.2 20 20 18.2 20 16V4C20 1.8 18.2 0 16 0ZM4 24H16C18.2 24 20 25.8 20 28V40C20 42.2 18.2 44 16 44H4C1.8 44 0 42.2 0 40V28C0 25.8 1.8 24 4 24ZM16 42C17.1 42 18 41.1 18 40V28C18 26.9 17.1 26 16 26H4C2.9 26 2 26.9 2 28V40C2 41.1 2.9 42 4 42H16ZM16 18C17.1 18 18 17.1 18 16V4C18 2.9 17.1 2 16 2H4C2.9 2 2 2.9 2 4V16C2 17.1 2.9 18 4 18H16ZM40 0H28C25.8 0 24 1.8 24 4V16C24 18.2 25.8 20 28 20H40C42.2 20 44 18.2 44 16V4C44 1.8 42.2 0 40 0ZM40 18C41.1 18 42 17.1 42 16V4C42 2.9 41.1 2 40 2H28C26.9 2 26 2.9 26 4V16C26 17.1 26.9 18 28 18H40ZM40 24H28C25.8 24 24 25.8 24 28V40C24 42.2 25.8 44 28 44H40C42.2 44 44 42.2 44 40V28C44 25.8 42.2 24 40 24ZM40 42C41.1 42 42 41.1 42 40V28C42 26.9 41.1 26 40 26H28C26.9 26 26 26.9 26 28V40C26 41.1 26.9 42 28 42H40Z" fill="url(#paint0_linear_231_1666)"/>
<defs>
<linearGradient id="paint0_linear_231_1666" x1="-3.91808e-07" y1="-45.1786" x2="59.6839" y2="-38.364" gradientUnits="userSpaceOnUse">
<stop stop-color="#00FFA6"/>
<stop offset="0.497631" stop-color="#008CFF"/>
<stop offset="1" stop-color="#0026FF"/>
</linearGradient>
</defs>
</svg>
