<svg width="54" height="53" viewBox="0 0 54 53" fill="none" xmlns="http://www.w3.org/2000/svg">
<path d="M11.6059 30.3629C11.2434 30.3875 10.7715 30.5499 10.455 31.1173C10.1966 31.5807 9.59116 31.6547 9.30838 31.5612C8.83759 31.4056 8.23563 31.2978 7.65262 31.7132C7.06961 32.1285 6.44002 31.8145 6.55044 31.0573C6.66085 30.3002 6.93445 29.6258 7.6603 29.2082C9.24574 28.2961 8.14386 27.6614 9.01404 26.746C9.88591 25.8289 9.6933 25.5481 9.66437 24.3026C6.71761 23.8599 5.04748 23.0106 3.18254 20.6805C1.31761 18.3504 0.594661 16.4324 0.401356 13.5109C0.20805 10.5896 0.375621 8.69625 1.63779 6.27145C2.89997 3.84665 4.22887 2.67933 6.53178 1.46853C8.83469 0.257824 11.0911 -0.0320346 13.1768 0.0032751C15.2625 0.0384851 16.6522 0.191294 17.8307 0.863676C19.0091 1.53596 20.0871 2.38219 20.7744 2.38828C21.4617 2.39426 21.9296 2.21432 22.2637 1.95838C22.3528 4.22289 20.3147 4.41958 18.4914 4.46746C16.6681 4.51524 15.5475 3.76097 13.8682 4.04155C12.1887 4.32213 9.43905 5.08638 8.09957 7.41792C6.7601 9.74946 6.71442 10.5737 6.82583 12.5289C6.93705 14.4842 8.61994 15.9429 9.56991 15.9588C10.5198 15.9746 10.7319 15.6994 11.5633 15.1572C12.3949 14.6148 16.6399 9.35986 18.0884 8.17947C19.537 6.99909 20.9665 6.63462 22.5099 6.61567C24.0534 6.59672 24.4478 6.64909 25.6926 7.15928C26.9374 7.66938 27.7025 8.60888 28.706 9.18311C29.219 8.88128 29.5377 8.43043 30.0084 8.08641C31.6918 6.85606 32.5664 6.5244 34.5672 6.71921C35.7173 6.83112 37.1672 7.48804 38.0323 8.24032C39.5729 9.57979 40.8457 11.4446 41.8741 12.8613C42.6751 13.9645 43.6174 15.2846 44.9627 15.6973C46.4317 16.1476 47.5371 14.245 47.6993 13.1897C47.7913 12.5918 47.9113 12.0677 47.9123 11.4096C47.9133 10.7513 47.8461 9.95264 47.6563 9.26669C47.4666 8.58075 47.1417 7.89819 46.7898 7.33224C46.217 6.41109 45.2799 5.44706 44.3049 4.95123C43.7577 4.67294 42.4703 4.16693 41.6588 4.14918C40.6644 4.12763 39.9069 4.46168 38.9876 4.52422C37.8747 4.60022 35.887 4.85038 35.0148 3.99058C34.4595 3.44358 34.3897 3.07861 34.2948 2.36524C34.5402 2.56732 34.8831 2.70018 35.1885 2.72601C35.8852 2.78486 36.5377 2.21592 37.1001 1.88616C37.5634 1.61466 38.2196 1.1293 38.8281 0.884024C40.3917 0.253635 42.3124 0.271789 43.963 0.440657C45.286 0.575911 47.0013 1.16451 48.1616 1.82113C49.3275 2.48064 50.4509 3.5926 51.2738 4.64092C52.3091 5.96005 52.875 7.09165 53.2499 8.73685C53.7292 10.8377 53.8621 13.9936 53.2827 16.065C52.826 17.6973 51.3098 20.2048 50.0191 21.434C48.7462 22.6464 47.2763 23.2316 45.6048 23.5516C45.6702 23.889 45.681 24.2036 45.7675 24.4802C45.8904 24.8728 46.1254 25.3105 46.6081 25.172C46.8006 25.1169 46.9037 25.0691 47.1575 25.2911C47.4112 25.5132 47.2792 26.3709 46.5652 26.7558C46.2033 26.951 45.8212 26.9934 45.2416 27.0049C44.6618 27.0165 43.757 27.0189 43.1276 26.9088C42.4983 26.7987 42.1224 26.2993 41.4254 26.2211C40.3482 26.1006 39.5234 25.3223 38.6597 24.7658C38.2994 24.5334 38.1778 24.5311 37.9701 24.4137C38.0823 24.7572 38.2319 25.1139 38.3065 25.4442C38.3814 25.7744 38.3494 26.0804 38.3891 26.3447C38.4286 26.6089 38.5019 26.8142 38.5447 27.0285C38.7173 27.1828 38.7724 27.4175 39.0622 27.4913C39.3523 27.565 39.8064 27.4502 40.1032 27.4103C40.3999 27.3704 40.5989 27.2087 40.8316 27.253C41.0646 27.2972 41.2854 27.464 41.4805 27.6203C41.6757 27.7766 41.8436 27.7994 42.0015 28.1894C42.1595 28.5794 42.3044 29.3781 42.3261 29.9119C42.3477 30.4457 42.2879 30.9276 42.1297 31.3512C41.9715 31.7749 41.8324 31.9627 41.404 32.3822C40.9756 32.8018 40.278 33.4176 39.5819 33.8465C39.7101 34.0363 39.7669 34.21 39.9669 34.416C40.1667 34.6221 40.5834 34.8529 40.7688 35.0703C40.9541 35.2877 41.0481 35.4436 41.0507 35.6874C41.0537 35.931 41.0418 36.2478 40.8439 36.5135C40.3511 37.1751 39.7681 37.2935 39.0594 37.6047C39.1785 38.3491 39.2759 38.8809 39.1035 39.6241C39.0332 39.9269 38.8771 40.6136 38.5034 40.7897C38.1298 40.9659 37.4093 40.8805 36.9534 40.953C36.4973 41.0255 36.242 41.0943 35.8865 41.1649C35.6705 41.4771 35.3489 41.8219 35.2386 42.1017C35.1282 42.3817 35.1615 42.4821 35.2542 42.7679C35.3469 43.0538 35.6623 43.4701 35.7517 43.8048C35.841 44.1395 35.8584 44.4999 35.775 44.8356C35.6914 45.1712 35.5486 45.4148 35.2624 45.7128C34.9765 46.011 34.4138 46.2451 34.1335 46.4866C33.853 46.7283 33.5739 46.7574 33.6504 47.1572C33.7556 47.7064 34.558 48.5971 35.1385 48.8092C35.4865 48.9364 35.9535 48.8963 36.376 48.7179C36.3474 49.187 35.9414 49.5032 35.6762 49.8147C36.3944 49.6093 37.091 49.2162 37.5727 48.695C37.4233 49.1476 36.9092 49.8743 36.1404 50.5124C35.3713 51.1504 35.376 51.0199 34.9938 51.2737C35.6912 51.4138 36.3398 51.3759 36.88 51.2789C36.5839 51.4422 36.0984 51.6718 35.4553 51.7393C34.8123 51.8067 34.4158 51.7591 33.8363 51.6183C33.2568 51.4775 32.7276 50.9506 32.0253 50.5875C32.0937 50.848 32.1424 51.1613 32.4378 51.4292C32.7331 51.6971 33.18 51.8334 33.6549 52.0651C33.0503 51.9965 32.4149 51.9757 31.8207 51.8446C31.3809 51.7477 31.0853 51.6448 30.7634 51.4854C30.4418 51.326 30.1934 51.0934 29.9084 50.8976C30.0451 51.1584 30.0855 51.4651 30.3179 51.6803C30.5503 51.8953 30.928 51.9754 31.2335 52.1231C30.9148 52.1162 30.6083 52.1853 30.278 52.1022C29.9474 52.0191 29.6374 51.8885 29.2938 51.6354C28.9502 51.3822 28.5958 51.0705 28.3025 50.7518C28.0095 50.4332 27.6476 50.02 27.5381 49.7262C27.4284 49.4322 27.6039 49.2266 27.6368 48.9771C27.4344 49.1101 27.1855 49.1833 27.03 49.3764C26.8745 49.5694 26.7367 49.7456 26.8055 50.0821C26.8744 50.4185 27.1849 50.8297 27.4044 51.204C26.7493 50.6683 26.3834 50.4619 26.2275 49.8157C26.0816 49.2107 26.4591 48.6615 26.7462 48.2038C26.8886 47.9767 27.1019 47.7653 27.2352 47.5459C26.9392 47.2564 26.601 47.0075 26.3474 46.6772C26.0938 46.347 25.9873 45.9001 25.7284 45.5843C25.4695 45.2684 25.1212 45.0684 24.8178 44.8107C25.0844 45.3835 25.5226 46.086 25.6178 46.5292C25.7128 46.9725 25.5112 47.2438 25.3539 47.4831C25.1965 47.7224 24.9425 47.7757 24.7016 47.9228C24.4607 48.0699 24.0862 47.9539 23.9426 48.1721C23.7991 48.3905 23.7606 48.7187 23.8978 48.9351L24.4603 49.823C24.2531 49.7183 23.896 49.4141 23.735 49.1982C23.574 48.9824 23.327 48.783 23.2932 48.491C23.2594 48.1994 23.243 47.9461 23.432 47.6861C23.6211 47.4263 24.1388 47.3394 24.3706 47.1395C24.6022 46.9398 24.7322 46.8097 24.7189 46.5515C24.7057 46.2931 24.4536 46.1085 24.2366 45.9457C23.5746 45.4492 22.7255 44.9917 22.1632 44.3932C21.8456 44.0551 21.6932 43.7821 21.6294 43.5488C21.5656 43.3155 21.6331 43.1336 21.791 42.8467C21.9487 42.5598 22.4898 42.1767 22.5556 41.865C22.6214 41.5534 22.3481 41.4864 22.1014 41.3765C21.8547 41.2666 21.3862 41.4329 21.1574 41.2416C20.9287 41.0504 21.2246 40.6487 20.9669 40.4283C20.709 40.2079 20.119 40.331 19.8145 40.094C19.51 39.8569 19.3841 39.5626 19.2792 39.2187C19.1743 38.8748 19.1625 38.4981 19.2335 38.249C19.3046 37.9999 19.5183 37.9563 19.6472 37.8273C19.776 37.6982 19.8878 37.5912 19.7161 37.3987C19.5443 37.2062 18.9815 37.4094 18.6579 37.1623C18.3343 36.9153 18.5324 36.3234 18.3036 36.0741C18.0749 35.8246 17.6643 35.9222 17.4478 35.8426C17.2311 35.7628 17.1461 36.044 17.0133 35.5994C16.8804 35.1545 16.8768 33.8289 16.6981 33.3342C16.5193 32.8394 16.1684 33.3008 16.0054 32.809C15.8424 32.3173 15.9969 31.5311 15.9236 30.7885L15.5908 28.7679C14.4304 29.5474 13.6643 29.7922 12.4176 30.0125C12.3136 33.0629 12.027 34.8591 13.0624 38.2434C14.0977 41.6276 16.1931 43.6221 19.0198 46.4872C15.2898 43.6928 13.509 41.421 12.3945 38.5106C11.2797 35.5999 11.4938 33.1657 11.6059 30.3629ZM31.426 29.1368C31.713 29.1497 32.0617 29.2225 32.2632 29.3532C32.4648 29.4842 32.6787 29.5911 32.8617 29.7774C33.3181 30.2422 33.6604 30.8027 33.8117 31.4469C33.9082 31.8575 33.9226 32.3842 33.9577 32.8663C33.8195 32.4207 33.7267 31.956 33.5299 31.5566C33.2197 30.9271 32.6924 30.3126 32.0378 30.0295C31.8217 29.9361 31.6777 29.9534 31.5587 29.97C31.6119 30.0592 31.7009 30.134 31.7048 30.2648C31.7088 30.3955 31.6795 30.6514 31.4578 30.7589C31.1003 30.9324 30.7029 30.8104 30.4268 30.5663C30.1485 30.3204 30.0535 29.9042 30.1994 29.5466C30.3729 29.1205 31.0346 29.1194 31.426 29.1367V29.1368ZM27.828 28.5303C27.864 27.7977 28.1285 27.1798 28.785 26.8206C29.1245 26.6349 29.6476 26.3947 30.1283 26.3382C30.5901 26.2841 31.7132 26.3237 32.3887 26.632C32.9074 26.8688 33.2608 27.2375 33.7164 27.5068C34.1718 27.7764 34.4958 27.957 34.9295 28.2592C35.5952 28.7231 35.9854 29.2339 36.4469 29.5402C36.6688 29.6873 36.981 29.6654 37.2758 29.7554C37.0466 29.8234 36.7471 29.8984 36.5 29.8195C36.1918 29.7209 35.7609 29.4391 35.5218 29.2371C35.0992 28.8803 34.8802 28.7061 34.4191 28.4369C34.1438 28.2765 33.6904 28.0875 33.3879 27.8902C33.0852 27.6929 32.5597 27.26 32.2689 27.1135C31.8991 26.9273 31.2335 26.8238 30.8218 26.8359C30.2546 26.8524 29.4337 26.946 28.9949 27.3442C28.559 27.74 28.3934 28.0882 28.4916 28.6022C28.6558 28.413 28.7651 28.1755 28.9296 28.0348C29.2703 27.7438 29.6613 27.7296 30.0855 27.7849C30.5619 27.8469 30.8018 28.122 30.9592 28.5744C30.8533 28.4966 30.6586 28.3258 30.5049 28.2728C30.1441 28.1483 29.8713 28.1866 29.5334 28.3679C29.1344 28.5819 29.2429 28.8987 29.1855 29.251C29.1591 29.4135 29.0978 29.5443 29.054 29.6911C28.904 29.6514 28.7652 29.5889 28.6517 29.4764C28.6564 29.641 28.6325 29.7849 28.6662 29.9701C28.6997 30.1551 28.7899 30.3749 28.8517 30.5773C28.5738 30.2994 28.2896 30.0407 28.1101 29.6819C27.9306 29.3228 27.8089 28.9245 27.828 28.5303ZM28.3088 23.198C28.5136 22.8941 28.5735 22.4278 28.6998 22.0488C28.6493 22.5289 28.7464 23.0568 28.512 23.4046C28.2776 23.7523 27.8659 23.6913 27.5249 23.7925C27.7902 23.5902 28.1039 23.5019 28.3089 23.198H28.3088ZM23.4063 30.3166C23.6692 30.1037 24.3789 30.2739 24.9095 30.3119L23.7652 30.6049C23.7297 30.7346 23.7458 30.8834 23.6587 30.9939C23.5715 31.1047 23.4059 31.1458 23.2797 31.2214C23.2921 30.8805 23.1433 30.5293 23.4063 30.3166ZM27.1458 15.5324C27.4626 15.7029 27.8646 15.9284 28.1444 15.9353C28.4242 15.9423 28.4975 15.7525 28.6621 15.6429C28.9209 16.4872 29.2182 17.415 29.6591 18.1811C29.8438 18.5021 29.9616 18.3529 30.102 18.6754C30.2423 18.9979 30.3046 19.6541 30.4377 20.0662C30.5709 20.4781 30.7447 20.7814 30.8982 21.139C30.5084 20.5868 30.0048 19.8826 29.7875 19.4229C29.5705 18.9634 29.7094 18.9234 29.5337 18.4857C29.3579 18.048 29.0026 17.3658 28.7371 16.8058C28.547 16.8311 28.3116 16.8657 28.1671 16.8211C28.0225 16.7765 28.0514 16.6228 27.9208 16.5234C27.7901 16.4241 27.5703 16.4626 27.3872 16.304C27.204 16.1454 27.1623 15.8202 27.1458 15.5324ZM25.4401 19.6986C25.7382 19.6725 26.1084 19.7524 26.3877 19.7365C26.6668 19.7206 26.8661 19.6483 27.1054 19.6041C27.061 19.1835 27.1031 18.4109 26.7149 18.1301C26.4641 17.9488 25.4343 18.0852 25.1592 18.1447C24.5401 18.2782 23.8193 18.6476 23.2206 18.8786C23.7943 18.4778 24.29 18.1064 24.9781 17.8995C25.3918 17.7751 26.3571 17.6135 26.784 17.7288C26.9789 17.7813 27.0184 17.862 27.1365 18.0272C27.5429 18.5945 27.5417 19.0849 27.6472 19.7458C27.7507 19.9073 27.8611 20.015 27.9451 20.1816C28.0289 20.3482 28.0764 20.6103 28.0998 20.8245C27.9935 20.6703 28.0585 20.4769 27.764 20.3621C27.4693 20.2473 27.018 20.3545 26.6209 20.396C26.9104 20.6049 27.0542 20.806 27.0653 21.2477C27.0783 21.7661 26.6394 22.1393 26.1809 22.1748C25.5447 22.2242 25.2166 22.0844 24.9593 21.5406C24.8466 21.3024 24.9283 21.0159 24.9189 20.7836C24.1543 20.8368 24.1668 20.8119 23.608 21.2778C23.9117 21.7227 24.1031 21.9786 24.605 22.2448C24.8865 22.3942 25.2051 22.5395 25.5539 22.5988C25.9029 22.6582 26.4751 22.7155 26.8417 22.6593C27.2081 22.603 27.4158 22.4984 27.6875 22.2471C27.9593 21.9958 27.9842 21.6359 28.0905 21.3514C28.0662 21.6252 28.0348 21.9738 27.9332 22.1725C27.624 22.7763 27.0893 22.9552 26.4508 22.9572C25.8379 22.9592 25.0799 22.8179 24.5097 22.5815C24.0539 22.3925 23.2982 21.8575 23.1189 21.3927C22.9963 21.0751 23.0933 20.6854 23.0805 20.3317C23.7117 19.912 23.8679 20.0152 24.6147 19.8923C24.9271 19.8409 25.1419 19.7248 25.44 19.6986H25.4401ZM21.7633 16.8558C21.7811 16.6043 21.8089 16.6097 21.8318 16.4866C21.2567 16.3328 21.0261 16.7059 20.689 17.3987C20.5628 17.6579 20.6877 17.8122 20.5523 17.9829C20.4172 18.1535 20.1993 18.1295 19.9798 18.2935C19.7604 18.4573 19.5427 18.771 19.3374 18.9407C18.9162 19.2888 18.347 19.5014 17.8583 19.7356C18.192 19.4896 18.8394 19.1162 19.0489 18.7585C19.16 18.5689 19.1436 18.2113 19.3165 18.0409C19.4894 17.8703 19.5499 17.7523 19.7731 17.7087C19.9964 17.6653 19.9066 17.4065 19.9786 17.2009C20.0506 16.9952 20.1941 16.8492 20.3467 16.6437C20.4993 16.4383 20.6918 16.1297 20.9931 16.0177C21.2944 15.9056 21.7643 16.0267 21.9926 15.9623C22.2205 15.8977 22.0895 15.7319 22.2552 15.6324C22.4211 15.5329 22.7435 15.5768 22.9651 15.4703C23.3578 15.2815 23.5456 14.9663 23.7818 14.6289C23.8161 15.3552 23.8077 15.8782 23.5467 16.5615C23.2527 17.3306 22.9548 17.7837 22.1205 18.2567C21.8331 18.4196 21.547 18.4762 21.3087 18.5616C21.4476 18.3721 21.6465 18.2898 21.7256 17.9931C21.8045 17.6961 21.7456 17.1073 21.7633 16.8558ZM35.2328 20.3973C34.8361 20.4232 34.7421 20.371 34.4247 20.5948C34.5967 20.8625 34.7688 21.1303 34.9406 21.398C34.9254 20.8695 34.9769 20.7636 35.2328 20.3973ZM34.1935 20.0133C34.7429 19.7793 35.2215 19.59 35.8193 19.5525C36.0588 19.5375 36.4307 19.5746 36.6727 19.5856C36.8788 19.2822 37.1415 19.0429 37.2377 18.6966C37.3015 18.4669 37.27 17.4007 37.1572 17.1239C36.8285 16.3184 36.509 16.2844 36.0567 15.8229C35.7285 15.4883 35.7154 14.9787 35.6172 14.4076C35.5813 14.1979 35.4783 13.9325 35.43 13.716C34.8387 13.6163 34.2028 13.5836 33.5226 13.6176C33.8524 13.3012 34.1713 13.0121 34.266 12.5371C34.3604 12.0621 34.2835 11.4781 34.0136 11.0522C33.7435 10.6263 33.3122 10.2553 32.9164 9.90815C32.5202 9.56124 31.9526 9.27477 31.5773 8.9909C32.0654 8.81615 32.5638 8.5594 33.0418 8.46674C34.2872 8.22516 35.3603 8.59461 36.5615 9.32086C37.2599 9.74328 37.8375 10.1445 38.5677 10.9088C39.2976 11.6731 40.203 13.0751 40.9097 13.9064C41.6164 14.7378 42.1869 15.3953 42.8034 15.8912C43.4201 16.3871 43.9781 16.5283 44.5653 16.8467L45.4806 17.8187L46.2213 16.9021L47.4133 17.0369L47.6594 15.6991L48.7533 15.3994L48.5749 13.596L49.3614 13.0379L48.7703 11.9157L49.3709 10.6898L48.5879 9.28824L48.8898 7.93869L47.9833 7.16626L47.865 5.73223L46.6004 5.24986L46.0931 4.00225L44.6714 3.98629L43.974 3.06016L43.0168 3.12719L41.9498 3.01099L41.3465 2.56552L40.4708 3.14684L39.4112 2.59425L37.3049 3.39401L38.678 2.19986L40.1006 1.97264L41.1904 1.69485L42.6622 2.17822L43.9577 1.85005L45.2068 2.58847L46.5286 2.51535L47.178 3.68037L48.4941 3.83239L49.2063 5.12777L50.034 5.57962L50.2537 7.23918L50.9909 7.93839L50.6667 9.39038L51.5352 10.49L50.7209 11.6682L51.5917 12.4046L50.4785 13.391L51.6059 14.5652L50.2444 15.0043L51.1313 16.2636L50.0191 16.4555L50.7484 17.8402L49.495 17.8235L50.1264 18.8607L48.7516 18.6951L49.0805 20.1873L48.0416 19.2733L47.6857 21.0817L46.9687 19.7832L46.5804 21.4028L45.6954 20.2085L45.7195 21.9068L44.7413 20.3797C44.9476 21.2462 44.9063 22.1948 45.4754 23.0117C47.2384 22.7731 48.3908 22.3288 49.7415 21.029C50.9718 19.8452 52.4422 17.3771 52.8404 15.8116C53.2947 14.0251 53.3087 10.7395 52.8613 8.92078C52.4305 7.16965 51.8709 6.33319 50.8706 4.90425C49.9147 3.88884 48.9745 2.81638 47.7612 2.09233C45.9801 1.02955 43.6964 0.742984 41.6666 0.770613C40.5426 0.785974 39.7898 1.00182 39.1178 1.2462C37.9428 1.67351 37.0029 2.60562 35.8082 3.06624C35.4186 3.21636 35.1063 3.22105 34.7995 3.05717C35.0999 3.65823 35.4269 3.92784 36.1761 4.14658C36.7181 4.30478 38.0114 4.20473 38.9017 4.12254C39.8575 4.03427 40.356 3.7501 41.6568 3.76795C42.9271 3.78541 43.9338 4.26797 44.4842 4.58267C45.6198 5.23201 46.4342 5.95237 47.1417 7.09345C47.5303 7.72005 47.8025 8.42704 47.9942 9.1485C48.1859 9.86995 48.2699 10.678 48.2821 11.3843C48.2944 12.0905 48.2404 12.7211 48.0677 13.3566C47.6637 14.8446 46.7722 16.3588 44.9411 16.1249C43.8205 15.9816 42.1313 13.8784 41.5655 13.1068C40.4239 11.5495 39.2494 9.82616 37.8149 8.52928C36.9403 7.7388 35.7429 7.19469 34.567 7.08716C32.3609 6.88528 31.7067 7.30431 30.0462 8.67301C30.384 8.78074 30.7138 8.84018 31.06 8.99618C31.8283 9.3423 32.531 9.78986 33.1439 10.3637C33.7863 10.9654 34.0744 11.3461 34.0972 12.2075C34.1124 12.7795 33.6418 13.2381 33.2105 13.6507C32.9464 13.9033 32.5971 14.1346 32.3834 14.3307C32.1001 14.591 31.7493 14.8757 32.1052 15.2902C32.2391 15.446 32.4715 15.5635 32.6675 15.709C32.9787 15.9399 32.8361 16.7981 32.4263 17.0257C31.9018 17.3167 31.2752 17.2842 30.8426 16.8947C31.3885 16.8129 31.7353 16.7406 31.7211 16.294C31.7129 16.0352 31.3839 15.8201 31.0609 15.6729C30.282 15.3178 29.6937 15.3702 28.9184 14.8124C28.1355 14.2488 28.1182 13.9401 27.9065 13.0552C27.529 13.0947 27.1814 13.1034 26.6767 13.2706C26.1718 13.4376 25.6139 13.8354 25.1556 13.9339C24.0013 14.1822 23.7713 14.1086 23.1397 13.9451C22.0276 13.6573 20.5794 14.1501 19.1409 14.6102C18.9017 14.6867 17.9342 14.6128 17.283 14.8413C16.2772 15.1942 14.8659 16.0489 14.0508 16.7353C12.8157 17.7755 11.1927 20.8887 10.2756 24.4619C10.1793 25.5482 10.4882 26.28 9.80392 26.8105C9.11967 27.3411 9.13862 28.7003 8.90661 29.0815C8.6746 29.4626 8.40599 29.2942 7.90657 29.8295C7.40714 30.3649 7.15289 30.2754 7.16546 31.2876C7.59586 31.0046 8.22336 30.6757 8.77435 30.6558C9.2623 30.6382 9.26749 31.2806 10.5199 30.0424C11.1897 29.3801 12.4765 29.3598 13.3693 29.0677C14.2622 28.7754 15.8712 28.1735 17.4828 26.3719C19.0942 24.5703 19.8653 22.6736 20.1779 19.9316C20.2276 20.4178 20.3139 20.966 20.1058 22.3072C19.8976 23.6482 19.449 25.1545 20.3941 26.9587L20.983 28.0827C20.6324 27.6042 19.9477 26.8237 19.7414 26.2675L19.2658 24.9845C18.2018 26.655 17.9573 26.9539 16.4792 28.1507C16.4204 28.8932 16.4059 29.6676 16.6486 30.378C16.8913 31.0885 16.5045 31.9074 16.6891 32.3753C16.8737 32.8431 17.3007 32.5768 17.4402 33.0506C17.5796 33.5243 17.3674 34.4608 17.5836 34.9225C17.7999 35.3842 18.3304 35.104 18.5876 35.2532C18.8447 35.4024 18.9288 35.6069 19.0663 35.8031C19.2038 35.9992 19.0126 36.4628 19.2923 36.6133C19.5718 36.7639 20.008 36.6362 20.299 36.7809C20.5899 36.9254 20.6341 37.2728 20.5644 37.5841C20.4946 37.8953 20.1837 38.0382 20.0471 38.3547C19.9107 38.6713 19.9259 38.8917 20.09 39.1823C20.2539 39.4731 20.617 39.6332 20.9788 39.7798C21.3407 39.9266 21.8492 39.8442 22.2227 40.0471C22.5961 40.25 22.9319 40.6543 23.1289 40.9481C23.3261 41.2419 23.3809 41.4491 23.3708 41.758C23.3607 42.0668 23.2354 42.4226 23.0706 42.721C22.9056 43.0192 22.542 43.3823 23.1098 43.9521C23.6777 44.5217 23.6568 44.2762 23.9822 44.6457C23.9468 44.0064 23.6826 43.4857 23.8757 43.0044C24.0689 42.5232 24.649 42.4395 24.9547 42.223C25.2604 42.0065 25.4364 41.7091 25.6774 41.452C25.6739 41.7828 25.7094 42.1383 25.6717 42.3872C25.5951 42.8934 25.4457 43.3428 26.2001 43.424C26.5399 43.4605 26.8626 43.2401 27.2202 43.1078C27.0329 43.4433 26.7071 43.713 26.6581 44.1145C26.6093 44.5158 26.6681 44.9567 26.9459 45.3549C27.2239 45.7529 27.704 46.0487 28.0556 46.2826C28.4072 46.5168 28.5956 46.5355 28.8658 46.6621C28.879 47.0567 28.8013 47.4743 28.8463 47.846C28.8913 48.2176 29.0084 48.5466 29.2234 48.8538C29.4383 49.161 29.7831 49.3374 30.1079 49.5646C29.9299 49.1499 29.5687 48.7565 29.5736 48.3207C29.5786 47.8848 29.7092 47.576 30.1342 47.1892C30.5594 46.8024 31.5546 46.467 32.0239 46.091C32.4932 45.7148 32.6446 45.4844 32.8131 45.1192C32.9817 44.7541 32.9348 44.1657 32.9658 43.8375C33.1204 44.2973 33.1423 44.4403 33.1925 44.9213C33.243 45.4025 32.9122 46.0774 32.7721 46.4335C33.3526 46.1532 33.7211 45.705 33.9072 45.2671C34.0316 45.3409 33.9688 45.5433 34.0146 45.9333C34.2215 45.7274 34.4567 45.569 34.665 45.3747C34.8734 45.1806 35.1018 45.0098 35.2052 44.7388C35.3084 44.4678 35.2661 44.1796 35.1892 43.8647C35.1124 43.5499 34.7604 43.1847 34.5709 42.8403C34.3816 42.4959 34.6044 42.1579 34.5915 41.743C34.2125 41.6778 33.8904 41.4846 33.4547 41.5475C33.0188 41.6101 32.5193 42.0994 32.0738 42.105C31.6282 42.1107 31.3781 41.6933 31.0128 41.5786C30.6475 41.4639 30.278 41.4765 29.9107 41.4254C30.3759 40.9797 32.1815 40.7675 33.4165 40.5661C34.5033 40.3888 35.5817 40.2864 36.6828 40.2708C37.1745 40.2639 37.8065 40.4263 38.1481 40.3282C38.4897 40.2302 38.4168 39.9975 38.5181 39.7439C38.8016 39.0349 38.6618 38.4035 38.5076 37.6895C37.5192 37.5736 36.4892 37.4318 35.4933 37.5083C34.5195 37.5831 33.3665 38.0459 32.3621 38.0773C31.489 38.1045 30.196 37.9101 29.4462 37.4529C28.5299 36.8946 27.8211 35.6951 27.5694 35.31C27.1595 34.6826 26.6426 33.4521 26.328 32.8894C26.0136 32.3267 25.9443 32.1692 25.6826 31.9344C25.421 31.6996 25.0626 31.6815 24.7527 31.5549C25.11 31.5914 25.5001 31.4783 25.8247 31.6644C26.3124 31.9442 26.8581 33.1038 27.1615 33.6085C27.483 32.5308 27.408 32.1071 28.3382 31.4995C27.5885 32.3397 27.5699 32.9762 27.3872 33.9655C28.0106 34.9886 28.8774 36.6185 30.0115 37.0707C30.421 37.2342 31.1246 37.3367 31.5675 37.3915C32.9457 37.5621 34.2751 37.1254 35.6287 36.791C36.6182 36.5467 37.6222 36.6452 38.8256 36.7159C39.2342 36.7399 40.1975 36.4941 40.397 36.0808C40.5047 35.8579 40.4967 35.59 40.3421 35.3524C40.1871 35.1148 39.7746 34.9999 39.5535 34.7861C39.3323 34.5722 39.2052 34.3182 39.031 34.0844C38.1118 34.2608 37.3558 34.3285 36.6735 34.3471C37.1629 34.1455 37.6324 34.0305 38.1418 33.8313C38.651 33.6321 39.2293 33.3051 39.6403 33.0338C40.0514 32.7624 40.3138 32.6049 40.6113 32.2892C40.9085 31.9732 41.2898 31.6478 41.509 31.2616C41.7284 30.8754 41.7623 30.4434 41.7745 29.9654C41.7867 29.4875 41.7661 28.8169 41.5818 28.4319C41.3976 28.0469 41.0425 27.9302 40.7573 27.8391C40.472 27.748 40.2765 27.9784 39.9798 28.0095C39.6828 28.0406 39.4054 28.2277 38.9761 28.0258C38.5468 27.824 38.0379 27.413 37.6038 26.803C37.17 26.193 36.8597 25.196 36.4173 24.4289C35.6547 23.1067 34.7045 21.8715 33.7957 20.6464C33.7209 20.3442 33.6085 19.9267 33.5711 19.5169C33.5058 18.8027 33.4936 18.0608 33.7152 17.3646C33.8851 16.8313 34.1321 16.2679 34.6907 16.0492C34.9141 15.9616 35.1967 15.9269 35.3964 16.0009C35.5963 16.0747 35.7924 16.3003 35.7138 16.5608C35.6275 16.8473 35.429 16.8551 35.2941 16.9997C35.0652 17.2451 34.9737 17.4251 34.8872 17.7311C35.1346 17.7271 35.4689 17.7081 35.6722 17.7617C35.9372 17.8315 36.1841 18.0072 36.3186 18.3829C36.0022 18.1023 35.845 17.9735 35.4501 17.9636C35.2692 17.9591 35.0494 18.0238 34.8492 18.0539C34.7744 18.2973 34.7305 18.5957 34.6248 18.7841C34.5191 18.9724 34.3136 18.9272 34.2363 19.1471C34.159 19.3669 34.1546 19.7246 34.1935 20.0133ZM36.9579 19.6835C37.0791 19.7312 37.1253 19.7417 37.2788 19.8585C37.4324 19.9752 37.644 20.0919 37.7656 20.371C37.8874 20.6502 37.8817 21.0819 37.8558 21.2577C37.7491 21.2264 37.6035 21.2476 37.4928 21.1529C37.3824 21.0581 37.3165 20.8439 37.1748 20.7521C37.033 20.6604 36.9148 20.6805 36.7581 20.6607C36.8386 20.8897 36.8778 21.1188 36.8403 21.3265C36.7591 21.7798 36.4926 22.0094 36.0611 22.0636C35.8727 22.0873 35.5734 22.0253 35.4095 21.9955C35.4855 22.1652 35.6142 22.3139 35.6903 22.4837C36.0552 22.4308 36.3257 22.4384 36.5218 22.3467C36.718 22.2549 36.9284 22.0493 37.1801 21.9622C37.432 21.8752 37.6566 21.8765 37.9322 21.8336C37.7151 22.0206 37.5726 22.2076 37.3559 22.3947L37.8328 23.7809C38.1699 23.9917 38.4861 24.1029 38.9107 24.3632C39.3356 24.6235 39.845 25.0893 40.3983 25.3435C40.9516 25.5975 41.281 25.7358 41.8592 25.8448C42.4372 25.9538 42.8971 26.422 43.4661 26.4981C44.0348 26.5742 45.0973 26.5896 45.5358 26.5468C46.0335 26.4982 46.68 26.2414 46.7381 25.6957C46.3208 25.7986 45.6834 25.7063 45.3616 24.921C45.2187 24.5723 45.2888 23.931 45.0701 23.5186C44.8516 23.1062 44.5468 22.9739 44.1827 22.4658C43.8187 21.9576 43.2232 21.1561 42.8887 20.4754C42.5546 19.7948 42.4759 19.0238 42.1932 18.4137C41.9105 17.804 41.4841 17.3113 41.1537 16.8412C40.4321 15.8139 39.8502 15.1117 38.6614 14.5935C38.0897 14.3441 37.4388 14.2778 36.8274 14.1199C36.5787 14.2313 36.2375 14.3543 36.1771 14.6453C36.1164 14.9363 36.2327 15.366 36.4439 15.5844C36.7973 15.9495 37.321 16.3443 37.5268 16.9247C37.6591 17.2972 37.6975 18.5458 37.5829 18.8846C37.464 19.2364 37.1876 19.4492 36.9579 19.6835ZM37.073 22.6388C36.9626 22.7341 36.8785 22.8319 36.7007 22.911C36.5233 22.9901 36.2809 23.0106 36.0454 23.0694C36.3757 23.5835 36.7227 24.103 37.039 24.6434C37.3556 25.1839 37.6299 25.7757 37.932 26.3416C37.9177 26.0173 37.937 25.6714 37.8897 25.3683C37.8425 25.0653 37.7052 24.8001 37.569 24.3451C37.4331 23.8902 37.2658 23.2713 37.073 22.6388ZM28.1872 11.3353C28.1406 11.841 28.2262 12.6316 28.3309 13.1267C28.4564 13.7194 28.5773 14.0267 29.0582 14.3838C29.9389 15.0376 30.5012 14.9274 31.1788 15.3065C31.5011 15.487 31.9097 15.7894 32.0289 16.1091C32.1481 16.4288 31.9502 16.7759 31.7057 16.9123C32.1333 16.976 32.6128 16.4939 32.4127 15.999C32.3142 15.7554 31.8452 15.6469 31.7012 15.4011C31.5577 15.1554 31.558 14.9024 31.6256 14.6529C31.7478 14.2031 32.6378 13.7943 32.9523 13.4387C33.4363 12.8915 33.6221 12.4338 33.348 11.7291C32.9631 10.7391 31.476 9.94466 30.5861 9.55625C30.1784 9.37841 29.9499 9.36574 29.632 9.27048C30.2829 9.65191 30.969 9.95573 31.2983 10.8084C31.5732 11.5204 31.3352 11.7887 31.3442 12.4088C31.3485 12.6962 31.7271 12.84 31.8951 13.0216C32.0415 13.1795 32.0296 13.2967 31.9127 13.5146C31.8998 13.318 31.8159 13.1713 31.6649 13.0645C31.4158 12.8878 31.1473 12.9258 31.0146 12.5637C30.8131 12.0131 31.2127 11.4916 30.7634 10.8734C30.4274 10.4109 29.9804 9.89319 29.3775 9.87963C29.0922 9.87314 28.8776 9.91623 28.5727 10.0063L28.1664 9.51735L28.157 9.51097C27.3304 8.7566 26.7649 8.13489 25.6053 7.61641C24.4458 7.09804 23.8743 7.01954 22.5448 7.04906C21.2153 7.07849 19.8959 7.1897 18.3561 8.51761C16.8163 9.84551 12.8477 14.9304 11.8853 15.574C10.923 16.2175 10.7098 16.4356 9.50738 16.4358C8.30475 16.4362 6.42795 14.7351 6.35444 12.6094C6.28082 10.4836 6.2513 9.72801 7.72902 7.16706C9.20684 4.60601 11.884 3.81962 13.8703 3.5541C15.8567 3.28858 17.0504 3.98819 18.5197 3.99148C19.989 3.99487 21.4411 3.74112 21.8693 2.57271C21.6598 2.69739 21.3789 2.83803 20.5893 2.79673C19.7998 2.75534 18.705 1.84118 17.4734 1.22864C16.2419 0.616208 14.8714 0.544392 13.1136 0.511276C11.3557 0.478061 9.16236 0.612418 6.98931 1.78552C4.81627 2.95852 3.33296 4.20334 2.07258 6.49927C0.812105 8.7954 0.623787 10.67 0.826967 13.45C1.03015 16.2299 1.88756 18.2975 3.53844 20.3322C5.18931 22.3669 6.8392 23.3625 9.81419 23.7325L10.4406 20.9701L9.32245 22.5746L9.35008 20.79L8.33876 22.0448L7.8952 20.3431L7.07589 21.7075L6.66893 19.8073L5.48167 20.7676L5.85751 19.1996L4.28652 19.3736L5.00818 18.2837L3.57584 18.3012L4.40921 16.8462L3.13826 16.6444L4.15167 15.3211L2.59565 14.8598L3.88395 13.6261L2.6119 12.5895L3.60686 11.8157L2.67644 10.5776L3.6689 9.4223L3.29845 7.8966L4.14129 7.16197L4.39205 5.41833L5.33783 4.94335L6.15155 3.58223L7.65571 3.42253L8.39781 2.19826L9.90835 2.27507L11.3359 1.49925L12.8164 1.84407L14.4981 1.33617L15.7436 1.62802L17.3691 1.86691L18.9384 3.1217L16.5312 2.28145L15.3203 2.86197L14.3194 2.25113L13.6302 2.71923L12.4109 2.84132L11.3173 2.7707L10.5202 3.74381L8.89534 3.76057L8.31562 5.07152L6.87072 5.57842L6.73556 7.08527L5.69941 7.897L6.04463 9.31497L5.14992 10.7877L5.83626 12.0759L5.16069 13.2549L6.05949 13.8414L5.85561 15.7364L7.10562 16.0513L7.3872 17.4571L8.74931 17.3154L9.59555 18.2787L10.6415 17.2573C12.5482 16.3066 13.3334 15.7748 14.8194 14.1676C16.5111 12.3379 17.4806 10.6464 19.7338 9.39367C21.3498 8.49517 22.6679 8.17179 24.4833 8.48549C26.1877 8.77994 26.7585 9.80232 28.0138 10.8794C28.1468 10.6385 28.1739 10.5746 28.3931 10.3973C28.3243 10.7101 28.2149 11.0346 28.1871 11.3354L28.1872 11.3353Z" fill="black"/>
</svg>
