<svg width="34" height="61" viewBox="0 0 34 61" fill="none" xmlns="http://www.w3.org/2000/svg">
<path fill-rule="evenodd" clip-rule="evenodd" d="M2.42796 32.6818C1.67136 24.9738 1.67251 18.9866 2.23361 14.4229C2.79545 9.8532 3.91409 6.75 5.35867 4.77334C6.78859 2.81675 8.54705 1.94826 10.4764 1.84472C12.4317 1.73978 14.6112 2.41916 16.8438 3.66533C21.3094 6.1579 25.8162 10.8225 28.842 15.3824C30.3535 17.6603 31.4781 19.8863 32.0456 21.7748C32.6238 23.6985 32.5809 25.123 31.9928 25.9425L31.979 25.9617L31.9671 25.9821L31.2666 27.1831C31.2092 26.6399 31.0881 26.0692 30.9184 25.4867C30.3945 23.6881 29.3643 21.625 28.0119 19.5571C25.31 15.4259 21.2531 11.1723 17.1513 8.88581C15.0999 7.74228 12.9946 7.06695 11.0186 7.18875C9.01725 7.31212 7.20141 8.2509 5.76444 10.2234C4.3415 12.1767 3.29856 15.1289 2.76065 19.2874C2.22215 23.4504 2.18503 28.8607 2.80579 35.7664L2.80612 35.7714L2.8083 35.8039L2.81711 35.93C2.825 36.0404 2.837 36.2028 2.85352 36.4114C2.88656 36.8287 2.93766 37.4314 3.01003 38.1746C3.01433 38.2187 3.0187 38.2633 3.02315 38.3084C2.88022 37.2031 2.76622 36.2064 2.67786 35.37C2.59046 34.5428 2.52818 33.8729 2.48778 33.4102C2.46758 33.1789 2.45285 32.9994 2.4432 32.878L2.43247 32.7403L2.42986 32.7056L2.42923 32.697L2.42908 32.695L2.42904 32.6945L1.93035 32.7306L2.4292 32.6944L2.42796 32.6818ZM12.391 58.7451C12.3272 58.7942 12.2623 58.8411 12.1964 58.8854C11.978 59.0323 11.7535 59.148 11.5224 59.223C11.4211 59.127 11.2799 58.9365 11.124 58.5627C10.6292 57.3763 10.4144 55.3132 10.3331 53.4772C10.293 52.5733 10.2859 51.7475 10.2888 51.1475C10.2903 50.8477 10.2942 50.6047 10.2978 50.4371C10.2996 50.3533 10.3013 50.2884 10.3026 50.2447L10.304 50.1953L10.3044 50.1831L10.3045 50.1801L10.3045 50.1795L10.3045 50.1794L10.3047 50.1794L10.3048 50.1679C10.3703 44.5383 11.1882 41.432 12.245 39.9264C12.76 39.1926 13.3113 38.8671 13.8453 38.7763C14.3912 38.6835 14.9993 38.8225 15.6404 39.1732C16.9342 39.8809 18.2045 41.3676 19.0152 42.9002C19.4178 43.6613 19.6919 44.4058 19.8022 45.0376C19.9158 45.6876 19.8413 46.126 19.6738 46.3682L19.6632 46.3835L19.6537 46.3996L12.7219 58.21L12.7134 58.2245L12.7062 58.239L12.7061 58.2392L12.706 58.2393L12.706 58.2394L12.7058 58.2396L12.7041 58.243L12.6947 58.2611C12.6859 58.2778 12.6722 58.3032 12.654 58.3355C12.6176 58.4002 12.5641 58.4911 12.4969 58.5928C12.4636 58.6431 12.4282 58.6943 12.391 58.7451ZM10.9903 60.3202C10.6399 60.3285 10.2725 60.2709 9.89222 60.1268C8.83166 59.725 7.77835 58.6876 6.74188 56.8096C4.66873 53.0532 3.34691 47.0142 2.54146 41.9745C2.13685 39.4428 1.85955 37.1424 1.68339 35.4751C1.59529 34.6412 1.53243 33.9652 1.49157 33.4972C1.47114 33.2631 1.4562 33.0811 1.44635 32.9573C1.44142 32.8954 1.43777 32.848 1.43534 32.816L1.4326 32.7796L1.43214 32.7733C0.671858 25.0246 0.668162 18.9607 1.24109 14.3009C1.81342 9.64585 2.96584 6.35273 4.5513 4.1833C6.15143 1.9938 8.18201 0.966415 10.4228 0.846154C12.6376 0.727286 15.0094 1.49616 17.3312 2.79214C21.9745 5.38389 26.5895 10.1792 29.6753 14.8295C31.2195 17.1567 32.3982 19.4734 33.0033 21.487C33.5947 23.4545 33.6821 25.2822 32.8195 26.5054L15.173 56.7606L15.1701 56.7665C15.1624 56.7823 15.1512 56.8048 15.1367 56.8333C15.1078 56.8901 15.0656 56.9709 15.0108 57.07C14.9015 57.2681 14.7411 57.5412 14.5353 57.8451C14.2904 58.2067 13.9726 58.6244 13.5905 59.0123C13.546 59.06 13.5005 59.1074 13.4539 59.1543C13.4167 59.1945 13.3786 59.2344 13.3396 59.2739C13.2306 59.3935 13.1127 59.5111 12.9866 59.6218L12.9778 59.6301C12.9482 59.6598 12.9179 59.6892 12.887 59.718C12.8491 59.7556 12.8101 59.7925 12.77 59.8283C12.7221 59.8734 12.6724 59.917 12.621 59.9583C12.3863 60.1466 12.0526 60.3342 11.666 60.321C11.6471 60.3214 11.6281 60.3213 11.6089 60.3208C11.5772 60.3218 11.5451 60.3218 11.5128 60.3207C11.4763 60.3218 11.4395 60.3218 11.4024 60.3204C11.3643 60.3215 11.3258 60.3214 11.2871 60.3201C11.2383 60.3218 11.189 60.3218 11.1393 60.3202C11.09 60.3217 11.0403 60.3217 10.9903 60.3202ZM3.75239 19.4156C3.22618 23.4837 3.18491 28.8179 3.80232 35.6829L3.80345 35.6955L3.30433 35.7277L3.8033 35.6956L3.80332 35.696L3.80344 35.6978L3.80394 35.7054L3.80601 35.7362L3.81456 35.8587C3.82228 35.9667 3.8341 36.1265 3.8504 36.3325C3.88302 36.7445 3.9336 37.3411 4.00533 38.0777C4.13721 39.4319 4.34043 41.2578 4.6347 43.2786C4.54488 42.4548 4.47421 41.711 4.41977 41.0831C4.36381 40.4377 4.32496 39.9142 4.30007 39.5517C4.28763 39.3704 4.27867 39.2293 4.27282 39.1333L4.2663 39.0237L4.26469 38.9953L4.2645 38.9917C3.78921 32.9959 3.86677 28.2916 4.36569 24.6654C4.864 21.0437 5.78753 18.4606 7.03442 16.742C8.29453 15.0052 9.8787 14.1631 11.6228 14.0373C13.3425 13.9133 15.1623 14.489 16.9242 15.4695C20.446 17.4294 23.9063 21.101 26.1985 24.6738C27.3461 26.4626 28.218 28.2528 28.6557 29.8196C28.7772 30.2546 28.8683 30.6837 28.9202 31.098L29.8647 29.4795L29.8764 29.4594L29.8899 29.4405C30.4029 28.7237 30.4553 27.4727 29.9583 25.7664C29.4711 24.0937 28.4945 22.122 27.175 20.1045C24.533 16.0648 20.5853 11.945 16.6644 9.75927C14.7045 8.6667 12.794 8.08122 11.0801 8.18686C9.39162 8.29094 7.84347 9.06786 6.5727 10.8122C5.2879 12.5759 4.27935 15.3418 3.75239 19.4156ZM5.10779 36.7043C4.81669 31.8005 4.93232 27.8837 5.35636 24.8017C5.84317 21.2636 6.7316 18.8623 7.84383 17.3293C8.94285 15.8145 10.265 15.1378 11.6947 15.0347C13.1489 14.9299 14.7704 15.4154 16.4379 16.3433C19.7746 18.2002 23.1244 21.7342 25.3568 25.2138C26.4714 26.951 27.2903 28.6487 27.6925 30.0886C28.1036 31.5602 28.0425 32.6246 27.6103 33.2308L27.5971 33.2493L27.5856 33.2689L26.4474 35.2183C26.4009 34.9193 26.3323 34.6135 26.2463 34.3056C25.8718 32.9647 25.1269 31.4365 24.1492 29.9125C22.1969 26.8694 19.2482 23.739 16.2415 22.0658C14.7373 21.2287 13.1759 20.7327 11.6947 20.8396C10.189 20.9481 8.82309 21.6762 7.74016 23.1688C6.67046 24.6432 5.88301 26.8519 5.45866 29.9359C5.19762 31.833 5.07213 34.0752 5.10779 36.7043ZM6.44932 30.0722C6.03725 33.067 5.96824 36.9951 6.36933 42.0524L6.37032 42.0649L6.37016 42.065L6.37018 42.0652L6.37025 42.0665L6.37055 42.072L6.37183 42.0945L6.37717 42.1844C6.38201 42.2638 6.38947 42.3814 6.39987 42.5329C6.42068 42.8361 6.45327 43.2754 6.50028 43.8177C6.58656 44.8129 6.72128 46.1537 6.92067 47.6372C6.87703 47.0957 6.84346 46.6049 6.81788 46.1848C6.78907 45.7116 6.77038 45.3276 6.75887 45.0614C6.75312 44.9284 6.74916 44.8247 6.74664 44.7541L6.74388 44.6733L6.74321 44.6524L6.74318 44.6512C6.50765 40.2566 6.64496 36.7961 7.06649 34.1171C7.48739 31.4422 8.19679 29.5129 9.13171 28.2118C10.0779 26.895 11.2543 26.2261 12.5493 26.0989C13.8225 25.974 15.147 26.3785 16.4073 27.0768C18.9238 28.4712 21.3522 31.1284 22.9378 33.7239C23.7325 35.0248 24.3321 36.3368 24.6222 37.4965C24.6659 37.6712 24.7033 37.8455 24.7333 38.0181L25.1998 37.2192L25.2113 37.1995L25.2245 37.181C25.5709 36.6951 25.6311 35.8204 25.2832 34.5746C24.9441 33.3605 24.2522 31.9249 23.3075 30.4524C21.415 27.5026 18.5768 24.5098 15.7553 22.9396C14.3454 22.1551 12.9824 21.7493 11.7666 21.837C10.5753 21.9229 9.47141 22.4855 8.54957 23.7561C7.61452 25.0449 6.86217 27.0718 6.44932 30.0722ZM7.72506 44.2752C7.51558 40.0785 7.65728 36.796 8.05434 34.2726C8.4625 31.6786 9.1354 29.9203 9.9438 28.7953C10.7409 27.6859 11.6689 27.1902 12.647 27.0942C13.6469 26.996 14.7644 27.3098 15.9226 27.9516C18.2431 29.2373 20.5581 31.7467 22.0844 34.2452C22.8457 35.4914 23.3942 36.7082 23.6521 37.7392C23.9168 38.7974 23.8461 39.536 23.5547 39.9484L23.5423 39.966L23.5314 39.9845L22.9969 40.8985C22.9828 40.8258 22.9673 40.753 22.9505 40.6802C22.7222 39.689 22.236 38.575 21.588 37.4761C20.2961 35.2855 18.2958 33.0475 16.1948 31.887C15.1415 31.3052 14.0213 30.9718 12.9325 31.0986C11.824 31.2276 10.8183 31.8255 10.0037 32.9664C9.19897 34.0935 8.57811 35.7506 8.18886 38.0328C7.89902 39.7321 7.73469 41.7955 7.72506 44.2752ZM9.17462 38.2009C8.92046 39.691 8.7638 41.4915 8.73105 43.6465C9.03121 40.2282 9.73377 37.9657 10.7054 36.5952C11.4187 35.5891 12.292 35.0439 13.2567 34.9111C14.2046 34.7806 15.1683 35.0582 16.0631 35.5506C17.8447 36.5309 19.5132 38.4484 20.5765 40.329C21.1023 41.259 21.4956 42.2067 21.6786 43.0588L21.85 42.766L21.8605 42.7481L21.8724 42.7311C22.1074 42.3966 22.18 41.7904 21.976 40.9046C21.7776 40.0433 21.3411 39.0261 20.7266 37.9841C19.4933 35.8929 17.6083 33.8101 15.7113 32.7624C14.7657 32.2401 13.8587 31.9975 13.0481 32.0919C12.2571 32.1839 11.491 32.6042 10.8175 33.5475C10.1341 34.5047 9.55038 35.9978 9.17462 38.2009ZM9.63844 44.9988C9.85881 40.9306 10.5867 38.4916 11.5212 37.1736C12.102 36.3544 12.7456 35.9909 13.3931 35.9018C14.0573 35.8103 14.8009 35.9975 15.581 36.4267C17.1491 37.2896 18.7004 39.0427 19.706 40.8211C20.2064 41.7062 20.5558 42.5702 20.7078 43.3018C20.822 43.8511 20.814 44.2698 20.7261 44.564C20.5691 43.8828 20.2785 43.1497 19.8992 42.4326C19.0326 40.7944 17.6427 39.1286 16.1203 38.2959C15.3533 37.8763 14.5143 37.6482 13.6776 37.7905C12.8289 37.9348 12.062 38.4466 11.4265 39.3518C10.6207 40.4998 9.99629 42.3213 9.63844 44.9988Z" fill="black"/>
</svg>
