<svg width="54" height="47" viewBox="0 0 54 47" fill="none" xmlns="http://www.w3.org/2000/svg">
<path d="M8.54568 33.1767C8.33054 33.1692 8.12123 33.2475 7.9638 33.3943C7.80637 33.5411 7.71372 33.7445 7.70621 33.9596V38.0567C6.76802 37.3054 5.57012 36.9568 4.3753 37.0876C3.18049 37.2184 2.08632 37.8178 1.33287 38.7543C0.689558 39.5635 0.3385 40.5664 0.336616 41.6001C0.315823 42.8025 0.773501 43.9638 1.60896 44.8287C2.44443 45.6935 3.58923 46.1911 4.79155 46.2119C5.99386 46.2327 7.1552 45.775 8.02006 44.9395C8.88493 44.1041 9.38249 42.9593 9.40328 41.7569V34.0172C9.40433 33.9066 9.38346 33.7969 9.34191 33.6943C9.30035 33.5918 9.23892 33.4985 9.16114 33.4199C8.99506 33.2646 8.77625 33.178 8.54887 33.1777L8.54568 33.1767ZM7.48221 42.6956C7.33879 43.0413 7.12831 43.3552 6.86292 43.6192C6.59753 43.8831 6.28248 44.0919 5.93597 44.2334C5.58945 44.3749 5.21834 44.4464 4.84405 44.4437C4.46977 44.441 4.09973 44.3642 3.75529 44.2178C3.24561 43.9976 2.8115 43.6331 2.50652 43.1692C2.20155 42.7053 2.03904 42.1623 2.03904 41.6071C2.03904 41.0519 2.20155 40.5088 2.50652 40.0449C2.8115 39.581 3.24561 39.2165 3.75529 38.9964C4.09973 38.8499 4.46977 38.7731 4.84405 38.7705C5.21834 38.7678 5.58945 38.8393 5.93597 38.9808C6.28248 39.1223 6.59753 39.331 6.86292 39.595C7.12831 39.8589 7.33879 40.1728 7.48221 40.5185C7.63009 40.8624 7.70636 41.2328 7.70636 41.6071C7.70636 41.9814 7.63009 42.3518 7.48221 42.6956Z" fill="#0091E2"/>
<path d="M18.0061 38.3948C17.2614 37.6497 16.2825 37.1843 15.2345 37.0772C14.1865 36.9702 13.1336 37.228 12.2537 37.8071C11.3737 38.3863 10.7205 39.2513 10.4043 40.2562C10.0881 41.2611 10.1284 42.3443 10.5182 43.323C10.9081 44.3016 11.6237 45.1158 12.5442 45.6281C13.4647 46.1403 14.5338 46.3193 15.571 46.1348C16.6081 45.9502 17.5498 45.4135 18.2372 44.6152C18.9245 43.8168 19.3153 42.8058 19.3437 41.7527V41.5959C19.3446 41.0006 19.2287 40.411 19.0024 39.8604C18.7751 39.3083 18.4358 38.8093 18.0061 38.3948ZM17.4226 42.6775C17.2792 43.0134 17.0711 43.3178 16.8104 43.5735C16.552 43.8308 16.2482 44.038 15.9144 44.1847C15.2201 44.4787 14.4375 44.485 13.7386 44.2021C13.0398 43.9193 12.4818 43.3705 12.1874 42.6764C11.8951 41.984 11.8898 41.2039 12.1727 40.5076C12.4555 39.8113 13.0034 39.2558 13.6957 38.9634C14.047 38.8154 14.4244 38.7392 14.8056 38.7392C15.1868 38.7392 15.5641 38.8154 15.9154 38.9634C16.2513 39.1068 16.5557 39.3149 16.8114 39.5756C17.0691 39.8339 17.2767 40.1377 17.4237 40.4716C17.5715 40.8204 17.6477 41.1953 17.6477 41.574C17.6477 41.9528 17.5715 42.3277 17.4237 42.6764" fill="#0091E2"/>
<path d="M36.7413 37.8967C36.7396 37.7839 36.7153 37.6725 36.6698 37.5692C36.6216 37.4709 36.5595 37.38 36.4853 37.2994C36.4072 37.2221 36.3158 37.1596 36.2154 37.1148C36.1122 37.0694 36.0008 37.045 35.888 37.0434C35.7273 37.0438 35.5699 37.0881 35.4325 37.1713L30.5952 40.3159V34.0226C30.5962 33.9119 30.5754 33.8022 30.5338 33.6997C30.4922 33.5972 30.4308 33.5039 30.353 33.4252C30.2362 33.305 30.0862 33.2222 29.9222 33.1875C29.7581 33.1528 29.5875 33.1676 29.4319 33.2302C29.2763 33.2927 29.1429 33.4002 29.0486 33.5388C28.9543 33.6775 28.9034 33.841 28.9024 34.0087V45.262C28.9013 45.3727 28.9222 45.4824 28.9637 45.5849C29.0053 45.6874 29.0667 45.7807 29.1445 45.8594C29.2216 45.9402 29.3143 46.0045 29.417 46.0484C29.5196 46.0924 29.6302 46.115 29.7418 46.115C29.8535 46.115 29.964 46.0924 30.0667 46.0484C30.1694 46.0045 30.2621 45.9402 30.3392 45.8594C30.4196 45.7826 30.4827 45.6897 30.5245 45.5867C30.5662 45.4838 30.5856 45.3731 30.5813 45.262V42.3468L31.5626 41.7068L35.3045 45.9042C35.38 45.9765 35.4695 46.0327 35.5674 46.0694C35.6653 46.106 35.7697 46.1224 35.8741 46.1175C35.9876 46.1228 36.1006 46.0981 36.2016 46.046C36.3028 46.0029 36.3945 45.9402 36.4715 45.8615C36.5456 45.7809 36.6077 45.69 36.656 45.5916C36.7014 45.4883 36.7258 45.377 36.7275 45.2642C36.7257 45.0484 36.6449 44.8408 36.5002 44.6807L33.0293 40.7682L36.4149 38.5634C36.5248 38.4918 36.6132 38.3919 36.6709 38.2741C36.7285 38.1564 36.7532 38.0252 36.7424 37.8946" fill="#0091E2"/>
<path d="M22.7004 39.5756C22.9615 39.3144 23.2709 39.1065 23.6114 38.9634C23.9632 38.8173 24.3398 38.7402 24.7207 38.7362C25.0553 38.735 25.3875 38.7928 25.702 38.9068C26.0191 39.0321 26.3127 39.2103 26.5703 39.4338C26.7284 39.5574 26.9243 39.6226 27.1249 39.6183C27.2386 39.6261 27.3525 39.6084 27.4585 39.5665C27.5644 39.5246 27.6596 39.4596 27.7372 39.3762C27.8948 39.2115 27.9817 38.9918 27.9793 38.7639C27.9812 38.6416 27.9553 38.5204 27.9036 38.4096C27.8518 38.2987 27.7756 38.201 27.6807 38.1239C26.8706 37.3941 25.8118 37.0021 24.7217 37.0284C23.9893 37.0263 23.2672 37.2015 22.6171 37.539C21.9671 37.8765 21.4084 38.3664 20.9887 38.9667C20.569 39.567 20.3009 40.26 20.2072 40.9864C20.1135 41.7129 20.197 42.4512 20.4506 43.1384C20.7042 43.8255 21.1203 44.4411 21.6634 44.9325C22.2065 45.424 22.8605 45.7767 23.5696 45.9605C24.2786 46.1443 25.0215 46.1538 25.735 45.9882C26.4485 45.8225 27.1113 45.4866 27.6668 45.0092C27.7524 44.929 27.8206 44.832 27.867 44.7243C27.9134 44.6166 27.9372 44.5004 27.9367 44.3831C27.9442 44.168 27.8659 43.9587 27.719 43.8012C27.5722 43.6438 27.3689 43.5511 27.1537 43.5436H27.0972C26.9033 43.5412 26.7138 43.601 26.5564 43.7143C26.3041 43.9371 26.0155 44.1149 25.7031 44.2402C25.3882 44.353 25.0562 44.4108 24.7217 44.4108C24.3401 44.4138 23.9621 44.3364 23.6124 44.1836C23.2738 44.037 22.9651 43.8295 22.7015 43.5714C22.1701 43.0399 21.8705 42.3199 21.8679 41.5683C21.8653 40.8168 22.1599 40.0948 22.6876 39.5596C22.7015 39.5884 22.7015 39.5884 22.7015 39.5735" fill="#0091E2"/>
<path d="M53.5434 37.6268C53.3802 37.4735 53.1859 37.3571 52.9738 37.2855C52.7297 37.2002 52.4767 37.1429 52.2197 37.1148C51.9646 37.0864 51.7082 37.0722 51.4516 37.0721C50.9321 37.0693 50.4164 37.1608 49.9295 37.342C49.4511 37.5148 49.0043 37.7648 48.6068 38.0823V37.9116C48.5991 37.6924 48.5065 37.4846 48.3486 37.3323C48.1908 37.1799 47.9799 37.0947 47.7605 37.0947C47.5411 37.0947 47.3301 37.1799 47.1723 37.3323C47.0144 37.4846 46.9218 37.6924 46.9141 37.9116V45.2951C46.9218 45.5144 47.0144 45.7221 47.1723 45.8744C47.3301 46.0268 47.5411 46.112 47.7605 46.112C47.9799 46.112 48.1908 46.0268 48.3486 45.8744C48.5065 45.7221 48.5991 45.5144 48.6068 45.2951V41.6108C48.6039 41.2292 48.6813 40.8512 48.8341 40.5015C48.972 40.1629 49.1803 39.8574 49.4452 39.6055C49.7073 39.3395 50.0197 39.1283 50.3641 38.9842C50.7086 38.84 51.0782 38.7659 51.4516 38.766C51.8302 38.7676 52.2056 38.835 52.561 38.9655C52.6709 39.022 52.7927 39.0512 52.9162 39.0508C53.0297 39.0561 53.1426 39.0314 53.2436 38.9793C53.3449 38.9362 53.4366 38.8735 53.5135 38.7948C53.5908 38.7167 53.6533 38.6253 53.6981 38.5249C53.7435 38.4217 53.7678 38.3103 53.7695 38.1975C53.7752 38.0917 53.7578 37.9861 53.7186 37.8877C53.6793 37.7894 53.6192 37.7007 53.5423 37.6279" fill="#0091E2"/>
<path d="M45.6911 39.8604C45.3364 39.0393 44.751 38.3387 44.0059 37.8438C43.2609 37.3489 42.3882 37.0808 41.4937 37.0721C40.2926 37.0721 39.1404 37.5483 38.2897 38.3962C37.4389 39.2441 36.959 40.3947 36.9551 41.5959C36.9552 42.4644 37.2045 43.3147 37.6733 44.0458C38.1422 44.777 38.8109 45.3582 39.6002 45.7207C40.3895 46.0832 41.2662 46.2116 42.1263 46.0908C42.9864 45.97 43.7938 45.605 44.4527 45.0391L44.4815 45.0103C44.5574 44.9531 44.6203 44.8803 44.666 44.7969C44.7952 44.6099 44.8452 44.3795 44.8052 44.1557C44.7653 43.932 44.6386 43.7331 44.4527 43.6023C44.2938 43.499 44.1046 43.4525 43.9159 43.4705C43.7272 43.4885 43.5502 43.5699 43.4137 43.7015C43.3849 43.7303 43.2996 43.8007 43.2996 43.8156L43.2857 43.8295C43.0465 44.0342 42.7717 44.1933 42.4751 44.2988C42.1615 44.4152 41.828 44.4684 41.4937 44.4556C40.8798 44.4608 40.2807 44.2661 39.7871 43.901C39.5443 43.7294 39.3325 43.5176 39.1609 43.2748C38.9809 43.0306 38.8461 42.756 38.7631 42.4641H45.1631C45.2737 42.4652 45.3834 42.4443 45.4859 42.4028C45.5885 42.3612 45.6817 42.2998 45.7604 42.222C45.8434 42.1473 45.9084 42.0548 45.9503 41.9513C45.9923 41.8478 46.0101 41.7361 46.0025 41.6247C46.0146 41.0218 45.9084 40.4225 45.69 39.8604H45.6911ZM38.7567 40.7714C38.8368 40.4784 38.9718 40.2033 39.1545 39.9607C39.3261 39.7179 39.5379 39.5062 39.7807 39.3345C40.0259 39.1608 40.2941 39.0219 40.5775 38.9218C41.1601 38.7319 41.7879 38.7319 42.3705 38.9218C42.8004 39.064 43.1906 39.3057 43.5096 39.6271C43.8285 39.9484 44.0672 40.3405 44.2063 40.7714H38.7567Z" fill="#0091E2"/>
<path d="M50.6568 44.8962C50.5405 44.8974 50.4271 44.933 50.3309 44.9984C50.2347 45.0638 50.16 45.1562 50.116 45.2639C50.0721 45.3716 50.0609 45.4899 50.0839 45.6039C50.1069 45.718 50.1631 45.8226 50.2453 45.9049C50.3276 45.9872 50.4323 46.0433 50.5463 46.0663C50.6603 46.0893 50.7786 46.0782 50.8863 46.0342C50.9941 45.9903 51.0864 45.9155 51.1518 45.8194C51.2173 45.7232 51.2529 45.6098 51.2541 45.4935C51.2553 45.4147 51.2406 45.3365 51.211 45.2635C51.1813 45.1905 51.1374 45.1242 51.0817 45.0685C51.026 45.0128 50.9597 44.9689 50.8867 44.9393C50.8137 44.9097 50.7355 44.895 50.6568 44.8962ZM50.6568 45.9489C50.5653 45.9533 50.4745 45.9304 50.396 45.8831C50.3176 45.8359 50.2549 45.7664 50.2159 45.6835C50.1769 45.6006 50.1634 45.508 50.1771 45.4174C50.1908 45.3268 50.231 45.2424 50.2927 45.1747C50.3544 45.107 50.4348 45.0591 50.5238 45.0371C50.6127 45.0152 50.7062 45.0201 50.7923 45.0512C50.8785 45.0824 50.9534 45.1384 51.0077 45.2122C51.062 45.286 51.0932 45.3742 51.0973 45.4657V45.4946C51.1002 45.5527 51.0913 45.6109 51.0712 45.6655C51.0512 45.7202 51.0204 45.7703 50.9806 45.8128C50.9407 45.8552 50.8928 45.8893 50.8395 45.9129C50.7863 45.9365 50.7289 45.9491 50.6707 45.95H50.6568" fill="#0091E2"/>
<path d="M50.7979 45.4935C50.8252 45.4857 50.8498 45.4706 50.8691 45.4499C50.8885 45.4291 50.9018 45.4034 50.9076 45.3757C50.9134 45.3479 50.9116 45.319 50.9022 45.2922C50.8928 45.2654 50.8763 45.2417 50.8544 45.2236C50.792 45.1945 50.7237 45.1799 50.6549 45.181C50.5789 45.1785 50.5029 45.1832 50.4277 45.1948V45.7783H50.5557V45.5511H50.6122C50.6404 45.5468 50.6691 45.5532 50.6928 45.569C50.7165 45.5847 50.7334 45.6088 50.7402 45.6364C50.7541 45.6791 50.769 45.7356 50.7829 45.7783H50.9248C50.8978 45.7358 50.883 45.6867 50.8821 45.6364C50.8856 45.6067 50.8791 45.5766 50.8636 45.551C50.8482 45.5253 50.8247 45.5055 50.7967 45.4946L50.7979 45.4935ZM50.6261 45.4519H50.5546V45.2812H50.6261C50.7114 45.2812 50.7541 45.3239 50.7541 45.3666C50.7541 45.4092 50.6976 45.4658 50.6261 45.4519Z" fill="#0091E2"/>
<path d="M49.2047 11.5554C48.2248 10.9093 47.0591 10.6044 45.8884 10.6882C45.3139 10.6915 44.7406 10.7418 44.1743 10.8385C44.0208 9.95095 43.6834 9.10525 43.1838 8.35577C42.6841 7.60628 42.0332 6.96959 41.2729 6.48656L40.6884 6.14737L40.3119 6.6935C39.8371 7.43539 39.4872 8.25009 39.2761 9.10521C39.0752 9.86218 39.0318 10.6523 39.1485 11.4268C39.2651 12.2012 39.5395 12.9435 39.9545 13.6076C39.0235 14.0335 38.0194 14.2765 36.9967 14.3234H10.2425C9.90795 14.3237 9.58715 14.4567 9.35057 14.6933C9.11398 14.9299 8.98094 15.2506 8.98066 15.5852C8.94548 17.9302 9.34325 20.2614 10.154 22.462C10.8839 24.6295 12.3135 26.4928 14.218 27.7591C16.2148 28.9836 19.4745 29.6791 23.1481 29.6791C24.81 29.679 26.4684 29.5276 28.1028 29.2268C30.3809 28.8143 32.5724 28.0179 34.5839 26.8716C36.2388 25.9116 37.7276 24.6901 38.9924 23.2546C40.8673 21.0541 42.329 18.5329 43.3071 15.8124H43.6836C44.5169 15.8468 45.3485 15.7127 46.1287 15.4182C46.9089 15.1237 47.6217 14.6748 48.2244 14.0983C48.749 13.6018 49.1602 12.9978 49.4297 12.3276L49.5993 11.838L49.2047 11.5554Z" fill="#0091E2"/>
<path d="M12.7282 13.549H16.3079C16.3928 13.549 16.4742 13.5152 16.5342 13.4552C16.5942 13.3952 16.6279 13.3138 16.6279 13.2289V10.0289C16.6279 9.94407 16.5942 9.86268 16.5342 9.80267C16.4742 9.74266 16.3928 9.70895 16.3079 9.70895H12.7282C12.6433 9.70895 12.5619 9.74266 12.5019 9.80267C12.4419 9.86268 12.4082 9.94407 12.4082 10.0289V13.2289C12.4106 13.313 12.4451 13.393 12.5046 13.4525C12.5641 13.512 12.6441 13.5465 12.7282 13.549Z" fill="#0091E2"/>
<path d="M17.6657 13.549H21.2454C21.3303 13.549 21.4117 13.5152 21.4717 13.4552C21.5317 13.3952 21.5654 13.3138 21.5654 13.2289V10.0289C21.5654 9.94407 21.5317 9.86268 21.4717 9.80267C21.4117 9.74266 21.3303 9.70895 21.2454 9.70895H17.6657C17.5808 9.70895 17.4994 9.74266 17.4394 9.80267C17.3794 9.86268 17.3457 9.94407 17.3457 10.0289V13.2289C17.3481 13.313 17.3826 13.393 17.4421 13.4525C17.5016 13.512 17.5816 13.5465 17.6657 13.549Z" fill="#0091E2"/>
<path d="M22.6953 13.549H26.2751C26.3599 13.549 26.4413 13.5152 26.5013 13.4552C26.5614 13.3952 26.5951 13.3138 26.5951 13.2289V10.0289C26.5951 9.94407 26.5614 9.86268 26.5013 9.80267C26.4413 9.74266 26.3599 9.70895 26.2751 9.70895H22.6953C22.6105 9.70895 22.5291 9.74266 22.4691 9.80267C22.409 9.86268 22.3753 9.94407 22.3753 10.0289V13.2289C22.3734 13.2715 22.3803 13.314 22.3957 13.3537C22.411 13.3934 22.4345 13.4295 22.4647 13.4596C22.4948 13.4897 22.5309 13.5132 22.5706 13.5286C22.6103 13.544 22.6528 13.5509 22.6953 13.549Z" fill="#0091E2"/>
<path d="M27.6501 13.549H31.2298C31.3147 13.549 31.3961 13.5152 31.4561 13.4552C31.5161 13.3952 31.5498 13.3138 31.5498 13.2289V10.0289C31.5498 9.94407 31.5161 9.86268 31.4561 9.80267C31.3961 9.74266 31.3147 9.70895 31.2298 9.70895H27.6501C27.5652 9.70895 27.4838 9.74266 27.4238 9.80267C27.3638 9.86268 27.3301 9.94407 27.3301 10.0289V13.2289C27.3301 13.3138 27.3638 13.3952 27.4238 13.4552C27.4838 13.5152 27.5652 13.549 27.6501 13.549Z" fill="#0091E2"/>
<path d="M17.6657 8.9708H21.2454C21.3295 8.96813 21.4093 8.93357 21.4688 8.87412C21.5282 8.81468 21.5628 8.73484 21.5654 8.65082V5.45082C21.5654 5.40879 21.5572 5.36718 21.5411 5.32836C21.525 5.28953 21.5014 5.25426 21.4717 5.22455C21.442 5.19483 21.4067 5.17126 21.3679 5.15518C21.3291 5.1391 21.2875 5.1308 21.2454 5.1308H17.6657C17.6237 5.1308 17.5821 5.1391 17.5432 5.15518C17.5044 5.17126 17.4691 5.19483 17.4394 5.22455C17.4097 5.25426 17.3861 5.28953 17.3701 5.32836C17.354 5.36718 17.3457 5.40879 17.3457 5.45082V8.65082C17.3514 8.7338 17.387 8.81189 17.4458 8.87071C17.5046 8.92952 17.5827 8.96508 17.6657 8.9708Z" fill="#0091E2"/>
<path d="M22.695 8.9708H26.2747C26.3588 8.96813 26.4386 8.93357 26.498 8.87412C26.5575 8.81468 26.5921 8.73484 26.5947 8.65082V5.45082C26.5947 5.40879 26.5865 5.36718 26.5704 5.32836C26.5543 5.28953 26.5307 5.25426 26.501 5.22455C26.4713 5.19483 26.436 5.17126 26.3972 5.15518C26.3584 5.1391 26.3168 5.1308 26.2747 5.1308H22.695C22.653 5.1308 22.6114 5.1391 22.5725 5.15518C22.5337 5.17126 22.4984 5.19483 22.4687 5.22455C22.439 5.25426 22.4154 5.28953 22.3994 5.32836C22.3833 5.36718 22.375 5.40879 22.375 5.45082V8.65082C22.375 8.73569 22.4087 8.81708 22.4687 8.87709C22.5287 8.9371 22.6101 8.9708 22.695 8.9708Z" fill="#0091E2"/>
<path d="M27.6501 8.9708H31.2298C31.3138 8.96813 31.3937 8.93357 31.4531 8.87412C31.5126 8.81468 31.5471 8.73484 31.5498 8.65082V5.45082C31.5471 5.3668 31.5126 5.28695 31.4531 5.22751C31.3937 5.16807 31.3138 5.13347 31.2298 5.1308H27.6501C27.6081 5.1308 27.5664 5.1391 27.5276 5.15518C27.4888 5.17126 27.4535 5.19483 27.4238 5.22455C27.3941 5.25426 27.3705 5.28953 27.3544 5.32836C27.3384 5.36718 27.3301 5.40879 27.3301 5.45082V8.65082C27.3327 8.73484 27.3673 8.81468 27.4268 8.87412C27.4862 8.93357 27.5661 8.96813 27.6501 8.9708Z" fill="#0091E2"/>
<path d="M27.6501 4.37348H31.2298C31.3147 4.37348 31.3961 4.33976 31.4561 4.27975C31.5161 4.21974 31.5498 4.13835 31.5498 4.05348V0.853481C31.5471 0.769459 31.5126 0.689617 31.4531 0.630174C31.3937 0.570731 31.3138 0.536147 31.2298 0.533478H27.6501C27.6081 0.533478 27.5664 0.541762 27.5276 0.557843C27.4888 0.573925 27.4535 0.597497 27.4238 0.627212C27.3941 0.656926 27.3705 0.692196 27.3544 0.73102C27.3384 0.769844 27.3301 0.811458 27.3301 0.853481V4.05348C27.3327 4.1375 27.3673 4.21736 27.4268 4.2768C27.4862 4.33625 27.5661 4.37082 27.6501 4.37348Z" fill="#0091E2"/>
<path d="M32.6442 13.549H36.2239C36.266 13.549 36.3076 13.5407 36.3464 13.5246C36.3852 13.5085 36.4205 13.4849 36.4502 13.4552C36.4799 13.4255 36.5035 13.3902 36.5196 13.3514C36.5357 13.3126 36.5439 13.271 36.5439 13.2289V10.0289C36.5439 9.98692 36.5357 9.9453 36.5196 9.90648C36.5035 9.86766 36.4799 9.83239 36.4502 9.80267C36.4205 9.77296 36.3852 9.74938 36.3464 9.7333C36.3076 9.71722 36.266 9.70895 36.2239 9.70895H32.6442C32.6022 9.70895 32.5606 9.71722 32.5218 9.7333C32.4829 9.74938 32.4477 9.77296 32.4179 9.80267C32.3882 9.83239 32.3646 9.86766 32.3486 9.90648C32.3325 9.9453 32.3242 9.98692 32.3242 10.0289V13.2289C32.3266 13.313 32.3611 13.393 32.4206 13.4525C32.4801 13.512 32.5601 13.5465 32.6442 13.549Z" fill="#0091E2"/>
</svg>
