<svg width="133" height="25" viewBox="0 0 133 25" fill="none" xmlns="http://www.w3.org/2000/svg">
<path d="M98.7113 8.82452H89.1901C87.9618 8.82354 86.7833 9.30977 85.913 10.1766C85.0428 11.0434 84.5519 12.2199 84.548 13.4482V20.3148C84.5519 21.5432 85.0427 22.72 85.9129 23.587C86.7831 24.4541 87.9616 24.9408 89.1901 24.9403H98.7113C99.9398 24.9408 101.118 24.4541 101.988 23.587C102.859 22.72 103.35 21.5432 103.353 20.3148V13.4555C103.351 12.226 102.861 11.0475 101.991 10.1792C101.12 9.31079 99.9409 8.82354 98.7113 8.82452ZM100.954 20.3074C100.953 20.9011 100.716 21.47 100.295 21.8892C99.8747 22.3083 99.3051 22.5434 98.7113 22.543H89.1901C88.5965 22.543 88.0271 22.3077 87.6067 21.8886C87.1863 21.4696 86.9491 20.901 86.9472 20.3074V13.4555C86.9472 13.1611 87.0052 12.8695 87.1179 12.5975C87.2307 12.3255 87.3959 12.0784 87.6042 11.8702C87.8125 11.6621 88.0598 11.4971 88.3319 11.3846C88.604 11.272 88.8956 11.2142 89.1901 11.2145H98.7113C99.3047 11.214 99.8741 11.4489 100.295 11.8676C100.715 12.2864 100.952 12.8548 100.954 13.4482V20.3074ZM105.42 13.4482V24.8741H107.819V18.0976H114.902V15.7076H107.819V13.4555C107.819 13.1611 107.877 12.8695 107.99 12.5975C108.102 12.3255 108.268 12.0784 108.476 11.8702C108.684 11.6621 108.932 11.4971 109.204 11.3846C109.476 11.272 109.767 11.2142 110.062 11.2145H115.086V8.82452H110.067C109.458 8.82307 108.854 8.94174 108.291 9.17375C107.727 9.40577 107.215 9.74657 106.784 10.1767C106.352 10.6068 106.009 11.1177 105.775 11.6804C105.541 12.243 105.421 12.8462 105.42 13.4555V13.4482ZM77.9664 15.6911H69.1731C68.8743 15.6997 68.5768 15.6482 68.2981 15.5398C68.0195 15.4313 67.7655 15.2681 67.5511 15.0597C67.3367 14.8514 67.1662 14.6021 67.0498 14.3268C66.9335 14.0514 66.8735 13.7554 66.8735 13.4565C66.8735 13.1575 66.9335 12.8616 67.0498 12.5862C67.1662 12.3108 67.3367 12.0615 67.5511 11.8532C67.7655 11.6448 68.0195 11.4816 68.2981 11.3732C68.5768 11.2647 68.8743 11.2133 69.1731 11.2218H82.3106V8.82452H69.1731C68.5581 8.81225 67.9467 8.92281 67.3749 9.1497C66.8031 9.3766 66.2823 9.71529 65.8429 10.1459C65.4036 10.5766 65.0546 11.0905 64.8164 11.6577C64.5781 12.2249 64.4554 12.8339 64.4554 13.4491C64.4554 14.0643 64.5781 14.6733 64.8164 15.2405C65.0546 15.8077 65.4036 16.3216 65.8429 16.7523C66.2823 17.1829 66.8031 17.5216 67.3749 17.7485C67.9467 17.9754 68.5581 18.086 69.1731 18.0737H77.9664C78.2652 18.0651 78.5628 18.1166 78.8414 18.225C79.12 18.3335 79.374 18.4967 79.5884 18.7051C79.8028 18.9134 79.9733 19.1627 80.0897 19.438C80.2061 19.7134 80.266 20.0094 80.266 20.3083C80.266 20.6073 80.2061 20.9032 80.0897 21.1786C79.9733 21.454 79.8028 21.7032 79.5884 21.9116C79.374 22.12 79.12 22.2832 78.8414 22.3916C78.5628 22.5001 78.2652 22.5515 77.9664 22.543H64.8289V24.9329H77.9664C78.5815 24.9452 79.1928 24.8346 79.7646 24.6077C80.3364 24.3808 80.8572 24.0422 81.2966 23.6115C81.7359 23.1809 82.0849 22.6669 82.3231 22.0997C82.5614 21.5325 82.6841 20.9235 82.6841 20.3083C82.6841 19.6931 82.5614 19.0841 82.3231 18.5169C82.0849 17.9498 81.7359 17.4358 81.2966 17.0052C80.8572 16.5745 80.3364 16.2358 79.7646 16.0089C79.1928 15.782 78.5815 15.6715 77.9664 15.6837V15.6911ZM116.61 8.82452V11.2145H123.12V24.6884H125.51V11.2145H132.02V8.82452H116.61ZM18.9892 13.4482C18.9853 12.2187 18.4934 11.041 17.6216 10.174C16.7498 9.30696 15.5694 8.82159 14.3398 8.82452H0V24.9329H14.3398C15.2749 24.9364 16.1891 24.6557 16.9611 24.128C17.7331 23.6004 18.3265 22.8506 18.6628 21.978C18.9992 21.1055 19.0624 20.1513 18.8443 19.242C18.6261 18.3327 18.1369 17.5111 17.4413 16.8861C17.9251 16.455 18.3123 15.9266 18.5775 15.3354C18.8427 14.7441 18.9799 14.1035 18.9801 13.4555L18.9892 13.4482ZM14.3398 22.5503H2.39916V18.0811H14.3398C14.6387 18.0725 14.9362 18.1239 15.2148 18.2324C15.4934 18.3408 15.7475 18.5041 15.9619 18.7124C16.1763 18.9208 16.3467 19.17 16.4631 19.4454C16.5795 19.7208 16.6395 20.0167 16.6395 20.3157C16.6395 20.6147 16.5795 20.9106 16.4631 21.186C16.3467 21.4614 16.1763 21.7106 15.9619 21.919C15.7475 22.1273 15.4934 22.2905 15.2148 22.399C14.9362 22.5074 14.6387 22.5589 14.3398 22.5503ZM14.3398 15.6911H2.39916V11.2145H14.3398C14.6387 11.2059 14.9362 11.2574 15.2148 11.3658C15.4934 11.4743 15.7475 11.6375 15.9619 11.8458C16.1763 12.0542 16.3467 12.3034 16.4631 12.5788C16.5795 12.8542 16.6395 13.1501 16.6395 13.4491C16.6395 13.7481 16.5795 14.044 16.4631 14.3194C16.3467 14.5948 16.1763 14.844 15.9619 15.0524C15.7475 15.2607 15.4934 15.424 15.2148 15.5324C14.9362 15.6408 14.6387 15.6923 14.3398 15.6837V15.6911ZM21.2248 13.4555V20.3148C21.2287 21.5432 21.7195 22.72 22.5897 23.587C23.4599 24.4541 24.6384 24.9408 25.8668 24.9403H39.0062V22.5503H25.865C25.2713 22.5508 24.7016 22.3157 24.2811 21.8965C23.8606 21.4774 23.6236 20.9085 23.6221 20.3148V18.0976H38.9529V15.7076H23.6221V13.4555C23.6221 13.1611 23.6801 12.8695 23.7929 12.5975C23.9056 12.3255 24.0709 12.0784 24.2792 11.8702C24.4874 11.6621 24.7347 11.4971 25.0068 11.3846C25.2789 11.272 25.5706 11.2142 25.865 11.2145H39.0043V8.82452H25.865C24.6355 8.82354 23.4558 9.31079 22.5854 10.1792C21.7149 11.0475 21.2249 12.226 21.2229 13.4555H21.2248ZM47.9943 18.0976V8.91644H45.5933V18.7815C45.5948 19.2348 45.776 19.669 46.0972 19.9889C46.4184 20.3087 46.8534 20.4881 47.3067 20.4876H62.5768V18.0976H47.9943ZM43.161 20.3148V8.91644H40.7619V20.3148C40.7658 21.5442 41.2574 22.7217 42.1288 23.589C43.0001 24.4562 44.1801 24.9422 45.4095 24.9403H62.5842V22.5503H45.4095C44.8149 22.5518 44.2441 22.3171 43.8225 21.8979C43.4009 21.4787 43.163 20.9093 43.161 20.3148Z" fill="#1D1D1F"/>
<path d="M56.0521 4.4527H40.782V6.84267H55.3645V16.0238H57.7637V6.15877C57.7622 5.70579 57.5812 5.27185 57.2604 4.95206C56.9396 4.63227 56.5051 4.4527 56.0521 4.4527ZM57.9567 0H40.782V2.38997H57.9567C58.5503 2.38997 59.1196 2.62526 59.5401 3.0443C59.9605 3.46333 60.1976 4.03194 60.1996 4.62551V16.0238H62.5896V4.62551C62.5866 3.39837 62.0974 2.22244 61.2289 1.35541C60.3605 0.488377 59.1838 0.000969678 57.9567 0V0Z" fill="#009CAD"/>
</svg>
