<svg width="175" height="56" viewBox="0 0 175 56" fill="none" xmlns="http://www.w3.org/2000/svg">
<path d="M130.847 11.6974H118.226C116.598 11.6961 115.036 12.3406 113.882 13.4896C112.729 14.6386 112.078 16.1982 112.073 17.8263V26.9283C112.078 28.5567 112.729 30.1166 113.882 31.2659C115.036 32.4153 116.598 33.0604 118.226 33.0597H130.847C132.476 33.0604 134.038 32.4153 135.191 31.2659C136.345 30.1166 136.995 28.5567 137.001 26.9283V17.8361C136.998 16.2062 136.348 14.6441 135.195 13.493C134.041 12.342 132.477 11.6961 130.847 11.6974ZM133.82 26.9186C133.818 27.7056 133.504 28.4597 132.947 29.0153C132.389 29.5709 131.634 29.8826 130.847 29.8819H118.226C117.439 29.8819 116.685 29.57 116.127 29.0146C115.57 28.4591 115.256 27.7054 115.253 26.9186V17.8361C115.253 17.4458 115.33 17.0593 115.48 16.6987C115.629 16.3381 115.848 16.0105 116.124 15.7346C116.4 15.4588 116.728 15.24 117.089 15.0908C117.449 14.9417 117.836 14.8651 118.226 14.8654H130.847C131.634 14.8648 132.389 15.1761 132.946 15.7312C133.503 16.2863 133.818 17.0397 133.82 17.8263V26.9186ZM139.74 17.8263V32.972H142.92V23.9894H152.31V20.8213H142.92V17.8361C142.92 17.4458 142.997 17.0593 143.146 16.6987C143.296 16.3381 143.515 16.0105 143.791 15.7346C144.067 15.4588 144.395 15.24 144.755 15.0908C145.116 14.9417 145.503 14.8651 145.893 14.8654H152.553V11.6974H145.9C145.093 11.6955 144.292 11.8528 143.546 12.1603C142.799 12.4679 142.12 12.9196 141.548 13.4897C140.975 14.0599 140.521 14.7372 140.211 15.483C139.901 16.2287 139.741 17.0283 139.74 17.8361V17.8263ZM103.349 20.7994H91.6928C91.2966 20.8108 90.9022 20.7426 90.5329 20.5988C90.1636 20.4551 89.8269 20.2387 89.5427 19.9625C89.2585 19.6863 89.0325 19.3559 88.8782 18.9909C88.724 18.6259 88.6445 18.2336 88.6445 17.8373C88.6445 17.441 88.724 17.0487 88.8782 16.6837C89.0325 16.3186 89.2585 15.9882 89.5427 15.7121C89.8269 15.4359 90.1636 15.2195 90.5329 15.0758C90.9022 14.932 91.2966 14.8638 91.6928 14.8752H109.107V11.6974H91.6928C90.8775 11.6811 90.0671 11.8277 89.3091 12.1284C88.5511 12.4292 87.8608 12.8782 87.2784 13.449C86.6961 14.0198 86.2335 14.7011 85.9177 15.453C85.6018 16.2048 85.4392 17.0121 85.4392 17.8275C85.4392 18.643 85.6018 19.4503 85.9177 20.2021C86.2335 20.9539 86.6961 21.6352 87.2784 22.2061C87.8608 22.7769 88.5511 23.2259 89.3091 23.5266C90.0671 23.8274 90.8775 23.9739 91.6928 23.9577H103.349C103.745 23.9463 104.139 24.0145 104.509 24.1583C104.878 24.302 105.215 24.5184 105.499 24.7946C105.783 25.0708 106.009 25.4012 106.163 25.7662C106.318 26.1312 106.397 26.5235 106.397 26.9198C106.397 27.3161 106.318 27.7084 106.163 28.0734C106.009 28.4385 105.783 28.7688 105.499 29.045C105.215 29.3212 104.878 29.5376 104.509 29.6813C104.139 29.8251 103.745 29.8933 103.349 29.8819H85.9343V33.05H103.349C104.164 33.0662 104.974 32.9197 105.732 32.6189C106.49 32.3181 107.181 31.8692 107.763 31.2983C108.345 30.7275 108.808 30.0462 109.124 29.2944C109.44 28.5426 109.602 27.7353 109.602 26.9198C109.602 26.1043 109.44 25.2971 109.124 24.5452C108.808 23.7934 108.345 23.1121 107.763 22.5413C107.181 21.9704 106.49 21.5215 105.732 21.2207C104.974 20.9199 104.164 20.7734 103.349 20.7897V20.7994ZM154.573 11.6974V14.8654H163.203V32.7258H166.371V14.8654H175V11.6974H154.573ZM25.1713 17.8263C25.1661 16.1965 24.5141 14.6354 23.3584 13.4861C22.2027 12.3369 20.6381 11.6935 19.0082 11.6974H0V33.05H19.0082C20.2478 33.0546 21.4595 32.6825 22.4828 31.9831C23.5062 31.2836 24.2928 30.2897 24.7386 29.1331C25.1844 27.9764 25.2683 26.7117 24.9791 25.5063C24.6899 24.301 24.0414 23.2119 23.1194 22.3834C23.7607 21.8121 24.274 21.1116 24.6255 20.3279C24.977 19.5442 25.1589 18.695 25.1591 17.8361L25.1713 17.8263ZM19.0082 29.8917H3.18022V23.9674H19.0082C19.4044 23.9561 19.7988 24.0243 20.1681 24.168C20.5374 24.3118 20.8741 24.5282 21.1583 24.8043C21.4426 25.0805 21.6685 25.4109 21.8228 25.7759C21.977 26.141 22.0565 26.5333 22.0565 26.9296C22.0565 27.3259 21.977 27.7181 21.8228 28.0832C21.6685 28.4482 21.4426 28.7786 21.1583 29.0548C20.8741 29.331 20.5374 29.5473 20.1681 29.6911C19.7988 29.8348 19.4044 29.903 19.0082 29.8917ZM19.0082 20.7994H3.18022V14.8654H19.0082C19.4044 14.8541 19.7988 14.9223 20.1681 15.066C20.5374 15.2098 20.8741 15.4261 21.1583 15.7023C21.4426 15.9785 21.6685 16.3089 21.8228 16.6739C21.977 17.039 22.0565 17.4312 22.0565 17.8275C22.0565 18.2238 21.977 18.6161 21.8228 18.9812C21.6685 19.3462 21.4426 19.6766 21.1583 19.9528C20.8741 20.2289 20.5374 20.4453 20.1681 20.5891C19.7988 20.7328 19.4044 20.801 19.0082 20.7897V20.7994ZM28.1346 17.8361V26.9283C28.1398 28.5567 28.7904 30.1166 29.9439 31.2659C31.0974 32.4153 32.6596 33.0604 34.2879 33.0597H51.7048V29.8917H34.2855C33.4985 29.8923 32.7434 29.5806 32.1859 29.025C31.6285 28.4694 31.3143 27.7154 31.3124 26.9283V23.9894H51.6342V20.8213H31.3124V17.8361C31.3124 17.4458 31.3893 17.0593 31.5388 16.6987C31.6882 16.3381 31.9072 16.0105 32.1833 15.7346C32.4595 15.4588 32.7872 15.24 33.1479 15.0908C33.5086 14.9417 33.8952 14.8651 34.2855 14.8654H51.7024V11.6974H34.2855C32.6557 11.6961 31.092 12.342 29.9382 13.493C28.7844 14.6441 28.1348 16.2062 28.1322 17.8361H28.1346ZM63.6191 23.9894V11.8192H60.4364V24.8959C60.4384 25.4968 60.6786 26.0724 61.1044 26.4963C61.5302 26.9203 62.1068 27.1581 62.7077 27.1574H82.949V23.9894H63.6191ZM57.2123 26.9283V11.8192H54.0321V26.9283C54.0373 28.558 54.6889 30.1189 55.844 31.2685C56.9991 32.4181 58.5631 33.0623 60.1927 33.0597H82.9587V29.8917H60.1927C59.4046 29.8936 58.648 29.5826 58.0892 29.0269C57.5303 28.4712 57.2149 27.7164 57.2123 26.9283Z" fill="#1D1D1F"/>
<path d="M74.3002 5.9023H54.0588V9.07034H73.3887V21.2405H76.569V8.16379C76.567 7.56334 76.3271 6.98813 75.9019 6.56423C75.4766 6.14033 74.9006 5.9023 74.3002 5.9023ZM76.8248 1.90735e-06H54.0588V3.16804H76.8248C77.6117 3.16804 78.3664 3.47993 78.9237 4.03539C79.481 4.59084 79.7954 5.34455 79.7979 6.13137V21.2405H82.966V6.13137C82.9621 4.50473 82.3135 2.94597 81.1624 1.79667C80.0113 0.647372 78.4515 0.00128727 76.8248 1.90735e-06V1.90735e-06Z" fill="#009CAD"/>
<path d="M0.216 51.864V51.036C0.792 51.036 1.16 50.968 1.32 50.832C1.488 50.688 1.572 50.32 1.572 49.728V42.696H2.484L2.496 49.86C2.496 50.532 2.384 51.024 2.16 51.336C1.976 51.6 1.612 51.764 1.068 51.828C0.852 51.852 0.568 51.864 0.216 51.864ZM8.56875 46.812V49.884C8.59275 50.18 8.82475 50.356 9.26475 50.412L9.22875 51.12C8.59675 51.12 8.12075 50.96 7.80075 50.64C7.08075 50.96 6.36075 51.12 5.64075 51.12C5.08875 51.12 4.66875 50.964 4.38075 50.652C4.09275 50.34 3.94875 49.892 3.94875 49.308C3.94875 48.724 4.09675 48.296 4.39275 48.024C4.68875 47.744 5.15275 47.572 5.78475 47.508L7.66875 47.328V46.812C7.66875 46.404 7.58075 46.112 7.40475 45.936C7.22875 45.76 6.98875 45.672 6.68475 45.672C6.04475 45.672 5.38075 45.712 4.69275 45.792L4.32075 45.828L4.28475 45.144C5.16475 44.968 5.94475 44.88 6.62475 44.88C7.30475 44.88 7.79675 45.036 8.10075 45.348C8.41275 45.66 8.56875 46.148 8.56875 46.812ZM4.87275 49.26C4.87275 49.996 5.17675 50.364 5.78475 50.364C6.32875 50.364 6.86475 50.272 7.39275 50.088L7.66875 49.992V48.012L5.89275 48.18C5.53275 48.212 5.27275 48.316 5.11275 48.492C4.95275 48.668 4.87275 48.924 4.87275 49.26ZM9.72188 45H10.6819L12.0859 50.22H12.5299L13.9819 45H14.9059L13.2139 51H11.4139L9.72188 45ZM20.2055 46.812V49.884C20.2295 50.18 20.4615 50.356 20.9015 50.412L20.8655 51.12C20.2335 51.12 19.7575 50.96 19.4375 50.64C18.7175 50.96 17.9975 51.12 17.2775 51.12C16.7255 51.12 16.3055 50.964 16.0175 50.652C15.7295 50.34 15.5855 49.892 15.5855 49.308C15.5855 48.724 15.7335 48.296 16.0295 48.024C16.3255 47.744 16.7895 47.572 17.4215 47.508L19.3055 47.328V46.812C19.3055 46.404 19.2175 46.112 19.0415 45.936C18.8655 45.76 18.6255 45.672 18.3215 45.672C17.6815 45.672 17.0175 45.712 16.3295 45.792L15.9575 45.828L15.9215 45.144C16.8015 44.968 17.5815 44.88 18.2615 44.88C18.9415 44.88 19.4335 45.036 19.7375 45.348C20.0495 45.66 20.2055 46.148 20.2055 46.812ZM16.5095 49.26C16.5095 49.996 16.8135 50.364 17.4215 50.364C17.9655 50.364 18.5015 50.272 19.0295 50.088L19.3055 49.992V48.012L17.5295 48.18C17.1695 48.212 16.9095 48.316 16.7495 48.492C16.5895 48.668 16.5095 48.924 16.5095 49.26ZM27.8099 48.204H25.6979V51H24.7739V42.696H27.8099C28.7139 42.696 29.3819 42.916 29.8139 43.356C30.2459 43.796 30.4619 44.468 30.4619 45.372C30.4619 47.26 29.5779 48.204 27.8099 48.204ZM25.6979 47.388H27.7979C28.9419 47.388 29.5139 46.716 29.5139 45.372C29.5139 44.732 29.3779 44.264 29.1059 43.968C28.8339 43.664 28.3979 43.512 27.7979 43.512H25.6979V47.388ZM31.8032 51V42.384H32.7032V51H31.8032ZM38.7445 46.812V49.884C38.7685 50.18 39.0005 50.356 39.4405 50.412L39.4045 51.12C38.7725 51.12 38.2965 50.96 37.9765 50.64C37.2565 50.96 36.5365 51.12 35.8165 51.12C35.2645 51.12 34.8445 50.964 34.5565 50.652C34.2685 50.34 34.1245 49.892 34.1245 49.308C34.1245 48.724 34.2725 48.296 34.5685 48.024C34.8645 47.744 35.3285 47.572 35.9605 47.508L37.8445 47.328V46.812C37.8445 46.404 37.7565 46.112 37.5805 45.936C37.4045 45.76 37.1645 45.672 36.8605 45.672C36.2205 45.672 35.5565 45.712 34.8685 45.792L34.4965 45.828L34.4605 45.144C35.3405 44.968 36.1205 44.88 36.8005 44.88C37.4805 44.88 37.9725 45.036 38.2765 45.348C38.5885 45.66 38.7445 46.148 38.7445 46.812ZM35.0485 49.26C35.0485 49.996 35.3525 50.364 35.9605 50.364C36.5045 50.364 37.0405 50.272 37.5685 50.088L37.8445 49.992V48.012L36.0685 48.18C35.7085 48.212 35.4485 48.316 35.2885 48.492C35.1285 48.668 35.0485 48.924 35.0485 49.26ZM43.6283 45.78H41.7203V48.648C41.7203 49.336 41.7683 49.788 41.8643 50.004C41.9683 50.22 42.2083 50.328 42.5843 50.328L43.6523 50.256L43.7123 51C43.1763 51.088 42.7683 51.132 42.4883 51.132C41.8643 51.132 41.4323 50.98 41.1923 50.676C40.9523 50.372 40.8323 49.792 40.8323 48.936V45.78H39.9803V45H40.8323V43.164H41.7203V45H43.6283V45.78ZM45.8793 45.78V51H44.9793V45.78H44.2233V45H44.9793V44.46C44.9793 43.612 45.0993 43.036 45.3393 42.732C45.5793 42.42 45.9993 42.264 46.5993 42.264L47.8113 42.348L47.7993 43.092C47.3513 43.076 46.9793 43.068 46.6833 43.068C46.3953 43.068 46.1873 43.164 46.0593 43.356C45.9393 43.548 45.8793 43.92 45.8793 44.472V45H47.6193V45.78H45.8793ZM48.3305 47.988C48.3305 46.892 48.5265 46.1 48.9185 45.612C49.3105 45.124 49.9705 44.88 50.8985 44.88C51.8345 44.88 52.4945 45.124 52.8785 45.612C53.2705 46.1 53.4665 46.892 53.4665 47.988C53.4665 49.084 53.2825 49.88 52.9145 50.376C52.5465 50.872 51.8745 51.12 50.8985 51.12C49.9225 51.12 49.2505 50.872 48.8825 50.376C48.5145 49.88 48.3305 49.084 48.3305 47.988ZM49.2545 47.976C49.2545 48.848 49.3585 49.46 49.5665 49.812C49.7825 50.164 50.2265 50.34 50.8985 50.34C51.5785 50.34 52.0225 50.168 52.2305 49.824C52.4385 49.472 52.5425 48.856 52.5425 47.976C52.5425 47.096 52.4265 46.492 52.1945 46.164C51.9625 45.828 51.5305 45.66 50.8985 45.66C50.2745 45.66 49.8425 45.828 49.6025 46.164C49.3705 46.492 49.2545 47.096 49.2545 47.976ZM54.9343 51V45H55.8223V45.816C56.5183 45.336 57.2503 45.02 58.0183 44.868V45.78C57.6823 45.844 57.3303 45.944 56.9623 46.08C56.6023 46.216 56.3263 46.336 56.1343 46.44L55.8343 46.596V51H54.9343ZM59.9827 51H59.0828V45H59.9708V45.42C60.5708 45.06 61.1548 44.88 61.7228 44.88C62.4668 44.88 62.9868 45.084 63.2828 45.492C63.5468 45.332 63.8868 45.192 64.3028 45.072C64.7268 44.944 65.0988 44.88 65.4188 44.88C66.2188 44.88 66.7548 45.096 67.0268 45.528C67.3068 45.952 67.4468 46.72 67.4468 47.832V51H66.5468V47.856C66.5468 47.024 66.4668 46.456 66.3068 46.152C66.1468 45.84 65.8068 45.684 65.2868 45.684C65.0228 45.684 64.7508 45.724 64.4708 45.804C64.1908 45.876 63.9748 45.948 63.8228 46.02L63.5948 46.128C63.6988 46.392 63.7508 46.976 63.7508 47.88V51H62.8508V47.904C62.8508 47.04 62.7708 46.456 62.6108 46.152C62.4588 45.84 62.1188 45.684 61.5908 45.684C61.3348 45.684 61.0708 45.724 60.7988 45.804C60.5348 45.876 60.3308 45.948 60.1868 46.02L59.9827 46.128V51ZM72.5667 44.352C72.5667 43.816 72.7507 43.388 73.1187 43.068C73.4867 42.748 74.0067 42.588 74.6787 42.588C75.3507 42.588 75.8587 42.748 76.2027 43.068C76.5547 43.388 76.7307 43.832 76.7307 44.4C76.7307 44.96 76.5907 45.404 76.3107 45.732C76.0307 46.052 75.5547 46.368 74.8827 46.68L76.7067 48.48C76.8827 47.968 76.9947 47.32 77.0427 46.536L77.9187 46.548C77.8147 47.548 77.6307 48.38 77.3667 49.044L78.9147 50.508L78.3747 51.108L76.9227 49.752C76.3707 50.664 75.5347 51.12 74.4147 51.12C73.2947 51.12 72.5107 50.904 72.0627 50.472C71.6147 50.04 71.3907 49.444 71.3907 48.684C71.3907 47.916 71.5347 47.356 71.8227 47.004C72.1187 46.644 72.5947 46.356 73.2507 46.14C72.9707 45.82 72.7867 45.536 72.6987 45.288C72.6107 45.04 72.5667 44.728 72.5667 44.352ZM74.2707 50.304C75.2547 50.304 75.9307 49.944 76.2987 49.224L73.7667 46.704C73.2387 46.872 72.8627 47.088 72.6387 47.352C72.4147 47.616 72.3027 48.024 72.3027 48.576C72.3027 49.728 72.9587 50.304 74.2707 50.304ZM73.4667 44.496C73.4667 44.984 73.6467 45.42 74.0067 45.804L74.3547 46.14C74.9067 45.9 75.2907 45.664 75.5067 45.432C75.7227 45.2 75.8307 44.88 75.8307 44.472C75.8307 43.736 75.4347 43.368 74.6427 43.368C73.8587 43.368 73.4667 43.744 73.4667 44.496ZM82.0732 51L84.3532 42.696H86.3692L88.6492 51H87.7372L87.1372 48.864H83.5852L82.9852 51H82.0732ZM85.0492 43.488L83.7892 48.036H86.9332L85.6732 43.488H85.0492ZM89.7976 53.664V45H90.6856V45.432C91.2936 45.064 91.8936 44.88 92.4856 44.88C93.2456 44.88 93.7976 45.124 94.1416 45.612C94.4856 46.092 94.6576 46.888 94.6576 48C94.6576 49.112 94.4536 49.912 94.0456 50.4C93.6456 50.88 92.9776 51.12 92.0416 51.12C91.5536 51.12 91.1056 51.076 90.6976 50.988V53.664H89.7976ZM92.3536 45.684C92.1136 45.684 91.8536 45.724 91.5736 45.804C91.3016 45.884 91.0856 45.964 90.9256 46.044L90.6976 46.164V50.208C91.2656 50.296 91.6976 50.34 91.9936 50.34C92.6416 50.34 93.0936 50.156 93.3496 49.788C93.6136 49.42 93.7456 48.82 93.7456 47.988C93.7456 47.156 93.6256 46.564 93.3856 46.212C93.1536 45.86 92.8096 45.684 92.3536 45.684ZM96.1257 53.664V45H97.0137V45.432C97.6217 45.064 98.2217 44.88 98.8137 44.88C99.5737 44.88 100.126 45.124 100.47 45.612C100.814 46.092 100.986 46.888 100.986 48C100.986 49.112 100.782 49.912 100.374 50.4C99.9737 50.88 99.3057 51.12 98.3697 51.12C97.8817 51.12 97.4337 51.076 97.0257 50.988V53.664H96.1257ZM98.6817 45.684C98.4417 45.684 98.1817 45.724 97.9017 45.804C97.6297 45.884 97.4137 45.964 97.2537 46.044L97.0257 46.164V50.208C97.5937 50.296 98.0257 50.34 98.3217 50.34C98.9697 50.34 99.4217 50.156 99.6777 49.788C99.9417 49.42 100.074 48.82 100.074 47.988C100.074 47.156 99.9537 46.564 99.7137 46.212C99.4817 45.86 99.1377 45.684 98.6817 45.684ZM102.526 51V42.384H103.426V51H102.526ZM105.231 51V45H106.131V51H105.231ZM105.231 43.644V42.6H106.131V43.644H105.231ZM110.1 44.88C110.364 44.88 110.812 44.928 111.444 45.024L111.732 45.06L111.696 45.792C111.056 45.72 110.584 45.684 110.28 45.684C109.6 45.684 109.136 45.848 108.888 46.176C108.648 46.496 108.528 47.096 108.528 47.976C108.528 48.848 108.64 49.456 108.864 49.8C109.096 50.144 109.572 50.316 110.292 50.316L111.708 50.208L111.744 50.952C111 51.064 110.444 51.12 110.076 51.12C109.14 51.12 108.492 50.88 108.132 50.4C107.78 49.92 107.604 49.112 107.604 47.976C107.604 46.832 107.796 46.032 108.18 45.576C108.564 45.112 109.204 44.88 110.1 44.88ZM117.319 46.812V49.884C117.343 50.18 117.575 50.356 118.015 50.412L117.979 51.12C117.347 51.12 116.871 50.96 116.551 50.64C115.831 50.96 115.111 51.12 114.391 51.12C113.839 51.12 113.419 50.964 113.131 50.652C112.843 50.34 112.699 49.892 112.699 49.308C112.699 48.724 112.847 48.296 113.143 48.024C113.439 47.744 113.903 47.572 114.535 47.508L116.419 47.328V46.812C116.419 46.404 116.331 46.112 116.155 45.936C115.979 45.76 115.739 45.672 115.435 45.672C114.795 45.672 114.131 45.712 113.443 45.792L113.071 45.828L113.035 45.144C113.915 44.968 114.695 44.88 115.375 44.88C116.055 44.88 116.547 45.036 116.851 45.348C117.163 45.66 117.319 46.148 117.319 46.812ZM113.623 49.26C113.623 49.996 113.927 50.364 114.535 50.364C115.079 50.364 115.615 50.272 116.143 50.088L116.419 49.992V48.012L114.643 48.18C114.283 48.212 114.023 48.316 113.863 48.492C113.703 48.668 113.623 48.924 113.623 49.26ZM122.202 45.78H120.294V48.648C120.294 49.336 120.342 49.788 120.438 50.004C120.542 50.22 120.782 50.328 121.158 50.328L122.226 50.256L122.286 51C121.75 51.088 121.342 51.132 121.062 51.132C120.438 51.132 120.006 50.98 119.766 50.676C119.526 50.372 119.406 49.792 119.406 48.936V45.78H118.554V45H119.406V43.164H120.294V45H122.202V45.78ZM123.302 51V45H124.201V51H123.302ZM123.302 43.644V42.6H124.201V43.644H123.302ZM125.663 47.988C125.663 46.892 125.859 46.1 126.251 45.612C126.643 45.124 127.303 44.88 128.23 44.88C129.167 44.88 129.827 45.124 130.211 45.612C130.603 46.1 130.799 46.892 130.799 47.988C130.799 49.084 130.615 49.88 130.247 50.376C129.879 50.872 129.207 51.12 128.23 51.12C127.255 51.12 126.583 50.872 126.215 50.376C125.847 49.88 125.663 49.084 125.663 47.988ZM126.587 47.976C126.587 48.848 126.691 49.46 126.899 49.812C127.115 50.164 127.559 50.34 128.23 50.34C128.911 50.34 129.355 50.168 129.563 49.824C129.771 49.472 129.875 48.856 129.875 47.976C129.875 47.096 129.759 46.492 129.527 46.164C129.295 45.828 128.863 45.66 128.23 45.66C127.607 45.66 127.175 45.828 126.935 46.164C126.703 46.492 126.587 47.096 126.587 47.976ZM133.166 51H132.266V45H133.154V45.42C133.802 45.06 134.422 44.88 135.014 44.88C135.814 44.88 136.35 45.096 136.622 45.528C136.902 45.96 137.042 46.728 137.042 47.832V51H136.154V47.856C136.154 47.024 136.07 46.456 135.902 46.152C135.742 45.84 135.394 45.684 134.858 45.684C134.602 45.684 134.33 45.724 134.042 45.804C133.762 45.876 133.546 45.948 133.394 46.02L133.166 46.128V51ZM141.504 51V42.696H146.556V43.512H142.428V46.38H145.836V47.184H142.428V50.184H146.556V51H141.504ZM147.288 45H148.248L149.652 50.22H150.096L151.548 45H152.472L150.78 51H148.98L147.288 45ZM157.604 50.256L157.952 50.22L157.976 50.928C157.064 51.056 156.284 51.12 155.636 51.12C154.772 51.12 154.16 50.872 153.8 50.376C153.44 49.872 153.26 49.092 153.26 48.036C153.26 45.932 154.096 44.88 155.768 44.88C156.576 44.88 157.18 45.108 157.58 45.564C157.98 46.012 158.18 46.72 158.18 47.688L158.132 48.372H154.172C154.172 49.036 154.292 49.528 154.532 49.848C154.772 50.168 155.188 50.328 155.78 50.328C156.38 50.328 156.988 50.304 157.604 50.256ZM157.28 47.652C157.28 46.916 157.16 46.396 156.92 46.092C156.688 45.788 156.304 45.636 155.768 45.636C155.24 45.636 154.84 45.796 154.568 46.116C154.304 46.436 154.168 46.948 154.16 47.652H157.28ZM160.483 51H159.583V45H160.471V45.42C161.119 45.06 161.739 44.88 162.331 44.88C163.131 44.88 163.667 45.096 163.939 45.528C164.219 45.96 164.359 46.728 164.359 47.832V51H163.471V47.856C163.471 47.024 163.387 46.456 163.219 46.152C163.059 45.84 162.711 45.684 162.175 45.684C161.919 45.684 161.647 45.724 161.359 45.804C161.079 45.876 160.863 45.948 160.711 46.02L160.483 46.128V51ZM169.101 45.78H167.193V48.648C167.193 49.336 167.241 49.788 167.337 50.004C167.441 50.22 167.681 50.328 168.057 50.328L169.125 50.256L169.185 51C168.649 51.088 168.241 51.132 167.961 51.132C167.337 51.132 166.905 50.98 166.665 50.676C166.425 50.372 166.305 49.792 166.305 48.936V45.78H165.453V45H166.305V43.164H167.193V45H169.101V45.78ZM172.084 45.684C171.212 45.684 170.776 45.988 170.776 46.596C170.776 46.876 170.876 47.076 171.076 47.196C171.276 47.308 171.732 47.428 172.444 47.556C173.156 47.676 173.66 47.848 173.956 48.072C174.252 48.296 174.4 48.716 174.4 49.332C174.4 49.948 174.2 50.4 173.8 50.688C173.408 50.976 172.832 51.12 172.072 51.12C171.576 51.12 170.992 51.064 170.32 50.952L169.96 50.892L170.008 50.112C170.92 50.248 171.608 50.316 172.072 50.316C172.536 50.316 172.888 50.244 173.128 50.1C173.376 49.948 173.5 49.7 173.5 49.356C173.5 49.004 173.396 48.768 173.188 48.648C172.98 48.52 172.524 48.4 171.82 48.288C171.116 48.176 170.616 48.012 170.32 47.796C170.024 47.58 169.876 47.18 169.876 46.596C169.876 46.012 170.08 45.58 170.488 45.3C170.904 45.02 171.42 44.88 172.036 44.88C172.524 44.88 173.136 44.936 173.872 45.048L174.208 45.108L174.184 45.876C173.296 45.748 172.596 45.684 172.084 45.684Z" fill="#1D1D1F"/>
</svg>
