<svg width="47" height="56" viewBox="0 0 47 56" fill="none" xmlns="http://www.w3.org/2000/svg">
<g clip-path="url(#clip0)">
<path d="M45.9 14.7C45.8 13.3 45.8 11.9 45.8 10.6C45.8 9.6 45 8.7 43.9 8.7C35.9 8.6 29.8 6.4 24.7 1.4C24 0.7 22.8 0.7 22.1 1.4C17 6.4 10.9 8.7 3.00001 8.7C2.00001 8.7 1.10001 9.5 1.10001 10.6C1.10001 11.9 1.10001 13.3 1.00001 14.7C0.800006 28.2 0.400005 46.6 22.8 54.3C23 54.4 23.2 54.4 23.4 54.4C23.6 54.4 23.8 54.3 24 54.3C46.5 46.6 46.1 28.2 45.9 14.7Z" stroke="#008B9A" stroke-width="2" stroke-miterlimit="10"/>
<path d="M14 26.7345L19.3564 32.3628C19.7606 32.7876 20.1649 33 20.7713 33C21.2766 33 21.7819 32.7876 22.1862 32.3628L33 21" stroke="#008B9A" stroke-width="2" stroke-miterlimit="10" stroke-linecap="round"/>
</g>
<defs>
<clipPath id="clip0">
<rect width="46.9" height="55.5" fill="white"/>
</clipPath>
</defs>
</svg>
