<svg width="32" height="32" viewBox="0 0 32 32" fill="none" xmlns="http://www.w3.org/2000/svg">
<mask id="path-1-inside-1" fill="white">
<path d="M32 16C32 24.8366 24.8366 32 16 32C7.16344 32 0 24.8366 0 16C0 7.16344 7.16344 0 16 0C24.8366 0 32 7.16344 32 16Z"/>
</mask>
<path d="M30 16C30 23.732 23.732 30 16 30V34C25.9411 34 34 25.9411 34 16H30ZM16 30C8.26801 30 2 23.732 2 16H-2C-2 25.9411 6.05887 34 16 34V30ZM2 16C2 8.26801 8.26801 2 16 2V-2C6.05887 -2 -2 6.05887 -2 16H2ZM16 2C23.732 2 30 8.26801 30 16H34C34 6.05887 25.9411 -2 16 -2V2Z" fill="#008B9A" mask="url(#path-1-inside-1)"/>
<path d="M11.0505 22.3641L9.63625 20.9498L14.5859 15.9999L9.63625 11.0502L11.0506 9.6361L16.0002 14.5858L20.9499 9.63598L22.3642 11.0503L17.4144 16.0001L22.3642 20.9499L20.95 22.3641L16.0002 17.4142L11.0505 22.3641Z" fill="#008B9A"/>
</svg>
