<svg width="450" height="266" viewBox="0 0 450 266" fill="none" xmlns="http://www.w3.org/2000/svg">
<path d="M88.5 208.9L152.8 248.4C159.4 252.4 167.7 252.6 174.4 248.7L325.7 161.2C332.4 157.3 340.6 157.4 347.2 161.4L405.5 196.9" stroke="url(#paint0_linear)" stroke-miterlimit="10"/>
<path opacity="0.5" d="M136.2 202.6C140.4 205 140.5 209 136.2 211.5L77.7 245.5C73.5 247.9 66.6 247.9 62.4 245.5L3.50001 211.5C-0.699993 209 -0.799993 205.1 3.40001 202.6L61.9 168.6C66.1 166.2 73 166.2 77.2 168.6L136.2 202.6Z" fill="url(#paint1_linear)"/>
<path d="M136.3 182L77.8 216C73.6 218.4 66.7 218.4 62.5 216L3.60002 182C1.50002 180.8 0.400018 179.1 0.400018 177.5L0.300018 186C0.300018 187.6 1.40002 189.2 3.50002 190.5L62.4 224.5C66.6 226.9 73.5 226.9 77.7 224.5L136.2 190.5C138.3 189.3 139.3 187.7 139.3 186.1L139.4 177.6C139.4 179.2 138.4 180.8 136.3 182Z" fill="url(#paint2_linear)"/>
<path d="M136.3 182L77.8 216C73.6 218.4 66.7 218.4 62.5 216L3.60002 182C1.50002 180.8 0.400018 179.1 0.400018 177.5L0.300018 186C0.300018 187.6 1.40002 189.2 3.50002 190.5L62.4 224.5C66.6 226.9 73.5 226.9 77.7 224.5L136.2 190.5C138.3 189.3 139.3 187.7 139.3 186.1L139.4 177.6C139.4 179.2 138.4 180.8 136.3 182Z" fill="url(#paint3_linear)" stroke="white" stroke-width="0.5" stroke-miterlimit="10"/>
<path d="M136.2 173.1C140.4 175.5 140.5 179.5 136.2 182L77.7 216C73.5 218.4 66.6 218.4 62.4 216L3.60001 182C-0.599987 179.5 -0.699987 175.6 3.50001 173.1L62 139.1C66.2 136.7 73.1 136.7 77.3 139.1L136.2 173.1Z" fill="url(#paint4_linear)"/>
<path d="M116.3 174.5C119.3 176.2 119.3 179 116.3 180.7L75.4 204.5C72.5 206.2 67.7 206.2 64.7 204.5L23.5 180.7C20.5 179 20.5 176.2 23.5 174.5L64.4 150.7C67.3 149 72.1 149 75.1 150.7L116.3 174.5Z" fill="url(#paint5_linear)"/>
<g opacity="0.5">
<path opacity="0.5" d="M446.3 212.6C450.2 214.9 450.2 218.5 446.4 220.8L406.6 243.9C402.7 246.2 396.4 246.2 392.5 243.9L352.4 220.8C348.5 218.5 348.5 214.9 352.4 212.6L392.2 189.5C396.1 187.2 402.4 187.2 406.3 189.5L446.3 212.6Z" fill="url(#paint6_linear)"/>
</g>
<path d="M446.4 187L406.6 210.1C402.7 212.4 396.4 212.4 392.5 210.1L352.3 187C350.3 185.9 349.3 184.4 349.3 182.9L349.2 204.2C349.2 205.7 350.2 207.2 352.2 208.3L392.3 231.4C396.2 233.7 402.5 233.7 406.4 231.4L446.2 208.3C448.1 207.2 449.1 205.7 449.1 204.2L449.2 182.9C449.2 184.4 448.3 185.9 446.4 187Z" fill="url(#paint7_linear)" stroke="white" stroke-width="0.5" stroke-miterlimit="10"/>
<path d="M399.4 233.7C396.7 233.7 394.1 233.1 392 231.9L351.9 208.8C349.8 207.6 348.6 205.9 348.6 204.1L348.7 182.8H349.9C349.9 184.1 350.8 185.4 352.5 186.4L392.6 209.5C396.3 211.7 402.4 211.7 406.1 209.5L445.9 186.4C447.6 185.4 448.5 184.2 448.5 182.9H449.7L449.6 204.2C449.6 206 448.5 207.6 446.4 208.8L406.6 231.9C404.7 233.1 402.1 233.7 399.4 233.7ZM349.9 185.9V204.2C349.9 205.5 350.8 206.8 352.5 207.8L392.6 230.9C396.3 233.1 402.4 233.1 406.1 230.9L445.9 207.8C447.6 206.8 448.5 205.6 448.5 204.3L448.6 186C448.1 186.6 447.4 187.1 446.6 187.6L406.8 210.7C402.7 213.1 396.1 213.1 392.1 210.7L352 187.5C351.1 187 350.5 186.5 349.9 185.9Z" fill="white"/>
<path d="M446.3 178.8C450.2 181.1 450.2 184.7 446.4 187L406.6 210.1C402.7 212.4 396.4 212.4 392.5 210.1L352.3 187C348.4 184.7 348.4 181.1 352.3 178.8L392.1 155.7C396 153.4 402.3 153.4 406.2 155.7L446.3 178.8Z" fill="url(#paint8_linear)"/>
<path d="M432.6 167.7L404.4 184.1C401.6 185.7 397.2 185.7 394.4 184.1L366 167.7C364.6 166.9 363.9 165.8 363.9 164.8V182.8C363.9 183.9 364.6 184.9 366 185.7L394.4 202.1C397.2 203.7 401.7 203.7 404.4 202.1L432.6 185.7C434 184.9 434.7 183.9 434.7 182.8V164.8C434.7 165.9 434 166.9 432.6 167.7Z" fill="url(#paint9_linear)"/>
<path d="M432.6 161.9C435.4 163.5 435.4 166.1 432.6 167.7L404.4 184.1C401.6 185.7 397.2 185.7 394.4 184.1L366 167.7C363.2 166.1 363.2 163.5 366 161.9L394.2 145.5C397 143.9 401.4 143.9 404.2 145.5L432.6 161.9Z" fill="url(#paint10_linear)"/>
<path d="M432.6 151.5C435.4 153.1 435.4 155.7 432.6 157.3L404.4 173.7C401.6 175.3 397.2 175.3 394.4 173.7L366 157.3C363.2 155.7 363.2 153.1 366 151.5L394.2 135.1C397 133.5 401.4 133.5 404.2 135.1L432.6 151.5Z" fill="url(#paint11_linear)"/>
<path opacity="0.5" d="M322.7 215.2C327.5 218 327.5 222.4 322.8 225.2L256.9 263.5C252.2 266.3 244.4 266.3 239.7 263.5L173.4 225.2C168.6 222.4 168.6 218 173.3 215.2L239.2 176.9C243.9 174.1 251.7 174.1 256.4 176.9L322.7 215.2Z" fill="url(#paint12_linear)"/>
<path d="M322.8 191.9L256.9 230.2C252.2 233 244.4 233 239.7 230.2L173.4 191.9C171 190.5 169.8 188.7 169.8 186.9L169.7 196.4C169.7 198.2 170.9 200 173.3 201.4L239.6 239.7C244.4 242.5 252.1 242.5 256.8 239.7L322.7 201.4C325.1 200 326.2 198.2 326.2 196.4L326.3 186.9C326.3 188.8 325.1 190.5 322.8 191.9Z" fill="url(#paint13_linear)"/>
<path d="M322.8 191.9L256.9 230.2C252.2 233 244.4 233 239.7 230.2L173.4 191.9C171 190.5 169.8 188.7 169.8 186.9L169.7 196.4C169.7 198.2 170.9 200 173.3 201.4L239.6 239.7C244.4 242.5 252.1 242.5 256.8 239.7L322.7 201.4C325.1 200 326.2 198.2 326.2 196.4L326.3 186.9C326.3 188.8 325.1 190.5 322.8 191.9Z" fill="url(#paint14_linear)" stroke="white" stroke-width="0.5" stroke-miterlimit="10"/>
<path d="M322.7 181.9C327.5 184.7 327.5 189.1 322.8 191.9L256.9 230.2C252.2 233 244.4 233 239.7 230.2L173.4 191.9C168.6 189.1 168.6 184.7 173.3 181.9L239.2 143.6C243.9 140.8 251.7 140.8 256.4 143.6L322.7 181.9Z" fill="url(#paint15_linear)"/>
<path d="M300.3 183.4C303.6 185.3 303.7 188.5 300.3 190.4L254.2 217.2C250.9 219.1 245.5 219.1 242.2 217.2L195.9 190.4C192.6 188.5 192.5 185.3 195.9 183.4L242 156.6C245.3 154.7 250.7 154.7 254.1 156.6L300.3 183.4Z" fill="url(#paint16_linear)"/>
<path d="M302.7 186.3V0H193.6V185.8C193 187.4 193.7 189.2 195.9 190.4L242.2 217.2C245.5 219.1 250.9 219.1 254.2 217.2L300.3 190.4C302.2 189.3 303 187.8 302.7 186.3Z" fill="url(#paint17_linear)"/>
<path d="M247 31.7V217.5C246.9 217.8 246.8 218.2 246.8 218.5C249.4 218.8 252.2 218.3 254.2 217.1L300.3 190.3C302.2 189.2 303 187.7 302.7 186.2V31.7H247Z" fill="url(#paint18_linear)"/>
<path d="M231.8 136.7V142.1L226.7 145V139.7L231.8 136.7Z" fill="url(#paint19_linear)"/>
<path d="M226.7 139.7V145L221.5 142.1L221.6 136.7L226.7 139.7Z" fill="url(#paint20_linear)"/>
<path d="M231.8 136.7L226.7 139.7L221.6 136.7L226.7 133.8L231.8 136.7Z" fill="url(#paint21_linear)"/>
<path d="M270.9 108.4V113.7L265.8 116.7V111.4L270.9 108.4Z" fill="url(#paint22_linear)"/>
<path d="M265.8 111.4V116.7L260.7 113.7V108.4L265.8 111.4Z" fill="url(#paint23_linear)"/>
<path d="M270.9 108.4L265.8 111.4L260.7 108.4L265.8 105.4L270.9 108.4Z" fill="url(#paint24_linear)"/>
<path d="M229.5 75.1V80.4L224.4 83.4V78.1L229.5 75.1Z" fill="url(#paint25_linear)"/>
<path d="M224.4 78.1V83.4L219.3 80.4V75.1L224.4 78.1Z" fill="url(#paint26_linear)"/>
<path d="M229.5 75.1L224.4 78.1L219.3 75.1L224.4 72.1L229.5 75.1Z" fill="url(#paint27_linear)"/>
<path d="M276.1 166.1V171.4L271 174.4V169.1L276.1 166.1Z" fill="url(#paint28_linear)"/>
<path d="M271 169.1V174.4L265.9 171.4V166.1L271 169.1Z" fill="url(#paint29_linear)"/>
<path d="M276.1 166.1L271 169.1L265.9 166.1L271 163.1L276.1 166.1Z" fill="url(#paint30_linear)"/>
<defs>
<linearGradient id="paint0_linear" x1="247.025" y1="252.027" x2="247.025" y2="157.904" gradientUnits="userSpaceOnUse">
<stop stop-color="#008B9A"/>
<stop offset="0.1951" stop-color="#01A0B0"/>
<stop offset="0.5314" stop-color="#01C0D1"/>
<stop offset="0.8119" stop-color="#02D3E6"/>
<stop offset="1" stop-color="#02DAED"/>
</linearGradient>
<linearGradient id="paint1_linear" x1="68.3675" y1="286.648" x2="71.7295" y2="111.822" gradientUnits="userSpaceOnUse">
<stop stop-color="#A6D5E8"/>
<stop offset="0.1065" stop-color="#AFDAEA"/>
<stop offset="0.7033" stop-color="#DFF5F3"/>
<stop offset="1" stop-color="#F2FFF7"/>
</linearGradient>
<linearGradient id="paint2_linear" x1="-22.6805" y1="223.18" x2="165.019" y2="156.01" gradientUnits="userSpaceOnUse">
<stop stop-color="#A3AEEB"/>
<stop offset="0.1545" stop-color="#B1BCED"/>
<stop offset="0.7192" stop-color="#E0ECF4"/>
<stop offset="1" stop-color="#F2FFF7"/>
</linearGradient>
<linearGradient id="paint3_linear" x1="-22.6805" y1="223.18" x2="165.019" y2="156.01" gradientUnits="userSpaceOnUse">
<stop stop-color="#A6D7E8"/>
<stop offset="0.07497" stop-color="#ACD9E9"/>
<stop offset="0.6928" stop-color="#DCEAEF"/>
<stop offset="1" stop-color="#EFF1F2"/>
</linearGradient>
<linearGradient id="paint4_linear" x1="25.525" y1="198.461" x2="106.887" y2="160.133" gradientUnits="userSpaceOnUse">
<stop stop-color="#F2F9F7"/>
<stop offset="1" stop-color="#EFF0F2"/>
</linearGradient>
<linearGradient id="paint5_linear" x1="38.872" y1="192.173" x2="95.7607" y2="165.375" gradientUnits="userSpaceOnUse">
<stop stop-color="#008B9A"/>
<stop offset="0.1951" stop-color="#01A0B0"/>
<stop offset="0.5314" stop-color="#01C0D1"/>
<stop offset="0.8119" stop-color="#02D3E6"/>
<stop offset="1" stop-color="#02DAED"/>
</linearGradient>
<linearGradient id="paint6_linear" x1="349.342" y1="216.702" x2="449.249" y2="216.702" gradientUnits="userSpaceOnUse">
<stop stop-color="#A6D5E8"/>
<stop offset="0.1065" stop-color="#AFDAEA"/>
<stop offset="0.7033" stop-color="#DFF5F3"/>
<stop offset="1" stop-color="#F2FFF7"/>
</linearGradient>
<linearGradient id="paint7_linear" x1="399.265" y1="281.455" x2="399.265" y2="148.704" gradientUnits="userSpaceOnUse">
<stop stop-color="#A6D7E8"/>
<stop offset="0.07497" stop-color="#ACD9E9"/>
<stop offset="0.6928" stop-color="#DCEAEF"/>
<stop offset="1" stop-color="#EFF1F2"/>
</linearGradient>
<linearGradient id="paint8_linear" x1="349.342" y1="182.911" x2="449.249" y2="182.911" gradientUnits="userSpaceOnUse">
<stop stop-color="#F2F9F7"/>
<stop offset="1" stop-color="#EFF0F2"/>
</linearGradient>
<linearGradient id="paint9_linear" x1="433.838" y1="184.058" x2="370.812" y2="184.058" gradientUnits="userSpaceOnUse">
<stop stop-color="#21A0A3"/>
<stop offset="0.1744" stop-color="#1EA9AB"/>
<stop offset="0.4553" stop-color="#16C0C2"/>
<stop offset="0.8053" stop-color="#08E7E7"/>
<stop offset="1" stop-color="#00FFFF"/>
</linearGradient>
<linearGradient id="paint10_linear" x1="363.883" y1="164.816" x2="434.691" y2="164.816" gradientUnits="userSpaceOnUse">
<stop stop-color="#008B9A"/>
<stop offset="0.1951" stop-color="#01A0B0"/>
<stop offset="0.5314" stop-color="#01C0D1"/>
<stop offset="0.8119" stop-color="#02D3E6"/>
<stop offset="1" stop-color="#02DAED"/>
</linearGradient>
<linearGradient id="paint11_linear" x1="399.287" y1="124.48" x2="399.287" y2="170.578" gradientUnits="userSpaceOnUse">
<stop stop-color="#00B6C8"/>
<stop offset="0.476" stop-color="#00DBE4" stop-opacity="0.524"/>
<stop offset="1" stop-color="#00FFFF" stop-opacity="0"/>
</linearGradient>
<linearGradient id="paint12_linear" x1="246.342" y1="309.697" x2="250.125" y2="112.947" gradientUnits="userSpaceOnUse">
<stop stop-color="#A6D7E8"/>
<stop offset="0.1065" stop-color="#AFDCEA"/>
<stop offset="0.7033" stop-color="#DFF5F3"/>
<stop offset="1" stop-color="#F2FFF7"/>
</linearGradient>
<linearGradient id="paint13_linear" x1="143.876" y1="238.27" x2="355.114" y2="162.676" gradientUnits="userSpaceOnUse">
<stop stop-color="#A6D7E8"/>
<stop offset="0.1065" stop-color="#AFDCEA"/>
<stop offset="0.7033" stop-color="#DFF5F3"/>
<stop offset="1" stop-color="#F2FFF7"/>
</linearGradient>
<linearGradient id="paint14_linear" x1="143.876" y1="238.27" x2="355.114" y2="162.676" gradientUnits="userSpaceOnUse">
<stop stop-color="#A6D7E8"/>
<stop offset="0.1065" stop-color="#AFDCEA"/>
<stop offset="0.7033" stop-color="#DFF5F3"/>
<stop offset="1" stop-color="#F2FFF7"/>
</linearGradient>
<linearGradient id="paint15_linear" x1="198.127" y1="210.451" x2="289.691" y2="167.317" gradientUnits="userSpaceOnUse">
<stop stop-color="#F2FFF7"/>
<stop offset="1" stop-color="white"/>
</linearGradient>
<linearGradient id="paint16_linear" x1="205.241" y1="282.339" x2="308.46" y2="52.3585" gradientUnits="userSpaceOnUse">
<stop stop-color="#21A0A3"/>
<stop offset="0.1744" stop-color="#1EA9AB"/>
<stop offset="0.4553" stop-color="#16C0C2"/>
<stop offset="0.8053" stop-color="#08E7E7"/>
<stop offset="1" stop-color="#00FFFF"/>
</linearGradient>
<linearGradient id="paint17_linear" x1="248.057" y1="237.712" x2="248.057" y2="33.3112" gradientUnits="userSpaceOnUse">
<stop stop-color="#21A0A3"/>
<stop offset="0.1744" stop-color="#1EA9AB" stop-opacity="0.8256"/>
<stop offset="0.4553" stop-color="#16C0C2" stop-opacity="0.5447"/>
<stop offset="0.8053" stop-color="#08E7E7" stop-opacity="0.1947"/>
<stop offset="1" stop-color="#00FFFF" stop-opacity="0"/>
</linearGradient>
<linearGradient id="paint18_linear" x1="274.784" y1="234.936" x2="274.784" y2="60.1713" gradientUnits="userSpaceOnUse">
<stop stop-color="white" stop-opacity="0.4"/>
<stop offset="0.0849439" stop-color="#F6FFFF" stop-opacity="0.366"/>
<stop offset="0.2219" stop-color="#DFFFFF" stop-opacity="0.3113"/>
<stop offset="0.3937" stop-color="#B8FFFF" stop-opacity="0.2425"/>
<stop offset="0.5937" stop-color="#82FFFF" stop-opacity="0.1625"/>
<stop offset="0.8145" stop-color="#3EFFFF" stop-opacity="0.0742029"/>
<stop offset="1" stop-color="#00FFFF" stop-opacity="0"/>
</linearGradient>
<linearGradient id="paint19_linear" x1="233.493" y1="126.061" x2="225.226" y2="154.854" gradientUnits="userSpaceOnUse">
<stop stop-color="#A6D7E8"/>
<stop offset="0.1065" stop-color="#AFDCEA"/>
<stop offset="0.7033" stop-color="#DFF5F3"/>
<stop offset="1" stop-color="#F2FFF7"/>
</linearGradient>
<linearGradient id="paint20_linear" x1="223.849" y1="146.43" x2="224.989" y2="122.768" gradientUnits="userSpaceOnUse">
<stop stop-color="#A6D7E8"/>
<stop offset="0.1065" stop-color="#AFDCEA"/>
<stop offset="0.7033" stop-color="#DFF5F3"/>
<stop offset="1" stop-color="#F2FFF7"/>
</linearGradient>
<linearGradient id="paint21_linear" x1="221.551" y1="136.741" x2="231.792" y2="136.741" gradientUnits="userSpaceOnUse">
<stop stop-color="#F2FFF7"/>
<stop offset="1" stop-color="white"/>
</linearGradient>
<linearGradient id="paint22_linear" x1="272.631" y1="97.7104" x2="264.364" y2="126.504" gradientUnits="userSpaceOnUse">
<stop stop-color="#A6D7E8"/>
<stop offset="0.1065" stop-color="#AFDCEA"/>
<stop offset="0.7033" stop-color="#DFF5F3"/>
<stop offset="1" stop-color="#F2FFF7"/>
</linearGradient>
<linearGradient id="paint23_linear" x1="262.988" y1="118.08" x2="264.128" y2="94.4181" gradientUnits="userSpaceOnUse">
<stop stop-color="#A6D7E8"/>
<stop offset="0.1065" stop-color="#AFDCEA"/>
<stop offset="0.7033" stop-color="#DFF5F3"/>
<stop offset="1" stop-color="#F2FFF7"/>
</linearGradient>
<linearGradient id="paint24_linear" x1="260.69" y1="108.391" x2="270.931" y2="108.391" gradientUnits="userSpaceOnUse">
<stop stop-color="#F2FFF7"/>
<stop offset="1" stop-color="white"/>
</linearGradient>
<linearGradient id="paint25_linear" x1="231.199" y1="64.4161" x2="222.932" y2="93.21" gradientUnits="userSpaceOnUse">
<stop stop-color="#A6D7E8"/>
<stop offset="0.1065" stop-color="#AFDCEA"/>
<stop offset="0.7033" stop-color="#DFF5F3"/>
<stop offset="1" stop-color="#F2FFF7"/>
</linearGradient>
<linearGradient id="paint26_linear" x1="221.555" y1="84.7861" x2="222.695" y2="61.1241" gradientUnits="userSpaceOnUse">
<stop stop-color="#A6D7E8"/>
<stop offset="0.1065" stop-color="#AFDCEA"/>
<stop offset="0.7033" stop-color="#DFF5F3"/>
<stop offset="1" stop-color="#F2FFF7"/>
</linearGradient>
<linearGradient id="paint27_linear" x1="219.257" y1="75.0972" x2="229.498" y2="75.0972" gradientUnits="userSpaceOnUse">
<stop stop-color="#F2FFF7"/>
<stop offset="1" stop-color="white"/>
</linearGradient>
<linearGradient id="paint28_linear" x1="277.811" y1="155.42" x2="269.543" y2="184.214" gradientUnits="userSpaceOnUse">
<stop stop-color="#A6D7E8"/>
<stop offset="0.1065" stop-color="#AFDCEA"/>
<stop offset="0.7033" stop-color="#DFF5F3"/>
<stop offset="1" stop-color="#F2FFF7"/>
</linearGradient>
<linearGradient id="paint29_linear" x1="268.167" y1="175.79" x2="269.307" y2="152.128" gradientUnits="userSpaceOnUse">
<stop stop-color="#A6D7E8"/>
<stop offset="0.1065" stop-color="#AFDCEA"/>
<stop offset="0.7033" stop-color="#DFF5F3"/>
<stop offset="1" stop-color="#F2FFF7"/>
</linearGradient>
<linearGradient id="paint30_linear" x1="265.869" y1="166.101" x2="276.11" y2="166.101" gradientUnits="userSpaceOnUse">
<stop stop-color="#F2FFF7"/>
<stop offset="1" stop-color="white"/>
</linearGradient>
</defs>
</svg>
