<svg width="319" height="363" viewBox="0 0 319 363" fill="none" xmlns="http://www.w3.org/2000/svg">
<path d="M119.022 272.519L59.5109 307.127V237.188L119.022 202.581V272.519Z" fill="url(#paint0_linear)"/>
<path d="M0 272.519L59.5109 307.127V237.188L0 202.581V272.519Z" fill="url(#paint1_linear)"/>
<path d="M119.022 202.6L59.5298 168L6.10352e-05 202.6L59.5298 237.161L119.022 202.6Z" fill="url(#paint2_linear)"/>
<path d="M34.3281 202.145L17.164 212.127V191.955L34.3281 181.974V202.145Z" fill="url(#paint3_linear)"/>
<path d="M0 202.145L17.164 212.127V191.955L0 181.974V202.145Z" fill="url(#paint4_linear)"/>
<path d="M34.3281 181.979L17.1695 172L6.10352e-05 181.979L17.1695 191.947L34.3281 181.979Z" fill="url(#paint5_linear)"/>
<path d="M76.3281 227.145L59.164 237.127V216.955L76.3281 206.974V227.145Z" fill="url(#paint6_linear)"/>
<path d="M42 227.145L59.164 237.127V216.955L42 206.974V227.145Z" fill="url(#paint7_linear)"/>
<path d="M76.3281 206.979L59.1695 197L42.0001 206.979L59.1695 216.947L76.3281 206.979Z" fill="url(#paint8_linear)"/>
<path d="M119.328 203.145L102.164 213.127V192.955L119.328 182.974V203.145Z" fill="url(#paint9_linear)"/>
<path d="M85 203.145L102.164 213.127V192.955L85 182.974V203.145Z" fill="url(#paint10_linear)"/>
<path d="M119.328 182.979L102.17 173L85.0001 182.979L102.17 192.947L119.328 182.979Z" fill="url(#paint11_linear)"/>
<path d="M76.3281 178.145L59.164 188.127V167.955L76.3281 157.974V178.145Z" fill="url(#paint12_linear)"/>
<path d="M42 178.145L59.164 188.127V167.955L42 157.974V178.145Z" fill="url(#paint13_linear)"/>
<path d="M76.3281 157.979L59.1695 148L42.0001 157.979L59.1695 167.947L76.3281 157.979Z" fill="url(#paint14_linear)"/>
<path d="M119.022 138.519L59.5109 173.127V103.188L119.022 68.5806V138.519Z" fill="url(#paint15_linear)"/>
<path d="M0 138.519L59.5109 173.127V103.188L0 68.5806V138.519Z" fill="url(#paint16_linear)"/>
<path d="M119.022 68.5996L59.5298 34L6.10352e-05 68.5996L59.5298 103.161L119.022 68.5996Z" fill="url(#paint17_linear)"/>
<path d="M318.022 272.519L258.511 307.127V237.188L318.022 202.581V272.519Z" fill="url(#paint18_linear)"/>
<path d="M199 272.519L258.511 307.127V237.188L199 202.581V272.519Z" fill="url(#paint19_linear)"/>
<path d="M318.022 202.6L258.53 168L199 202.6L258.53 237.161L318.022 202.6Z" fill="url(#paint20_linear)"/>
<path d="M233.328 202.145L216.164 212.127V191.955L233.328 181.974V202.145Z" fill="url(#paint21_linear)"/>
<path d="M199 202.145L216.164 212.127V191.955L199 181.974V202.145Z" fill="url(#paint22_linear)"/>
<path d="M233.328 181.979L216.17 172L199 181.979L216.17 191.947L233.328 181.979Z" fill="url(#paint23_linear)"/>
<path d="M275.328 227.145L258.164 237.127V216.955L275.328 206.974V227.145Z" fill="url(#paint24_linear)"/>
<path d="M241 227.145L258.164 237.127V216.955L241 206.974V227.145Z" fill="url(#paint25_linear)"/>
<path d="M275.328 206.979L258.17 197L241 206.979L258.17 216.947L275.328 206.979Z" fill="url(#paint26_linear)"/>
<path d="M318.328 203.145L301.164 213.127V192.955L318.328 182.974V203.145Z" fill="url(#paint27_linear)"/>
<path d="M284 203.145L301.164 213.127V192.955L284 182.974V203.145Z" fill="url(#paint28_linear)"/>
<path d="M318.328 182.979L301.17 173L284 182.979L301.17 192.947L318.328 182.979Z" fill="url(#paint29_linear)"/>
<path d="M275.328 178.145L258.164 188.127V167.955L275.328 157.974V178.145Z" fill="url(#paint30_linear)"/>
<path d="M241 178.145L258.164 188.127V167.955L241 157.974V178.145Z" fill="url(#paint31_linear)"/>
<path d="M275.328 157.979L258.17 148L241 157.979L258.17 167.947L275.328 157.979Z" fill="url(#paint32_linear)"/>
<path d="M318.022 138.519L258.511 173.127V103.188L318.022 68.5806V138.519Z" fill="url(#paint33_linear)"/>
<path d="M199 138.519L258.511 173.127V103.188L199 68.5806V138.519Z" fill="url(#paint34_linear)"/>
<path d="M318.022 68.5996L258.53 34L199 68.5996L258.53 103.161L318.022 68.5996Z" fill="url(#paint35_linear)"/>
<path d="M216.022 327.519L156.511 362.127V292.188L216.022 257.581V327.519Z" fill="url(#paint36_linear)"/>
<path d="M97 327.519L156.511 362.127V292.188L97 257.581V327.519Z" fill="url(#paint37_linear)"/>
<path d="M216.022 257.6L156.53 223L97.0001 257.6L156.53 292.161L216.022 257.6Z" fill="url(#paint38_linear)"/>
<path d="M131.328 257.145L114.164 267.127V246.955L131.328 236.974V257.145Z" fill="url(#paint39_linear)"/>
<path d="M97 257.145L114.164 267.127V246.955L97 236.974V257.145Z" fill="url(#paint40_linear)"/>
<path d="M131.328 236.979L114.17 227L97.0001 236.979L114.17 246.947L131.328 236.979Z" fill="url(#paint41_linear)"/>
<path d="M173.328 282.145L156.164 292.127V271.955L173.328 261.974V282.145Z" fill="url(#paint42_linear)"/>
<path d="M139 282.145L156.164 292.127V271.955L139 261.974V282.145Z" fill="url(#paint43_linear)"/>
<path d="M173.328 261.979L156.17 252L139 261.979L156.17 271.947L173.328 261.979Z" fill="url(#paint44_linear)"/>
<path d="M216.328 258.145L199.164 268.127V247.955L216.328 237.974V258.145Z" fill="url(#paint45_linear)"/>
<path d="M182 258.145L199.164 268.127V247.955L182 237.974V258.145Z" fill="url(#paint46_linear)"/>
<path d="M216.328 237.979L199.17 228L182 237.979L199.17 247.947L216.328 237.979Z" fill="url(#paint47_linear)"/>
<path d="M173.328 233.145L156.164 243.127V222.955L173.328 212.974V233.145Z" fill="url(#paint48_linear)"/>
<path d="M139 233.145L156.164 243.127V222.955L139 212.974V233.145Z" fill="url(#paint49_linear)"/>
<path d="M173.328 212.979L156.17 203L139 212.979L156.17 222.947L173.328 212.979Z" fill="url(#paint50_linear)"/>
<g opacity="0.5">
<path opacity="0.3" d="M216.022 -7.62939e-06L97.0001 2.77582e-06L97.0001 125.454L216.022 125.454L216.022 -7.62939e-06Z" fill="url(#paint51_linear)"/>
<path opacity="0.1" d="M156.511 -7.62939e-06L97 -2.42679e-06L97 125.454L156.511 125.454L156.511 -7.62939e-06Z" fill="url(#paint52_linear)"/>
</g>
<path d="M216.022 194.519L156.511 229.127V159.189L216.022 124.581V194.519Z" fill="url(#paint53_linear)"/>
<path d="M97 194.519L156.511 229.127V159.189L97 124.581V194.519Z" fill="url(#paint54_linear)"/>
<path d="M216.022 124.6L156.53 90.0002L97.0001 124.6L156.53 159.162L216.022 124.6Z" fill="url(#paint55_linear)"/>
<path opacity="0.3" d="M215.218 194.163L156.53 159.966L97.8043 194.163L156.53 228.323L215.218 194.163Z" fill="url(#paint56_linear)"/>
<path opacity="0.2" d="M156.511 159.401L97 193.742V124.342L156.511 90.0002V159.401Z" fill="url(#paint57_linear)"/>
<g opacity="0.2">
<path opacity="0.6" d="M198.169 184.032L156.511 208.258V159.301L198.169 135.075V184.032Z" fill="url(#paint58_linear)"/>
<path opacity="0.6" d="M114.853 184.032L156.511 208.258V159.301L114.853 135.075V184.032Z" fill="url(#paint59_linear)"/>
<path opacity="0.6" d="M198.169 135.089L156.524 110.869L114.853 135.089L156.524 159.282L198.169 135.089Z" fill="url(#paint60_linear)"/>
<path opacity="0.6" d="M197.606 183.783L156.524 159.845L115.416 183.783L156.524 207.695L197.606 183.783Z" fill="url(#paint61_linear)"/>
<path opacity="0.6" d="M156.511 159.449L114.853 183.488V134.908L156.511 110.869V159.449Z" fill="url(#paint62_linear)"/>
</g>
<path opacity="0.4" fill-rule="evenodd" clip-rule="evenodd" d="M156.511 110.608L156.524 110.6L198.157 134.813L198.169 134.807V183.763L156.511 207.989L114.853 183.763V134.639L156.511 110.6V110.608Z" fill="url(#paint63_radial)"/>
<path d="M132.075 124.801L114.538 135V114.389L132.075 104.191V124.801Z" fill="url(#paint64_linear)"/>
<path d="M97 124.801L114.538 135V114.389L97 104.191V124.801Z" fill="url(#paint65_linear)"/>
<path d="M132.075 104.196L114.543 94L97 104.196L114.543 114.382L132.075 104.196Z" fill="url(#paint66_linear)"/>
<path opacity="0.3" d="M131.838 124.696L114.543 114.618L97.237 124.696L114.543 134.763L131.838 124.696Z" fill="url(#paint67_linear)"/>
<path opacity="0.2" d="M114.538 114.452L97 124.572V104.12L114.538 94V114.452Z" fill="url(#paint68_linear)"/>
<path d="M174.075 148.801L156.538 159V138.389L174.075 128.191V148.801Z" fill="url(#paint69_linear)"/>
<path d="M139 148.801L156.538 159V138.389L139 128.191V148.801Z" fill="url(#paint70_linear)"/>
<path d="M174.075 128.196L156.543 118L139 128.196L156.543 138.382L174.075 128.196Z" fill="url(#paint71_linear)"/>
<path opacity="0.3" d="M173.838 148.696L156.543 138.618L139.237 148.696L156.543 158.763L173.838 148.696Z" fill="url(#paint72_linear)"/>
<path opacity="0.2" d="M156.538 138.452L139 148.572V128.12L156.538 118V138.452Z" fill="url(#paint73_linear)"/>
<path d="M216.075 124.801L198.538 135V114.389L216.075 104.191V124.801Z" fill="url(#paint74_linear)"/>
<path d="M181 124.801L198.538 135V114.389L181 104.191V124.801Z" fill="url(#paint75_linear)"/>
<path d="M216.075 104.196L198.543 94L181 104.196L198.543 114.382L216.075 104.196Z" fill="url(#paint76_linear)"/>
<path opacity="0.3" d="M215.838 124.696L198.543 114.618L181.237 124.696L198.543 134.763L215.838 124.696Z" fill="url(#paint77_linear)"/>
<path opacity="0.2" d="M198.538 114.452L181 124.572V104.12L198.538 94V114.452Z" fill="url(#paint78_linear)"/>
<path d="M174.075 100.801L156.538 111V90.3895L174.075 80.1907V100.801Z" fill="url(#paint79_linear)"/>
<path d="M139 100.801L156.538 111V90.3895L139 80.1907V100.801Z" fill="url(#paint80_linear)"/>
<path d="M174.075 80.1963L156.543 70L139 80.1963L156.543 90.3815L174.075 80.1963Z" fill="url(#paint81_linear)"/>
<path opacity="0.3" d="M173.838 100.696L156.543 90.6184L139.237 100.696L156.543 110.763L173.838 100.696Z" fill="url(#paint82_linear)"/>
<path opacity="0.2" d="M156.538 90.452L139 100.572V80.1203L156.538 70V90.452Z" fill="url(#paint83_linear)"/>
<defs>
<linearGradient id="paint0_linear" x1="66.5797" y1="254.846" x2="130.455" y2="254.846" gradientUnits="userSpaceOnUse">
<stop stop-color="#FDFEFE"/>
<stop offset="1" stop-color="#F2F2F2"/>
</linearGradient>
<linearGradient id="paint1_linear" x1="0.348382" y1="272.967" x2="157.534" y2="164.889" gradientUnits="userSpaceOnUse">
<stop stop-color="#FEFEFE"/>
<stop offset="0.393961" stop-color="#EFF1F2"/>
</linearGradient>
<linearGradient id="paint2_linear" x1="59.4777" y1="237.431" x2="60" y2="134.5" gradientUnits="userSpaceOnUse">
<stop stop-color="white"/>
<stop offset="1" stop-color="#EFF0F2"/>
<stop offset="1" stop-color="#EFF1F2"/>
</linearGradient>
<linearGradient id="paint3_linear" x1="19.2028" y1="197.048" x2="37.6256" y2="197.048" gradientUnits="userSpaceOnUse">
<stop stop-color="#FDFEFE"/>
<stop offset="1" stop-color="#F2F2F2"/>
</linearGradient>
<linearGradient id="paint4_linear" x1="0.10048" y1="202.274" x2="45.4359" y2="171.103" gradientUnits="userSpaceOnUse">
<stop stop-color="#FEFEFE"/>
<stop offset="0.393961" stop-color="#EFF1F2"/>
</linearGradient>
<linearGradient id="paint5_linear" x1="17.1545" y1="192.025" x2="17.3052" y2="162.338" gradientUnits="userSpaceOnUse">
<stop stop-color="white"/>
<stop offset="1" stop-color="#EFF0F2"/>
<stop offset="1" stop-color="#EFF1F2"/>
</linearGradient>
<linearGradient id="paint6_linear" x1="61.2028" y1="222.048" x2="79.6256" y2="222.048" gradientUnits="userSpaceOnUse">
<stop stop-color="#FDFEFE"/>
<stop offset="1" stop-color="#F2F2F2"/>
</linearGradient>
<linearGradient id="paint7_linear" x1="42.1005" y1="227.274" x2="87.4359" y2="196.103" gradientUnits="userSpaceOnUse">
<stop stop-color="#FEFEFE"/>
<stop offset="0.393961" stop-color="#EFF1F2"/>
</linearGradient>
<linearGradient id="paint8_linear" x1="59.1545" y1="217.025" x2="59.3052" y2="187.338" gradientUnits="userSpaceOnUse">
<stop stop-color="white"/>
<stop offset="1" stop-color="#EFF0F2"/>
<stop offset="1" stop-color="#EFF1F2"/>
</linearGradient>
<linearGradient id="paint9_linear" x1="104.203" y1="198.048" x2="122.626" y2="198.048" gradientUnits="userSpaceOnUse">
<stop stop-color="#FDFEFE"/>
<stop offset="1" stop-color="#F2F2F2"/>
</linearGradient>
<linearGradient id="paint10_linear" x1="85.1005" y1="203.274" x2="130.436" y2="172.103" gradientUnits="userSpaceOnUse">
<stop stop-color="#FEFEFE"/>
<stop offset="0.393961" stop-color="#EFF1F2"/>
</linearGradient>
<linearGradient id="paint11_linear" x1="102.155" y1="193.025" x2="102.305" y2="163.338" gradientUnits="userSpaceOnUse">
<stop stop-color="white"/>
<stop offset="1" stop-color="#EFF0F2"/>
<stop offset="1" stop-color="#EFF1F2"/>
</linearGradient>
<linearGradient id="paint12_linear" x1="61.2028" y1="173.048" x2="79.6256" y2="173.048" gradientUnits="userSpaceOnUse">
<stop stop-color="#FDFEFE"/>
<stop offset="1" stop-color="#F2F2F2"/>
</linearGradient>
<linearGradient id="paint13_linear" x1="42.1005" y1="178.274" x2="87.4359" y2="147.103" gradientUnits="userSpaceOnUse">
<stop stop-color="#FEFEFE"/>
<stop offset="0.393961" stop-color="#EFF1F2"/>
</linearGradient>
<linearGradient id="paint14_linear" x1="59.1545" y1="168.025" x2="59.3052" y2="138.338" gradientUnits="userSpaceOnUse">
<stop stop-color="white"/>
<stop offset="1" stop-color="#EFF0F2"/>
<stop offset="1" stop-color="#EFF1F2"/>
</linearGradient>
<linearGradient id="paint15_linear" x1="66.5797" y1="120.846" x2="130.455" y2="120.846" gradientUnits="userSpaceOnUse">
<stop stop-color="#FDFEFE"/>
<stop offset="1" stop-color="#F2F2F2"/>
</linearGradient>
<linearGradient id="paint16_linear" x1="0.348382" y1="138.967" x2="157.534" y2="30.8887" gradientUnits="userSpaceOnUse">
<stop stop-color="#FEFEFE"/>
<stop offset="0.393961" stop-color="#EFF1F2"/>
</linearGradient>
<linearGradient id="paint17_linear" x1="59.4777" y1="103.431" x2="60" y2="0.499997" gradientUnits="userSpaceOnUse">
<stop stop-color="white"/>
<stop offset="1" stop-color="#EFF0F2"/>
<stop offset="1" stop-color="#EFF1F2"/>
</linearGradient>
<linearGradient id="paint18_linear" x1="265.58" y1="254.846" x2="329.455" y2="254.846" gradientUnits="userSpaceOnUse">
<stop stop-color="#FDFEFE"/>
<stop offset="1" stop-color="#F2F2F2"/>
</linearGradient>
<linearGradient id="paint19_linear" x1="199.348" y1="272.967" x2="356.534" y2="164.889" gradientUnits="userSpaceOnUse">
<stop stop-color="#FEFEFE"/>
<stop offset="0.393961" stop-color="#EFF1F2"/>
</linearGradient>
<linearGradient id="paint20_linear" x1="258.478" y1="237.431" x2="259" y2="134.5" gradientUnits="userSpaceOnUse">
<stop stop-color="white"/>
<stop offset="1" stop-color="#EFF0F2"/>
<stop offset="1" stop-color="#EFF1F2"/>
</linearGradient>
<linearGradient id="paint21_linear" x1="218.203" y1="197.048" x2="236.626" y2="197.048" gradientUnits="userSpaceOnUse">
<stop stop-color="#FDFEFE"/>
<stop offset="1" stop-color="#F2F2F2"/>
</linearGradient>
<linearGradient id="paint22_linear" x1="199.1" y1="202.274" x2="244.436" y2="171.103" gradientUnits="userSpaceOnUse">
<stop stop-color="#FEFEFE"/>
<stop offset="0.393961" stop-color="#EFF1F2"/>
</linearGradient>
<linearGradient id="paint23_linear" x1="216.155" y1="192.025" x2="216.305" y2="162.338" gradientUnits="userSpaceOnUse">
<stop stop-color="white"/>
<stop offset="1" stop-color="#EFF0F2"/>
<stop offset="1" stop-color="#EFF1F2"/>
</linearGradient>
<linearGradient id="paint24_linear" x1="260.203" y1="222.048" x2="278.626" y2="222.048" gradientUnits="userSpaceOnUse">
<stop stop-color="#FDFEFE"/>
<stop offset="1" stop-color="#F2F2F2"/>
</linearGradient>
<linearGradient id="paint25_linear" x1="241.1" y1="227.274" x2="286.436" y2="196.103" gradientUnits="userSpaceOnUse">
<stop stop-color="#FEFEFE"/>
<stop offset="0.393961" stop-color="#EFF1F2"/>
</linearGradient>
<linearGradient id="paint26_linear" x1="258.155" y1="217.025" x2="258.305" y2="187.338" gradientUnits="userSpaceOnUse">
<stop stop-color="white"/>
<stop offset="1" stop-color="#EFF0F2"/>
<stop offset="1" stop-color="#EFF1F2"/>
</linearGradient>
<linearGradient id="paint27_linear" x1="303.203" y1="198.048" x2="321.626" y2="198.048" gradientUnits="userSpaceOnUse">
<stop stop-color="#FDFEFE"/>
<stop offset="1" stop-color="#F2F2F2"/>
</linearGradient>
<linearGradient id="paint28_linear" x1="284.1" y1="203.274" x2="329.436" y2="172.103" gradientUnits="userSpaceOnUse">
<stop stop-color="#FEFEFE"/>
<stop offset="0.393961" stop-color="#EFF1F2"/>
</linearGradient>
<linearGradient id="paint29_linear" x1="301.155" y1="193.025" x2="301.305" y2="163.338" gradientUnits="userSpaceOnUse">
<stop stop-color="white"/>
<stop offset="1" stop-color="#EFF0F2"/>
<stop offset="1" stop-color="#EFF1F2"/>
</linearGradient>
<linearGradient id="paint30_linear" x1="260.203" y1="173.048" x2="278.626" y2="173.048" gradientUnits="userSpaceOnUse">
<stop stop-color="#FDFEFE"/>
<stop offset="1" stop-color="#F2F2F2"/>
</linearGradient>
<linearGradient id="paint31_linear" x1="241.1" y1="178.274" x2="286.436" y2="147.103" gradientUnits="userSpaceOnUse">
<stop stop-color="#FEFEFE"/>
<stop offset="0.393961" stop-color="#EFF1F2"/>
</linearGradient>
<linearGradient id="paint32_linear" x1="258.155" y1="168.025" x2="258.305" y2="138.338" gradientUnits="userSpaceOnUse">
<stop stop-color="white"/>
<stop offset="1" stop-color="#EFF0F2"/>
<stop offset="1" stop-color="#EFF1F2"/>
</linearGradient>
<linearGradient id="paint33_linear" x1="265.58" y1="120.846" x2="329.455" y2="120.846" gradientUnits="userSpaceOnUse">
<stop stop-color="#FDFEFE"/>
<stop offset="1" stop-color="#F2F2F2"/>
</linearGradient>
<linearGradient id="paint34_linear" x1="199.348" y1="138.967" x2="356.534" y2="30.8887" gradientUnits="userSpaceOnUse">
<stop stop-color="#FEFEFE"/>
<stop offset="0.393961" stop-color="#EFF1F2"/>
</linearGradient>
<linearGradient id="paint35_linear" x1="258.478" y1="103.431" x2="259" y2="0.499997" gradientUnits="userSpaceOnUse">
<stop stop-color="white"/>
<stop offset="1" stop-color="#EFF0F2"/>
<stop offset="1" stop-color="#EFF1F2"/>
</linearGradient>
<linearGradient id="paint36_linear" x1="163.58" y1="309.846" x2="227.455" y2="309.846" gradientUnits="userSpaceOnUse">
<stop stop-color="#FDFEFE"/>
<stop offset="1" stop-color="#F2F2F2"/>
</linearGradient>
<linearGradient id="paint37_linear" x1="97.3484" y1="327.967" x2="254.534" y2="219.889" gradientUnits="userSpaceOnUse">
<stop stop-color="#FEFEFE"/>
<stop offset="0.393961" stop-color="#EFF1F2"/>
</linearGradient>
<linearGradient id="paint38_linear" x1="156.478" y1="292.431" x2="157" y2="189.5" gradientUnits="userSpaceOnUse">
<stop stop-color="white"/>
<stop offset="1" stop-color="#EFF0F2"/>
<stop offset="1" stop-color="#EFF1F2"/>
</linearGradient>
<linearGradient id="paint39_linear" x1="116.203" y1="252.048" x2="134.626" y2="252.048" gradientUnits="userSpaceOnUse">
<stop stop-color="#FDFEFE"/>
<stop offset="1" stop-color="#F2F2F2"/>
</linearGradient>
<linearGradient id="paint40_linear" x1="97.1005" y1="257.274" x2="142.436" y2="226.103" gradientUnits="userSpaceOnUse">
<stop stop-color="#FEFEFE"/>
<stop offset="0.393961" stop-color="#EFF1F2"/>
</linearGradient>
<linearGradient id="paint41_linear" x1="114.155" y1="247.025" x2="114.305" y2="217.338" gradientUnits="userSpaceOnUse">
<stop stop-color="white"/>
<stop offset="1" stop-color="#EFF0F2"/>
<stop offset="1" stop-color="#EFF1F2"/>
</linearGradient>
<linearGradient id="paint42_linear" x1="158.203" y1="277.048" x2="176.626" y2="277.048" gradientUnits="userSpaceOnUse">
<stop stop-color="#FDFEFE"/>
<stop offset="1" stop-color="#F2F2F2"/>
</linearGradient>
<linearGradient id="paint43_linear" x1="139.1" y1="282.274" x2="184.436" y2="251.103" gradientUnits="userSpaceOnUse">
<stop stop-color="#FEFEFE"/>
<stop offset="0.393961" stop-color="#EFF1F2"/>
</linearGradient>
<linearGradient id="paint44_linear" x1="156.155" y1="272.025" x2="156.305" y2="242.338" gradientUnits="userSpaceOnUse">
<stop stop-color="white"/>
<stop offset="1" stop-color="#EFF0F2"/>
<stop offset="1" stop-color="#EFF1F2"/>
</linearGradient>
<linearGradient id="paint45_linear" x1="201.203" y1="253.048" x2="219.626" y2="253.048" gradientUnits="userSpaceOnUse">
<stop stop-color="#FDFEFE"/>
<stop offset="1" stop-color="#F2F2F2"/>
</linearGradient>
<linearGradient id="paint46_linear" x1="182.1" y1="258.274" x2="227.436" y2="227.103" gradientUnits="userSpaceOnUse">
<stop stop-color="#FEFEFE"/>
<stop offset="0.393961" stop-color="#EFF1F2"/>
</linearGradient>
<linearGradient id="paint47_linear" x1="199.155" y1="248.025" x2="199.305" y2="218.338" gradientUnits="userSpaceOnUse">
<stop stop-color="white"/>
<stop offset="1" stop-color="#EFF0F2"/>
<stop offset="1" stop-color="#EFF1F2"/>
</linearGradient>
<linearGradient id="paint48_linear" x1="158.203" y1="228.048" x2="176.626" y2="228.048" gradientUnits="userSpaceOnUse">
<stop stop-color="#FDFEFE"/>
<stop offset="1" stop-color="#F2F2F2"/>
</linearGradient>
<linearGradient id="paint49_linear" x1="139.1" y1="233.274" x2="184.436" y2="202.103" gradientUnits="userSpaceOnUse">
<stop stop-color="#FEFEFE"/>
<stop offset="0.393961" stop-color="#EFF1F2"/>
</linearGradient>
<linearGradient id="paint50_linear" x1="156.155" y1="223.025" x2="156.305" y2="193.338" gradientUnits="userSpaceOnUse">
<stop stop-color="white"/>
<stop offset="1" stop-color="#EFF0F2"/>
<stop offset="1" stop-color="#EFF1F2"/>
</linearGradient>
<linearGradient id="paint51_linear" x1="156.786" y1="-9.24509e-07" x2="156.355" y2="121.581" gradientUnits="userSpaceOnUse">
<stop stop-color="#00FFF0" stop-opacity="0"/>
<stop offset="1" stop-color="#00CAC4"/>
</linearGradient>
<linearGradient id="paint52_linear" x1="126.893" y1="-3.5138e-06" x2="126.031" y2="121.576" gradientUnits="userSpaceOnUse">
<stop stop-color="#00FFF0" stop-opacity="0"/>
<stop offset="1" stop-color="#00CAC4"/>
</linearGradient>
<linearGradient id="paint53_linear" x1="163.58" y1="176.846" x2="227.455" y2="176.846" gradientUnits="userSpaceOnUse">
<stop stop-color="#00DED3"/>
<stop offset="1" stop-color="#008B9A"/>
</linearGradient>
<linearGradient id="paint54_linear" x1="97.3484" y1="194.967" x2="254.534" y2="86.889" gradientUnits="userSpaceOnUse">
<stop stop-color="#00EADC"/>
<stop offset="0.393961" stop-color="#008B9A"/>
</linearGradient>
<linearGradient id="paint55_linear" x1="156.478" y1="159.432" x2="156.478" y2="28.6061" gradientUnits="userSpaceOnUse">
<stop stop-color="#EFF0F2"/>
<stop offset="0.4469" stop-color="#00DDD2"/>
<stop offset="1" stop-color="#008B9A"/>
</linearGradient>
<linearGradient id="paint56_linear" x1="155.815" y1="159.081" x2="156.705" y2="228.051" gradientUnits="userSpaceOnUse">
<stop stop-color="#E7FFFE" stop-opacity="0"/>
<stop offset="1" stop-color="#008B9A"/>
</linearGradient>
<linearGradient id="paint57_linear" x1="142.01" y1="151.781" x2="139.35" y2="97.5555" gradientUnits="userSpaceOnUse">
<stop stop-color="#00DED3" stop-opacity="0"/>
<stop offset="1" stop-color="#008B9A"/>
</linearGradient>
<linearGradient id="paint58_linear" x1="156.511" y1="157.446" x2="198.169" y2="157.446" gradientUnits="userSpaceOnUse">
<stop stop-color="white"/>
<stop offset="1" stop-color="#00DAD1"/>
</linearGradient>
<linearGradient id="paint59_linear" x1="156.511" y1="165.38" x2="114.853" y2="165.38" gradientUnits="userSpaceOnUse">
<stop stop-color="white"/>
<stop offset="1" stop-color="#00DAD1"/>
</linearGradient>
<linearGradient id="paint60_linear" x1="156.511" y1="159.429" x2="156.511" y2="111.82" gradientUnits="userSpaceOnUse">
<stop stop-color="white"/>
<stop offset="1" stop-color="#00DAD1"/>
</linearGradient>
<linearGradient id="paint61_linear" x1="156.502" y1="161.413" x2="156.502" y2="207.038" gradientUnits="userSpaceOnUse">
<stop stop-color="white"/>
<stop offset="1" stop-color="#00DAD1"/>
</linearGradient>
<linearGradient id="paint62_linear" x1="156.511" y1="159.218" x2="114.853" y2="159.218" gradientUnits="userSpaceOnUse">
<stop stop-color="white"/>
<stop offset="1" stop-color="#00DAD1"/>
</linearGradient>
<radialGradient id="paint63_radial" cx="0" cy="0" r="1" gradientUnits="userSpaceOnUse" gradientTransform="translate(156.511 159.43) rotate(90) scale(58.3665 52.1976)">
<stop stop-color="white"/>
<stop offset="1" stop-color="#00FFF4" stop-opacity="0"/>
</radialGradient>
<linearGradient id="paint64_linear" x1="116.621" y1="119.593" x2="135.444" y2="119.593" gradientUnits="userSpaceOnUse">
<stop stop-color="#00DED3"/>
<stop offset="1" stop-color="#008B9A"/>
</linearGradient>
<linearGradient id="paint65_linear" x1="97.1027" y1="124.933" x2="143.425" y2="93.0831" gradientUnits="userSpaceOnUse">
<stop stop-color="#00EADC"/>
<stop offset="0.393961" stop-color="#008B9A"/>
</linearGradient>
<linearGradient id="paint66_linear" x1="114.528" y1="114.461" x2="114.528" y2="75.9074" gradientUnits="userSpaceOnUse">
<stop stop-color="#EFF0F2"/>
<stop offset="0.4469" stop-color="#00DDD2"/>
<stop offset="1" stop-color="#008B9A"/>
</linearGradient>
<linearGradient id="paint67_linear" x1="114.333" y1="114.358" x2="114.595" y2="134.683" gradientUnits="userSpaceOnUse">
<stop stop-color="#E7FFFE" stop-opacity="0"/>
<stop offset="1" stop-color="#008B9A"/>
</linearGradient>
<linearGradient id="paint68_linear" x1="110.264" y1="112.207" x2="109.48" y2="96.2265" gradientUnits="userSpaceOnUse">
<stop stop-color="#00DED3" stop-opacity="0"/>
<stop offset="1" stop-color="#008B9A"/>
</linearGradient>
<linearGradient id="paint69_linear" x1="158.621" y1="143.593" x2="177.444" y2="143.593" gradientUnits="userSpaceOnUse">
<stop stop-color="#00DED3"/>
<stop offset="1" stop-color="#008B9A"/>
</linearGradient>
<linearGradient id="paint70_linear" x1="139.103" y1="148.933" x2="185.425" y2="117.083" gradientUnits="userSpaceOnUse">
<stop stop-color="#00EADC"/>
<stop offset="0.393961" stop-color="#008B9A"/>
</linearGradient>
<linearGradient id="paint71_linear" x1="156.528" y1="138.461" x2="156.528" y2="99.9074" gradientUnits="userSpaceOnUse">
<stop stop-color="#EFF0F2"/>
<stop offset="0.4469" stop-color="#00DDD2"/>
<stop offset="1" stop-color="#008B9A"/>
</linearGradient>
<linearGradient id="paint72_linear" x1="156.333" y1="138.358" x2="156.595" y2="158.683" gradientUnits="userSpaceOnUse">
<stop stop-color="#E7FFFE" stop-opacity="0"/>
<stop offset="1" stop-color="#008B9A"/>
</linearGradient>
<linearGradient id="paint73_linear" x1="152.264" y1="136.207" x2="151.48" y2="120.227" gradientUnits="userSpaceOnUse">
<stop stop-color="#00DED3" stop-opacity="0"/>
<stop offset="1" stop-color="#008B9A"/>
</linearGradient>
<linearGradient id="paint74_linear" x1="200.621" y1="119.593" x2="219.444" y2="119.593" gradientUnits="userSpaceOnUse">
<stop stop-color="#00DED3"/>
<stop offset="1" stop-color="#008B9A"/>
</linearGradient>
<linearGradient id="paint75_linear" x1="181.103" y1="124.933" x2="227.425" y2="93.0831" gradientUnits="userSpaceOnUse">
<stop stop-color="#00EADC"/>
<stop offset="0.393961" stop-color="#008B9A"/>
</linearGradient>
<linearGradient id="paint76_linear" x1="198.528" y1="114.461" x2="198.528" y2="75.9074" gradientUnits="userSpaceOnUse">
<stop stop-color="#EFF0F2"/>
<stop offset="0.4469" stop-color="#00DDD2"/>
<stop offset="1" stop-color="#008B9A"/>
</linearGradient>
<linearGradient id="paint77_linear" x1="198.333" y1="114.358" x2="198.595" y2="134.683" gradientUnits="userSpaceOnUse">
<stop stop-color="#E7FFFE" stop-opacity="0"/>
<stop offset="1" stop-color="#008B9A"/>
</linearGradient>
<linearGradient id="paint78_linear" x1="194.264" y1="112.207" x2="193.48" y2="96.2265" gradientUnits="userSpaceOnUse">
<stop stop-color="#00DED3" stop-opacity="0"/>
<stop offset="1" stop-color="#008B9A"/>
</linearGradient>
<linearGradient id="paint79_linear" x1="158.621" y1="95.5931" x2="177.444" y2="95.5931" gradientUnits="userSpaceOnUse">
<stop stop-color="#00DED3"/>
<stop offset="1" stop-color="#008B9A"/>
</linearGradient>
<linearGradient id="paint80_linear" x1="139.103" y1="100.933" x2="185.425" y2="69.0831" gradientUnits="userSpaceOnUse">
<stop stop-color="#00EADC"/>
<stop offset="0.393961" stop-color="#008B9A"/>
</linearGradient>
<linearGradient id="paint81_linear" x1="156.528" y1="90.4611" x2="156.528" y2="51.9074" gradientUnits="userSpaceOnUse">
<stop stop-color="#EFF0F2"/>
<stop offset="0.4469" stop-color="#00DDD2"/>
<stop offset="1" stop-color="#008B9A"/>
</linearGradient>
<linearGradient id="paint82_linear" x1="156.333" y1="90.3578" x2="156.595" y2="110.683" gradientUnits="userSpaceOnUse">
<stop stop-color="#E7FFFE" stop-opacity="0"/>
<stop offset="1" stop-color="#008B9A"/>
</linearGradient>
<linearGradient id="paint83_linear" x1="152.264" y1="88.2066" x2="151.48" y2="72.2265" gradientUnits="userSpaceOnUse">
<stop stop-color="#00DED3" stop-opacity="0"/>
<stop offset="1" stop-color="#008B9A"/>
</linearGradient>
</defs>
</svg>
