<svg width="1919" height="448" viewBox="0 0 1919 448" fill="none" xmlns="http://www.w3.org/2000/svg">
<g clip-path="url(#clip0)">
<g opacity="0.5" filter="url(#filter0_f)">
<circle cx="1682" cy="684" r="618" fill="#008B9A"/>
</g>
<g opacity="0.5" filter="url(#filter1_f)">
<circle cx="267" cy="684" r="618" fill="#008B9A"/>
</g>
<rect x="-1" width="1920" height="448" fill="url(#paint0_linear)"/>
<path opacity="0.3" d="M1492 540.213H1584.21V244.298H1492V540.213Z" fill="url(#paint1_linear)"/>
<path opacity="0.3" d="M1538.11 540.213H1584.21V244.298H1538.11V540.213Z" fill="url(#paint2_linear)"/>
<path d="M1584.21 244.277L1538.11 271.089V216.906L1584.21 190.094V244.277Z" fill="url(#paint3_linear)"/>
<path d="M1492 244.277L1538.11 271.089V216.906L1492 190.094V244.277Z" fill="url(#paint4_linear)"/>
<path d="M1584.21 190.108L1538.12 163.303L1492 190.108L1538.12 216.884L1584.21 190.108Z" fill="url(#paint5_linear)"/>
<path opacity="0.3" d="M1583.59 244.001L1538.12 217.507L1492.62 244.001L1538.12 270.466L1583.59 244.001Z" fill="url(#paint6_linear)"/>
<path opacity="0.2" d="M1538.11 217.07L1492 243.675V189.908L1538.11 163.303V217.07Z" fill="url(#paint7_linear)"/>
<path opacity="0.3" d="M377.367 464H337V334.457H377.367V464Z" fill="url(#paint8_linear)"/>
<path opacity="0.3" d="M357.183 464H337V334.457H357.183V464Z" fill="url(#paint9_linear)"/>
<path d="M337 334.448L357.183 346.186V322.466L337 310.728V334.448Z" fill="url(#paint10_linear)"/>
<path d="M377.367 334.448L357.183 346.186V322.466L377.367 310.728V334.448Z" fill="url(#paint11_linear)"/>
<path d="M337 310.735L357.177 299L377.367 310.735L357.177 322.457L337 310.735Z" fill="url(#paint12_linear)"/>
<path opacity="0.3" d="M337.273 334.327L357.177 322.729L377.094 334.327L357.177 345.913L337.273 334.327Z" fill="url(#paint13_linear)"/>
<path opacity="0.2" d="M357.183 322.538L377.367 334.185V310.647L357.183 299V322.538Z" fill="url(#paint14_linear)"/>
<path opacity="0.3" d="M255 940.693H162V261.689H255V940.693Z" fill="url(#paint15_linear)"/>
<path opacity="0.3" d="M208.5 940.693H162V261.689H208.5V940.693Z" fill="url(#paint16_linear)"/>
<path d="M162 261.668L208.5 288.71V234.062L162 207.02V261.668Z" fill="url(#paint17_linear)"/>
<path d="M255 261.668L208.5 288.71V234.062L255 207.02V261.668Z" fill="url(#paint18_linear)"/>
<path d="M162 207.035L208.485 180L255 207.035L208.485 234.041L162 207.035Z" fill="url(#paint19_linear)"/>
<path opacity="0.3" d="M162.628 261.39L208.485 234.669L254.372 261.39L208.485 288.081L162.628 261.39Z" fill="url(#paint20_linear)"/>
<path opacity="0.2" d="M208.5 234.227L255 261.061V206.834L208.5 180V234.227Z" fill="url(#paint21_linear)"/>
<g opacity="0.7">
<path opacity="0.5" d="M406 334.09H394V224.09H406V334.09Z" fill="url(#paint22_linear)"/>
<path fill-rule="evenodd" clip-rule="evenodd" d="M406 217.462V224.538L400 228.027L394 224.538V217.486L394.002 217.487L399.998 214L400 214.001V214L406 217.462Z" fill="#05FFF3"/>
</g>
<g opacity="0.7">
<path opacity="0.5" d="M1619.94 501.127H1606.11V374.338H1619.94V501.127Z" fill="url(#paint23_linear)"/>
<path fill-rule="evenodd" clip-rule="evenodd" d="M1619.94 366.699V374.854L1613.03 378.876L1606.11 374.854V366.727L1606.11 366.728L1613.02 362.708L1613.03 362.709V362.708L1619.94 366.699Z" fill="#05FFF3"/>
</g>
<g opacity="0.7">
<path opacity="0.5" d="M1711 355.896H1697.17V229.106H1711V355.896Z" fill="url(#paint24_linear)"/>
<path fill-rule="evenodd" clip-rule="evenodd" d="M1711 221.467V229.623L1704.08 233.644L1697.17 229.623V221.495L1697.17 221.496L1704.08 217.476L1704.08 217.478V217.476L1711 221.467Z" fill="#05FFF3"/>
</g>
<g opacity="0.7">
<path opacity="0.5" d="M267 180.09H255V70.0898H267V180.09Z" fill="url(#paint25_linear)"/>
<path fill-rule="evenodd" clip-rule="evenodd" d="M267 63.4624V70.5378L261 74.027L255 70.5378V63.4865L255.002 63.4875L260.998 60.0001L261 60.0012V60L267 63.4624Z" fill="#05FFF3"/>
</g>
<path opacity="0.3" d="M1651.06 252.531H1606.11V108.272H1651.06V252.531Z" fill="url(#paint26_linear)"/>
<path opacity="0.3" d="M1628.59 252.531H1606.11V108.272H1628.59V252.531Z" fill="url(#paint27_linear)"/>
<path d="M1606.11 108.262L1628.59 121.333V94.9183L1606.11 81.8475V108.262Z" fill="url(#paint28_linear)"/>
<path d="M1651.06 108.262L1628.59 121.333V94.9183L1651.06 81.8475V108.262Z" fill="url(#paint29_linear)"/>
<path d="M1606.11 81.8546L1628.58 68.7869L1651.06 81.8546L1628.58 94.908L1606.11 81.8546Z" fill="url(#paint30_linear)"/>
<path opacity="0.3" d="M1606.41 108.127L1628.58 95.2117L1650.76 108.127L1628.58 121.029L1606.41 108.127Z" fill="url(#paint31_linear)"/>
<path opacity="0.2" d="M1628.59 94.9982L1651.06 107.968V81.7571L1628.59 68.7868V94.9982Z" fill="url(#paint32_linear)"/>
</g>
<defs>
<filter id="filter0_f" x="664" y="-334" width="2036" height="2036" filterUnits="userSpaceOnUse" color-interpolation-filters="sRGB">
<feFlood flood-opacity="0" result="BackgroundImageFix"/>
<feBlend mode="normal" in="SourceGraphic" in2="BackgroundImageFix" result="shape"/>
<feGaussianBlur stdDeviation="200" result="effect1_foregroundBlur"/>
</filter>
<filter id="filter1_f" x="-751" y="-334" width="2036" height="2036" filterUnits="userSpaceOnUse" color-interpolation-filters="sRGB">
<feFlood flood-opacity="0" result="BackgroundImageFix"/>
<feBlend mode="normal" in="SourceGraphic" in2="BackgroundImageFix" result="shape"/>
<feGaussianBlur stdDeviation="200" result="effect1_foregroundBlur"/>
</filter>
<linearGradient id="paint0_linear" x1="959" y1="0" x2="959" y2="448" gradientUnits="userSpaceOnUse">
<stop stop-color="#202020"/>
<stop offset="1" stop-color="#202020" stop-opacity="0"/>
</linearGradient>
<linearGradient id="paint1_linear" x1="1537.89" y1="540.213" x2="1540.99" y2="253.465" gradientUnits="userSpaceOnUse">
<stop stop-color="#00514C" stop-opacity="0"/>
<stop offset="1" stop-color="#00948F"/>
</linearGradient>
<linearGradient id="paint2_linear" x1="1561.05" y1="540.213" x2="1567.24" y2="253.565" gradientUnits="userSpaceOnUse">
<stop stop-color="#00514C" stop-opacity="0"/>
<stop offset="1" stop-color="#00948F"/>
</linearGradient>
<linearGradient id="paint3_linear" x1="1543.58" y1="230.586" x2="1593.07" y2="230.586" gradientUnits="userSpaceOnUse">
<stop stop-color="#00DED3"/>
<stop offset="1" stop-color="#008B9A"/>
</linearGradient>
<linearGradient id="paint4_linear" x1="1492.27" y1="244.625" x2="1614.05" y2="160.892" gradientUnits="userSpaceOnUse">
<stop stop-color="#00EADC"/>
<stop offset="0.393961" stop-color="#008B9A"/>
</linearGradient>
<linearGradient id="paint5_linear" x1="1538.08" y1="217.094" x2="1538.08" y2="115.738" gradientUnits="userSpaceOnUse">
<stop stop-color="#EFF0F2"/>
<stop offset="0.4469" stop-color="#00DDD2"/>
<stop offset="1" stop-color="#008B9A"/>
</linearGradient>
<linearGradient id="paint6_linear" x1="1537.57" y1="216.822" x2="1538.26" y2="270.256" gradientUnits="userSpaceOnUse">
<stop stop-color="#E7FFFE" stop-opacity="0"/>
<stop offset="1" stop-color="#008B9A"/>
</linearGradient>
<linearGradient id="paint7_linear" x1="1526.87" y1="211.167" x2="1524.81" y2="169.156" gradientUnits="userSpaceOnUse">
<stop stop-color="#00DED3" stop-opacity="0"/>
<stop offset="1" stop-color="#008B9A"/>
</linearGradient>
<linearGradient id="paint8_linear" x1="357.277" y1="464" x2="355.922" y2="338.47" gradientUnits="userSpaceOnUse">
<stop stop-color="#00514C" stop-opacity="0"/>
<stop offset="1" stop-color="#00948F"/>
</linearGradient>
<linearGradient id="paint9_linear" x1="347.138" y1="464" x2="344.429" y2="338.514" gradientUnits="userSpaceOnUse">
<stop stop-color="#00514C" stop-opacity="0"/>
<stop offset="1" stop-color="#00948F"/>
</linearGradient>
<linearGradient id="paint10_linear" x1="354.786" y1="328.454" x2="333.122" y2="328.454" gradientUnits="userSpaceOnUse">
<stop stop-color="#00DED3"/>
<stop offset="1" stop-color="#008B9A"/>
</linearGradient>
<linearGradient id="paint11_linear" x1="377.249" y1="334.6" x2="323.938" y2="297.945" gradientUnits="userSpaceOnUse">
<stop stop-color="#00EADC"/>
<stop offset="0.393961" stop-color="#008B9A"/>
</linearGradient>
<linearGradient id="paint12_linear" x1="357.195" y1="322.548" x2="357.195" y2="278.178" gradientUnits="userSpaceOnUse">
<stop stop-color="#EFF0F2"/>
<stop offset="0.4469" stop-color="#00DDD2"/>
<stop offset="1" stop-color="#008B9A"/>
</linearGradient>
<linearGradient id="paint13_linear" x1="357.419" y1="322.429" x2="357.118" y2="345.821" gradientUnits="userSpaceOnUse">
<stop stop-color="#E7FFFE" stop-opacity="0"/>
<stop offset="1" stop-color="#008B9A"/>
</linearGradient>
<linearGradient id="paint14_linear" x1="362.102" y1="319.953" x2="363.004" y2="301.562" gradientUnits="userSpaceOnUse">
<stop stop-color="#00DED3" stop-opacity="0"/>
<stop offset="1" stop-color="#008B9A"/>
</linearGradient>
<linearGradient id="paint15_linear" x1="208.715" y1="940.693" x2="192.564" y2="283.043" gradientUnits="userSpaceOnUse">
<stop stop-color="#00514C" stop-opacity="0"/>
<stop offset="1" stop-color="#00948F"/>
</linearGradient>
<linearGradient id="paint16_linear" x1="185.357" y1="940.693" x2="153.115" y2="284.23" gradientUnits="userSpaceOnUse">
<stop stop-color="#00514C" stop-opacity="0"/>
<stop offset="1" stop-color="#00948F"/>
</linearGradient>
<linearGradient id="paint17_linear" x1="202.977" y1="247.859" x2="153.067" y2="247.859" gradientUnits="userSpaceOnUse">
<stop stop-color="#00DED3"/>
<stop offset="1" stop-color="#008B9A"/>
</linearGradient>
<linearGradient id="paint18_linear" x1="254.728" y1="262.018" x2="131.907" y2="177.569" gradientUnits="userSpaceOnUse">
<stop stop-color="#00EADC"/>
<stop offset="0.393961" stop-color="#008B9A"/>
</linearGradient>
<linearGradient id="paint19_linear" x1="208.526" y1="234.252" x2="208.526" y2="132.029" gradientUnits="userSpaceOnUse">
<stop stop-color="#EFF0F2"/>
<stop offset="0.4469" stop-color="#00DDD2"/>
<stop offset="1" stop-color="#008B9A"/>
</linearGradient>
<linearGradient id="paint20_linear" x1="209.044" y1="233.978" x2="208.348" y2="287.869" gradientUnits="userSpaceOnUse">
<stop stop-color="#E7FFFE" stop-opacity="0"/>
<stop offset="1" stop-color="#008B9A"/>
</linearGradient>
<linearGradient id="paint21_linear" x1="219.831" y1="228.274" x2="221.909" y2="185.903" gradientUnits="userSpaceOnUse">
<stop stop-color="#00DED3" stop-opacity="0"/>
<stop offset="1" stop-color="#008B9A"/>
</linearGradient>
<linearGradient id="paint22_linear" x1="400.028" y1="334.09" x2="396.744" y2="227.586" gradientUnits="userSpaceOnUse">
<stop stop-color="#00ABA1" stop-opacity="0"/>
<stop offset="1" stop-color="#00D6CF"/>
</linearGradient>
<linearGradient id="paint23_linear" x1="1613.06" y1="501.127" x2="1609.27" y2="378.368" gradientUnits="userSpaceOnUse">
<stop stop-color="#00ABA1" stop-opacity="0"/>
<stop offset="1" stop-color="#00D6CF"/>
</linearGradient>
<linearGradient id="paint24_linear" x1="1704.12" y1="355.896" x2="1700.33" y2="233.136" gradientUnits="userSpaceOnUse">
<stop stop-color="#00ABA1" stop-opacity="0"/>
<stop offset="1" stop-color="#00D6CF"/>
</linearGradient>
<linearGradient id="paint25_linear" x1="261.028" y1="180.09" x2="257.744" y2="73.5861" gradientUnits="userSpaceOnUse">
<stop stop-color="#00ABA1" stop-opacity="0"/>
<stop offset="1" stop-color="#00D6CF"/>
</linearGradient>
<linearGradient id="paint26_linear" x1="1628.69" y1="252.531" x2="1627.18" y2="112.741" gradientUnits="userSpaceOnUse">
<stop stop-color="#00514C" stop-opacity="0"/>
<stop offset="1" stop-color="#00948F"/>
</linearGradient>
<linearGradient id="paint27_linear" x1="1617.4" y1="252.531" x2="1614.38" y2="112.79" gradientUnits="userSpaceOnUse">
<stop stop-color="#00514C" stop-opacity="0"/>
<stop offset="1" stop-color="#00948F"/>
</linearGradient>
<linearGradient id="paint28_linear" x1="1625.92" y1="101.587" x2="1601.79" y2="101.587" gradientUnits="userSpaceOnUse">
<stop stop-color="#00DED3"/>
<stop offset="1" stop-color="#008B9A"/>
</linearGradient>
<linearGradient id="paint29_linear" x1="1650.93" y1="108.431" x2="1591.56" y2="67.6119" gradientUnits="userSpaceOnUse">
<stop stop-color="#00EADC"/>
<stop offset="0.393961" stop-color="#008B9A"/>
</linearGradient>
<linearGradient id="paint30_linear" x1="1628.6" y1="95.01" x2="1628.6" y2="45.5993" gradientUnits="userSpaceOnUse">
<stop stop-color="#EFF0F2"/>
<stop offset="0.4469" stop-color="#00DDD2"/>
<stop offset="1" stop-color="#008B9A"/>
</linearGradient>
<linearGradient id="paint31_linear" x1="1628.85" y1="94.8777" x2="1628.51" y2="120.927" gradientUnits="userSpaceOnUse">
<stop stop-color="#E7FFFE" stop-opacity="0"/>
<stop offset="1" stop-color="#008B9A"/>
</linearGradient>
<linearGradient id="paint32_linear" x1="1634.06" y1="92.1206" x2="1635.07" y2="71.6403" gradientUnits="userSpaceOnUse">
<stop stop-color="#00DED3" stop-opacity="0"/>
<stop offset="1" stop-color="#008B9A"/>
</linearGradient>
<clipPath id="clip0">
<rect x="-1" width="1920" height="448" rx="4" fill="white"/>
</clipPath>
</defs>
</svg>
