<svg width="552" height="96" viewBox="0 0 552 96" fill="none" xmlns="http://www.w3.org/2000/svg">
<g clip-path="url(#clip0)">
<path d="M0 8C0 3.58172 3.58172 0 8 0H544C548.418 0 552 3.58172 552 8V96H0V8Z" fill="url(#paint0_linear)"/>
<path d="M517.001 60.069V102.998L476.129 126.647V83.9753L517.001 60.069Z" fill="url(#paint1_linear)"/>
<path d="M476.129 83.9753V126.647L435 102.998V60.069L476.129 83.9753Z" fill="url(#paint2_linear)"/>
<path d="M517.003 60.0689L476.131 83.9752L435.002 60.0689L475.874 36.1626L517.003 60.0689Z" fill="url(#paint3_linear)"/>
<path d="M557.988 83.8125V126.484L516.859 102.835V59.9062L557.988 83.8125Z" fill="url(#paint4_linear)"/>
<path d="M598.863 59.9063L557.99 83.8126L516.861 59.9063L557.733 36L598.863 59.9063Z" fill="url(#paint5_linear)"/>
<path d="M557.86 -6.09378V36.8348L516.988 60.484V17.8125L557.86 -6.09378Z" fill="url(#paint6_linear)"/>
<path d="M516.988 17.8125V60.484L475.859 36.8348V-6.09378L516.988 17.8125Z" fill="url(#paint7_linear)"/>
<path d="M557.863 -6.09373L516.99 17.8126L475.861 -6.09373L516.733 -30L557.863 -6.09373Z" fill="url(#paint8_linear)"/>
</g>
<defs>
<linearGradient id="paint1_linear" x1="480.963" y1="93.4195" x2="524.868" y2="93.4195" gradientUnits="userSpaceOnUse">
<stop stop-color="#00DED3"/>
<stop offset="1" stop-color="#008B9A"/>
</linearGradient>
<linearGradient id="paint2_linear" x1="453.405" y1="138.041" x2="462.579" y2="-52.3307" gradientUnits="userSpaceOnUse">
<stop stop-color="#00EADC"/>
<stop offset="0.5642" stop-color="#008B9A"/>
</linearGradient>
<linearGradient id="paint3_linear" x1="476.019" y1="84.0916" x2="476.019" y2="-6.18032" gradientUnits="userSpaceOnUse">
<stop stop-color="#EFF0F2"/>
<stop offset="0.4469" stop-color="#00DDD2"/>
<stop offset="1" stop-color="#008B9A"/>
</linearGradient>
<linearGradient id="paint4_linear" x1="535.264" y1="137.879" x2="544.439" y2="-52.4935" gradientUnits="userSpaceOnUse">
<stop stop-color="#00EADC"/>
<stop offset="0.5642" stop-color="#008B9A"/>
</linearGradient>
<linearGradient id="paint5_linear" x1="557.878" y1="83.929" x2="557.878" y2="-6.34291" gradientUnits="userSpaceOnUse">
<stop stop-color="#EFF0F2"/>
<stop offset="0.4469" stop-color="#00DDD2"/>
<stop offset="1" stop-color="#008B9A"/>
</linearGradient>
<linearGradient id="paint6_linear" x1="521.822" y1="27.2568" x2="565.727" y2="27.2568" gradientUnits="userSpaceOnUse">
<stop stop-color="#00DED3"/>
<stop offset="1" stop-color="#008B9A"/>
</linearGradient>
<linearGradient id="paint7_linear" x1="494.264" y1="71.8785" x2="503.439" y2="-118.493" gradientUnits="userSpaceOnUse">
<stop stop-color="#00EADC"/>
<stop offset="0.5642" stop-color="#008B9A"/>
</linearGradient>
<linearGradient id="paint8_linear" x1="516.878" y1="17.929" x2="516.878" y2="-72.3429" gradientUnits="userSpaceOnUse">
<stop stop-color="#EFF0F2"/>
<stop offset="0.4469" stop-color="#00DDD2"/>
<stop offset="1" stop-color="#008B9A"/>
</linearGradient>
<clipPath id="clip0">
<path d="M0 8C0 3.58172 3.58172 0 8 0H544C548.418 0 552 3.58172 552 8V96H0V8Z" fill="white"/>
</clipPath>
</defs>
</svg>
