<svg width="1920" height="170" viewBox="0 0 1920 170" fill="none" xmlns="http://www.w3.org/2000/svg">
<g opacity="0.5">
<path d="M319.904 50.4896V128.643H354.417V50.76C354.621 50.0839 354.417 49.4079 353.702 48.867L339.1 37.6443C338.079 36.8331 336.344 36.8331 335.322 37.6443L320.721 48.867C320.108 49.2727 319.802 49.9487 319.904 50.4896Z" fill="url(#paint0_linear)"/>
<path d="M337.088 128.507V37.4788C337.088 37.343 337.188 37.2071 337.188 37.0712C336.389 36.9354 335.49 37.2071 334.891 37.6147L320.608 48.8913C320.009 49.2989 319.809 49.9782 319.909 50.6575V128.643H337.088V128.507Z" fill="url(#paint1_linear)"/>
</g>
<path d="M354.41 44.8733V62.5839L337.31 72.4571V54.7465L354.41 44.8733Z" fill="url(#paint2_linear)"/>
<path d="M337.309 54.7465V72.4571L320.006 62.5839V44.8733L337.309 54.7465Z" fill="url(#paint3_linear)"/>
<path d="M354.409 44.8732L337.309 54.7464L320.006 44.8732L337.208 35L354.409 44.8732Z" fill="url(#paint4_linear)"/>
<g opacity="0.5">
<path d="M1168.01 118.255V170H1190.86V118.434C1191 117.987 1190.86 117.539 1190.39 117.181L1180.72 109.751C1180.05 109.214 1178.9 109.214 1178.22 109.751L1168.55 117.181C1168.15 117.45 1167.95 117.897 1168.01 118.255Z" fill="url(#paint5_linear)"/>
<path d="M1179.39 169.91V109.641C1179.39 109.551 1179.46 109.461 1179.46 109.371C1178.93 109.281 1178.33 109.461 1177.94 109.731L1168.48 117.197C1168.08 117.467 1167.95 117.917 1168.02 118.367V170H1179.39V169.91Z" fill="url(#paint6_linear)"/>
</g>
<path d="M1190.86 114.537V126.263L1179.54 132.8V121.074L1190.86 114.537Z" fill="url(#paint7_linear)"/>
<path d="M1179.54 121.074V132.8L1168.08 126.263V114.537L1179.54 121.074Z" fill="url(#paint8_linear)"/>
<path d="M1190.86 114.537L1179.54 121.074L1168.08 114.537L1179.47 108L1190.86 114.537Z" fill="url(#paint9_linear)"/>
<g opacity="0.5">
<path d="M288.011 91.439V136.931H308.101V91.5964C308.22 91.2029 308.101 90.8094 307.685 90.4946L299.185 83.962C298.591 83.4897 297.58 83.4897 296.986 83.962L288.487 90.4946C288.13 90.7307 287.952 91.1242 288.011 91.439Z" fill="url(#paint10_linear)"/>
<path d="M298.014 136.852V83.8656C298.014 83.7865 298.072 83.7074 298.072 83.6284C297.607 83.5493 297.084 83.7074 296.735 83.9447L288.421 90.5087C288.072 90.7459 287.956 91.1414 288.014 91.5368V136.931H298.014V136.852Z" fill="url(#paint11_linear)"/>
</g>
<path d="M308.096 88.1699V98.4791L298.143 104.226V93.917L308.096 88.1699Z" fill="url(#paint12_linear)"/>
<path d="M298.142 93.917V104.226L288.07 98.4791V88.1699L298.142 93.917Z" fill="url(#paint13_linear)"/>
<path d="M308.096 88.1699L298.142 93.917L288.07 88.1699L298.083 82.4229L308.096 88.1699Z" fill="url(#paint14_linear)"/>
<g opacity="0.5">
<path d="M1428.03 31.1799V133H1472.99V31.5322C1473.26 30.6514 1472.99 29.7707 1472.06 29.066L1453.03 14.4448C1451.7 13.3879 1449.44 13.3879 1448.11 14.4448L1429.09 29.066C1428.29 29.5945 1427.89 30.4753 1428.03 31.1799Z" fill="url(#paint15_linear)"/>
<path d="M1450.41 132.823V14.2292C1450.41 14.0522 1450.54 13.8751 1450.54 13.6981C1449.5 13.5211 1448.33 13.8751 1447.55 14.4062L1428.94 29.0976C1428.16 29.6286 1427.9 30.5137 1428.03 31.3987V133H1450.41V132.823Z" fill="url(#paint16_linear)"/>
</g>
<path d="M1472.98 23.8632V46.9371L1450.7 59.8001V36.7262L1472.98 23.8632Z" fill="url(#paint17_linear)"/>
<path d="M1450.7 36.7262V59.8001L1428.16 46.9371V23.8632L1450.7 36.7262Z" fill="url(#paint18_linear)"/>
<path d="M1472.98 23.863L1450.7 36.7261L1428.16 23.863L1450.57 11L1472.98 23.863Z" fill="url(#paint19_linear)"/>
<g opacity="0.5">
<path d="M1382.01 92.2554V144H1404.86V92.4345C1405 91.9869 1404.86 91.5392 1404.39 91.1811L1394.72 83.7507C1394.05 83.2136 1392.9 83.2136 1392.22 83.7507L1382.55 91.1811C1382.15 91.4497 1381.95 91.8973 1382.01 92.2554Z" fill="url(#paint20_linear)"/>
<path d="M1393.39 143.91V83.6411C1393.39 83.5511 1393.46 83.4612 1393.46 83.3712C1392.93 83.2813 1392.33 83.4612 1391.94 83.7311L1382.48 91.1972C1382.08 91.4671 1381.95 91.9168 1382.02 92.3666V144H1393.39V143.91Z" fill="url(#paint21_linear)"/>
</g>
<path d="M1404.86 88.5369V100.263L1393.54 106.8V95.0739L1404.86 88.5369Z" fill="url(#paint22_linear)"/>
<path d="M1393.54 95.0739V106.8L1382.08 100.263V88.5369L1393.54 95.0739Z" fill="url(#paint23_linear)"/>
<path d="M1404.86 88.537L1393.54 95.0739L1382.08 88.537L1393.47 82L1404.86 88.537Z" fill="url(#paint24_linear)"/>
<g opacity="0.5">
<path d="M1473.01 102.255V154H1495.86V102.434C1496 101.987 1495.86 101.539 1495.39 101.181L1485.72 93.7507C1485.05 93.2136 1483.9 93.2136 1483.22 93.7507L1473.55 101.181C1473.15 101.45 1472.95 101.897 1473.01 102.255Z" fill="url(#paint25_linear)"/>
<path d="M1484.39 153.91V93.6411C1484.39 93.5511 1484.46 93.4612 1484.46 93.3712C1483.93 93.2813 1483.33 93.4612 1482.94 93.7311L1473.48 101.197C1473.08 101.467 1472.95 101.917 1473.02 102.367V154H1484.39V153.91Z" fill="url(#paint26_linear)"/>
</g>
<path d="M1495.86 98.5369V110.263L1484.54 116.8V105.074L1495.86 98.5369Z" fill="url(#paint27_linear)"/>
<path d="M1484.54 105.074V116.8L1473.08 110.263V98.5369L1484.54 105.074Z" fill="url(#paint28_linear)"/>
<path d="M1495.86 98.537L1484.54 105.074L1473.08 98.537L1484.47 92L1495.86 98.537Z" fill="url(#paint29_linear)"/>
<defs>
<linearGradient id="paint0_linear" x1="337.243" y1="28.7204" x2="337.214" y2="114.693" gradientUnits="userSpaceOnUse">
<stop stop-color="#00B6C8"/>
<stop offset="1" stop-color="#00FFFF" stop-opacity="0"/>
</linearGradient>
<linearGradient id="paint1_linear" x1="328.477" y1="36.7997" x2="328.477" y2="118.317" gradientUnits="userSpaceOnUse">
<stop stop-color="#00B6C8"/>
<stop offset="1" stop-color="#00FFFF" stop-opacity="0"/>
</linearGradient>
<linearGradient id="paint2_linear" x1="360.044" y1="9.24892" x2="332.48" y2="105.246" gradientUnits="userSpaceOnUse">
<stop stop-color="#A6D7E8"/>
<stop offset="0.1065" stop-color="#AFDCEA"/>
<stop offset="0.7033" stop-color="#DFF5F3"/>
<stop offset="1" stop-color="#F2FFF7"/>
</linearGradient>
<linearGradient id="paint3_linear" x1="327.772" y1="77.1331" x2="331.568" y2="-1.63621" gradientUnits="userSpaceOnUse">
<stop stop-color="#A6D7E8"/>
<stop offset="0.1065" stop-color="#AFDCEA"/>
<stop offset="0.7033" stop-color="#DFF5F3"/>
<stop offset="1" stop-color="#F2FFF7"/>
</linearGradient>
<linearGradient id="paint4_linear" x1="320.05" y1="44.8758" x2="354.433" y2="44.8758" gradientUnits="userSpaceOnUse">
<stop stop-color="#F2FFF7"/>
<stop offset="1" stop-color="white"/>
</linearGradient>
<linearGradient id="paint5_linear" x1="1179.49" y1="103.842" x2="1179.47" y2="160.764" gradientUnits="userSpaceOnUse">
<stop stop-color="#00B6C8"/>
<stop offset="1" stop-color="#00FFFF" stop-opacity="0"/>
</linearGradient>
<linearGradient id="paint6_linear" x1="1173.69" y1="109.191" x2="1173.69" y2="163.164" gradientUnits="userSpaceOnUse">
<stop stop-color="#00B6C8"/>
<stop offset="1" stop-color="#00FFFF" stop-opacity="0"/>
</linearGradient>
<linearGradient id="paint7_linear" x1="1194.59" y1="90.9503" x2="1176.34" y2="154.509" gradientUnits="userSpaceOnUse">
<stop stop-color="#A6D7E8"/>
<stop offset="0.1065" stop-color="#AFDCEA"/>
<stop offset="0.7033" stop-color="#DFF5F3"/>
<stop offset="1" stop-color="#F2FFF7"/>
</linearGradient>
<linearGradient id="paint8_linear" x1="1173.22" y1="135.896" x2="1175.74" y2="83.7433" gradientUnits="userSpaceOnUse">
<stop stop-color="#A6D7E8"/>
<stop offset="0.1065" stop-color="#AFDCEA"/>
<stop offset="0.7033" stop-color="#DFF5F3"/>
<stop offset="1" stop-color="#F2FFF7"/>
</linearGradient>
<linearGradient id="paint9_linear" x1="1168.11" y1="114.539" x2="1190.87" y2="114.539" gradientUnits="userSpaceOnUse">
<stop stop-color="#F2FFF7"/>
<stop offset="1" stop-color="white"/>
</linearGradient>
<linearGradient id="paint10_linear" x1="298.104" y1="78.7674" x2="298.087" y2="128.811" gradientUnits="userSpaceOnUse">
<stop stop-color="#00B6C8"/>
<stop offset="1" stop-color="#00FFFF" stop-opacity="0"/>
</linearGradient>
<linearGradient id="paint11_linear" x1="293.001" y1="83.4703" x2="293.001" y2="130.921" gradientUnits="userSpaceOnUse">
<stop stop-color="#00B6C8"/>
<stop offset="1" stop-color="#00FFFF" stop-opacity="0"/>
</linearGradient>
<linearGradient id="paint12_linear" x1="311.376" y1="67.4334" x2="295.331" y2="123.312" gradientUnits="userSpaceOnUse">
<stop stop-color="#A6D7E8"/>
<stop offset="0.1065" stop-color="#AFDCEA"/>
<stop offset="0.7033" stop-color="#DFF5F3"/>
<stop offset="1" stop-color="#F2FFF7"/>
</linearGradient>
<linearGradient id="paint13_linear" x1="292.591" y1="106.948" x2="294.8" y2="61.0973" gradientUnits="userSpaceOnUse">
<stop stop-color="#A6D7E8"/>
<stop offset="0.1065" stop-color="#AFDCEA"/>
<stop offset="0.7033" stop-color="#DFF5F3"/>
<stop offset="1" stop-color="#F2FFF7"/>
</linearGradient>
<linearGradient id="paint14_linear" x1="288.096" y1="88.1715" x2="308.11" y2="88.1715" gradientUnits="userSpaceOnUse">
<stop stop-color="#F2FFF7"/>
<stop offset="1" stop-color="white"/>
</linearGradient>
<linearGradient id="paint15_linear" x1="1450.61" y1="2.81849" x2="1450.58" y2="114.826" gradientUnits="userSpaceOnUse">
<stop stop-color="#00B6C8"/>
<stop offset="1" stop-color="#00FFFF" stop-opacity="0"/>
</linearGradient>
<linearGradient id="paint16_linear" x1="1439.19" y1="13.3444" x2="1439.19" y2="119.548" gradientUnits="userSpaceOnUse">
<stop stop-color="#00B6C8"/>
<stop offset="1" stop-color="#00FFFF" stop-opacity="0"/>
</linearGradient>
<linearGradient id="paint17_linear" x1="1480.32" y1="-22.5492" x2="1444.41" y2="102.518" gradientUnits="userSpaceOnUse">
<stop stop-color="#A6D7E8"/>
<stop offset="0.1065" stop-color="#AFDCEA"/>
<stop offset="0.7033" stop-color="#DFF5F3"/>
<stop offset="1" stop-color="#F2FFF7"/>
</linearGradient>
<linearGradient id="paint18_linear" x1="1438.28" y1="65.8921" x2="1443.22" y2="-36.7306" gradientUnits="userSpaceOnUse">
<stop stop-color="#A6D7E8"/>
<stop offset="0.1065" stop-color="#AFDCEA"/>
<stop offset="0.7033" stop-color="#DFF5F3"/>
<stop offset="1" stop-color="#F2FFF7"/>
</linearGradient>
<linearGradient id="paint19_linear" x1="1428.22" y1="23.8665" x2="1473.01" y2="23.8665" gradientUnits="userSpaceOnUse">
<stop stop-color="#F2FFF7"/>
<stop offset="1" stop-color="white"/>
</linearGradient>
<linearGradient id="paint20_linear" x1="1393.49" y1="77.8422" x2="1393.47" y2="134.764" gradientUnits="userSpaceOnUse">
<stop stop-color="#00B6C8"/>
<stop offset="1" stop-color="#00FFFF" stop-opacity="0"/>
</linearGradient>
<linearGradient id="paint21_linear" x1="1387.69" y1="83.1915" x2="1387.69" y2="137.164" gradientUnits="userSpaceOnUse">
<stop stop-color="#00B6C8"/>
<stop offset="1" stop-color="#00FFFF" stop-opacity="0"/>
</linearGradient>
<linearGradient id="paint22_linear" x1="1408.59" y1="64.9503" x2="1390.34" y2="128.509" gradientUnits="userSpaceOnUse">
<stop stop-color="#A6D7E8"/>
<stop offset="0.1065" stop-color="#AFDCEA"/>
<stop offset="0.7033" stop-color="#DFF5F3"/>
<stop offset="1" stop-color="#F2FFF7"/>
</linearGradient>
<linearGradient id="paint23_linear" x1="1387.22" y1="109.896" x2="1389.74" y2="57.7433" gradientUnits="userSpaceOnUse">
<stop stop-color="#A6D7E8"/>
<stop offset="0.1065" stop-color="#AFDCEA"/>
<stop offset="0.7033" stop-color="#DFF5F3"/>
<stop offset="1" stop-color="#F2FFF7"/>
</linearGradient>
<linearGradient id="paint24_linear" x1="1382.11" y1="88.5387" x2="1404.87" y2="88.5387" gradientUnits="userSpaceOnUse">
<stop stop-color="#F2FFF7"/>
<stop offset="1" stop-color="white"/>
</linearGradient>
<linearGradient id="paint25_linear" x1="1484.49" y1="87.8422" x2="1484.47" y2="144.764" gradientUnits="userSpaceOnUse">
<stop stop-color="#00B6C8"/>
<stop offset="1" stop-color="#00FFFF" stop-opacity="0"/>
</linearGradient>
<linearGradient id="paint26_linear" x1="1478.69" y1="93.1915" x2="1478.69" y2="147.164" gradientUnits="userSpaceOnUse">
<stop stop-color="#00B6C8"/>
<stop offset="1" stop-color="#00FFFF" stop-opacity="0"/>
</linearGradient>
<linearGradient id="paint27_linear" x1="1499.59" y1="74.9503" x2="1481.34" y2="138.509" gradientUnits="userSpaceOnUse">
<stop stop-color="#A6D7E8"/>
<stop offset="0.1065" stop-color="#AFDCEA"/>
<stop offset="0.7033" stop-color="#DFF5F3"/>
<stop offset="1" stop-color="#F2FFF7"/>
</linearGradient>
<linearGradient id="paint28_linear" x1="1478.22" y1="119.896" x2="1480.74" y2="67.7433" gradientUnits="userSpaceOnUse">
<stop stop-color="#A6D7E8"/>
<stop offset="0.1065" stop-color="#AFDCEA"/>
<stop offset="0.7033" stop-color="#DFF5F3"/>
<stop offset="1" stop-color="#F2FFF7"/>
</linearGradient>
<linearGradient id="paint29_linear" x1="1473.11" y1="98.5387" x2="1495.87" y2="98.5387" gradientUnits="userSpaceOnUse">
<stop stop-color="#F2FFF7"/>
<stop offset="1" stop-color="white"/>
</linearGradient>
</defs>
</svg>
