<svg width="252" height="359" viewBox="0 0 252 359" fill="none" xmlns="http://www.w3.org/2000/svg">
<path d="M210.234 309.145L124.505 359V258.25L210.234 208.395V309.145Z" fill="url(#paint0_linear)"/>
<path d="M38.7761 309.145L124.505 359V258.25L38.7761 208.395V309.145Z" fill="url(#paint1_linear)"/>
<path d="M210.234 208.423L124.532 158.58L38.7762 208.423L124.532 258.211L210.234 208.423Z" fill="url(#paint2_linear)"/>
<path opacity="0.3" d="M209.075 308.633L124.532 259.369L39.9348 308.633L124.532 357.842L209.075 308.633Z" fill="url(#paint3_linear)"/>
<path opacity="0.2" d="M124.505 258.555L38.7761 308.026V208.051L124.505 158.58V258.555Z" fill="url(#paint4_linear)"/>
<g opacity="0.2">
<path opacity="0.6" d="M184.515 294.039L124.505 328.937V258.412L184.515 223.514V294.039Z" fill="url(#paint5_linear)"/>
<path opacity="0.6" d="M64.4948 294.039L124.505 328.937V258.412L64.4948 223.514V294.039Z" fill="url(#paint6_linear)"/>
<path opacity="0.6" d="M184.515 223.533L124.524 188.643L64.4948 223.533L124.524 258.384L184.515 223.533Z" fill="url(#paint7_linear)"/>
<path opacity="0.6" d="M183.704 293.679L124.524 259.195L65.3057 293.679L124.524 328.126L183.704 293.679Z" fill="url(#paint8_linear)"/>
<path opacity="0.6" d="M124.505 258.625L64.4948 293.255V223.272L124.505 188.643V258.625Z" fill="url(#paint9_linear)"/>
</g>
<path opacity="0.4" fill-rule="evenodd" clip-rule="evenodd" d="M124.505 188.267L124.524 188.255L184.499 223.136L184.515 223.126V293.651L124.505 328.55L64.4948 293.651V222.885L124.505 188.255V188.267Z" fill="url(#paint10_radial)"/>
<g opacity="0.5">
<path opacity="0.3" d="M251.964 0.101959L171 0.101966L171 85.4412L251.964 85.4412L251.964 0.101959Z" fill="url(#paint11_linear)"/>
<path opacity="0.1" d="M211.482 0.101959L171 0.101963L171 85.4412L211.482 85.4412L211.482 0.101959Z" fill="url(#paint12_linear)"/>
</g>
<path d="M251.964 132.422L211.482 155.964V108.389L251.964 84.8474V132.422Z" fill="url(#paint13_linear)"/>
<path d="M171 132.422L211.482 155.964V108.389L171 84.8474V132.422Z" fill="url(#paint14_linear)"/>
<path d="M251.964 84.8603L211.495 61.3242L171 84.8603L211.495 108.371L251.964 84.8603Z" fill="url(#paint15_linear)"/>
<path opacity="0.3" d="M251.417 132.18L211.495 108.918L171.547 132.18L211.495 155.417L251.417 132.18Z" fill="url(#paint16_linear)"/>
<path opacity="0.2" d="M211.482 108.533L171 131.894V84.6849L211.482 61.3242V108.533Z" fill="url(#paint17_linear)"/>
<g opacity="0.2">
<path opacity="0.6" d="M239.819 125.289L211.482 141.768V108.466L239.819 91.9863V125.289Z" fill="url(#paint18_linear)"/>
<path opacity="0.6" d="M183.145 125.289L211.482 141.768V108.466L183.145 91.9863V125.289Z" fill="url(#paint19_linear)"/>
<path opacity="0.6" d="M239.819 91.9953L211.491 75.52L183.145 91.9953L211.491 108.453L239.819 91.9953Z" fill="url(#paint20_linear)"/>
<path opacity="0.6" d="M239.436 125.119L211.491 108.835L183.527 125.119L211.491 141.385L239.436 125.119Z" fill="url(#paint21_linear)"/>
<path opacity="0.6" d="M211.482 108.566L183.145 124.919V91.8725L211.482 75.52V108.566Z" fill="url(#paint22_linear)"/>
</g>
<path opacity="0.4" fill-rule="evenodd" clip-rule="evenodd" d="M211.482 75.3424L211.491 75.3372L239.811 91.808L239.819 91.8035V125.106L211.482 141.585L183.145 125.106V91.6896L211.482 75.3372V75.3424Z" fill="url(#paint23_radial)"/>
<path d="M194.86 84.9969L182.93 91.9346V77.9144L194.86 70.9768V84.9969Z" fill="url(#paint24_linear)"/>
<path d="M171 84.9969L182.93 91.9346V77.9144L171 70.9768V84.9969Z" fill="url(#paint25_linear)"/>
<path d="M194.86 70.9809L182.934 64.0449L171 70.9809L182.934 77.9093L194.86 70.9809Z" fill="url(#paint26_linear)"/>
<path opacity="0.3" d="M194.698 84.9257L182.934 78.0703L171.161 84.9257L182.934 91.7735L194.698 84.9257Z" fill="url(#paint27_linear)"/>
<path opacity="0.2" d="M182.93 77.9572L171 84.8415V70.9292L182.93 64.0449V77.9572Z" fill="url(#paint28_linear)"/>
<path d="M223.43 101.323L211.5 108.261V94.2406L223.43 87.303V101.323Z" fill="url(#paint29_linear)"/>
<path d="M199.57 101.323L211.5 108.261V94.2406L199.57 87.303V101.323Z" fill="url(#paint30_linear)"/>
<path d="M223.43 87.3068L211.504 80.3708L199.57 87.3068L211.504 94.2352L223.43 87.3068Z" fill="url(#paint31_linear)"/>
<path opacity="0.3" d="M223.269 101.252L211.504 94.3965L199.731 101.252L211.504 108.1L223.269 101.252Z" fill="url(#paint32_linear)"/>
<path opacity="0.2" d="M211.5 94.2831L199.57 101.167V87.2551L211.5 80.3708V94.2831Z" fill="url(#paint33_linear)"/>
<path d="M252 84.9969L240.07 91.9346V77.9144L252 70.9768V84.9969Z" fill="url(#paint34_linear)"/>
<path d="M228.14 84.9969L240.07 91.9346V77.9144L228.14 70.9768V84.9969Z" fill="url(#paint35_linear)"/>
<path d="M252 70.9809L240.074 64.0449L228.14 70.9809L240.074 77.9093L252 70.9809Z" fill="url(#paint36_linear)"/>
<path opacity="0.3" d="M251.839 84.9257L240.074 78.0703L228.302 84.9257L240.074 91.7735L251.839 84.9257Z" fill="url(#paint37_linear)"/>
<path opacity="0.2" d="M240.07 77.9572L228.14 84.8415V70.9292L240.07 64.0449V77.9572Z" fill="url(#paint38_linear)"/>
<path d="M223.43 68.6713L211.5 75.6089V61.5888L223.43 54.6511V68.6713Z" fill="url(#paint39_linear)"/>
<path d="M199.57 68.6713L211.5 75.6089V61.5888L199.57 54.6511V68.6713Z" fill="url(#paint40_linear)"/>
<path d="M223.43 54.6552L211.504 47.7192L199.57 54.6552L211.504 61.5836L223.43 54.6552Z" fill="url(#paint41_linear)"/>
<path opacity="0.3" d="M223.269 68.6L211.504 61.7446L199.731 68.6L211.504 75.4478L223.269 68.6Z" fill="url(#paint42_linear)"/>
<path opacity="0.2" d="M211.5 61.6315L199.57 68.5158V54.6035L211.5 47.7192V61.6315Z" fill="url(#paint43_linear)"/>
<path d="M251.465 333.181L211.232 356.578V309.296L251.465 285.899V333.181Z" fill="url(#paint44_linear)"/>
<path d="M171 333.181L211.232 356.578V309.296L171 285.899V333.181Z" fill="url(#paint45_linear)"/>
<path d="M251.465 285.912L211.245 262.521L171 285.912L211.245 309.278L251.465 285.912Z" fill="url(#paint46_linear)"/>
<path d="M194.208 285.605L182.604 292.353V278.716L194.208 271.968V285.605Z" fill="url(#paint47_linear)"/>
<path d="M171 285.605L182.604 292.353V278.716L171 271.968V285.605Z" fill="url(#paint48_linear)"/>
<path d="M194.208 271.972L182.608 265.225L171 271.972L182.608 278.711L194.208 271.972Z" fill="url(#paint49_linear)"/>
<path d="M222.602 302.506L210.998 309.254V295.617L222.602 288.869V302.506Z" fill="url(#paint50_linear)"/>
<path d="M199.394 302.506L210.998 309.254V295.617L199.394 288.869V302.506Z" fill="url(#paint51_linear)"/>
<path d="M222.602 288.873L211.002 282.126L199.394 288.873L211.002 295.612L222.602 288.873Z" fill="url(#paint52_linear)"/>
<path d="M251.672 286.281L240.068 293.029V279.392L251.672 272.644V286.281Z" fill="url(#paint53_linear)"/>
<path d="M228.464 286.281L240.068 293.029V279.392L228.464 272.644V286.281Z" fill="url(#paint54_linear)"/>
<path d="M251.672 272.648L240.072 265.901L228.464 272.648L240.072 279.387L251.672 272.648Z" fill="url(#paint55_linear)"/>
<path d="M222.602 269.38L210.998 276.128V262.491L222.602 255.743V269.38Z" fill="url(#paint56_linear)"/>
<path d="M199.394 269.38L210.998 276.128V262.491L199.394 255.743V269.38Z" fill="url(#paint57_linear)"/>
<path d="M222.602 255.746L211.002 249L199.394 255.746L211.002 262.485L222.602 255.746Z" fill="url(#paint58_linear)"/>
<path d="M80.4647 333.181L40.2324 356.578V309.296L80.4647 285.899V333.181Z" fill="url(#paint59_linear)"/>
<path d="M0 333.181L40.2324 356.578V309.296L0 285.899V333.181Z" fill="url(#paint60_linear)"/>
<path d="M80.4648 285.912L40.2452 262.521L3.05176e-05 285.912L40.2452 309.278L80.4648 285.912Z" fill="url(#paint61_linear)"/>
<path d="M23.2075 285.605L11.6038 292.353V278.716L23.2075 271.968V285.605Z" fill="url(#paint62_linear)"/>
<path d="M0 285.605L11.6038 292.353V278.716L0 271.968V285.605Z" fill="url(#paint63_linear)"/>
<path d="M23.2076 271.972L11.6075 265.225L6.10352e-05 271.972L11.6075 278.711L23.2076 271.972Z" fill="url(#paint64_linear)"/>
<path d="M51.6017 302.506L39.9979 309.254V295.617L51.6017 288.869V302.506Z" fill="url(#paint65_linear)"/>
<path d="M28.3941 302.506L39.9979 309.254V295.617L28.3941 288.869V302.506Z" fill="url(#paint66_linear)"/>
<path d="M51.6017 288.873L40.0016 282.126L28.3942 288.873L40.0016 295.612L51.6017 288.873Z" fill="url(#paint67_linear)"/>
<path d="M80.6718 286.281L69.0681 293.029V279.392L80.6718 272.644V286.281Z" fill="url(#paint68_linear)"/>
<path d="M57.4643 286.281L69.0681 293.029V279.392L57.4643 272.644V286.281Z" fill="url(#paint69_linear)"/>
<path d="M80.6719 272.648L69.0718 265.901L57.4644 272.648L69.0718 279.387L80.6719 272.648Z" fill="url(#paint70_linear)"/>
<path d="M51.6017 269.38L39.9979 276.128V262.491L51.6017 255.743V269.38Z" fill="url(#paint71_linear)"/>
<path d="M28.3941 269.38L39.9979 276.128V262.491L28.3941 255.743V269.38Z" fill="url(#paint72_linear)"/>
<path d="M51.6017 255.746L40.0016 249L28.3942 255.746L40.0016 262.485L51.6017 255.746Z" fill="url(#paint73_linear)"/>
<path d="M80.4647 165.66L40.2324 189.057V141.775L80.4647 118.378V165.66Z" fill="url(#paint74_linear)"/>
<path d="M0 165.66L40.2324 189.057V141.775L0 118.378V165.66Z" fill="url(#paint75_linear)"/>
<path d="M80.4648 118.391L40.2452 95L3.05176e-05 118.391L40.2452 141.757L80.4648 118.391Z" fill="url(#paint76_linear)"/>
<defs>
<linearGradient id="paint0_linear" x1="134.688" y1="283.687" x2="226.704" y2="283.687" gradientUnits="userSpaceOnUse">
<stop stop-color="#00DED3"/>
<stop offset="1" stop-color="#008B9A"/>
</linearGradient>
<linearGradient id="paint1_linear" x1="39.278" y1="309.791" x2="265.713" y2="154.098" gradientUnits="userSpaceOnUse">
<stop stop-color="#00EADC"/>
<stop offset="0.393961" stop-color="#008B9A"/>
</linearGradient>
<linearGradient id="paint2_linear" x1="124.457" y1="258.6" x2="124.457" y2="70.1386" gradientUnits="userSpaceOnUse">
<stop stop-color="#EFF0F2"/>
<stop offset="0.4469" stop-color="#00DDD2"/>
<stop offset="1" stop-color="#008B9A"/>
</linearGradient>
<linearGradient id="paint3_linear" x1="123.503" y1="258.096" x2="124.784" y2="357.451" gradientUnits="userSpaceOnUse">
<stop stop-color="#E7FFFE" stop-opacity="0"/>
<stop offset="1" stop-color="#008B9A"/>
</linearGradient>
<linearGradient id="paint4_linear" x1="103.615" y1="247.58" x2="99.7832" y2="169.464" gradientUnits="userSpaceOnUse">
<stop stop-color="#00DED3" stop-opacity="0"/>
<stop offset="1" stop-color="#008B9A"/>
</linearGradient>
<linearGradient id="paint5_linear" x1="124.505" y1="255.739" x2="184.515" y2="255.739" gradientUnits="userSpaceOnUse">
<stop stop-color="white"/>
<stop offset="1" stop-color="#00DAD1"/>
</linearGradient>
<linearGradient id="paint6_linear" x1="124.505" y1="267.169" x2="64.4947" y2="267.169" gradientUnits="userSpaceOnUse">
<stop stop-color="white"/>
<stop offset="1" stop-color="#00DAD1"/>
</linearGradient>
<linearGradient id="paint7_linear" x1="124.505" y1="258.596" x2="124.505" y2="190.013" gradientUnits="userSpaceOnUse">
<stop stop-color="white"/>
<stop offset="1" stop-color="#00DAD1"/>
</linearGradient>
<linearGradient id="paint8_linear" x1="124.492" y1="261.454" x2="124.492" y2="327.18" gradientUnits="userSpaceOnUse">
<stop stop-color="white"/>
<stop offset="1" stop-color="#00DAD1"/>
</linearGradient>
<linearGradient id="paint9_linear" x1="124.505" y1="258.293" x2="64.4947" y2="258.293" gradientUnits="userSpaceOnUse">
<stop stop-color="white"/>
<stop offset="1" stop-color="#00DAD1"/>
</linearGradient>
<radialGradient id="paint10_radial" cx="0" cy="0" r="1" gradientUnits="userSpaceOnUse" gradientTransform="translate(124.505 258.597) rotate(90) scale(84.0802 75.1937)">
<stop stop-color="white"/>
<stop offset="1" stop-color="#00FFF4" stop-opacity="0"/>
</radialGradient>
<linearGradient id="paint11_linear" x1="211.669" y1="0.101964" x2="211.376" y2="82.8062" gradientUnits="userSpaceOnUse">
<stop stop-color="#00FFF0" stop-opacity="0"/>
<stop offset="1" stop-color="#00CAC4"/>
</linearGradient>
<linearGradient id="paint12_linear" x1="191.334" y1="0.101962" x2="190.748" y2="82.8031" gradientUnits="userSpaceOnUse">
<stop stop-color="#00FFF0" stop-opacity="0"/>
<stop offset="1" stop-color="#00CAC4"/>
</linearGradient>
<linearGradient id="paint13_linear" x1="216.29" y1="120.401" x2="259.741" y2="120.401" gradientUnits="userSpaceOnUse">
<stop stop-color="#00DED3"/>
<stop offset="1" stop-color="#008B9A"/>
</linearGradient>
<linearGradient id="paint14_linear" x1="171.237" y1="132.727" x2="278.162" y2="59.2078" gradientUnits="userSpaceOnUse">
<stop stop-color="#00EADC"/>
<stop offset="0.393961" stop-color="#008B9A"/>
</linearGradient>
<linearGradient id="paint15_linear" x1="211.459" y1="108.554" x2="211.459" y2="19.5613" gradientUnits="userSpaceOnUse">
<stop stop-color="#EFF0F2"/>
<stop offset="0.4469" stop-color="#00DDD2"/>
<stop offset="1" stop-color="#008B9A"/>
</linearGradient>
<linearGradient id="paint16_linear" x1="211.009" y1="108.316" x2="211.614" y2="155.233" gradientUnits="userSpaceOnUse">
<stop stop-color="#E7FFFE" stop-opacity="0"/>
<stop offset="1" stop-color="#008B9A"/>
</linearGradient>
<linearGradient id="paint17_linear" x1="201.617" y1="103.35" x2="199.808" y2="66.4636" gradientUnits="userSpaceOnUse">
<stop stop-color="#00DED3" stop-opacity="0"/>
<stop offset="1" stop-color="#008B9A"/>
</linearGradient>
<linearGradient id="paint18_linear" x1="211.482" y1="107.203" x2="239.819" y2="107.203" gradientUnits="userSpaceOnUse">
<stop stop-color="white"/>
<stop offset="1" stop-color="#00DAD1"/>
</linearGradient>
<linearGradient id="paint19_linear" x1="211.482" y1="112.601" x2="183.145" y2="112.601" gradientUnits="userSpaceOnUse">
<stop stop-color="white"/>
<stop offset="1" stop-color="#00DAD1"/>
</linearGradient>
<linearGradient id="paint20_linear" x1="211.482" y1="108.553" x2="211.482" y2="76.1673" gradientUnits="userSpaceOnUse">
<stop stop-color="white"/>
<stop offset="1" stop-color="#00DAD1"/>
</linearGradient>
<linearGradient id="paint21_linear" x1="211.476" y1="109.902" x2="211.476" y2="140.938" gradientUnits="userSpaceOnUse">
<stop stop-color="white"/>
<stop offset="1" stop-color="#00DAD1"/>
</linearGradient>
<linearGradient id="paint22_linear" x1="211.482" y1="108.409" x2="183.145" y2="108.409" gradientUnits="userSpaceOnUse">
<stop stop-color="white"/>
<stop offset="1" stop-color="#00DAD1"/>
</linearGradient>
<radialGradient id="paint23_radial" cx="0" cy="0" r="1" gradientUnits="userSpaceOnUse" gradientTransform="translate(211.482 108.553) rotate(90) scale(39.7033 35.5071)">
<stop stop-color="white"/>
<stop offset="1" stop-color="#00FFF4" stop-opacity="0"/>
</radialGradient>
<linearGradient id="paint24_linear" x1="184.347" y1="81.4542" x2="197.152" y2="81.4542" gradientUnits="userSpaceOnUse">
<stop stop-color="#00DED3"/>
<stop offset="1" stop-color="#008B9A"/>
</linearGradient>
<linearGradient id="paint25_linear" x1="171.07" y1="85.0868" x2="202.58" y2="63.4209" gradientUnits="userSpaceOnUse">
<stop stop-color="#00EADC"/>
<stop offset="0.393961" stop-color="#008B9A"/>
</linearGradient>
<linearGradient id="paint26_linear" x1="182.923" y1="77.9634" x2="182.923" y2="51.7376" gradientUnits="userSpaceOnUse">
<stop stop-color="#EFF0F2"/>
<stop offset="0.4469" stop-color="#00DDD2"/>
<stop offset="1" stop-color="#008B9A"/>
</linearGradient>
<linearGradient id="paint27_linear" x1="182.79" y1="77.8931" x2="182.969" y2="91.7191" gradientUnits="userSpaceOnUse">
<stop stop-color="#E7FFFE" stop-opacity="0"/>
<stop offset="1" stop-color="#008B9A"/>
</linearGradient>
<linearGradient id="paint28_linear" x1="180.023" y1="76.4299" x2="179.49" y2="65.5595" gradientUnits="userSpaceOnUse">
<stop stop-color="#00DED3" stop-opacity="0"/>
<stop offset="1" stop-color="#008B9A"/>
</linearGradient>
<linearGradient id="paint29_linear" x1="212.917" y1="97.7804" x2="225.722" y2="97.7804" gradientUnits="userSpaceOnUse">
<stop stop-color="#00DED3"/>
<stop offset="1" stop-color="#008B9A"/>
</linearGradient>
<linearGradient id="paint30_linear" x1="199.64" y1="101.413" x2="231.15" y2="79.7471" gradientUnits="userSpaceOnUse">
<stop stop-color="#00EADC"/>
<stop offset="0.393961" stop-color="#008B9A"/>
</linearGradient>
<linearGradient id="paint31_linear" x1="211.493" y1="94.2894" x2="211.493" y2="68.0635" gradientUnits="userSpaceOnUse">
<stop stop-color="#EFF0F2"/>
<stop offset="0.4469" stop-color="#00DDD2"/>
<stop offset="1" stop-color="#008B9A"/>
</linearGradient>
<linearGradient id="paint32_linear" x1="211.361" y1="94.2192" x2="211.539" y2="108.045" gradientUnits="userSpaceOnUse">
<stop stop-color="#E7FFFE" stop-opacity="0"/>
<stop offset="1" stop-color="#008B9A"/>
</linearGradient>
<linearGradient id="paint33_linear" x1="208.593" y1="92.7558" x2="208.06" y2="81.8854" gradientUnits="userSpaceOnUse">
<stop stop-color="#00DED3" stop-opacity="0"/>
<stop offset="1" stop-color="#008B9A"/>
</linearGradient>
<linearGradient id="paint34_linear" x1="241.487" y1="81.4542" x2="254.292" y2="81.4542" gradientUnits="userSpaceOnUse">
<stop stop-color="#00DED3"/>
<stop offset="1" stop-color="#008B9A"/>
</linearGradient>
<linearGradient id="paint35_linear" x1="228.21" y1="85.0868" x2="259.72" y2="63.4209" gradientUnits="userSpaceOnUse">
<stop stop-color="#00EADC"/>
<stop offset="0.393961" stop-color="#008B9A"/>
</linearGradient>
<linearGradient id="paint36_linear" x1="240.064" y1="77.9634" x2="240.064" y2="51.7376" gradientUnits="userSpaceOnUse">
<stop stop-color="#EFF0F2"/>
<stop offset="0.4469" stop-color="#00DDD2"/>
<stop offset="1" stop-color="#008B9A"/>
</linearGradient>
<linearGradient id="paint37_linear" x1="239.931" y1="77.8931" x2="240.109" y2="91.7191" gradientUnits="userSpaceOnUse">
<stop stop-color="#E7FFFE" stop-opacity="0"/>
<stop offset="1" stop-color="#008B9A"/>
</linearGradient>
<linearGradient id="paint38_linear" x1="237.163" y1="76.4299" x2="236.63" y2="65.5595" gradientUnits="userSpaceOnUse">
<stop stop-color="#00DED3" stop-opacity="0"/>
<stop offset="1" stop-color="#008B9A"/>
</linearGradient>
<linearGradient id="paint39_linear" x1="212.917" y1="65.1285" x2="225.722" y2="65.1285" gradientUnits="userSpaceOnUse">
<stop stop-color="#00DED3"/>
<stop offset="1" stop-color="#008B9A"/>
</linearGradient>
<linearGradient id="paint40_linear" x1="199.64" y1="68.7611" x2="231.15" y2="47.0953" gradientUnits="userSpaceOnUse">
<stop stop-color="#00EADC"/>
<stop offset="0.393961" stop-color="#008B9A"/>
</linearGradient>
<linearGradient id="paint41_linear" x1="211.493" y1="61.6378" x2="211.493" y2="35.4119" gradientUnits="userSpaceOnUse">
<stop stop-color="#EFF0F2"/>
<stop offset="0.4469" stop-color="#00DDD2"/>
<stop offset="1" stop-color="#008B9A"/>
</linearGradient>
<linearGradient id="paint42_linear" x1="211.361" y1="61.5674" x2="211.539" y2="75.3934" gradientUnits="userSpaceOnUse">
<stop stop-color="#E7FFFE" stop-opacity="0"/>
<stop offset="1" stop-color="#008B9A"/>
</linearGradient>
<linearGradient id="paint43_linear" x1="208.593" y1="60.1042" x2="208.06" y2="49.2338" gradientUnits="userSpaceOnUse">
<stop stop-color="#00DED3" stop-opacity="0"/>
<stop offset="1" stop-color="#008B9A"/>
</linearGradient>
<linearGradient id="paint44_linear" x1="216.011" y1="321.233" x2="259.194" y2="321.233" gradientUnits="userSpaceOnUse">
<stop stop-color="#FDFEFE"/>
<stop offset="1" stop-color="#F2F2F2"/>
</linearGradient>
<linearGradient id="paint45_linear" x1="171.236" y1="333.484" x2="277.501" y2="260.418" gradientUnits="userSpaceOnUse">
<stop stop-color="#FEFEFE"/>
<stop offset="0.393961" stop-color="#EFF1F2"/>
</linearGradient>
<linearGradient id="paint46_linear" x1="211.21" y1="309.46" x2="211.563" y2="239.873" gradientUnits="userSpaceOnUse">
<stop stop-color="white"/>
<stop offset="1" stop-color="#EFF0F2"/>
<stop offset="1" stop-color="#EFF1F2"/>
</linearGradient>
<linearGradient id="paint47_linear" x1="183.982" y1="282.159" x2="196.437" y2="282.159" gradientUnits="userSpaceOnUse">
<stop stop-color="#FDFEFE"/>
<stop offset="1" stop-color="#F2F2F2"/>
</linearGradient>
<linearGradient id="paint48_linear" x1="171.068" y1="285.692" x2="201.717" y2="264.619" gradientUnits="userSpaceOnUse">
<stop stop-color="#FEFEFE"/>
<stop offset="0.393961" stop-color="#EFF1F2"/>
</linearGradient>
<linearGradient id="paint49_linear" x1="182.597" y1="278.763" x2="182.699" y2="258.693" gradientUnits="userSpaceOnUse">
<stop stop-color="white"/>
<stop offset="1" stop-color="#EFF0F2"/>
<stop offset="1" stop-color="#EFF1F2"/>
</linearGradient>
<linearGradient id="paint50_linear" x1="212.376" y1="299.06" x2="224.831" y2="299.06" gradientUnits="userSpaceOnUse">
<stop stop-color="#FDFEFE"/>
<stop offset="1" stop-color="#F2F2F2"/>
</linearGradient>
<linearGradient id="paint51_linear" x1="199.462" y1="302.593" x2="230.111" y2="281.52" gradientUnits="userSpaceOnUse">
<stop stop-color="#FEFEFE"/>
<stop offset="0.393961" stop-color="#EFF1F2"/>
</linearGradient>
<linearGradient id="paint52_linear" x1="210.991" y1="295.665" x2="211.093" y2="275.594" gradientUnits="userSpaceOnUse">
<stop stop-color="white"/>
<stop offset="1" stop-color="#EFF0F2"/>
<stop offset="1" stop-color="#EFF1F2"/>
</linearGradient>
<linearGradient id="paint53_linear" x1="241.446" y1="282.835" x2="253.901" y2="282.835" gradientUnits="userSpaceOnUse">
<stop stop-color="#FDFEFE"/>
<stop offset="1" stop-color="#F2F2F2"/>
</linearGradient>
<linearGradient id="paint54_linear" x1="228.532" y1="286.368" x2="259.181" y2="265.295" gradientUnits="userSpaceOnUse">
<stop stop-color="#FEFEFE"/>
<stop offset="0.393961" stop-color="#EFF1F2"/>
</linearGradient>
<linearGradient id="paint55_linear" x1="240.062" y1="279.439" x2="240.163" y2="259.369" gradientUnits="userSpaceOnUse">
<stop stop-color="white"/>
<stop offset="1" stop-color="#EFF0F2"/>
<stop offset="1" stop-color="#EFF1F2"/>
</linearGradient>
<linearGradient id="paint56_linear" x1="212.376" y1="265.934" x2="224.831" y2="265.934" gradientUnits="userSpaceOnUse">
<stop stop-color="#FDFEFE"/>
<stop offset="1" stop-color="#F2F2F2"/>
</linearGradient>
<linearGradient id="paint57_linear" x1="199.462" y1="269.467" x2="230.111" y2="248.393" gradientUnits="userSpaceOnUse">
<stop stop-color="#FEFEFE"/>
<stop offset="0.393961" stop-color="#EFF1F2"/>
</linearGradient>
<linearGradient id="paint58_linear" x1="210.991" y1="262.538" x2="211.093" y2="242.468" gradientUnits="userSpaceOnUse">
<stop stop-color="white"/>
<stop offset="1" stop-color="#EFF0F2"/>
<stop offset="1" stop-color="#EFF1F2"/>
</linearGradient>
<linearGradient id="paint59_linear" x1="45.0113" y1="321.233" x2="88.1942" y2="321.233" gradientUnits="userSpaceOnUse">
<stop stop-color="#FDFEFE"/>
<stop offset="1" stop-color="#F2F2F2"/>
</linearGradient>
<linearGradient id="paint60_linear" x1="0.235524" y1="333.484" x2="106.501" y2="260.418" gradientUnits="userSpaceOnUse">
<stop stop-color="#FEFEFE"/>
<stop offset="0.393961" stop-color="#EFF1F2"/>
</linearGradient>
<linearGradient id="paint61_linear" x1="40.2099" y1="309.46" x2="40.563" y2="239.873" gradientUnits="userSpaceOnUse">
<stop stop-color="white"/>
<stop offset="1" stop-color="#EFF0F2"/>
<stop offset="1" stop-color="#EFF1F2"/>
</linearGradient>
<linearGradient id="paint62_linear" x1="12.9821" y1="282.159" x2="25.4368" y2="282.159" gradientUnits="userSpaceOnUse">
<stop stop-color="#FDFEFE"/>
<stop offset="1" stop-color="#F2F2F2"/>
</linearGradient>
<linearGradient id="paint63_linear" x1="0.0679294" y1="285.692" x2="30.7169" y2="264.619" gradientUnits="userSpaceOnUse">
<stop stop-color="#FEFEFE"/>
<stop offset="0.393961" stop-color="#EFF1F2"/>
</linearGradient>
<linearGradient id="paint64_linear" x1="11.5973" y1="278.763" x2="11.6992" y2="258.693" gradientUnits="userSpaceOnUse">
<stop stop-color="white"/>
<stop offset="1" stop-color="#EFF0F2"/>
<stop offset="1" stop-color="#EFF1F2"/>
</linearGradient>
<linearGradient id="paint65_linear" x1="41.3762" y1="299.06" x2="53.831" y2="299.06" gradientUnits="userSpaceOnUse">
<stop stop-color="#FDFEFE"/>
<stop offset="1" stop-color="#F2F2F2"/>
</linearGradient>
<linearGradient id="paint66_linear" x1="28.4621" y1="302.593" x2="59.1111" y2="281.52" gradientUnits="userSpaceOnUse">
<stop stop-color="#FEFEFE"/>
<stop offset="0.393961" stop-color="#EFF1F2"/>
</linearGradient>
<linearGradient id="paint67_linear" x1="39.9915" y1="295.665" x2="40.0933" y2="275.594" gradientUnits="userSpaceOnUse">
<stop stop-color="white"/>
<stop offset="1" stop-color="#EFF0F2"/>
<stop offset="1" stop-color="#EFF1F2"/>
</linearGradient>
<linearGradient id="paint68_linear" x1="70.4464" y1="282.835" x2="82.9011" y2="282.835" gradientUnits="userSpaceOnUse">
<stop stop-color="#FDFEFE"/>
<stop offset="1" stop-color="#F2F2F2"/>
</linearGradient>
<linearGradient id="paint69_linear" x1="57.5322" y1="286.368" x2="88.1812" y2="265.295" gradientUnits="userSpaceOnUse">
<stop stop-color="#FEFEFE"/>
<stop offset="0.393961" stop-color="#EFF1F2"/>
</linearGradient>
<linearGradient id="paint70_linear" x1="69.0616" y1="279.439" x2="69.1635" y2="259.369" gradientUnits="userSpaceOnUse">
<stop stop-color="white"/>
<stop offset="1" stop-color="#EFF0F2"/>
<stop offset="1" stop-color="#EFF1F2"/>
</linearGradient>
<linearGradient id="paint71_linear" x1="41.3762" y1="265.934" x2="53.831" y2="265.934" gradientUnits="userSpaceOnUse">
<stop stop-color="#FDFEFE"/>
<stop offset="1" stop-color="#F2F2F2"/>
</linearGradient>
<linearGradient id="paint72_linear" x1="28.4621" y1="269.467" x2="59.1111" y2="248.393" gradientUnits="userSpaceOnUse">
<stop stop-color="#FEFEFE"/>
<stop offset="0.393961" stop-color="#EFF1F2"/>
</linearGradient>
<linearGradient id="paint73_linear" x1="39.9915" y1="262.538" x2="40.0933" y2="242.468" gradientUnits="userSpaceOnUse">
<stop stop-color="white"/>
<stop offset="1" stop-color="#EFF0F2"/>
<stop offset="1" stop-color="#EFF1F2"/>
</linearGradient>
<linearGradient id="paint74_linear" x1="45.0113" y1="153.712" x2="88.1942" y2="153.712" gradientUnits="userSpaceOnUse">
<stop stop-color="#FDFEFE"/>
<stop offset="1" stop-color="#F2F2F2"/>
</linearGradient>
<linearGradient id="paint75_linear" x1="0.235524" y1="165.963" x2="106.501" y2="92.8966" gradientUnits="userSpaceOnUse">
<stop stop-color="#FEFEFE"/>
<stop offset="0.393961" stop-color="#EFF1F2"/>
</linearGradient>
<linearGradient id="paint76_linear" x1="40.2099" y1="141.939" x2="40.563" y2="72.3523" gradientUnits="userSpaceOnUse">
<stop stop-color="white"/>
<stop offset="1" stop-color="#EFF0F2"/>
<stop offset="1" stop-color="#EFF1F2"/>
</linearGradient>
</defs>
</svg>
