<svg width="438" height="361" viewBox="0 0 438 361" fill="none" xmlns="http://www.w3.org/2000/svg">
<path opacity="0.3" d="M119 394H155V281H119V394Z" fill="url(#paint0_linear)"/>
<path opacity="0.3" d="M136.951 361H154.881V280.737H136.951V361Z" fill="url(#paint1_linear)"/>
<path opacity="0.3" d="M155.644 346.895H268.562V92.8292H155.644V346.895Z" fill="url(#paint2_linear)"/>
<path opacity="0.3" d="M212.103 346.895H268.562V92.8292H212.103V346.895Z" fill="url(#paint3_linear)"/>
<path d="M381.826 166.314L325.141 199.111V132.832L381.826 100.035V166.314Z" fill="url(#paint4_linear)"/>
<path d="M268.42 166.314L325.141 199.111V132.832L268.42 100.035V166.314Z" fill="url(#paint5_linear)"/>
<path d="M381.828 100.034L325.143 67.2011L268.421 100.034L325.143 132.831L381.828 100.034Z" fill="url(#paint6_linear)"/>
<path opacity="0.3" d="M381.351 166.399L325.196 133.906L269.005 166.399L325.196 198.856L381.351 166.399Z" fill="url(#paint7_linear)"/>
<path opacity="0.2" d="M325.29 133.256L268.753 165.942V99.8873L325.29 67.201V133.256Z" fill="url(#paint8_linear)"/>
<path d="M381.826 364.197L325.141 396.994V330.715L381.826 297.918V364.197Z" fill="url(#paint9_linear)"/>
<path d="M268.42 364.197L325.141 396.994V330.715L268.42 297.918V364.197Z" fill="url(#paint10_linear)"/>
<path d="M381.828 297.918L325.143 265.085L268.421 297.918L325.143 330.715L381.828 297.918Z" fill="url(#paint11_linear)"/>
<path opacity="0.3" d="M381.351 364.282L325.196 331.79L269.005 364.282L325.196 396.739L381.351 364.282Z" fill="url(#paint12_linear)"/>
<path opacity="0.2" d="M325.29 331.139L268.753 363.826V297.771L325.29 265.084V331.139Z" fill="url(#paint13_linear)"/>
<path d="M268.633 363.977L211.947 396.774V330.495L268.633 297.698V363.977Z" fill="url(#paint14_linear)"/>
<path d="M155.226 363.977L211.947 396.774V330.495L155.226 297.698V363.977Z" fill="url(#paint15_linear)"/>
<path d="M268.633 297.698L211.947 264.865L155.226 297.698L211.947 330.495L268.633 297.698Z" fill="url(#paint16_linear)"/>
<path opacity="0.3" d="M268.157 364.062L212.002 331.57L155.811 364.062L212.002 396.519L268.157 364.062Z" fill="url(#paint17_linear)"/>
<path opacity="0.2" d="M212.096 330.919L155.559 363.606V297.551L212.096 264.865V330.919Z" fill="url(#paint18_linear)"/>
<path d="M325.069 265.201L268.383 297.998V231.719L325.069 198.922V265.201Z" fill="url(#paint19_linear)"/>
<path d="M211.662 265.201L268.383 297.998V231.719L211.662 198.922V265.201Z" fill="url(#paint20_linear)"/>
<path d="M325.069 198.922L268.384 166.089L211.662 198.922L268.384 231.719L325.069 198.922Z" fill="url(#paint21_linear)"/>
<path opacity="0.3" d="M324.593 265.286L268.438 232.794L212.247 265.286L268.438 297.743L324.593 265.286Z" fill="url(#paint22_linear)"/>
<path opacity="0.2" d="M268.532 232.143L211.995 264.83V198.775L268.532 166.089V232.143Z" fill="url(#paint23_linear)"/>
<path d="M437.999 265.494L381.314 298.291V232.012L437.999 199.215V265.494Z" fill="url(#paint24_linear)"/>
<path d="M324.593 265.494L381.314 298.291V232.012L324.593 199.215V265.494Z" fill="url(#paint25_linear)"/>
<path d="M438 199.214L381.315 166.381L324.594 199.214L381.315 232.011L438 199.214Z" fill="url(#paint26_linear)"/>
<path opacity="0.3" d="M437.523 265.579L381.369 233.086L325.178 265.579L381.369 298.036L437.523 265.579Z" fill="url(#paint27_linear)"/>
<path opacity="0.2" d="M381.463 232.436L324.926 265.122V199.067L381.463 166.381V232.436Z" fill="url(#paint28_linear)"/>
<path d="M269.122 99.7828L212.436 132.58V66.3009L269.122 33.5037V99.7828Z" fill="url(#paint29_linear)"/>
<path d="M155.715 99.7828L212.437 132.58V66.3009L155.715 33.5037V99.7828Z" fill="url(#paint30_linear)"/>
<path d="M269.122 33.5034L212.437 0.670166L155.716 33.5034L212.437 66.3005L269.122 33.5034Z" fill="url(#paint31_linear)"/>
<path opacity="0.3" d="M268.646 99.868L212.491 67.3753L156.3 99.868L212.491 132.325L268.646 99.868Z" fill="url(#paint32_linear)"/>
<path opacity="0.2" d="M212.585 66.725L156.048 99.4112V33.3564L212.585 0.670166V66.725Z" fill="url(#paint33_linear)"/>
<path d="M156.296 297.441L137.665 308.22V286.436L156.296 275.656V297.441Z" fill="url(#paint34_linear)"/>
<path d="M119.022 297.441L137.665 308.22V286.436L119.022 275.656V297.441Z" fill="url(#paint35_linear)"/>
<path d="M156.296 275.656L137.665 264.865L119.022 275.656L137.665 286.436L156.296 275.656Z" fill="url(#paint36_linear)"/>
<path opacity="0.3" d="M156.14 297.469L137.683 286.789L119.214 297.469L137.683 308.136L156.14 297.469Z" fill="url(#paint37_linear)"/>
<path opacity="0.2" d="M137.713 286.575L119.13 297.318V275.608L137.713 264.864V286.575Z" fill="url(#paint38_linear)"/>
<path d="M400.274 177.576L381.643 188.356V166.571L400.274 155.792V177.576Z" fill="url(#paint39_linear)"/>
<path d="M363 177.576L381.643 188.356V166.571L363 155.792V177.576Z" fill="url(#paint40_linear)"/>
<path d="M400.275 155.792L381.643 145L363 155.792L381.643 166.571L400.275 155.792Z" fill="url(#paint41_linear)"/>
<path opacity="0.3" d="M400.118 177.604L381.661 166.924L363.192 177.604L381.661 188.272L400.118 177.604Z" fill="url(#paint42_linear)"/>
<path opacity="0.2" d="M381.691 166.711L363.108 177.454V155.743L381.691 145V166.711Z" fill="url(#paint43_linear)"/>
<path d="M249.253 154.58L230.622 165.36V143.575L249.253 132.795V154.58Z" fill="url(#paint44_linear)"/>
<path d="M211.979 154.58L230.622 165.36V143.575L211.979 132.795V154.58Z" fill="url(#paint45_linear)"/>
<path d="M249.254 132.795L230.623 122.004L211.98 132.795L230.623 143.575L249.254 132.795Z" fill="url(#paint46_linear)"/>
<path opacity="0.3" d="M249.097 154.608L230.64 143.928L212.171 154.608L230.64 165.276L249.097 154.608Z" fill="url(#paint47_linear)"/>
<path opacity="0.2" d="M230.67 143.715L212.087 154.458V132.747L230.67 122.004V143.715Z" fill="url(#paint48_linear)"/>
<path opacity="0.3" d="M0 394.198H119.022V226.368H0V394.198Z" fill="url(#paint49_linear)"/>
<path opacity="0.3" d="M59.5109 394.198H119.022V226.368H59.5109V394.198Z" fill="url(#paint50_linear)"/>
<path d="M119.022 226.34L59.5109 260.948V191.01L119.022 156.402V226.34Z" fill="url(#paint51_linear)"/>
<path d="M0 226.34L59.5109 260.948V191.01L0 156.402V226.34Z" fill="url(#paint52_linear)"/>
<path d="M119.022 156.421L59.5298 121.822L6.10352e-05 156.421L59.5298 190.983L119.022 156.421Z" fill="url(#paint53_linear)"/>
<path opacity="0.3" d="M118.218 225.984L59.5296 191.787L0.804291 225.984L59.5296 260.144L118.218 225.984Z" fill="url(#paint54_linear)"/>
<path opacity="0.2" d="M59.5109 191.222L0 225.564V156.163L59.5109 121.822V191.222Z" fill="url(#paint55_linear)"/>
<g opacity="0.2">
<path opacity="0.6" d="M101.169 215.854L59.5109 240.079V191.122L101.169 166.897V215.854Z" fill="url(#paint56_linear)"/>
<path opacity="0.6" d="M17.8533 215.854L59.5109 240.079V191.122L17.8533 166.897V215.854Z" fill="url(#paint57_linear)"/>
<path opacity="0.6" d="M101.169 166.91L59.5241 142.69L17.8533 166.91L59.5241 191.103L101.169 166.91Z" fill="url(#paint58_linear)"/>
<path opacity="0.6" d="M100.606 215.604L59.5239 191.666L18.4162 215.604L59.5239 239.516L100.606 215.604Z" fill="url(#paint59_linear)"/>
<path opacity="0.6" d="M59.5109 191.271L17.8533 215.31V166.729L59.5109 142.69V191.271Z" fill="url(#paint60_linear)"/>
</g>
<path opacity="0.4" fill-rule="evenodd" clip-rule="evenodd" d="M59.5109 142.429L59.5241 142.422L101.157 166.635L101.169 166.628V215.585L59.5109 239.81L17.8533 215.585V166.461L59.5109 142.422V142.429Z" fill="url(#paint61_radial)"/>
<defs>
<linearGradient id="paint0_linear" x1="136.917" y1="394" x2="138.073" y2="284.5" gradientUnits="userSpaceOnUse">
<stop stop-color="#00FFF0" stop-opacity="0"/>
<stop offset="1" stop-color="#00CAC4"/>
</linearGradient>
<linearGradient id="paint1_linear" x1="145.875" y1="361" x2="147.046" y2="283.232" gradientUnits="userSpaceOnUse">
<stop stop-color="#00FFF0" stop-opacity="0"/>
<stop offset="1" stop-color="#00CAC4"/>
</linearGradient>
<linearGradient id="paint2_linear" x1="211.842" y1="346.895" x2="213.705" y2="100.685" gradientUnits="userSpaceOnUse">
<stop stop-color="#00FFF0" stop-opacity="0"/>
<stop offset="1" stop-color="#00CAC4"/>
</linearGradient>
<linearGradient id="paint3_linear" x1="240.202" y1="346.895" x2="243.928" y2="100.727" gradientUnits="userSpaceOnUse">
<stop stop-color="#00FFF0" stop-opacity="0"/>
<stop offset="1" stop-color="#00CAC4"/>
</linearGradient>
<linearGradient id="paint4_linear" x1="331.874" y1="149.566" x2="392.717" y2="149.566" gradientUnits="userSpaceOnUse">
<stop stop-color="#00DED3"/>
<stop offset="1" stop-color="#008B9A"/>
</linearGradient>
<linearGradient id="paint5_linear" x1="268.752" y1="166.738" x2="418.018" y2="63.5165" gradientUnits="userSpaceOnUse">
<stop stop-color="#00EADC"/>
<stop offset="0.393961" stop-color="#008B9A"/>
</linearGradient>
<linearGradient id="paint6_linear" x1="325.093" y1="133.088" x2="325.093" y2="8.9413" gradientUnits="userSpaceOnUse">
<stop stop-color="#EFF0F2"/>
<stop offset="0.4469" stop-color="#00DDD2"/>
<stop offset="1" stop-color="#008B9A"/>
</linearGradient>
<linearGradient id="paint7_linear" x1="324.512" y1="133.066" x2="325.352" y2="198.598" gradientUnits="userSpaceOnUse">
<stop stop-color="#E7FFFE" stop-opacity="0"/>
<stop offset="1" stop-color="#008B9A"/>
</linearGradient>
<linearGradient id="paint8_linear" x1="311.514" y1="126.004" x2="308.977" y2="74.3926" gradientUnits="userSpaceOnUse">
<stop stop-color="#00DED3" stop-opacity="0"/>
<stop offset="1" stop-color="#008B9A"/>
</linearGradient>
<linearGradient id="paint9_linear" x1="331.874" y1="347.449" x2="392.717" y2="347.449" gradientUnits="userSpaceOnUse">
<stop stop-color="#00DED3"/>
<stop offset="1" stop-color="#008B9A"/>
</linearGradient>
<linearGradient id="paint10_linear" x1="268.752" y1="364.622" x2="418.018" y2="261.4" gradientUnits="userSpaceOnUse">
<stop stop-color="#00EADC"/>
<stop offset="0.393961" stop-color="#008B9A"/>
</linearGradient>
<linearGradient id="paint11_linear" x1="325.093" y1="330.971" x2="325.093" y2="206.825" gradientUnits="userSpaceOnUse">
<stop stop-color="#EFF0F2"/>
<stop offset="0.4469" stop-color="#00DDD2"/>
<stop offset="1" stop-color="#008B9A"/>
</linearGradient>
<linearGradient id="paint12_linear" x1="324.512" y1="330.949" x2="325.352" y2="396.482" gradientUnits="userSpaceOnUse">
<stop stop-color="#E7FFFE" stop-opacity="0"/>
<stop offset="1" stop-color="#008B9A"/>
</linearGradient>
<linearGradient id="paint13_linear" x1="311.514" y1="323.888" x2="308.977" y2="272.276" gradientUnits="userSpaceOnUse">
<stop stop-color="#00DED3" stop-opacity="0"/>
<stop offset="1" stop-color="#008B9A"/>
</linearGradient>
<linearGradient id="paint14_linear" x1="218.681" y1="347.229" x2="279.523" y2="347.229" gradientUnits="userSpaceOnUse">
<stop stop-color="#00DED3"/>
<stop offset="1" stop-color="#008B9A"/>
</linearGradient>
<linearGradient id="paint15_linear" x1="155.558" y1="364.402" x2="304.824" y2="261.18" gradientUnits="userSpaceOnUse">
<stop stop-color="#00EADC"/>
<stop offset="0.393961" stop-color="#008B9A"/>
</linearGradient>
<linearGradient id="paint16_linear" x1="211.898" y1="330.751" x2="211.898" y2="206.605" gradientUnits="userSpaceOnUse">
<stop stop-color="#EFF0F2"/>
<stop offset="0.4469" stop-color="#00DDD2"/>
<stop offset="1" stop-color="#008B9A"/>
</linearGradient>
<linearGradient id="paint17_linear" x1="211.318" y1="330.729" x2="212.158" y2="396.262" gradientUnits="userSpaceOnUse">
<stop stop-color="#E7FFFE" stop-opacity="0"/>
<stop offset="1" stop-color="#008B9A"/>
</linearGradient>
<linearGradient id="paint18_linear" x1="198.32" y1="323.668" x2="195.783" y2="272.056" gradientUnits="userSpaceOnUse">
<stop stop-color="#00DED3" stop-opacity="0"/>
<stop offset="1" stop-color="#008B9A"/>
</linearGradient>
<linearGradient id="paint19_linear" x1="275.117" y1="248.453" x2="335.959" y2="248.453" gradientUnits="userSpaceOnUse">
<stop stop-color="#00DED3"/>
<stop offset="1" stop-color="#008B9A"/>
</linearGradient>
<linearGradient id="paint20_linear" x1="211.994" y1="265.626" x2="361.26" y2="162.404" gradientUnits="userSpaceOnUse">
<stop stop-color="#00EADC"/>
<stop offset="0.393961" stop-color="#008B9A"/>
</linearGradient>
<linearGradient id="paint21_linear" x1="268.334" y1="231.975" x2="268.334" y2="107.829" gradientUnits="userSpaceOnUse">
<stop stop-color="#EFF0F2"/>
<stop offset="0.4469" stop-color="#00DDD2"/>
<stop offset="1" stop-color="#008B9A"/>
</linearGradient>
<linearGradient id="paint22_linear" x1="267.754" y1="231.953" x2="268.594" y2="297.486" gradientUnits="userSpaceOnUse">
<stop stop-color="#E7FFFE" stop-opacity="0"/>
<stop offset="1" stop-color="#008B9A"/>
</linearGradient>
<linearGradient id="paint23_linear" x1="254.755" y1="224.892" x2="252.219" y2="173.28" gradientUnits="userSpaceOnUse">
<stop stop-color="#00DED3" stop-opacity="0"/>
<stop offset="1" stop-color="#008B9A"/>
</linearGradient>
<linearGradient id="paint24_linear" x1="388.047" y1="248.746" x2="448.89" y2="248.746" gradientUnits="userSpaceOnUse">
<stop stop-color="#00DED3"/>
<stop offset="1" stop-color="#008B9A"/>
</linearGradient>
<linearGradient id="paint25_linear" x1="324.925" y1="265.918" x2="474.191" y2="162.696" gradientUnits="userSpaceOnUse">
<stop stop-color="#00EADC"/>
<stop offset="0.393961" stop-color="#008B9A"/>
</linearGradient>
<linearGradient id="paint26_linear" x1="381.265" y1="232.268" x2="381.265" y2="108.121" gradientUnits="userSpaceOnUse">
<stop stop-color="#EFF0F2"/>
<stop offset="0.4469" stop-color="#00DDD2"/>
<stop offset="1" stop-color="#008B9A"/>
</linearGradient>
<linearGradient id="paint27_linear" x1="380.685" y1="232.246" x2="381.524" y2="297.778" gradientUnits="userSpaceOnUse">
<stop stop-color="#E7FFFE" stop-opacity="0"/>
<stop offset="1" stop-color="#008B9A"/>
</linearGradient>
<linearGradient id="paint28_linear" x1="367.686" y1="225.184" x2="365.15" y2="173.573" gradientUnits="userSpaceOnUse">
<stop stop-color="#00DED3" stop-opacity="0"/>
<stop offset="1" stop-color="#008B9A"/>
</linearGradient>
<linearGradient id="paint29_linear" x1="219.17" y1="83.0348" x2="280.012" y2="83.0348" gradientUnits="userSpaceOnUse">
<stop stop-color="#00DED3"/>
<stop offset="1" stop-color="#008B9A"/>
</linearGradient>
<linearGradient id="paint30_linear" x1="156.047" y1="100.208" x2="305.313" y2="-3.01441" gradientUnits="userSpaceOnUse">
<stop stop-color="#00EADC"/>
<stop offset="0.393961" stop-color="#008B9A"/>
</linearGradient>
<linearGradient id="paint31_linear" x1="212.388" y1="66.5569" x2="212.388" y2="-57.5896" gradientUnits="userSpaceOnUse">
<stop stop-color="#EFF0F2"/>
<stop offset="0.4469" stop-color="#00DDD2"/>
<stop offset="1" stop-color="#008B9A"/>
</linearGradient>
<linearGradient id="paint32_linear" x1="211.808" y1="66.5351" x2="212.647" y2="132.067" gradientUnits="userSpaceOnUse">
<stop stop-color="#E7FFFE" stop-opacity="0"/>
<stop offset="1" stop-color="#008B9A"/>
</linearGradient>
<linearGradient id="paint33_linear" x1="198.808" y1="59.4732" x2="196.272" y2="7.86172" gradientUnits="userSpaceOnUse">
<stop stop-color="#00DED3" stop-opacity="0"/>
<stop offset="1" stop-color="#008B9A"/>
</linearGradient>
<linearGradient id="paint34_linear" x1="139.878" y1="291.936" x2="159.875" y2="291.936" gradientUnits="userSpaceOnUse">
<stop stop-color="#00DED3"/>
<stop offset="1" stop-color="#008B9A"/>
</linearGradient>
<linearGradient id="paint35_linear" x1="119.131" y1="297.58" x2="168.191" y2="263.653" gradientUnits="userSpaceOnUse">
<stop stop-color="#00EADC"/>
<stop offset="0.393961" stop-color="#008B9A"/>
</linearGradient>
<linearGradient id="paint36_linear" x1="137.649" y1="286.52" x2="137.649" y2="245.716" gradientUnits="userSpaceOnUse">
<stop stop-color="#EFF0F2"/>
<stop offset="0.4469" stop-color="#00DDD2"/>
<stop offset="1" stop-color="#008B9A"/>
</linearGradient>
<linearGradient id="paint37_linear" x1="137.458" y1="286.513" x2="137.734" y2="308.052" gradientUnits="userSpaceOnUse">
<stop stop-color="#E7FFFE" stop-opacity="0"/>
<stop offset="1" stop-color="#008B9A"/>
</linearGradient>
<linearGradient id="paint38_linear" x1="133.185" y1="284.192" x2="132.351" y2="267.228" gradientUnits="userSpaceOnUse">
<stop stop-color="#00DED3" stop-opacity="0"/>
<stop offset="1" stop-color="#008B9A"/>
</linearGradient>
<linearGradient id="paint39_linear" x1="383.856" y1="172.071" x2="403.854" y2="172.071" gradientUnits="userSpaceOnUse">
<stop stop-color="#00DED3"/>
<stop offset="1" stop-color="#008B9A"/>
</linearGradient>
<linearGradient id="paint40_linear" x1="363.109" y1="177.716" x2="412.169" y2="143.789" gradientUnits="userSpaceOnUse">
<stop stop-color="#00EADC"/>
<stop offset="0.393961" stop-color="#008B9A"/>
</linearGradient>
<linearGradient id="paint41_linear" x1="381.627" y1="166.656" x2="381.627" y2="125.851" gradientUnits="userSpaceOnUse">
<stop stop-color="#EFF0F2"/>
<stop offset="0.4469" stop-color="#00DDD2"/>
<stop offset="1" stop-color="#008B9A"/>
</linearGradient>
<linearGradient id="paint42_linear" x1="381.436" y1="166.648" x2="381.712" y2="188.187" gradientUnits="userSpaceOnUse">
<stop stop-color="#E7FFFE" stop-opacity="0"/>
<stop offset="1" stop-color="#008B9A"/>
</linearGradient>
<linearGradient id="paint43_linear" x1="377.163" y1="164.327" x2="376.329" y2="147.364" gradientUnits="userSpaceOnUse">
<stop stop-color="#00DED3" stop-opacity="0"/>
<stop offset="1" stop-color="#008B9A"/>
</linearGradient>
<linearGradient id="paint44_linear" x1="232.835" y1="149.075" x2="252.833" y2="149.075" gradientUnits="userSpaceOnUse">
<stop stop-color="#00DED3"/>
<stop offset="1" stop-color="#008B9A"/>
</linearGradient>
<linearGradient id="paint45_linear" x1="212.088" y1="154.719" x2="261.149" y2="120.793" gradientUnits="userSpaceOnUse">
<stop stop-color="#00EADC"/>
<stop offset="0.393961" stop-color="#008B9A"/>
</linearGradient>
<linearGradient id="paint46_linear" x1="230.606" y1="143.659" x2="230.606" y2="102.855" gradientUnits="userSpaceOnUse">
<stop stop-color="#EFF0F2"/>
<stop offset="0.4469" stop-color="#00DDD2"/>
<stop offset="1" stop-color="#008B9A"/>
</linearGradient>
<linearGradient id="paint47_linear" x1="230.415" y1="143.652" x2="230.691" y2="165.191" gradientUnits="userSpaceOnUse">
<stop stop-color="#E7FFFE" stop-opacity="0"/>
<stop offset="1" stop-color="#008B9A"/>
</linearGradient>
<linearGradient id="paint48_linear" x1="226.142" y1="141.331" x2="225.308" y2="124.367" gradientUnits="userSpaceOnUse">
<stop stop-color="#00DED3" stop-opacity="0"/>
<stop offset="1" stop-color="#008B9A"/>
</linearGradient>
<linearGradient id="paint49_linear" x1="59.236" y1="394.198" x2="60.0074" y2="231.551" gradientUnits="userSpaceOnUse">
<stop stop-color="#00FFF0" stop-opacity="0"/>
<stop offset="1" stop-color="#00CAC4"/>
</linearGradient>
<linearGradient id="paint50_linear" x1="89.1289" y1="394.198" x2="90.6716" y2="231.562" gradientUnits="userSpaceOnUse">
<stop stop-color="#00FFF0" stop-opacity="0"/>
<stop offset="1" stop-color="#00CAC4"/>
</linearGradient>
<linearGradient id="paint51_linear" x1="66.5797" y1="208.668" x2="130.455" y2="208.668" gradientUnits="userSpaceOnUse">
<stop stop-color="#00DED3"/>
<stop offset="1" stop-color="#008B9A"/>
</linearGradient>
<linearGradient id="paint52_linear" x1="0.348382" y1="226.789" x2="157.534" y2="118.71" gradientUnits="userSpaceOnUse">
<stop stop-color="#00EADC"/>
<stop offset="0.393961" stop-color="#008B9A"/>
</linearGradient>
<linearGradient id="paint53_linear" x1="59.4777" y1="191.253" x2="59.4777" y2="60.4276" gradientUnits="userSpaceOnUse">
<stop stop-color="#EFF0F2"/>
<stop offset="0.4469" stop-color="#00DDD2"/>
<stop offset="1" stop-color="#008B9A"/>
</linearGradient>
<linearGradient id="paint54_linear" x1="58.8153" y1="190.903" x2="59.7049" y2="259.873" gradientUnits="userSpaceOnUse">
<stop stop-color="#E7FFFE" stop-opacity="0"/>
<stop offset="1" stop-color="#008B9A"/>
</linearGradient>
<linearGradient id="paint55_linear" x1="45.0095" y1="183.603" x2="42.3497" y2="129.377" gradientUnits="userSpaceOnUse">
<stop stop-color="#00DED3" stop-opacity="0"/>
<stop offset="1" stop-color="#008B9A"/>
</linearGradient>
<linearGradient id="paint56_linear" x1="59.5109" y1="189.267" x2="101.169" y2="189.267" gradientUnits="userSpaceOnUse">
<stop stop-color="white"/>
<stop offset="1" stop-color="#00DAD1"/>
</linearGradient>
<linearGradient id="paint57_linear" x1="59.5109" y1="197.202" x2="17.8532" y2="197.202" gradientUnits="userSpaceOnUse">
<stop stop-color="white"/>
<stop offset="1" stop-color="#00DAD1"/>
</linearGradient>
<linearGradient id="paint58_linear" x1="59.5109" y1="191.251" x2="59.5109" y2="143.642" gradientUnits="userSpaceOnUse">
<stop stop-color="white"/>
<stop offset="1" stop-color="#00DAD1"/>
</linearGradient>
<linearGradient id="paint59_linear" x1="59.5019" y1="193.234" x2="59.5019" y2="238.859" gradientUnits="userSpaceOnUse">
<stop stop-color="white"/>
<stop offset="1" stop-color="#00DAD1"/>
</linearGradient>
<linearGradient id="paint60_linear" x1="59.5109" y1="191.04" x2="17.8532" y2="191.04" gradientUnits="userSpaceOnUse">
<stop stop-color="white"/>
<stop offset="1" stop-color="#00DAD1"/>
</linearGradient>
<radialGradient id="paint61_radial" cx="0" cy="0" r="1" gradientUnits="userSpaceOnUse" gradientTransform="translate(59.5109 191.251) rotate(90) scale(58.3665 52.1976)">
<stop stop-color="white"/>
<stop offset="1" stop-color="#00FFF4" stop-opacity="0"/>
</radialGradient>
</defs>
</svg>
