<svg width="1920" height="154" viewBox="0 0 1920 154" fill="none" xmlns="http://www.w3.org/2000/svg">
<g opacity="0.5">
<path d="M320.019 74.4896V152.643H354.532V74.76C354.736 74.0839 354.532 73.4079 353.817 72.867L339.216 61.6443C338.195 60.8331 336.459 60.8331 335.438 61.6443L320.836 72.867C320.224 73.2727 319.917 73.9487 320.019 74.4896Z" fill="url(#paint0_linear)"/>
<path d="M337.204 152.507V61.4788C337.204 61.343 337.304 61.2071 337.304 61.0712C336.504 60.9354 335.606 61.2071 335.006 61.6147L320.724 72.8913C320.124 73.2989 319.925 73.9782 320.025 74.6575V152.643H337.204V152.507Z" fill="url(#paint1_linear)"/>
</g>
<path d="M354.524 68.8733V86.5839L337.424 96.4571V78.7465L354.524 68.8733Z" fill="url(#paint2_linear)"/>
<path d="M337.425 78.7465V96.4571L320.121 86.5839V68.8733L337.425 78.7465Z" fill="url(#paint3_linear)"/>
<path d="M354.525 68.8732L337.425 78.7464L320.121 68.8732L337.323 59L354.525 68.8732Z" fill="url(#paint4_linear)"/>
<g opacity="0.5">
<path d="M981.02 66.6848V145.824H1015.97V66.9587C1016.17 66.2741 1015.97 65.5895 1015.24 65.0418L1000.46 53.6776C999.424 52.8561 997.666 52.8561 996.632 53.6776L981.847 65.0418C981.226 65.4526 980.916 66.1372 981.02 66.6848Z" fill="url(#paint5_linear)"/>
<path d="M998.421 145.686V53.51C998.421 53.3724 998.522 53.2348 998.522 53.0973C997.713 52.9597 996.802 53.2348 996.196 53.6476L981.733 65.0664C981.126 65.4791 980.924 66.167 981.025 66.8549V145.824H998.421V145.686Z" fill="url(#paint6_linear)"/>
</g>
<path d="M1015.96 60.9976V78.9316L998.645 88.9293V70.9953L1015.96 60.9976Z" fill="url(#paint7_linear)"/>
<path d="M998.645 70.9953V88.9293L981.123 78.9316V60.9976L998.645 70.9953Z" fill="url(#paint8_linear)"/>
<path d="M1015.96 60.9977L998.645 70.9954L981.123 60.9977L998.542 51L1015.96 60.9977Z" fill="url(#paint9_linear)"/>
<g opacity="0.5">
<path d="M355.011 23.0162V68.5082H375.101V23.1736C375.22 22.7801 375.101 22.3865 374.685 22.0717L366.185 15.5391C365.591 15.0669 364.58 15.0669 363.986 15.5391L355.487 22.0717C355.13 22.3078 354.952 22.7014 355.011 23.0162Z" fill="url(#paint10_linear)"/>
<path d="M365.014 68.4291V15.4428C365.014 15.3637 365.072 15.2846 365.072 15.2055C364.607 15.1264 364.084 15.2846 363.735 15.5218L355.421 22.0858C355.072 22.3231 354.956 22.7185 355.014 23.1139V68.5082H365.014V68.4291Z" fill="url(#paint11_linear)"/>
</g>
<path d="M375.096 19.7471V30.0562L365.143 35.8033V25.4941L375.096 19.7471Z" fill="url(#paint12_linear)"/>
<path d="M365.142 25.4941V35.8033L355.07 30.0562V19.7471L365.142 25.4941Z" fill="url(#paint13_linear)"/>
<path d="M375.096 19.7471L365.142 25.4941L355.07 19.7471L365.083 14L375.096 19.7471Z" fill="url(#paint14_linear)"/>
<g opacity="0.5">
<path d="M1484.03 37.18V139H1528.99V37.5323C1529.26 36.6515 1528.99 35.7707 1528.06 35.0661L1509.03 20.4449C1507.7 19.3879 1505.44 19.3879 1504.11 20.4449L1485.09 35.0661C1484.29 35.5946 1483.89 36.4753 1484.03 37.18Z" fill="url(#paint15_linear)"/>
<path d="M1506.41 138.823V20.2292C1506.41 20.0522 1506.54 19.8752 1506.54 19.6982C1505.5 19.5212 1504.33 19.8752 1503.55 20.4062L1484.94 35.0977C1484.16 35.6287 1483.9 36.5137 1484.03 37.3988V139H1506.41V138.823Z" fill="url(#paint16_linear)"/>
</g>
<path d="M1528.98 29.8632V52.9371L1506.7 65.8001V42.7262L1528.98 29.8632Z" fill="url(#paint17_linear)"/>
<path d="M1506.7 42.7262V65.8001L1484.16 52.9371V29.8632L1506.7 42.7262Z" fill="url(#paint18_linear)"/>
<path d="M1528.98 29.863L1506.7 42.7261L1484.16 29.863L1506.57 17L1528.98 29.863Z" fill="url(#paint19_linear)"/>
<g opacity="0.5">
<path d="M1448.01 101.255V153H1470.86V101.434C1471 100.987 1470.86 100.539 1470.39 100.181L1460.72 92.7507C1460.05 92.2136 1458.9 92.2136 1458.22 92.7507L1448.55 100.181C1448.15 100.45 1447.95 100.897 1448.01 101.255Z" fill="url(#paint20_linear)"/>
<path d="M1459.39 152.91V92.6411C1459.39 92.5511 1459.46 92.4612 1459.46 92.3712C1458.93 92.2813 1458.33 92.4612 1457.94 92.7311L1448.48 100.197C1448.08 100.467 1447.95 100.917 1448.02 101.367V153H1459.39V152.91Z" fill="url(#paint21_linear)"/>
</g>
<path d="M1470.86 97.5369V109.263L1459.54 115.8V104.074L1470.86 97.5369Z" fill="url(#paint22_linear)"/>
<path d="M1459.54 104.074V115.8L1448.08 109.263V97.5369L1459.54 104.074Z" fill="url(#paint23_linear)"/>
<path d="M1470.86 97.537L1459.54 104.074L1448.08 97.537L1459.47 91L1470.86 97.537Z" fill="url(#paint24_linear)"/>
<g opacity="0.5">
<path d="M1550.01 102.255V154H1572.86V102.434C1573 101.987 1572.86 101.539 1572.39 101.181L1562.72 93.7507C1562.05 93.2136 1560.9 93.2136 1560.22 93.7507L1550.55 101.181C1550.15 101.45 1549.95 101.897 1550.01 102.255Z" fill="url(#paint25_linear)"/>
<path d="M1561.39 153.91V93.6411C1561.39 93.5511 1561.46 93.4612 1561.46 93.3712C1560.93 93.2813 1560.33 93.4612 1559.94 93.7311L1550.48 101.197C1550.08 101.467 1549.95 101.917 1550.02 102.367V154H1561.39V153.91Z" fill="url(#paint26_linear)"/>
</g>
<path d="M1572.86 98.5369V110.263L1561.54 116.8V105.074L1572.86 98.5369Z" fill="url(#paint27_linear)"/>
<path d="M1561.54 105.074V116.8L1550.08 110.263V98.5369L1561.54 105.074Z" fill="url(#paint28_linear)"/>
<path d="M1572.86 98.537L1561.54 105.074L1550.08 98.537L1561.47 92L1572.86 98.537Z" fill="url(#paint29_linear)"/>
<defs>
<linearGradient id="paint0_linear" x1="337.358" y1="52.7204" x2="337.329" y2="138.693" gradientUnits="userSpaceOnUse">
<stop stop-color="#00B6C8"/>
<stop offset="1" stop-color="#00FFFF" stop-opacity="0"/>
</linearGradient>
<linearGradient id="paint1_linear" x1="328.592" y1="60.7997" x2="328.592" y2="142.317" gradientUnits="userSpaceOnUse">
<stop stop-color="#00B6C8"/>
<stop offset="1" stop-color="#00FFFF" stop-opacity="0"/>
</linearGradient>
<linearGradient id="paint2_linear" x1="360.158" y1="33.2489" x2="332.594" y2="129.246" gradientUnits="userSpaceOnUse">
<stop stop-color="#A6D7E8"/>
<stop offset="0.1065" stop-color="#AFDCEA"/>
<stop offset="0.7033" stop-color="#DFF5F3"/>
<stop offset="1" stop-color="#F2FFF7"/>
</linearGradient>
<linearGradient id="paint3_linear" x1="327.887" y1="101.133" x2="331.683" y2="22.3638" gradientUnits="userSpaceOnUse">
<stop stop-color="#A6D7E8"/>
<stop offset="0.1065" stop-color="#AFDCEA"/>
<stop offset="0.7033" stop-color="#DFF5F3"/>
<stop offset="1" stop-color="#F2FFF7"/>
</linearGradient>
<linearGradient id="paint4_linear" x1="320.165" y1="68.8758" x2="354.548" y2="68.8758" gradientUnits="userSpaceOnUse">
<stop stop-color="#F2FFF7"/>
<stop offset="1" stop-color="white"/>
</linearGradient>
<linearGradient id="paint5_linear" x1="998.577" y1="44.6411" x2="998.548" y2="131.698" gradientUnits="userSpaceOnUse">
<stop stop-color="#00B6C8"/>
<stop offset="1" stop-color="#00FFFF" stop-opacity="0"/>
</linearGradient>
<linearGradient id="paint6_linear" x1="989.701" y1="52.8223" x2="989.701" y2="135.368" gradientUnits="userSpaceOnUse">
<stop stop-color="#00B6C8"/>
<stop offset="1" stop-color="#00FFFF" stop-opacity="0"/>
</linearGradient>
<linearGradient id="paint7_linear" x1="1021.67" y1="24.9239" x2="993.754" y2="122.131" gradientUnits="userSpaceOnUse">
<stop stop-color="#A6D7E8"/>
<stop offset="0.1065" stop-color="#AFDCEA"/>
<stop offset="0.7033" stop-color="#DFF5F3"/>
<stop offset="1" stop-color="#F2FFF7"/>
</linearGradient>
<linearGradient id="paint8_linear" x1="988.987" y1="93.6643" x2="992.831" y2="13.9015" gradientUnits="userSpaceOnUse">
<stop stop-color="#A6D7E8"/>
<stop offset="0.1065" stop-color="#AFDCEA"/>
<stop offset="0.7033" stop-color="#DFF5F3"/>
<stop offset="1" stop-color="#F2FFF7"/>
</linearGradient>
<linearGradient id="paint9_linear" x1="981.167" y1="61.0004" x2="1015.98" y2="61.0004" gradientUnits="userSpaceOnUse">
<stop stop-color="#F2FFF7"/>
<stop offset="1" stop-color="white"/>
</linearGradient>
<linearGradient id="paint10_linear" x1="365.104" y1="10.3446" x2="365.087" y2="60.3882" gradientUnits="userSpaceOnUse">
<stop stop-color="#00B6C8"/>
<stop offset="1" stop-color="#00FFFF" stop-opacity="0"/>
</linearGradient>
<linearGradient id="paint11_linear" x1="360.001" y1="15.0475" x2="360.001" y2="62.4979" gradientUnits="userSpaceOnUse">
<stop stop-color="#00B6C8"/>
<stop offset="1" stop-color="#00FFFF" stop-opacity="0"/>
</linearGradient>
<linearGradient id="paint12_linear" x1="378.376" y1="-0.989461" x2="362.331" y2="54.8891" gradientUnits="userSpaceOnUse">
<stop stop-color="#A6D7E8"/>
<stop offset="0.1065" stop-color="#AFDCEA"/>
<stop offset="0.7033" stop-color="#DFF5F3"/>
<stop offset="1" stop-color="#F2FFF7"/>
</linearGradient>
<linearGradient id="paint13_linear" x1="359.591" y1="38.5252" x2="361.8" y2="-7.32557" gradientUnits="userSpaceOnUse">
<stop stop-color="#A6D7E8"/>
<stop offset="0.1065" stop-color="#AFDCEA"/>
<stop offset="0.7033" stop-color="#DFF5F3"/>
<stop offset="1" stop-color="#F2FFF7"/>
</linearGradient>
<linearGradient id="paint14_linear" x1="355.096" y1="19.7486" x2="375.11" y2="19.7486" gradientUnits="userSpaceOnUse">
<stop stop-color="#F2FFF7"/>
<stop offset="1" stop-color="white"/>
</linearGradient>
<linearGradient id="paint15_linear" x1="1506.61" y1="8.81855" x2="1506.58" y2="120.826" gradientUnits="userSpaceOnUse">
<stop stop-color="#00B6C8"/>
<stop offset="1" stop-color="#00FFFF" stop-opacity="0"/>
</linearGradient>
<linearGradient id="paint16_linear" x1="1495.19" y1="19.3445" x2="1495.19" y2="125.548" gradientUnits="userSpaceOnUse">
<stop stop-color="#00B6C8"/>
<stop offset="1" stop-color="#00FFFF" stop-opacity="0"/>
</linearGradient>
<linearGradient id="paint17_linear" x1="1536.32" y1="-16.5492" x2="1500.41" y2="108.518" gradientUnits="userSpaceOnUse">
<stop stop-color="#A6D7E8"/>
<stop offset="0.1065" stop-color="#AFDCEA"/>
<stop offset="0.7033" stop-color="#DFF5F3"/>
<stop offset="1" stop-color="#F2FFF7"/>
</linearGradient>
<linearGradient id="paint18_linear" x1="1494.28" y1="71.8921" x2="1499.22" y2="-30.7306" gradientUnits="userSpaceOnUse">
<stop stop-color="#A6D7E8"/>
<stop offset="0.1065" stop-color="#AFDCEA"/>
<stop offset="0.7033" stop-color="#DFF5F3"/>
<stop offset="1" stop-color="#F2FFF7"/>
</linearGradient>
<linearGradient id="paint19_linear" x1="1484.22" y1="29.8665" x2="1529.01" y2="29.8665" gradientUnits="userSpaceOnUse">
<stop stop-color="#F2FFF7"/>
<stop offset="1" stop-color="white"/>
</linearGradient>
<linearGradient id="paint20_linear" x1="1459.49" y1="86.8422" x2="1459.47" y2="143.764" gradientUnits="userSpaceOnUse">
<stop stop-color="#00B6C8"/>
<stop offset="1" stop-color="#00FFFF" stop-opacity="0"/>
</linearGradient>
<linearGradient id="paint21_linear" x1="1453.69" y1="92.1915" x2="1453.69" y2="146.164" gradientUnits="userSpaceOnUse">
<stop stop-color="#00B6C8"/>
<stop offset="1" stop-color="#00FFFF" stop-opacity="0"/>
</linearGradient>
<linearGradient id="paint22_linear" x1="1474.59" y1="73.9503" x2="1456.34" y2="137.509" gradientUnits="userSpaceOnUse">
<stop stop-color="#A6D7E8"/>
<stop offset="0.1065" stop-color="#AFDCEA"/>
<stop offset="0.7033" stop-color="#DFF5F3"/>
<stop offset="1" stop-color="#F2FFF7"/>
</linearGradient>
<linearGradient id="paint23_linear" x1="1453.22" y1="118.896" x2="1455.74" y2="66.7433" gradientUnits="userSpaceOnUse">
<stop stop-color="#A6D7E8"/>
<stop offset="0.1065" stop-color="#AFDCEA"/>
<stop offset="0.7033" stop-color="#DFF5F3"/>
<stop offset="1" stop-color="#F2FFF7"/>
</linearGradient>
<linearGradient id="paint24_linear" x1="1448.11" y1="97.5387" x2="1470.87" y2="97.5387" gradientUnits="userSpaceOnUse">
<stop stop-color="#F2FFF7"/>
<stop offset="1" stop-color="white"/>
</linearGradient>
<linearGradient id="paint25_linear" x1="1561.49" y1="87.8422" x2="1561.47" y2="144.764" gradientUnits="userSpaceOnUse">
<stop stop-color="#00B6C8"/>
<stop offset="1" stop-color="#00FFFF" stop-opacity="0"/>
</linearGradient>
<linearGradient id="paint26_linear" x1="1555.69" y1="93.1915" x2="1555.69" y2="147.164" gradientUnits="userSpaceOnUse">
<stop stop-color="#00B6C8"/>
<stop offset="1" stop-color="#00FFFF" stop-opacity="0"/>
</linearGradient>
<linearGradient id="paint27_linear" x1="1576.59" y1="74.9503" x2="1558.34" y2="138.509" gradientUnits="userSpaceOnUse">
<stop stop-color="#A6D7E8"/>
<stop offset="0.1065" stop-color="#AFDCEA"/>
<stop offset="0.7033" stop-color="#DFF5F3"/>
<stop offset="1" stop-color="#F2FFF7"/>
</linearGradient>
<linearGradient id="paint28_linear" x1="1555.22" y1="119.896" x2="1557.74" y2="67.7433" gradientUnits="userSpaceOnUse">
<stop stop-color="#A6D7E8"/>
<stop offset="0.1065" stop-color="#AFDCEA"/>
<stop offset="0.7033" stop-color="#DFF5F3"/>
<stop offset="1" stop-color="#F2FFF7"/>
</linearGradient>
<linearGradient id="paint29_linear" x1="1550.11" y1="98.5387" x2="1572.87" y2="98.5387" gradientUnits="userSpaceOnUse">
<stop stop-color="#F2FFF7"/>
<stop offset="1" stop-color="white"/>
</linearGradient>
</defs>
</svg>
