<svg width="628" height="585" viewBox="0 0 628 585" fill="none" xmlns="http://www.w3.org/2000/svg">
<path d="M517.386 326.104L405.79 390.672V260.188L517.386 195.62V326.104Z" fill="url(#paint0_linear)"/>
<path d="M294.122 326.104L405.79 390.672V260.188L294.122 195.62V326.104Z" fill="url(#paint1_linear)"/>
<path d="M517.388 195.619L405.791 130.98L294.124 195.619L405.791 260.187L517.388 195.619Z" fill="url(#paint2_linear)"/>
<path opacity="0.3" d="M516.45 326.272L405.897 262.303L295.274 326.272L405.897 390.17L516.45 326.272Z" fill="url(#paint3_linear)"/>
<path opacity="0.2" d="M406.082 261.023L294.776 325.373V195.33L406.082 130.98V261.023Z" fill="url(#paint4_linear)"/>
<path d="M517.388 585.194L405.791 520.555L294.124 585.194L405.791 649.762L517.388 585.194Z" fill="url(#paint5_linear)"/>
<path opacity="0.2" d="M406.082 650.598L294.776 714.948V584.905L406.082 520.555V650.598Z" fill="url(#paint6_linear)"/>
<path d="M294.54 715.246L182.943 779.814V649.33L294.54 584.762V715.246Z" fill="url(#paint7_linear)"/>
<path d="M71.2759 715.246L182.944 779.814V649.33L71.2759 584.762V715.246Z" fill="url(#paint8_linear)"/>
<path d="M294.541 584.761L182.944 520.122L71.2764 584.761L182.944 649.329L294.541 584.761Z" fill="url(#paint9_linear)"/>
<path opacity="0.2" d="M183.236 650.165L71.9302 714.514V584.472L183.236 520.122V650.165Z" fill="url(#paint10_linear)"/>
<path d="M405.647 520.785L294.05 585.353V454.869L405.647 390.3V520.785Z" fill="url(#paint11_linear)"/>
<path d="M182.382 520.785L294.05 585.353V454.869L182.382 390.3V520.785Z" fill="url(#paint12_linear)"/>
<path d="M405.647 390.3L294.05 325.661L182.382 390.3L294.05 454.868L405.647 390.3Z" fill="url(#paint13_linear)"/>
<path opacity="0.3" d="M404.71 520.953L294.157 456.984L183.534 520.953L294.157 584.851L404.71 520.953Z" fill="url(#paint14_linear)"/>
<path opacity="0.2" d="M294.341 455.704L183.036 520.053V390.01L294.341 325.661V455.704Z" fill="url(#paint15_linear)"/>
<path d="M627.974 521.361L516.377 585.929V455.444L627.974 390.876V521.361Z" fill="url(#paint16_linear)"/>
<path d="M404.71 521.361L516.378 585.929V455.444L404.71 390.876V521.361Z" fill="url(#paint17_linear)"/>
<path d="M627.975 390.876L516.378 326.237L404.71 390.876L516.378 455.444L627.975 390.876Z" fill="url(#paint18_linear)"/>
<path opacity="0.3" d="M627.038 521.528L516.485 457.56L405.862 521.528L516.485 585.427L627.038 521.528Z" fill="url(#paint19_linear)"/>
<path opacity="0.2" d="M516.67 456.28L405.364 520.629V390.586L516.67 326.237V456.28Z" fill="url(#paint20_linear)"/>
<path d="M295.504 195.124L183.907 259.692V129.208L295.504 64.6396V195.124Z" fill="url(#paint21_linear)"/>
<path d="M72.2393 195.124L183.907 259.692V129.208L72.2393 64.6396V195.124Z" fill="url(#paint22_linear)"/>
<path d="M295.504 64.6391L183.907 0L72.2397 64.6391L183.907 129.207L295.504 64.6391Z" fill="url(#paint23_linear)"/>
<path opacity="0.3" d="M294.567 195.292L184.014 131.323L73.3911 195.292L184.014 259.19L294.567 195.292Z" fill="url(#paint24_linear)"/>
<path opacity="0.2" d="M184.198 130.043L72.8926 194.393V64.3497L184.198 0V130.043Z" fill="url(#paint25_linear)"/>
<path d="M73.382 584.255L36.7026 605.477V562.59L73.382 541.368V584.255Z" fill="url(#paint26_linear)"/>
<path d="M0 584.255L36.7026 605.477V562.59L0 541.368V584.255Z" fill="url(#paint27_linear)"/>
<path d="M73.382 541.367L36.7026 520.122L0 541.367L36.7026 562.589L73.382 541.367Z" fill="url(#paint28_linear)"/>
<path opacity="0.3" d="M73.0739 584.31L36.7377 563.285L0.378418 584.31L36.7377 605.312L73.0739 584.31Z" fill="url(#paint29_linear)"/>
<path opacity="0.2" d="M36.7979 562.864L0.214355 584.014V541.272L36.7979 520.122V562.864Z" fill="url(#paint30_linear)"/>
<path d="M589.651 193.2L552.972 214.422V171.535L589.651 150.313V193.2Z" fill="url(#paint31_linear)"/>
<path d="M516.269 193.2L552.972 214.422V171.535L516.269 150.313V193.2Z" fill="url(#paint32_linear)"/>
<path d="M589.652 150.313L552.972 129.067L516.27 150.313L552.972 171.535L589.652 150.313Z" fill="url(#paint33_linear)"/>
<path opacity="0.3" d="M589.343 193.255L553.007 172.23L516.647 193.255L553.007 214.257L589.343 193.255Z" fill="url(#paint34_linear)"/>
<path opacity="0.2" d="M553.067 171.809L516.483 192.96V150.218L553.067 129.067V171.809Z" fill="url(#paint35_linear)"/>
<path d="M256.388 303.004L219.708 324.226V281.338L256.388 260.116V303.004Z" fill="url(#paint36_linear)"/>
<path d="M183.006 303.004L219.708 324.226V281.338L183.006 260.116V303.004Z" fill="url(#paint37_linear)"/>
<path d="M256.388 260.116L219.709 238.871L183.006 260.116L219.709 281.338L256.388 260.116Z" fill="url(#paint38_linear)"/>
<path opacity="0.3" d="M256.08 303.059L219.744 282.034L183.384 303.059L219.744 324.061L256.08 303.059Z" fill="url(#paint39_linear)"/>
<path opacity="0.2" d="M219.804 281.613L183.22 302.763V260.021L219.804 238.871V281.613Z" fill="url(#paint40_linear)"/>
<defs>
<linearGradient id="paint0_linear" x1="419.045" y1="293.132" x2="538.826" y2="293.132" gradientUnits="userSpaceOnUse">
<stop stop-color="#00DED3"/>
<stop offset="1" stop-color="#008B9A"/>
</linearGradient>
<linearGradient id="paint1_linear" x1="294.776" y1="326.94" x2="588.637" y2="123.726" gradientUnits="userSpaceOnUse">
<stop stop-color="#00EADC"/>
<stop offset="0.393961" stop-color="#008B9A"/>
</linearGradient>
<linearGradient id="paint2_linear" x1="405.693" y1="260.692" x2="405.693" y2="16.2835" gradientUnits="userSpaceOnUse">
<stop stop-color="#EFF0F2"/>
<stop offset="0.4469" stop-color="#00DDD2"/>
<stop offset="1" stop-color="#008B9A"/>
</linearGradient>
<linearGradient id="paint3_linear" x1="404.551" y1="260.649" x2="406.204" y2="389.663" gradientUnits="userSpaceOnUse">
<stop stop-color="#E7FFFE" stop-opacity="0"/>
<stop offset="1" stop-color="#008B9A"/>
</linearGradient>
<linearGradient id="paint4_linear" x1="378.959" y1="246.746" x2="373.966" y2="145.138" gradientUnits="userSpaceOnUse">
<stop stop-color="#00DED3" stop-opacity="0"/>
<stop offset="1" stop-color="#008B9A"/>
</linearGradient>
<linearGradient id="paint5_linear" x1="405.693" y1="650.267" x2="405.693" y2="405.858" gradientUnits="userSpaceOnUse">
<stop stop-color="#EFF0F2"/>
<stop offset="0.4469" stop-color="#00DDD2"/>
<stop offset="1" stop-color="#008B9A"/>
</linearGradient>
<linearGradient id="paint6_linear" x1="378.959" y1="636.321" x2="373.966" y2="534.713" gradientUnits="userSpaceOnUse">
<stop stop-color="#00DED3" stop-opacity="0"/>
<stop offset="1" stop-color="#008B9A"/>
</linearGradient>
<linearGradient id="paint7_linear" x1="196.199" y1="682.274" x2="315.98" y2="682.274" gradientUnits="userSpaceOnUse">
<stop stop-color="#00DED3"/>
<stop offset="1" stop-color="#008B9A"/>
</linearGradient>
<linearGradient id="paint8_linear" x1="71.9296" y1="716.082" x2="365.791" y2="512.868" gradientUnits="userSpaceOnUse">
<stop stop-color="#00EADC"/>
<stop offset="0.393961" stop-color="#008B9A"/>
</linearGradient>
<linearGradient id="paint9_linear" x1="182.846" y1="649.834" x2="182.846" y2="405.425" gradientUnits="userSpaceOnUse">
<stop stop-color="#EFF0F2"/>
<stop offset="0.4469" stop-color="#00DDD2"/>
<stop offset="1" stop-color="#008B9A"/>
</linearGradient>
<linearGradient id="paint10_linear" x1="156.113" y1="635.888" x2="151.12" y2="534.28" gradientUnits="userSpaceOnUse">
<stop stop-color="#00DED3" stop-opacity="0"/>
<stop offset="1" stop-color="#008B9A"/>
</linearGradient>
<linearGradient id="paint11_linear" x1="307.306" y1="487.813" x2="427.087" y2="487.813" gradientUnits="userSpaceOnUse">
<stop stop-color="#00DED3"/>
<stop offset="1" stop-color="#008B9A"/>
</linearGradient>
<linearGradient id="paint12_linear" x1="183.036" y1="521.621" x2="476.897" y2="318.407" gradientUnits="userSpaceOnUse">
<stop stop-color="#00EADC"/>
<stop offset="0.393961" stop-color="#008B9A"/>
</linearGradient>
<linearGradient id="paint13_linear" x1="293.952" y1="455.373" x2="293.952" y2="210.964" gradientUnits="userSpaceOnUse">
<stop stop-color="#EFF0F2"/>
<stop offset="0.4469" stop-color="#00DDD2"/>
<stop offset="1" stop-color="#008B9A"/>
</linearGradient>
<linearGradient id="paint14_linear" x1="292.812" y1="455.33" x2="294.464" y2="584.344" gradientUnits="userSpaceOnUse">
<stop stop-color="#E7FFFE" stop-opacity="0"/>
<stop offset="1" stop-color="#008B9A"/>
</linearGradient>
<linearGradient id="paint15_linear" x1="267.219" y1="441.427" x2="262.225" y2="339.819" gradientUnits="userSpaceOnUse">
<stop stop-color="#00DED3" stop-opacity="0"/>
<stop offset="1" stop-color="#008B9A"/>
</linearGradient>
<linearGradient id="paint16_linear" x1="529.633" y1="488.389" x2="649.414" y2="488.389" gradientUnits="userSpaceOnUse">
<stop stop-color="#00DED3"/>
<stop offset="1" stop-color="#008B9A"/>
</linearGradient>
<linearGradient id="paint17_linear" x1="405.364" y1="522.197" x2="699.225" y2="318.983" gradientUnits="userSpaceOnUse">
<stop stop-color="#00EADC"/>
<stop offset="0.393961" stop-color="#008B9A"/>
</linearGradient>
<linearGradient id="paint18_linear" x1="516.28" y1="455.949" x2="516.28" y2="211.54" gradientUnits="userSpaceOnUse">
<stop stop-color="#EFF0F2"/>
<stop offset="0.4469" stop-color="#00DDD2"/>
<stop offset="1" stop-color="#008B9A"/>
</linearGradient>
<linearGradient id="paint19_linear" x1="515.139" y1="455.906" x2="516.792" y2="584.92" gradientUnits="userSpaceOnUse">
<stop stop-color="#E7FFFE" stop-opacity="0"/>
<stop offset="1" stop-color="#008B9A"/>
</linearGradient>
<linearGradient id="paint20_linear" x1="489.547" y1="442.003" x2="484.554" y2="340.395" gradientUnits="userSpaceOnUse">
<stop stop-color="#00DED3" stop-opacity="0"/>
<stop offset="1" stop-color="#008B9A"/>
</linearGradient>
<linearGradient id="paint21_linear" x1="197.163" y1="162.152" x2="316.943" y2="162.152" gradientUnits="userSpaceOnUse">
<stop stop-color="#00DED3"/>
<stop offset="1" stop-color="#008B9A"/>
</linearGradient>
<linearGradient id="paint22_linear" x1="72.893" y1="195.96" x2="366.754" y2="-7.25397" gradientUnits="userSpaceOnUse">
<stop stop-color="#00EADC"/>
<stop offset="0.393961" stop-color="#008B9A"/>
</linearGradient>
<linearGradient id="paint23_linear" x1="183.81" y1="129.712" x2="183.81" y2="-114.697" gradientUnits="userSpaceOnUse">
<stop stop-color="#EFF0F2"/>
<stop offset="0.4469" stop-color="#00DDD2"/>
<stop offset="1" stop-color="#008B9A"/>
</linearGradient>
<linearGradient id="paint24_linear" x1="182.669" y1="129.669" x2="184.321" y2="258.683" gradientUnits="userSpaceOnUse">
<stop stop-color="#E7FFFE" stop-opacity="0"/>
<stop offset="1" stop-color="#008B9A"/>
</linearGradient>
<linearGradient id="paint25_linear" x1="157.076" y1="115.766" x2="152.082" y2="14.1581" gradientUnits="userSpaceOnUse">
<stop stop-color="#00DED3" stop-opacity="0"/>
<stop offset="1" stop-color="#008B9A"/>
</linearGradient>
<linearGradient id="paint26_linear" x1="41.0595" y1="573.418" x2="80.4288" y2="573.418" gradientUnits="userSpaceOnUse">
<stop stop-color="#00DED3"/>
<stop offset="1" stop-color="#008B9A"/>
</linearGradient>
<linearGradient id="paint27_linear" x1="0.21486" y1="584.53" x2="96.8003" y2="517.738" gradientUnits="userSpaceOnUse">
<stop stop-color="#00EADC"/>
<stop offset="0.393961" stop-color="#008B9A"/>
</linearGradient>
<linearGradient id="paint28_linear" x1="36.6705" y1="562.755" x2="36.6705" y2="482.424" gradientUnits="userSpaceOnUse">
<stop stop-color="#EFF0F2"/>
<stop offset="0.4469" stop-color="#00DDD2"/>
<stop offset="1" stop-color="#008B9A"/>
</linearGradient>
<linearGradient id="paint29_linear" x1="36.2954" y1="562.741" x2="36.8385" y2="605.145" gradientUnits="userSpaceOnUse">
<stop stop-color="#E7FFFE" stop-opacity="0"/>
<stop offset="1" stop-color="#008B9A"/>
</linearGradient>
<linearGradient id="paint30_linear" x1="27.8834" y1="558.172" x2="26.2422" y2="524.775" gradientUnits="userSpaceOnUse">
<stop stop-color="#00DED3" stop-opacity="0"/>
<stop offset="1" stop-color="#008B9A"/>
</linearGradient>
<linearGradient id="paint31_linear" x1="557.329" y1="182.363" x2="596.698" y2="182.363" gradientUnits="userSpaceOnUse">
<stop stop-color="#00DED3"/>
<stop offset="1" stop-color="#008B9A"/>
</linearGradient>
<linearGradient id="paint32_linear" x1="516.484" y1="193.475" x2="613.069" y2="126.683" gradientUnits="userSpaceOnUse">
<stop stop-color="#00EADC"/>
<stop offset="0.393961" stop-color="#008B9A"/>
</linearGradient>
<linearGradient id="paint33_linear" x1="552.94" y1="171.701" x2="552.94" y2="91.3693" gradientUnits="userSpaceOnUse">
<stop stop-color="#EFF0F2"/>
<stop offset="0.4469" stop-color="#00DDD2"/>
<stop offset="1" stop-color="#008B9A"/>
</linearGradient>
<linearGradient id="paint34_linear" x1="552.564" y1="171.687" x2="553.108" y2="214.09" gradientUnits="userSpaceOnUse">
<stop stop-color="#E7FFFE" stop-opacity="0"/>
<stop offset="1" stop-color="#008B9A"/>
</linearGradient>
<linearGradient id="paint35_linear" x1="544.152" y1="167.117" x2="542.511" y2="133.721" gradientUnits="userSpaceOnUse">
<stop stop-color="#00DED3" stop-opacity="0"/>
<stop offset="1" stop-color="#008B9A"/>
</linearGradient>
<linearGradient id="paint36_linear" x1="224.065" y1="292.166" x2="263.435" y2="292.166" gradientUnits="userSpaceOnUse">
<stop stop-color="#00DED3"/>
<stop offset="1" stop-color="#008B9A"/>
</linearGradient>
<linearGradient id="paint37_linear" x1="183.221" y1="303.278" x2="279.806" y2="236.487" gradientUnits="userSpaceOnUse">
<stop stop-color="#00EADC"/>
<stop offset="0.393961" stop-color="#008B9A"/>
</linearGradient>
<linearGradient id="paint38_linear" x1="219.677" y1="281.504" x2="219.677" y2="201.173" gradientUnits="userSpaceOnUse">
<stop stop-color="#EFF0F2"/>
<stop offset="0.4469" stop-color="#00DDD2"/>
<stop offset="1" stop-color="#008B9A"/>
</linearGradient>
<linearGradient id="paint39_linear" x1="219.301" y1="281.49" x2="219.844" y2="323.894" gradientUnits="userSpaceOnUse">
<stop stop-color="#E7FFFE" stop-opacity="0"/>
<stop offset="1" stop-color="#008B9A"/>
</linearGradient>
<linearGradient id="paint40_linear" x1="210.889" y1="276.921" x2="209.248" y2="243.524" gradientUnits="userSpaceOnUse">
<stop stop-color="#00DED3" stop-opacity="0"/>
<stop offset="1" stop-color="#008B9A"/>
</linearGradient>
</defs>
</svg>
