<svg width="63" height="48" viewBox="0 0 63 48" fill="none" xmlns="http://www.w3.org/2000/svg">
<path d="M0.5 47V47.5H1H25.1574H25.6574V47V22.7412V22.2412H25.1574H16.5151V21.8922C16.5151 18.896 17.471 16.5842 19.3467 14.8951C21.2389 13.1912 24.1215 12.072 28.0633 11.5934L28.599 11.5283L28.4933 10.9991L26.677 1.9021L26.5943 1.48765L26.1718 1.50022C17.9452 1.74499 11.5769 3.86856 7.14029 7.93884C2.67732 12.0333 0.5 18.504 0.5 27.2291V47ZM33.3759 47V47.5H33.8759H58.0333H58.5333V47V22.7412V22.2412H58.0333H49.3305V22.1348C49.3305 19.056 50.3027 16.6834 52.2088 14.9546C54.1308 13.2113 57.0579 12.0721 61.0594 11.5935L61.6066 11.528L61.4884 10.9898L59.4904 1.89274L59.4014 1.48783L58.9871 1.50022C50.8001 1.74502 44.4524 3.86894 40.0162 7.93884C35.5532 12.0333 33.3759 18.504 33.3759 27.2291V47Z" stroke="#008B9A"/>
</svg>
