<svg xmlns="http://www.w3.org/2000/svg" width="131" height="175" viewBox="0 0 131 175" fill="none">
<path d="M110.76 110.927C135.984 125.496 136.112 149.051 111.017 163.621C85.9859 178.19 45.2301 178.19 20.0064 163.621C-5.21729 149.051 -5.34566 125.496 19.6855 110.927C44.845 96.3577 85.5366 96.3577 110.76 110.927Z" fill="url(#paint0_linear)"/>
<path d="M129.758 109.688V114.886C129.758 124.385 123.533 133.82 111.081 141.073C86.0502 155.642 45.2944 155.642 20.0707 141.073C7.36263 133.756 1.07275 124.129 1.07275 114.501V109.302C1.07275 118.93 7.36263 128.493 20.0707 135.874C45.2944 150.443 85.9861 150.443 111.081 135.874C123.533 128.621 129.758 119.122 129.758 109.688Z" fill="url(#paint1_linear)" stroke="white" stroke-width="0.5" stroke-miterlimit="10"/>
<path d="M110.76 83.1163C135.984 97.6857 136.112 121.241 111.017 135.81C85.9859 150.379 45.2301 150.379 20.0064 135.81C-5.21729 121.241 -5.34566 97.6857 19.6855 83.1163C44.845 68.5469 85.5366 68.5469 110.76 83.1163Z" fill="url(#paint2_linear)"/>
<path d="M97.5387 90.8179C115.381 101.151 115.51 117.839 97.7313 128.172C79.9528 138.505 51.1349 138.505 33.2922 128.172C15.4494 117.839 15.3211 101.151 33.0996 90.8179C50.8139 80.4845 79.696 80.4845 97.5387 90.8179Z" fill="url(#paint3_linear)"/>
<path d="M111.017 0H19.814V110.137H19.8782C20.1991 116.684 24.6918 123.166 33.2923 128.108C51.135 138.441 80.017 138.441 97.7314 128.108C106.332 123.102 110.696 116.619 110.953 110.137V0H111.017Z" fill="url(#paint4_linear)"/>
<path d="M65.1906 50.1909C60.2486 47.3669 55.7558 47.046 52.5467 48.9715L49.2092 50.8969C52.4183 49.0357 56.9111 49.2924 61.8532 52.1164C71.6731 57.7645 79.6317 71.5637 79.6317 82.8598C79.6317 88.4436 77.642 92.4229 74.4329 94.2842L77.7704 92.3588C80.9795 90.4975 82.9692 86.5824 82.9692 80.9343C82.9692 69.6382 75.0105 55.839 65.1906 50.1909Z" fill="url(#paint5_linear)"/>
<path d="M61.9174 52.1163C52.0975 46.4682 44.0747 51.0252 44.0747 62.3213C44.0747 73.6174 51.9691 87.3524 61.7891 93.0646C71.609 98.7127 79.6317 94.2199 79.6317 82.8596C79.6959 71.5635 71.7373 57.7643 61.9174 52.1163Z" fill="url(#paint6_linear)"/>
<path d="M61.7889 61.4869C59.0291 59.8824 56.7185 61.166 56.7185 64.3751C56.7185 66.6215 57.8738 69.253 59.4783 71.1785L57.7454 81.3193L61.1471 83.2448L62.2382 83.8866L65.6399 85.812L63.9711 73.6816C65.6398 73.6816 66.7951 72.3979 66.7951 70.0874C66.7951 67.0066 64.5488 63.0915 61.7889 61.4869Z" fill="url(#paint7_linear)"/>
<path d="M61.789 61.487C61.0189 61.0378 60.3128 60.8452 59.671 60.8452C59.0934 61.487 58.7725 62.3856 58.7725 63.6051C58.7725 65.8514 59.9278 68.4829 61.5323 70.4084L59.7994 80.5492L63.201 82.4747L64.2922 83.1165L65.3191 83.6941L63.9712 73.7459C65.64 73.7459 66.7953 72.4622 66.7953 70.1517C66.7953 67.0067 64.5489 63.0916 61.789 61.487Z" fill="#06605B"/>
<path d="M92.1473 110.843V114.244L88.874 116.106V112.704L92.1473 110.843Z" fill="url(#paint8_linear)"/>
<path d="M88.8741 112.704V116.106L85.5366 114.244V110.843L88.8741 112.704Z" fill="url(#paint9_linear)"/>
<path d="M92.1474 110.843L88.8741 112.704L85.5366 110.843L88.8099 108.917L92.1474 110.843Z" fill="url(#paint10_linear)"/>
<path d="M89.9007 101.537V104.938L86.6274 106.864V103.462L89.9007 101.537Z" fill="url(#paint11_linear)"/>
<path d="M86.6275 103.462V106.864L83.29 104.938V101.537L86.6275 103.462Z" fill="url(#paint12_linear)"/>
<path d="M89.9008 101.537L86.6275 103.462L83.29 101.537L86.6275 99.6753L89.9008 101.537Z" fill="url(#paint13_linear)"/>
<path d="M98.5013 97.3647V100.831L95.228 102.692V99.2902L98.5013 97.3647Z" fill="url(#paint14_linear)"/>
<path d="M95.2279 99.2902V102.692L91.9546 100.831V97.3647L95.2279 99.2902Z" fill="url(#paint15_linear)"/>
<path d="M98.5012 97.3649L95.2279 99.2904L91.9546 97.3649L95.2279 95.5037L98.5012 97.3649Z" fill="url(#paint16_linear)"/>
<path d="M45.1654 108.276V111.678L41.8921 113.603V110.137L45.1654 108.276Z" fill="url(#paint17_linear)"/>
<path d="M41.8922 110.137V113.603L38.5547 111.678V108.276L41.8922 110.137Z" fill="url(#paint18_linear)"/>
<path d="M45.1655 108.276L41.8922 110.137L38.5547 108.276L41.828 106.35L45.1655 108.276Z" fill="url(#paint19_linear)"/>
<path d="M38.1056 101.537V104.938L34.8323 106.864V103.462L38.1056 101.537Z" fill="url(#paint20_linear)"/>
<path d="M34.8324 103.462V106.864L31.5591 104.938V101.537L34.8324 103.462Z" fill="url(#paint21_linear)"/>
<path d="M38.1057 101.537L34.8324 103.462L31.5591 101.537L34.8324 99.6753L38.1057 101.537Z" fill="url(#paint22_linear)"/>
<path d="M46.7699 97.3647V100.831L43.4966 102.692V99.2902L46.7699 97.3647Z" fill="url(#paint23_linear)"/>
<path d="M43.4967 99.2902V102.692L40.1592 100.831V97.3647L43.4967 99.2902Z" fill="url(#paint24_linear)"/>
<path d="M46.7702 97.3649L43.4969 99.2904L40.1594 97.3649L43.4327 95.5037L46.7702 97.3649Z" fill="url(#paint25_linear)"/>
<path d="M92.7894 59.3687V62.7703L89.5161 64.6958V61.2941L92.7894 59.3687Z" fill="url(#paint26_linear)"/>
<path d="M89.5159 61.2941V64.6958L86.1785 62.7703V59.3687L89.5159 61.2941Z" fill="url(#paint27_linear)"/>
<path d="M92.7892 59.3686L89.5159 61.2941L86.1785 59.3686L89.4518 57.4431L92.7892 59.3686Z" fill="url(#paint28_linear)"/>
<path d="M85.7291 52.6296V56.0955L82.4558 57.9568V54.5551L85.7291 52.6296Z" fill="url(#paint29_linear)"/>
<path d="M82.4559 54.5551V57.9568L79.1826 56.0955V52.6296L82.4559 54.5551Z" fill="url(#paint30_linear)"/>
<path d="M85.7297 52.6296L82.4564 54.5551L79.1831 52.6296L82.4564 50.7683L85.7297 52.6296Z" fill="url(#paint31_linear)"/>
<path d="M79.3751 43.3872V46.7889L76.0376 48.7143L76.1018 45.3127L79.3751 43.3872Z" fill="url(#paint32_linear)"/>
<path d="M76.1019 45.3127L76.0377 48.7143L72.7644 46.7889V43.3872L76.1019 45.3127Z" fill="url(#paint33_linear)"/>
<path d="M79.3752 43.3874L76.1019 45.3129L72.7644 43.3874L76.0377 41.4619L79.3752 43.3874Z" fill="url(#paint34_linear)"/>
<defs>
<linearGradient id="paint0_linear" x1="65" y1="175" x2="62" y2="100" gradientUnits="userSpaceOnUse">
<stop stop-color="#DDF0F6"/>
<stop offset="1" stop-color="#E6F5F7"/>
</linearGradient>
<linearGradient id="paint1_linear" x1="1.06544" y1="130.622" x2="129.767" y2="130.622" gradientUnits="userSpaceOnUse">
<stop stop-color="#A6D7E8"/>
<stop offset="0.1065" stop-color="#AFDCEA"/>
<stop offset="0.7033" stop-color="#DFF5F3"/>
<stop offset="1" stop-color="#F2FFF7"/>
</linearGradient>
<linearGradient id="paint2_linear" x1="1.08009" y1="109.476" x2="129.767" y2="109.476" gradientUnits="userSpaceOnUse">
<stop stop-color="#F2FFF7"/>
<stop offset="1" stop-color="white"/>
</linearGradient>
<linearGradient id="paint3_linear" x1="19.8339" y1="109.476" x2="111.013" y2="109.476" gradientUnits="userSpaceOnUse">
<stop stop-color="#21A0A3"/>
<stop offset="0.1744" stop-color="#1EA9AB"/>
<stop offset="0.4553" stop-color="#16C0C2"/>
<stop offset="0.8053" stop-color="#08E7E7"/>
<stop offset="1" stop-color="#00FFFF"/>
</linearGradient>
<linearGradient id="paint4_linear" x1="65.4183" y1="137.65" x2="65.4183" y2="2.12765" gradientUnits="userSpaceOnUse">
<stop stop-color="#21A0A3"/>
<stop offset="0.1797" stop-color="#16BFC1" stop-opacity="0.8203"/>
<stop offset="0.3838" stop-color="#0DDBDC" stop-opacity="0.6162"/>
<stop offset="0.589" stop-color="#06EFF0" stop-opacity="0.411"/>
<stop offset="0.7944" stop-color="#01FBFB" stop-opacity="0.2056"/>
<stop offset="1" stop-color="#00FFFF" stop-opacity="0"/>
</linearGradient>
<linearGradient id="paint5_linear" x1="66.0949" y1="96.7105" x2="66.0949" y2="54.0566" gradientUnits="userSpaceOnUse">
<stop stop-color="#008B9A"/>
<stop offset="0.1951" stop-color="#01A0B0"/>
<stop offset="0.5314" stop-color="#01C0D1"/>
<stop offset="0.8119" stop-color="#02D3E6"/>
<stop offset="1" stop-color="#02DAED"/>
</linearGradient>
<linearGradient id="paint6_linear" x1="61.8381" y1="98.0214" x2="61.8381" y2="45.9166" gradientUnits="userSpaceOnUse">
<stop stop-color="#008B9A"/>
<stop offset="0.1951" stop-color="#01A0B0"/>
<stop offset="0.5314" stop-color="#01C0D1"/>
<stop offset="0.8119" stop-color="#02D3E6"/>
<stop offset="1" stop-color="#02DAED"/>
</linearGradient>
<linearGradient id="paint7_linear" x1="56.7045" y1="73.3413" x2="66.803" y2="73.3413" gradientUnits="userSpaceOnUse">
<stop stop-color="#008B9A"/>
<stop offset="0.1951" stop-color="#01A0B0"/>
<stop offset="0.5314" stop-color="#01C0D1"/>
<stop offset="0.8119" stop-color="#02D3E6"/>
<stop offset="1" stop-color="#02DAED"/>
</linearGradient>
<linearGradient id="paint8_linear" x1="93.2226" y1="103.963" x2="87.9164" y2="122.444" gradientUnits="userSpaceOnUse">
<stop stop-color="#A6D7E8"/>
<stop offset="0.1065" stop-color="#AFDCEA"/>
<stop offset="0.7033" stop-color="#DFF5F3"/>
<stop offset="1" stop-color="#F2FFF7"/>
</linearGradient>
<linearGradient id="paint9_linear" x1="87.0329" y1="117.037" x2="87.7648" y2="101.85" gradientUnits="userSpaceOnUse">
<stop stop-color="#A6D7E8"/>
<stop offset="0.1065" stop-color="#AFDCEA"/>
<stop offset="0.7033" stop-color="#DFF5F3"/>
<stop offset="1" stop-color="#F2FFF7"/>
</linearGradient>
<linearGradient id="paint10_linear" x1="85.5582" y1="110.819" x2="92.131" y2="110.819" gradientUnits="userSpaceOnUse">
<stop stop-color="#F2FFF7"/>
<stop offset="1" stop-color="white"/>
</linearGradient>
<linearGradient id="paint11_linear" x1="90.9852" y1="94.6956" x2="85.679" y2="113.176" gradientUnits="userSpaceOnUse">
<stop stop-color="#A6D7E8"/>
<stop offset="0.1065" stop-color="#AFDCEA"/>
<stop offset="0.7033" stop-color="#DFF5F3"/>
<stop offset="1" stop-color="#F2FFF7"/>
</linearGradient>
<linearGradient id="paint12_linear" x1="84.7956" y1="107.769" x2="85.5275" y2="92.5825" gradientUnits="userSpaceOnUse">
<stop stop-color="#A6D7E8"/>
<stop offset="0.1065" stop-color="#AFDCEA"/>
<stop offset="0.7033" stop-color="#DFF5F3"/>
<stop offset="1" stop-color="#F2FFF7"/>
</linearGradient>
<linearGradient id="paint13_linear" x1="83.3208" y1="101.551" x2="89.8936" y2="101.551" gradientUnits="userSpaceOnUse">
<stop stop-color="#F2FFF7"/>
<stop offset="1" stop-color="white"/>
</linearGradient>
<linearGradient id="paint14_linear" x1="99.6143" y1="90.5409" x2="94.3081" y2="109.021" gradientUnits="userSpaceOnUse">
<stop stop-color="#A6D7E8"/>
<stop offset="0.1065" stop-color="#AFDCEA"/>
<stop offset="0.7033" stop-color="#DFF5F3"/>
<stop offset="1" stop-color="#F2FFF7"/>
</linearGradient>
<linearGradient id="paint15_linear" x1="93.4244" y1="103.615" x2="94.1563" y2="88.4278" gradientUnits="userSpaceOnUse">
<stop stop-color="#A6D7E8"/>
<stop offset="0.1065" stop-color="#AFDCEA"/>
<stop offset="0.7033" stop-color="#DFF5F3"/>
<stop offset="1" stop-color="#F2FFF7"/>
</linearGradient>
<linearGradient id="paint16_linear" x1="91.9496" y1="97.3963" x2="98.5225" y2="97.3963" gradientUnits="userSpaceOnUse">
<stop stop-color="#F2FFF7"/>
<stop offset="1" stop-color="white"/>
</linearGradient>
<linearGradient id="paint17_linear" x1="46.2425" y1="101.407" x2="40.9363" y2="119.887" gradientUnits="userSpaceOnUse">
<stop stop-color="#A6D7E8"/>
<stop offset="0.1065" stop-color="#AFDCEA"/>
<stop offset="0.7033" stop-color="#DFF5F3"/>
<stop offset="1" stop-color="#F2FFF7"/>
</linearGradient>
<linearGradient id="paint18_linear" x1="40.0528" y1="114.481" x2="40.7848" y2="99.2939" gradientUnits="userSpaceOnUse">
<stop stop-color="#A6D7E8"/>
<stop offset="0.1065" stop-color="#AFDCEA"/>
<stop offset="0.7033" stop-color="#DFF5F3"/>
<stop offset="1" stop-color="#F2FFF7"/>
</linearGradient>
<linearGradient id="paint19_linear" x1="38.5781" y1="108.262" x2="45.1509" y2="108.262" gradientUnits="userSpaceOnUse">
<stop stop-color="#F2FFF7"/>
<stop offset="1" stop-color="white"/>
</linearGradient>
<linearGradient id="paint20_linear" x1="39.2118" y1="94.6956" x2="33.9056" y2="113.176" gradientUnits="userSpaceOnUse">
<stop stop-color="#A6D7E8"/>
<stop offset="0.1065" stop-color="#AFDCEA"/>
<stop offset="0.7033" stop-color="#DFF5F3"/>
<stop offset="1" stop-color="#F2FFF7"/>
</linearGradient>
<linearGradient id="paint21_linear" x1="33.0222" y1="107.769" x2="33.7541" y2="92.5825" gradientUnits="userSpaceOnUse">
<stop stop-color="#A6D7E8"/>
<stop offset="0.1065" stop-color="#AFDCEA"/>
<stop offset="0.7033" stop-color="#DFF5F3"/>
<stop offset="1" stop-color="#F2FFF7"/>
</linearGradient>
<linearGradient id="paint22_linear" x1="31.5474" y1="101.551" x2="38.1203" y2="101.551" gradientUnits="userSpaceOnUse">
<stop stop-color="#F2FFF7"/>
<stop offset="1" stop-color="white"/>
</linearGradient>
<linearGradient id="paint23_linear" x1="47.8404" y1="90.5409" x2="42.5341" y2="109.021" gradientUnits="userSpaceOnUse">
<stop stop-color="#A6D7E8"/>
<stop offset="0.1065" stop-color="#AFDCEA"/>
<stop offset="0.7033" stop-color="#DFF5F3"/>
<stop offset="1" stop-color="#F2FFF7"/>
</linearGradient>
<linearGradient id="paint24_linear" x1="41.6507" y1="103.615" x2="42.3827" y2="88.4278" gradientUnits="userSpaceOnUse">
<stop stop-color="#A6D7E8"/>
<stop offset="0.1065" stop-color="#AFDCEA"/>
<stop offset="0.7033" stop-color="#DFF5F3"/>
<stop offset="1" stop-color="#F2FFF7"/>
</linearGradient>
<linearGradient id="paint25_linear" x1="40.1762" y1="97.3963" x2="46.749" y2="97.3963" gradientUnits="userSpaceOnUse">
<stop stop-color="#F2FFF7"/>
<stop offset="1" stop-color="white"/>
</linearGradient>
<linearGradient id="paint26_linear" x1="93.862" y1="52.5097" x2="88.5558" y2="70.9899" gradientUnits="userSpaceOnUse">
<stop stop-color="#A6D7E8"/>
<stop offset="0.1065" stop-color="#AFDCEA"/>
<stop offset="0.7033" stop-color="#DFF5F3"/>
<stop offset="1" stop-color="#F2FFF7"/>
</linearGradient>
<linearGradient id="paint27_linear" x1="87.6721" y1="65.5834" x2="88.404" y2="50.3965" gradientUnits="userSpaceOnUse">
<stop stop-color="#A6D7E8"/>
<stop offset="0.1065" stop-color="#AFDCEA"/>
<stop offset="0.7033" stop-color="#DFF5F3"/>
<stop offset="1" stop-color="#F2FFF7"/>
</linearGradient>
<linearGradient id="paint28_linear" x1="86.1974" y1="59.3647" x2="92.7702" y2="59.3647" gradientUnits="userSpaceOnUse">
<stop stop-color="#F2FFF7"/>
<stop offset="1" stop-color="white"/>
</linearGradient>
<linearGradient id="paint29_linear" x1="86.8308" y1="45.7984" x2="81.5246" y2="64.2787" gradientUnits="userSpaceOnUse">
<stop stop-color="#A6D7E8"/>
<stop offset="0.1065" stop-color="#AFDCEA"/>
<stop offset="0.7033" stop-color="#DFF5F3"/>
<stop offset="1" stop-color="#F2FFF7"/>
</linearGradient>
<linearGradient id="paint30_linear" x1="80.6412" y1="58.8721" x2="81.373" y2="43.6853" gradientUnits="userSpaceOnUse">
<stop stop-color="#A6D7E8"/>
<stop offset="0.1065" stop-color="#AFDCEA"/>
<stop offset="0.7033" stop-color="#DFF5F3"/>
<stop offset="1" stop-color="#F2FFF7"/>
</linearGradient>
<linearGradient id="paint31_linear" x1="79.1669" y1="52.6535" x2="85.7397" y2="52.6535" gradientUnits="userSpaceOnUse">
<stop stop-color="#F2FFF7"/>
<stop offset="1" stop-color="white"/>
</linearGradient>
<linearGradient id="paint32_linear" x1="80.439" y1="36.5302" x2="75.1329" y2="55.0105" gradientUnits="userSpaceOnUse">
<stop stop-color="#A6D7E8"/>
<stop offset="0.1065" stop-color="#AFDCEA"/>
<stop offset="0.7033" stop-color="#DFF5F3"/>
<stop offset="1" stop-color="#F2FFF7"/>
</linearGradient>
<linearGradient id="paint33_linear" x1="74.2494" y1="49.6039" x2="74.9813" y2="34.4171" gradientUnits="userSpaceOnUse">
<stop stop-color="#A6D7E8"/>
<stop offset="0.1065" stop-color="#AFDCEA"/>
<stop offset="0.7033" stop-color="#DFF5F3"/>
<stop offset="1" stop-color="#F2FFF7"/>
</linearGradient>
<linearGradient id="paint34_linear" x1="72.7747" y1="43.3855" x2="79.3475" y2="43.3855" gradientUnits="userSpaceOnUse">
<stop stop-color="#F2FFF7"/>
<stop offset="1" stop-color="white"/>
</linearGradient>
</defs>
</svg>