<svg width="115" height="507" viewBox="0 0 115 507" fill="none" xmlns="http://www.w3.org/2000/svg">
<g clip-path="url(#clip0)">
<g opacity="0.5">
<path opacity="0.5" d="M50.5999 259.9V506.2H114.4V260.3C114.8 259.1 114.3 257.9 113.1 257L85.9999 237.7C83.9999 236.3 80.8999 236.3 78.8999 237.7L51.9999 257C50.7999 257.8 50.3999 258.9 50.5999 259.9Z" fill="url(#paint0_linear)"/>
<path opacity="0.5" d="M83.0998 477.4V237.3C83.1998 237.1 83.1998 236.9 83.1998 236.7C81.6998 236.5 79.9998 236.8 78.7998 237.5L51.9998 253.4C50.8998 254.1 50.3998 255 50.5998 255.8V477.4H83.0998Z" fill="url(#paint1_linear)"/>
</g>
<path d="M114.5 241.6V274.8L82.7 293.4L82.8 260.1L114.5 241.6Z" fill="url(#paint2_linear)"/>
<path d="M82.8 260.1L82.6999 293.4L50.7 274.8L50.7999 241.6L82.8 260.1Z" fill="url(#paint3_linear)"/>
<path d="M114.5 241.6L82.8001 260.1L50.8 241.6L82.6 223L114.5 241.6Z" fill="url(#paint4_linear)"/>
<g opacity="0.5">
<path opacity="0.5" d="M0.000117203 18.5V325.8H32.0001V18.7C32.2001 18.1 32.0001 17.5 31.3001 17L17.7001 7.30002C16.7001 6.60002 15.1001 6.60002 14.2001 7.30002L0.700117 17C0.200117 17.4 -0.0998828 17.9 0.000117203 18.5Z" fill="url(#paint5_linear)"/>
<path opacity="0.5" d="M16.3001 311.3V7.20004C16.3001 7.10004 16.4001 7.00004 16.4001 6.90004C15.6001 6.80004 14.8001 7.00004 14.2001 7.30004L0.700117 15.2C0.200117 15.5 -0.0998828 16 0.000117203 16.4V311.3H16.3001Z" fill="url(#paint6_linear)"/>
</g>
<path d="M32.0001 9.29999V25.9L16.1001 35.2V18.6L32.0001 9.29999Z" fill="url(#paint7_linear)"/>
<path d="M16.1001 18.6V35.2L0.100098 25.9V9.29999L16.1001 18.6Z" fill="url(#paint8_linear)"/>
<path d="M32.0001 9.3L16.1001 18.6L0.100098 9.3L16.0001 0L32.0001 9.3Z" fill="url(#paint9_linear)"/>
</g>
<defs>
<linearGradient id="paint0_linear" x1="82.5258" y1="213.099" x2="82.5258" y2="465.141" gradientUnits="userSpaceOnUse">
<stop stop-color="#00B6C8"/>
<stop offset="0.2566" stop-color="#00D3DE" stop-opacity="0.7434"/>
<stop offset="0.5323" stop-color="#00EBF0" stop-opacity="0.4677"/>
<stop offset="0.7875" stop-color="#00FAFB" stop-opacity="0.2125"/>
<stop offset="1" stop-color="#00FFFF" stop-opacity="0"/>
</linearGradient>
<linearGradient id="paint1_linear" x1="66.8877" y1="215.62" x2="66.8877" y2="440.726" gradientUnits="userSpaceOnUse">
<stop stop-color="#00B6C8"/>
<stop offset="0.2478" stop-color="#4CCCD8" stop-opacity="0.7522"/>
<stop offset="0.519" stop-color="#98E1E9" stop-opacity="0.481"/>
<stop offset="0.7439" stop-color="#D0F1F5" stop-opacity="0.2561"/>
<stop offset="0.9103" stop-color="#F2FBFC" stop-opacity="0.0897393"/>
<stop offset="1" stop-color="white" stop-opacity="0"/>
</linearGradient>
<linearGradient id="paint2_linear" x1="86.5" y1="267.468" x2="120.632" y2="267.468" gradientUnits="userSpaceOnUse">
<stop stop-color="#00DED3"/>
<stop offset="1" stop-color="#008B9A"/>
</linearGradient>
<linearGradient id="paint3_linear" x1="65.0759" y1="302.157" x2="72.2082" y2="154.16" gradientUnits="userSpaceOnUse">
<stop stop-color="#00EADC"/>
<stop offset="0.5642" stop-color="#008B9A"/>
</linearGradient>
<linearGradient id="paint4_linear" x1="82.6549" y1="260.217" x2="82.6549" y2="190.038" gradientUnits="userSpaceOnUse">
<stop stop-color="#EFF0F2"/>
<stop offset="0.4469" stop-color="#00DDD2"/>
<stop offset="1" stop-color="#008B9A"/>
</linearGradient>
<linearGradient id="paint5_linear" x1="16.0147" y1="-21.0249" x2="16.0147" y2="277.127" gradientUnits="userSpaceOnUse">
<stop stop-color="#00B6C8"/>
<stop offset="0.2566" stop-color="#00D3DE" stop-opacity="0.7434"/>
<stop offset="0.5323" stop-color="#00EBF0" stop-opacity="0.4677"/>
<stop offset="0.7875" stop-color="#00FAFB" stop-opacity="0.2125"/>
<stop offset="1" stop-color="#00FFFF" stop-opacity="0"/>
</linearGradient>
<linearGradient id="paint6_linear" x1="8.18932" y1="-19.7637" x2="8.18932" y2="264.909" gradientUnits="userSpaceOnUse">
<stop stop-color="#00B6C8"/>
<stop offset="0.2478" stop-color="#4CCCD8" stop-opacity="0.7522"/>
<stop offset="0.519" stop-color="#98E1E9" stop-opacity="0.481"/>
<stop offset="0.7439" stop-color="#D0F1F5" stop-opacity="0.2561"/>
<stop offset="0.9103" stop-color="#F2FBFC" stop-opacity="0.0897393"/>
<stop offset="1" stop-color="white" stop-opacity="0"/>
</linearGradient>
<linearGradient id="paint7_linear" x1="18.0033" y1="22.2455" x2="35.0832" y2="22.2455" gradientUnits="userSpaceOnUse">
<stop stop-color="#00DED3"/>
<stop offset="1" stop-color="#008B9A"/>
</linearGradient>
<linearGradient id="paint8_linear" x1="7.2826" y1="39.6043" x2="10.8517" y2="-34.454" gradientUnits="userSpaceOnUse">
<stop stop-color="#00EADC"/>
<stop offset="0.5642" stop-color="#008B9A"/>
</linearGradient>
<linearGradient id="paint9_linear" x1="16.0792" y1="18.6169" x2="16.0792" y2="-16.5007" gradientUnits="userSpaceOnUse">
<stop stop-color="#EFF0F2"/>
<stop offset="0.4469" stop-color="#00DDD2"/>
<stop offset="1" stop-color="#008B9A"/>
</linearGradient>
<clipPath id="clip0">
<rect width="114.5" height="506.2" fill="white"/>
</clipPath>
</defs>
</svg>
