<svg xmlns="http://www.w3.org/2000/svg" xmlns:xlink="http://www.w3.org/1999/xlink" width="294" height="140" viewBox="0 0 294 140">
  <defs>
    <linearGradient id="linear-gradient" x1="0.5" x2="0.5" y2="1" gradientUnits="objectBoundingBox">
      <stop offset="0" stop-color="#fff" stop-opacity="0.502"/>
      <stop offset="1" stop-color="#fff" stop-opacity="0"/>
    </linearGradient>
    <radialGradient id="radial-gradient" cx="0.5" cy="0.5" r="0.5" gradientUnits="objectBoundingBox">
      <stop offset="0" stop-color="#3fc8d6"/>
      <stop offset="1" stop-color="#3fc8d6" stop-opacity="0"/>
    </radialGradient>
  </defs>
  <g id="Group_662" data-name="Group 662" transform="translate(77)">
    <rect id="Rectangle_2827" data-name="Rectangle 2827" width="140" height="140" rx="40" fill="none"/>
    <g id="Group_649" data-name="Group 649" transform="translate(20 19)">
      <g id="Group_622" data-name="Group 622" transform="translate(10.3)">
        <rect id="Rectangle_2838" data-name="Rectangle 2838" width="7.725" height="103" rx="3" fill="#dadde2"/>
        <rect id="Rectangle_2839" data-name="Rectangle 2839" width="7.725" height="103" rx="3" transform="translate(36.05)" fill="#dadde2"/>
        <rect id="Rectangle_2840" data-name="Rectangle 2840" width="7.725" height="103" rx="3" transform="translate(72.1)" fill="#dadde2"/>
      </g>
      <g id="Group_657" data-name="Group 657" transform="translate(14.162)">
        <path id="Rectangle_2859" data-name="Rectangle 2859" d="M0,0H.863a3,3,0,0,1,3,3v97a3,3,0,0,1-3,3H0a0,0,0,0,1,0,0V0A0,0,0,0,1,0,0Z" fill="#959ba6"/>
        <path id="Rectangle_2860" data-name="Rectangle 2860" d="M0,0H.863a3,3,0,0,1,3,3v97a3,3,0,0,1-3,3H0a0,0,0,0,1,0,0V0A0,0,0,0,1,0,0Z" transform="translate(36.05)" fill="#959ba6"/>
        <path id="Rectangle_2861" data-name="Rectangle 2861" d="M0,0H.863a3,3,0,0,1,3,3v97a3,3,0,0,1-3,3H0a0,0,0,0,1,0,0V0A0,0,0,0,1,0,0Z" transform="translate(72.1)" fill="#959ba6"/>
      </g>
      <g id="Group_646" data-name="Group 646" transform="translate(0 25.75)">
        <circle id="Ellipse_82" data-name="Ellipse 82" cx="14.163" cy="14.163" r="14.163" fill="#fff"/>
        <circle id="Ellipse_86" data-name="Ellipse 86" cx="11.587" cy="11.587" r="11.587" transform="translate(2.575 2.575)" fill="#3fc8d6"/>
        <path id="Path_1053" data-name="Path 1053" d="M9,0A11.588,11.588,0,1,1,9,23.175Z" transform="translate(5.163 2.575)" fill="#24b8c7"/>
        <path id="Intersection_9" data-name="Intersection 9" d="M0,11.586A11.587,11.587,0,0,1,20.537,4.229L3.6,19.986A11.557,11.557,0,0,1,0,11.586Z" transform="translate(2.576 2.575)" fill="url(#linear-gradient)"/>
      </g>
      <g id="Group_647" data-name="Group 647" transform="translate(72.1 25.75)">
        <circle id="Ellipse_82-2" data-name="Ellipse 82" cx="14.163" cy="14.163" r="14.163" fill="#fff"/>
        <circle id="Ellipse_86-2" data-name="Ellipse 86" cx="11.587" cy="11.587" r="11.587" transform="translate(2.575 2.575)" fill="#3fc8d6"/>
        <path id="Path_1053-2" data-name="Path 1053" d="M9,0A11.588,11.588,0,1,1,9,23.175Z" transform="translate(5.163 2.575)" fill="#24b8c7"/>
        <path id="Intersection_9-2" data-name="Intersection 9" d="M0,11.586A11.587,11.587,0,0,1,20.537,4.229L3.6,19.986A11.557,11.557,0,0,1,0,11.586Z" transform="translate(2.576 2.575)" fill="url(#linear-gradient)"/>
      </g>
      <g id="Group_648" data-name="Group 648" transform="translate(36.05 61.8)">
        <circle id="Ellipse_82-3" data-name="Ellipse 82" cx="14.163" cy="14.163" r="14.163" fill="#fff"/>
        <circle id="Ellipse_86-3" data-name="Ellipse 86" cx="11.587" cy="11.587" r="11.587" transform="translate(2.575 2.575)" fill="#3fc8d6"/>
        <path id="Path_1053-3" data-name="Path 1053" d="M9,0A11.588,11.588,0,1,1,9,23.175Z" transform="translate(5.163 2.575)" fill="#24b8c7"/>
        <path id="Intersection_9-3" data-name="Intersection 9" d="M0,11.586A11.587,11.587,0,0,1,20.537,4.229L3.6,19.986A11.557,11.557,0,0,1,0,11.586Z" transform="translate(2.576 2.575)" fill="url(#linear-gradient)"/>
      </g>
    </g>
    <ellipse id="Ellipse_103" data-name="Ellipse 103" cx="147" cy="56" rx="147" ry="56" transform="translate(-77 28)" opacity="0.4" fill="url(#radial-gradient)"/>
  </g>
</svg>
