<svg xmlns="http://www.w3.org/2000/svg" xmlns:xlink="http://www.w3.org/1999/xlink" width="294" height="140" viewBox="0 0 294 140">
  <defs>
    <clipPath id="clip-path">
      <path id="Union_9" data-name="Union 9" d="M47.5,0s10.746,7.3,22.62,10.461S95,12.649,95,12.649V76.394C95,103.481,47.5,120,47.5,120ZM0,76.394V12.649s13.005.975,24.879-2.188S47.5,0,47.5,0V120S0,103.481,0,76.394Z" fill="#3fc8d6"/>
    </clipPath>
    <linearGradient id="linear-gradient" x1="0.5" x2="0.5" y2="1" gradientUnits="objectBoundingBox">
      <stop offset="0" stop-color="#fff" stop-opacity="0.502"/>
      <stop offset="1" stop-color="#fff" stop-opacity="0"/>
    </linearGradient>
    <radialGradient id="radial-gradient" cx="0.5" cy="0.5" r="0.5" gradientUnits="objectBoundingBox">
      <stop offset="0" stop-color="#3fc8d6"/>
      <stop offset="1" stop-color="#3fc8d6" stop-opacity="0"/>
    </radialGradient>
  </defs>
  <g id="Group_661" data-name="Group 661" transform="translate(76.23)">
    <rect id="Rectangle_2827" data-name="Rectangle 2827" width="140" height="140" rx="40" fill="none"/>
    <g id="Group_645" data-name="Group 645" transform="translate(22.655 10)">
      <g id="Group_237" data-name="Group 237" transform="translate(0 0)">
        <path id="Path_985" data-name="Path 985" d="M0,12.65s13.006.973,24.88-2.189S47.5,0,47.5,0V120S0,103.482,0,76.395,0,12.65,0,12.65Z" fill="#dadde2"/>
        <path id="Path_986" data-name="Path 986" d="M47.5,12.65s-13.006.973-24.88-2.189S0,0,0,0V120s47.5-16.518,47.5-43.6Z" transform="translate(47.5)" fill="#959ba6"/>
      </g>
      <g id="Union_33" data-name="Union 33" transform="translate(10.871 12.981)" fill="#3fc8d6" stroke-linejoin="round">
        <path d="M 36.6270637512207 95.09807586669922 L 36.2938117980957 94.98028564453125 C 36.20114898681641 94.94752502441406 26.92143821716309 91.63674926757812 17.77257537841797 85.75226593017578 C 12.3678503036499 82.27597808837891 8.053338050842285 78.58883666992188 4.948925971984863 74.79327392578125 C 1.001500725746155 69.967041015625 -0.9999992251396179 64.94530487060547 -0.9999992251396179 59.86757659912109 L -0.9999992251396179 9.915276527404785 L -0.9999992251396179 8.836525917053223 L 0.07566326856613159 8.91813850402832 C 0.08967576920986176 8.919200897216797 1.523075819015503 9.025425910949707 3.754388332366943 9.025425910949707 C 7.65315055847168 9.025425910949707 13.44980049133301 8.714325904846191 18.92441368103027 7.232276439666748 C 27.8020133972168 4.832263946533203 35.97736358642578 -0.7666361331939697 36.05891418457031 -0.8229111433029175 L 36.62711334228516 -1.215048670768738 L 37.19535064697266 -0.82283616065979 C 37.27673721313477 -0.7666736245155334 45.45331192016602 4.83225154876709 54.33061218261719 7.232176303863525 C 59.8062744140625 8.714325904846191 65.60324096679688 9.025425910949707 69.50212860107422 9.025425910949707 C 71.73411560058594 9.025425910949707 73.16687774658203 8.919200897216797 73.18109130859375 8.918126106262207 L 74.25636291503906 8.83695125579834 L 74.25657653808594 9.915276527404785 L 74.25657653808594 59.86757659912109 C 74.25657653808594 64.9453125 72.25493621826172 69.96704864501953 68.30726623535156 74.79330444335938 C 65.20262908935547 78.5888671875 60.88785171508789 82.2760009765625 55.48276138305664 85.75228881835938 C 46.33330154418945 91.63676452636719 37.0529899597168 94.94754028320312 36.9603271484375 94.98028564453125 L 36.6270637512207 95.09807586669922 Z" stroke="none"/>
        <path d="M 36.6270751953125 -7.62939453125e-06 C 36.6270751953125 -7.62939453125e-06 28.34340667724609 5.721794128417969 19.18571472167969 8.197525024414062 C 13.51267242431641 9.733291625976562 7.504631042480469 10.02541351318359 3.754348754882812 10.02541351318359 C 1.451560974121094 10.02541351318359 -7.62939453125e-06 9.915275573730469 -7.62939453125e-06 9.915275573730469 C -7.62939453125e-06 9.915275573730469 -7.62939453125e-06 38.64122009277344 -7.62939453125e-06 59.8675651550293 C -7.62939453125e-06 81.09078979492188 36.6270751953125 94.03744506835938 36.6270751953125 94.03744506835938 L 36.6270751953125 -7.62939453125e-06 M 36.6270751953125 -7.62939453125e-06 L 36.6270751953125 94.03744506835938 C 36.6270751953125 94.03744506835938 73.25656890869141 81.09078979492188 73.25656890869141 59.8675651550293 C 73.25656890869141 38.64122009277344 73.25656890869141 9.915275573730469 73.25656890869141 9.915275573730469 C 73.25656890869141 9.915275573730469 71.80564117431641 10.02541351318359 69.50215148925781 10.02541351318359 C 65.75168609619141 10.02541351318359 59.74288177490234 9.733146667480469 54.06963348388672 8.197525024414062 C 44.91195678710938 5.721794128417969 36.6270751953125 -7.62939453125e-06 36.6270751953125 -7.62939453125e-06 M 36.62691497802734 -2.000015258789062 C 37.02587127685547 -2.000015258789062 37.42321014404297 -1.880783081054688 37.76363372802734 -1.645683288574219 C 37.88052749633789 -1.5653076171875 45.90989685058594 3.919784545898438 54.59158325195312 6.266830444335938 C 59.96151351928711 7.720352172851562 65.66391754150391 8.025421142578125 69.50215148925781 8.025421142578125 C 71.689208984375 8.025421142578125 73.09208679199219 7.921989440917969 73.10599517822266 7.920951843261719 C 73.15602111816406 7.917198181152344 73.20606994628906 7.915336608886719 73.25587463378906 7.915328979492188 C 73.75856781005859 7.915313720703125 74.2452392578125 8.104774475097656 74.61639404296875 8.449111938476562 C 75.02433013916016 8.827568054199219 75.25656890869141 9.358818054199219 75.25656890869141 9.915275573730469 L 75.25656890869141 59.8675651550293 C 75.25656890869141 65.18212890625 73.17890167236328 70.41688537597656 69.08129119873047 75.42643737792969 C 65.91023254394531 79.30322265625 61.51702117919922 83.06031036376953 56.02368927001953 86.59335327148438 C 46.83041381835938 92.50600433349609 37.78196334838867 95.75006103515625 37.30109405517578 95.92046356201172 C 37.26749420166016 95.93248748779297 37.23365020751953 95.94358062744141 37.19953155517578 95.95377349853516 C 37.1992301940918 95.95386505126953 37.19889450073242 95.95396423339844 37.19859313964844 95.95405578613281 C 37.1978874206543 95.95426177978516 37.19717788696289 95.95447540283203 37.19647598266602 95.95468902587891 C 37.19534301757812 95.95502471923828 37.19418334960938 95.95536804199219 37.19305038452148 95.95569610595703 C 37.19275283813477 95.95578765869141 37.19244003295898 95.95587921142578 37.19214248657227 95.95596313476562 C 37.00687789916992 96.01055145263672 36.81657409667969 96.03746032714844 36.62723159790039 96.03746032714844 L 36.62718200683594 96.03746032714844 C 36.62710571289062 96.03746032714844 36.62699508666992 96.03746032714844 36.62691879272461 96.03746032714844 C 36.45479202270508 96.03746032714844 36.28205108642578 96.0152587890625 36.11285781860352 95.97023010253906 C 36.11252212524414 95.97013854980469 36.11219787597656 95.97005462646484 36.11186218261719 95.96996307373047 C 36.11091232299805 95.96971130371094 36.10991668701172 95.96944427490234 36.10896682739258 95.96918487548828 C 36.05541229248047 95.95482635498047 36.00240325927734 95.93822479248047 35.9500617980957 95.91940307617188 C 35.43660736083984 95.73727416992188 26.40624237060547 92.49437713623047 17.23162078857422 86.59331512451172 C 11.7386360168457 83.06027221679688 7.345703125 79.30316925048828 4.174850463867188 75.42637634277344 C 0.0775146484375 70.41683197021484 -2.000007629394531 65.18209838867188 -2.000007629394531 59.8675651550293 L -2.000007629394531 9.915275573730469 C -2.000007629394531 9.358543395996094 -1.767951965332031 8.827003479003906 -1.359657287597656 8.448524475097656 C -0.98858642578125 8.104545593261719 -0.5023880004882812 7.915283203125 -8.392333984375e-05 7.915267944335938 C 0.0502777099609375 7.915267944335938 0.100738525390625 7.917167663574219 0.1513290405273438 7.921005249023438 C 0.1644210815429688 7.921989440917969 1.567939758300781 8.025421142578125 3.754341125488281 8.025421142578125 C 7.592460632324219 8.025421142578125 13.2945671081543 7.720352172851562 18.66310119628906 6.267021179199219 C 27.26784896850586 3.940773010253906 35.23005294799805 -1.467491149902344 35.48538589477539 -1.642158508300781 C 35.55294799804688 -1.689117431640625 35.62384414672852 -1.732200622558594 35.69786071777344 -1.771034240722656 C 35.98987197875977 -1.924247741699219 36.30891036987305 -2.000015258789062 36.62691497802734 -2.000015258789062 Z" stroke="none" fill="#fff"/>
      </g>
      <path id="Path_1056" data-name="Path 1056" d="M36.627,9.754A66.362,66.362,0,0,1,17.442,8.066,65.882,65.882,0,0,1,0,0V92.532S36.627,79.8,36.627,58.908Z" transform="translate(47.5 13.577)" fill="#008b9a"/>
      <g id="Mask_Group_9" data-name="Mask Group 9" transform="translate(0 0)" clip-path="url(#clip-path)">
        <path id="Path_973" data-name="Path 973" d="M204.579,686.091V515.573h183.23Z" transform="translate(-240.635 -556.485)" fill="url(#linear-gradient)"/>
      </g>
      <path id="Path_1052" data-name="Path 1052" d="M1110.565,1062.871l10.854,10.854,20.759-20.759" transform="translate(-1076.364 -1005.571)" fill="none" stroke="#fff" stroke-width="6"/>
    </g>
    <ellipse id="Ellipse_101" data-name="Ellipse 101" cx="147" cy="56" rx="147" ry="56" transform="translate(-76.23 28)" opacity="0.4" fill="url(#radial-gradient)"/>
  </g>
</svg>
