<svg width="48" height="347" viewBox="0 0 48 347" fill="none" xmlns="http://www.w3.org/2000/svg">
<g clip-path="url(#clip0)">
<g opacity="0.5">
<path opacity="0.5" d="M3.91181 178.161V347H47.931V178.436C48.207 177.613 47.862 176.79 47.0341 176.173L28.3363 162.943C26.9564 161.984 24.8175 161.984 23.4376 162.943L4.87775 176.173C4.04981 176.722 3.77382 177.476 3.91181 178.161Z" fill="url(#paint0_linear)"/>
<path opacity="0.5" d="M26.3362 327.258V162.669C26.4052 162.532 26.4052 162.395 26.4052 162.258C25.3702 162.121 24.1973 162.326 23.3694 162.806L4.87853 173.706C4.11957 174.185 3.7746 174.802 3.91259 175.351V327.258H26.3362Z" fill="url(#paint1_linear)"/>
</g>
<path d="M47.9999 165.617V188.375L26.0593 201.126L26.1283 178.298L47.9999 165.617Z" fill="url(#paint2_linear)"/>
<path d="M26.1283 178.298L26.0593 201.126L3.98071 188.375L4.04971 165.617L26.1283 178.298Z" fill="url(#paint3_linear)"/>
<path d="M47.9998 165.617L26.1282 178.298L4.04956 165.617L25.9902 152.866L47.9998 165.617Z" fill="url(#paint4_linear)"/>
</g>
<defs>
<linearGradient id="paint0_linear" x1="25.9393" y1="146.08" x2="25.9393" y2="318.854" gradientUnits="userSpaceOnUse">
<stop stop-color="#00B6C8"/>
<stop offset="0.2566" stop-color="#00D3DE" stop-opacity="0.7434"/>
<stop offset="0.5323" stop-color="#00EBF0" stop-opacity="0.4677"/>
<stop offset="0.7875" stop-color="#00FAFB" stop-opacity="0.2125"/>
<stop offset="1" stop-color="#00FFFF" stop-opacity="0"/>
</linearGradient>
<linearGradient id="paint1_linear" x1="15.1505" y1="147.807" x2="15.1505" y2="302.117" gradientUnits="userSpaceOnUse">
<stop stop-color="#00B6C8"/>
<stop offset="0.2478" stop-color="#4CCCD8" stop-opacity="0.7522"/>
<stop offset="0.519" stop-color="#98E1E9" stop-opacity="0.481"/>
<stop offset="0.7439" stop-color="#D0F1F5" stop-opacity="0.2561"/>
<stop offset="0.9103" stop-color="#F2FBFC" stop-opacity="0.0897393"/>
<stop offset="1" stop-color="white" stop-opacity="0"/>
</linearGradient>
<linearGradient id="paint2_linear" x1="28.6812" y1="183.349" x2="52.2308" y2="183.349" gradientUnits="userSpaceOnUse">
<stop stop-color="#00DED3"/>
<stop offset="1" stop-color="#008B9A"/>
</linearGradient>
<linearGradient id="paint3_linear" x1="13.8995" y1="207.129" x2="18.7573" y2="105.674" gradientUnits="userSpaceOnUse">
<stop stop-color="#00EADC"/>
<stop offset="0.5642" stop-color="#008B9A"/>
</linearGradient>
<linearGradient id="paint4_linear" x1="26.0281" y1="178.378" x2="26.0281" y2="130.271" gradientUnits="userSpaceOnUse">
<stop stop-color="#EFF0F2"/>
<stop offset="0.4469" stop-color="#00DDD2"/>
<stop offset="1" stop-color="#008B9A"/>
</linearGradient>
<clipPath id="clip0">
<rect width="79" height="347" fill="white" transform="translate(-31)"/>
</clipPath>
</defs>
</svg>
