<svg width="31" height="347" viewBox="0 0 31 347" fill="none" xmlns="http://www.w3.org/2000/svg">
<g clip-path="url(#clip0)">
<g opacity="0.5">
<path opacity="0.5" d="M3.60878e-05 12.6817V223.336H22.0786V12.8188C22.2166 12.4075 22.0786 11.9962 21.5957 11.6535L12.2123 5.00411C11.5223 4.52426 10.4184 4.52426 9.79742 5.00411L0.483005 11.6535C0.138027 11.9277 -0.0689595 12.2704 3.60878e-05 12.6817Z" fill="url(#paint0_linear)"/>
<path opacity="0.5" d="M11.2463 213.396V4.93558C11.2463 4.86703 11.3153 4.79848 11.3153 4.72993C10.7634 4.66138 10.2114 4.79848 9.79742 5.00413L0.483005 10.4196C0.138027 10.6252 -0.0689595 10.968 3.60878e-05 11.2422V213.396H11.2463Z" fill="url(#paint1_linear)"/>
</g>
<path d="M22.0787 6.37512V17.7544L11.1084 24.1296V12.7503L22.0787 6.37512Z" fill="url(#paint2_linear)"/>
<path d="M11.1084 12.7503V24.1296L0.0690918 17.7544V6.37512L11.1084 12.7503Z" fill="url(#paint3_linear)"/>
<path d="M22.0787 6.37515L11.1084 12.7503L0.0690918 6.37515L11.0394 0L22.0787 6.37515Z" fill="url(#paint4_linear)"/>
</g>
<defs>
<linearGradient id="paint0_linear" x1="11.0494" y1="-14.4126" x2="11.0494" y2="189.97" gradientUnits="userSpaceOnUse">
<stop stop-color="#00B6C8"/>
<stop offset="0.2566" stop-color="#00D3DE" stop-opacity="0.7434"/>
<stop offset="0.5323" stop-color="#00EBF0" stop-opacity="0.4677"/>
<stop offset="0.7875" stop-color="#00FAFB" stop-opacity="0.2125"/>
<stop offset="1" stop-color="#00FFFF" stop-opacity="0"/>
</linearGradient>
<linearGradient id="paint1_linear" x1="5.65023" y1="-13.548" x2="5.65023" y2="181.595" gradientUnits="userSpaceOnUse">
<stop stop-color="#00B6C8"/>
<stop offset="0.2478" stop-color="#4CCCD8" stop-opacity="0.7522"/>
<stop offset="0.519" stop-color="#98E1E9" stop-opacity="0.481"/>
<stop offset="0.7439" stop-color="#D0F1F5" stop-opacity="0.2561"/>
<stop offset="0.9103" stop-color="#F2FBFC" stop-opacity="0.0897393"/>
<stop offset="1" stop-color="white" stop-opacity="0"/>
</linearGradient>
<linearGradient id="paint2_linear" x1="12.4215" y1="15.2493" x2="24.2059" y2="15.2493" gradientUnits="userSpaceOnUse">
<stop stop-color="#00DED3"/>
<stop offset="1" stop-color="#008B9A"/>
</linearGradient>
<linearGradient id="paint3_linear" x1="5.0247" y1="27.1487" x2="7.45559" y2="-23.6198" gradientUnits="userSpaceOnUse">
<stop stop-color="#00EADC"/>
<stop offset="0.5642" stop-color="#008B9A"/>
</linearGradient>
<linearGradient id="paint4_linear" x1="11.094" y1="12.7619" x2="11.094" y2="-11.3112" gradientUnits="userSpaceOnUse">
<stop stop-color="#EFF0F2"/>
<stop offset="0.4469" stop-color="#00DDD2"/>
<stop offset="1" stop-color="#008B9A"/>
</linearGradient>
<clipPath id="clip0">
<rect width="79" height="347" fill="white"/>
</clipPath>
</defs>
</svg>
