<svg xmlns="http://www.w3.org/2000/svg" width="518" height="498" viewBox="0 0 518 498" fill="none">
<g opacity="0.5" filter="url(#filter0_f)">
<path d="M408.055 375.271C415.982 379.777 415.982 387.223 408.055 391.729L298.676 454.62C290.75 459.127 278.068 459.127 270.142 454.62L159.97 391.729C152.043 387.223 152.043 379.777 159.771 375.271L269.151 312.38C277.077 307.873 289.759 307.873 297.685 312.38L408.055 375.271Z" fill="#009CAD"/>
</g>
<g opacity="0.5" filter="url(#filter1_f)">
<path d="M418.507 370.943C427.164 375.903 427.164 384.097 418.507 389.057L299.03 458.28C290.373 463.24 276.52 463.24 267.863 458.28L147.521 389.057C138.863 384.097 138.863 375.903 147.304 370.943L266.78 301.72C275.438 296.76 289.29 296.76 297.948 301.72L418.507 370.943Z" fill="black"/>
</g>
<path d="M421.42 219.712L300.341 290.122C291.567 295.167 277.529 295.167 268.755 290.122L146.8 219.712C142.413 217.08 140.219 213.79 140.219 210.5L140 359.548C140 362.838 142.193 366.347 146.58 368.76L268.536 439.17C277.31 444.215 291.567 444.215 300.122 439.17L421.2 368.76C425.587 366.347 427.781 363.057 427.781 359.548L428 210.5C428 214.01 425.806 217.3 421.42 219.712Z" fill="url(#paint0_linear)"/>
<path d="M421.42 202.193C430.194 207.238 430.194 215.573 421.42 220.618L300.341 291.028C291.568 296.073 277.53 296.073 268.756 291.028L146.8 220.618C138.026 215.573 138.026 207.238 146.581 202.193L267.659 131.784C276.433 126.739 290.471 126.739 299.245 131.784L421.42 202.193Z" fill="url(#paint1_linear)"/>
<path opacity="0.5" d="M170.438 207.918L270.496 153.79C277.746 149.911 289.347 149.911 296.598 153.79L397.381 207.918C401.006 209.941 402.819 212.471 402.819 215L403 64.1192C403 61.5899 401.187 58.8919 397.562 57.037L296.779 2.90876C289.529 -0.969595 277.746 -0.969594 270.677 2.90876L170.619 57.0371C166.994 58.8919 165.181 61.4213 165.181 64.1192L165 215C165 212.302 166.813 209.773 170.438 207.918Z" fill="url(#paint2_linear)"/>
<path opacity="0.5" d="M33.2232 154.955L18.9292 162.256C17.8934 162.779 16.2361 162.779 15.2003 162.256L0.802742 154.955C0.284844 154.682 0.025895 154.341 0.025895 154L0 204.351C0 204.693 0.258949 205.056 0.776847 205.307L15.1744 212.608C16.2102 213.131 17.8934 213.131 18.9033 212.608L33.1973 205.307C33.7152 205.056 33.9741 204.715 33.9741 204.351L34 154C34 154.364 33.7411 154.705 33.2232 154.955Z" fill="url(#paint3_linear)"/>
<path opacity="0.5" d="M102.538 224.797L75.6314 238.533C73.6816 239.517 70.5621 239.517 68.6123 238.533L41.511 224.797C40.5362 224.284 40.0487 223.642 40.0487 223L40 317.729C40 318.371 40.4874 319.055 41.4623 319.526L68.5636 333.262C70.5133 334.246 73.6817 334.246 75.5826 333.262L102.489 319.526C103.464 319.055 103.951 318.413 103.951 317.729L104 223C104 223.685 103.513 224.327 102.538 224.797Z" fill="url(#paint4_linear)"/>
<path opacity="0.5" d="M491.132 180.052L475.156 188.096C473.998 188.672 472.146 188.672 470.989 188.096L454.897 180.052C454.318 179.752 454.029 179.376 454.029 179L454 234.472C454 234.848 454.289 235.249 454.868 235.524L470.96 243.568C472.117 244.144 473.998 244.144 475.127 243.568L491.103 235.524C491.682 235.249 491.971 234.873 491.971 234.472L492 179C492 179.401 491.711 179.777 491.132 180.052Z" fill="url(#paint5_linear)"/>
<path opacity="0.5" d="M516.429 107.696L505.919 113.017C505.157 113.399 503.938 113.399 503.177 113.017L492.59 107.696C492.209 107.497 492.019 107.249 492.019 107L492 143.697C492 143.945 492.19 144.211 492.571 144.393L503.158 149.714C503.919 150.095 505.157 150.095 505.899 149.714L516.41 144.393C516.791 144.211 516.981 143.962 516.981 143.697L517 107C517 107.265 516.81 107.514 516.429 107.696Z" fill="url(#paint6_linear)"/>
<path d="M398.481 203.486C405.84 207.704 405.84 214.559 398.481 218.778L297.035 277.836C289.676 282.055 277.85 282.055 270.491 277.836L168.519 218.778C161.16 214.559 161.16 207.704 168.519 203.222L269.965 144.164C277.324 139.945 289.15 139.945 296.509 144.164L398.481 203.486Z" fill="url(#paint7_linear)"/>
<path opacity="0.6" d="M356.502 226.374C361.166 228.989 361.166 233.414 356.502 236.029L292.22 273.039C287.556 275.654 280.053 275.654 275.389 273.039L210.498 235.827C205.834 233.213 205.834 228.787 210.498 226.173L274.983 188.961C279.647 186.346 287.15 186.346 291.814 188.961L356.502 226.374Z" fill="url(#paint8_linear)"/>
<path opacity="0.6" d="M356.502 206.374C361.166 208.989 361.166 213.414 356.502 216.029L292.22 253.039C287.556 255.654 280.053 255.654 275.389 253.039L210.498 215.827C205.834 213.213 205.834 208.787 210.498 206.173L274.983 168.961C279.647 166.346 287.15 166.346 291.814 168.961L356.502 206.374Z" fill="url(#paint9_linear)"/>
<path opacity="0.6" d="M356.502 186.374C361.166 188.989 361.166 193.414 356.502 196.029L292.22 233.039C287.556 235.654 280.053 235.654 275.389 233.039L210.498 195.827C205.834 193.213 205.834 188.787 210.498 186.173L274.983 148.961C279.647 146.346 287.15 146.346 291.814 148.961L356.502 186.374Z" fill="url(#paint10_linear)"/>
<path d="M34.4001 138V155.8L17.3 165.8V147.9L34.4001 138Z" fill="url(#paint11_linear)"/>
<path d="M17.3 147.9V165.8L0 155.9V138L17.3 147.9Z" fill="url(#paint12_linear)"/>
<path d="M34.4 138L17.3 147.9L0 138L17.2 128L34.4 138Z" fill="url(#paint13_linear)"/>
<path d="M517.481 98.4074V111.593L504.815 119V105.741L517.481 98.4074Z" fill="url(#paint14_linear)"/>
<path d="M504.815 105.741V119L492 111.667V98.4074L504.815 105.741Z" fill="url(#paint15_linear)"/>
<path d="M517.481 98.4074L504.815 105.741L492 98.4074L504.741 91L517.481 98.4074Z" fill="url(#paint16_linear)"/>
<path d="M492 164.047V183.709L473.11 194.756V174.983L492 164.047Z" fill="url(#paint17_linear)"/>
<path d="M473.11 174.983V194.756L454 183.82V164.047L473.11 174.983Z" fill="url(#paint18_linear)"/>
<path d="M492 164.047L473.11 174.983L454 164.047L473 153L492 164.047Z" fill="url(#paint19_linear)"/>
<path d="M104 223.605V256.721L72.186 275.326V242.023L104 223.605Z" fill="url(#paint20_linear)"/>
<path d="M72.186 242.023V275.326L40 256.907V223.605L72.186 242.023Z" fill="url(#paint21_linear)"/>
<path d="M104 223.605L72.186 242.023L40 223.605L72 205L104 223.605Z" fill="url(#paint22_linear)"/>
<path d="M274.884 73.9C275.648 74.4093 276.54 75.046 277.304 75.6826L314.484 109.935C318.049 113.245 320.469 118.466 320.469 122.795L320.341 169.78C320.341 177.42 317.795 183.532 312.701 187.988C309.136 191.172 304.17 193.591 298.186 195.119C288.254 197.666 278.449 197.029 278.068 197.029C276.922 197.029 275.776 196.52 274.63 195.883C273.484 195.246 272.21 194.228 271.192 193.082C270.81 192.7 261.005 181.877 251.201 167.997C245.216 159.466 240.378 151.444 236.812 144.187C231.719 133.873 229.3 124.705 229.3 117.192L229.427 70.2074C229.427 65.8782 231.846 63.4589 235.539 64.3502L272.72 73.0087C273.229 73.136 273.993 73.518 274.884 73.9Z" fill="url(#paint23_linear)"/>
<path d="M323.015 105.096L285.835 70.8441C285.071 70.0801 284.179 69.4434 283.415 69.0615C282.524 68.5521 281.76 68.2975 280.996 68.0428L243.816 59.3843C242.415 59.0023 241.142 59.257 240.25 59.7663L231.719 64.7322C232.738 64.2229 233.884 63.9682 235.284 64.3502L272.465 73.0087C273.229 73.2634 274.12 73.518 274.884 74.0274C275.648 74.5367 276.54 75.1733 277.304 75.81L314.484 110.062C318.049 113.373 320.469 118.593 320.469 122.922L320.341 169.907C320.341 177.547 317.795 183.659 312.701 188.116C311.428 189.262 310.028 190.28 308.372 191.172L316.903 186.206C318.431 185.314 319.959 184.296 321.233 183.15C326.326 178.693 328.873 172.454 328.873 164.942L329 117.956C329 113.5 326.581 108.407 323.015 105.096Z" fill="url(#paint24_linear)"/>
<path d="M274.63 81.2852C274.884 81.4125 275.139 81.6672 275.394 81.9219L312.574 116.174C313.72 117.192 314.611 118.975 314.611 120.376L314.484 167.361C314.484 173.473 312.32 178.439 307.99 182.259C304.68 185.187 300.223 187.352 294.621 188.752C285.198 191.172 275.903 190.662 275.521 190.535C275.139 190.535 274.757 190.408 274.375 190.153C273.993 189.898 273.611 189.644 273.229 189.262C272.847 188.88 263.552 178.693 254.129 165.451C248.527 157.556 244.07 150.171 240.887 143.55C236.685 134.891 234.52 127.379 234.52 121.267L234.648 74.282C234.648 72.8814 235.412 72.1174 236.685 72.3721L273.866 80.9032C274.12 81.0305 274.375 81.1579 274.63 81.2852Z" fill="url(#paint25_linear)"/>
<path d="M275.394 81.7945C275.139 81.5399 274.884 81.4125 274.63 81.1579C274.375 81.0306 274.12 80.9032 273.866 80.7759L246.235 74.4093C254.384 103.313 272.847 144.187 314.484 164.05L314.611 120.248C314.611 118.848 313.848 117.065 312.574 116.047L275.394 81.7945Z" fill="url(#paint26_linear)"/>
<defs>
<filter id="filter0_f" x="114" y="269" width="340" height="229" filterUnits="userSpaceOnUse" color-interpolation-filters="sRGB">
<feFlood flood-opacity="0" result="BackgroundImageFix"/>
<feBlend mode="normal" in="SourceGraphic" in2="BackgroundImageFix" result="shape"/>
<feGaussianBlur stdDeviation="20" result="effect1_foregroundBlur"/>
</filter>
<filter id="filter1_f" x="121" y="278" width="324" height="204" filterUnits="userSpaceOnUse" color-interpolation-filters="sRGB">
<feFlood flood-opacity="0" result="BackgroundImageFix"/>
<feBlend mode="normal" in="SourceGraphic" in2="BackgroundImageFix" result="shape"/>
<feGaussianBlur stdDeviation="10" result="effect1_foregroundBlur"/>
</filter>
<linearGradient id="paint0_linear" x1="140" y1="306" x2="428" y2="306" gradientUnits="userSpaceOnUse">
<stop stop-color="#A3DAEB"/>
<stop offset="0.203125" stop-color="#B1D0ED"/>
<stop offset="0.411458" stop-color="#C6DDF0"/>
<stop offset="0.510417" stop-color="#EAF7F6"/>
<stop offset="0.776042" stop-color="#E0EDF4"/>
<stop offset="1" stop-color="#F2FFF7"/>
</linearGradient>
<linearGradient id="paint1_linear" x1="192.299" y1="254.56" x2="360.609" y2="175.273" gradientUnits="userSpaceOnUse">
<stop stop-color="#F2FFF7"/>
<stop offset="1" stop-color="white"/>
</linearGradient>
<linearGradient id="paint2_linear" x1="284" y1="194.524" x2="284" y2="40.9523" gradientUnits="userSpaceOnUse">
<stop stop-color="#00A3AD"/>
<stop offset="1" stop-color="#00ABAD" stop-opacity="0"/>
</linearGradient>
<linearGradient id="paint3_linear" x1="17" y1="156.762" x2="17" y2="205" gradientUnits="userSpaceOnUse">
<stop stop-color="#00A3AD"/>
<stop offset="1" stop-color="#00ABAD" stop-opacity="0"/>
</linearGradient>
<linearGradient id="paint4_linear" x1="72" y1="228.196" x2="72" y2="318.949" gradientUnits="userSpaceOnUse">
<stop stop-color="#00A3AD"/>
<stop offset="1" stop-color="#00ABAD" stop-opacity="0"/>
</linearGradient>
<linearGradient id="paint5_linear" x1="473" y1="182.043" x2="473" y2="235.186" gradientUnits="userSpaceOnUse">
<stop stop-color="#00A3AD"/>
<stop offset="1" stop-color="#00ABAD" stop-opacity="0"/>
</linearGradient>
<linearGradient id="paint6_linear" x1="504.5" y1="109.013" x2="504.5" y2="144.17" gradientUnits="userSpaceOnUse">
<stop stop-color="#00A3AD"/>
<stop offset="1" stop-color="#00ABAD" stop-opacity="0"/>
</linearGradient>
<linearGradient id="paint7_linear" x1="283.61" y1="269.087" x2="284" y2="141" gradientUnits="userSpaceOnUse">
<stop stop-color="#00EADC"/>
<stop offset="1" stop-color="#00A8AB"/>
</linearGradient>
<linearGradient id="paint8_linear" x1="283.483" y1="268.567" x2="283.483" y2="195.608" gradientUnits="userSpaceOnUse">
<stop stop-color="white"/>
<stop offset="1" stop-color="#00DAD1"/>
</linearGradient>
<linearGradient id="paint9_linear" x1="283.483" y1="248.567" x2="283.483" y2="175.608" gradientUnits="userSpaceOnUse">
<stop stop-color="white"/>
<stop offset="1" stop-color="#00DAD1"/>
</linearGradient>
<linearGradient id="paint10_linear" x1="283.483" y1="228.567" x2="283.483" y2="155.608" gradientUnits="userSpaceOnUse">
<stop stop-color="white"/>
<stop offset="1" stop-color="#00DAD1"/>
</linearGradient>
<linearGradient id="paint11_linear" x1="40.1346" y1="102.12" x2="12.3736" y2="198.805" gradientUnits="userSpaceOnUse">
<stop stop-color="#A7D7EB"/>
<stop offset="0.1545" stop-color="#AED2EC"/>
<stop offset="0.7192" stop-color="#E0ECF4"/>
<stop offset="1" stop-color="#F2FFF7"/>
</linearGradient>
<linearGradient id="paint12_linear" x1="7.7516" y1="170.519" x2="11.5807" y2="91.0656" gradientUnits="userSpaceOnUse">
<stop stop-color="#A6D7EB"/>
<stop offset="0.1545" stop-color="#A9D5EC"/>
<stop offset="0.7192" stop-color="#E0ECF4"/>
<stop offset="1" stop-color="#F2FFF7"/>
</linearGradient>
<linearGradient id="paint13_linear" x1="0.0364" y1="137.985" x2="34.4233" y2="137.985" gradientUnits="userSpaceOnUse">
<stop stop-color="#F2FFF7"/>
<stop offset="1" stop-color="white"/>
</linearGradient>
<linearGradient id="paint14_linear" x1="521.729" y1="71.8296" x2="501.166" y2="143.448" gradientUnits="userSpaceOnUse">
<stop stop-color="#A7D7EB"/>
<stop offset="0.1545" stop-color="#AED2EC"/>
<stop offset="0.7192" stop-color="#E0ECF4"/>
<stop offset="1" stop-color="#F2FFF7"/>
</linearGradient>
<linearGradient id="paint15_linear" x1="497.742" y1="122.496" x2="500.578" y2="63.6412" gradientUnits="userSpaceOnUse">
<stop stop-color="#A6D7EB"/>
<stop offset="0.1545" stop-color="#A9D5EC"/>
<stop offset="0.7192" stop-color="#E0ECF4"/>
<stop offset="1" stop-color="#F2FFF7"/>
</linearGradient>
<linearGradient id="paint16_linear" x1="492.027" y1="98.3965" x2="517.499" y2="98.3965" gradientUnits="userSpaceOnUse">
<stop stop-color="#F2FFF7"/>
<stop offset="1" stop-color="white"/>
</linearGradient>
<linearGradient id="paint17_linear" x1="498.335" y1="124.412" x2="467.668" y2="231.215" gradientUnits="userSpaceOnUse">
<stop stop-color="#A7D7EB"/>
<stop offset="0.1545" stop-color="#AED2EC"/>
<stop offset="0.7192" stop-color="#E0ECF4"/>
<stop offset="1" stop-color="#F2FFF7"/>
</linearGradient>
<linearGradient id="paint18_linear" x1="462.563" y1="199.969" x2="466.793" y2="112.2" gradientUnits="userSpaceOnUse">
<stop stop-color="#A6D7EB"/>
<stop offset="0.1545" stop-color="#A9D5EC"/>
<stop offset="0.7192" stop-color="#E0ECF4"/>
<stop offset="1" stop-color="#F2FFF7"/>
</linearGradient>
<linearGradient id="paint19_linear" x1="454.04" y1="164.03" x2="492.026" y2="164.03" gradientUnits="userSpaceOnUse">
<stop stop-color="#F2FFF7"/>
<stop offset="1" stop-color="white"/>
</linearGradient>
<linearGradient id="paint20_linear" x1="114.669" y1="156.851" x2="63.0205" y2="336.73" gradientUnits="userSpaceOnUse">
<stop stop-color="#A7D7EB"/>
<stop offset="0.1545" stop-color="#AED2EC"/>
<stop offset="0.7192" stop-color="#E0ECF4"/>
<stop offset="1" stop-color="#F2FFF7"/>
</linearGradient>
<linearGradient id="paint21_linear" x1="54.4216" y1="284.105" x2="61.5455" y2="136.285" gradientUnits="userSpaceOnUse">
<stop stop-color="#A6D7EB"/>
<stop offset="0.1545" stop-color="#A9D5EC"/>
<stop offset="0.7192" stop-color="#E0ECF4"/>
<stop offset="1" stop-color="#F2FFF7"/>
</linearGradient>
<linearGradient id="paint22_linear" x1="40.0677" y1="223.577" x2="104.043" y2="223.577" gradientUnits="userSpaceOnUse">
<stop stop-color="#F2FFF7"/>
<stop offset="1" stop-color="white"/>
</linearGradient>
<linearGradient id="paint23_linear" x1="250.413" y1="34.2641" x2="309.623" y2="247.999" gradientUnits="userSpaceOnUse">
<stop stop-color="#DDE9F4"/>
<stop offset="0.1366" stop-color="#E0ECF4"/>
<stop offset="1" stop-color="#F2FFF7"/>
</linearGradient>
<linearGradient id="paint24_linear" x1="231.559" y1="125.17" x2="328.992" y2="125.17" gradientUnits="userSpaceOnUse">
<stop stop-color="#F2FFF7"/>
<stop offset="0.2808" stop-color="#E0ECF4"/>
<stop offset="0.8455" stop-color="#B1BCED"/>
<stop offset="1" stop-color="#A3AEEB"/>
</linearGradient>
<linearGradient id="paint25_linear" x1="294.769" y1="199.115" x2="259.152" y2="64.4642" gradientUnits="userSpaceOnUse">
<stop stop-color="#00EADC"/>
<stop offset="1" stop-color="#00A8AB"/>
</linearGradient>
<linearGradient id="paint26_linear" x1="264.741" y1="76.3222" x2="317.552" y2="165.694" gradientUnits="userSpaceOnUse">
<stop stop-color="#00EADC"/>
<stop offset="1" stop-color="#00A8AB"/>
</linearGradient>
</defs>
</svg>