<svg id="Group_659" data-name="Group 659" xmlns="http://www.w3.org/2000/svg" xmlns:xlink="http://www.w3.org/1999/xlink" width="284" height="140" viewBox="0 0 284 140">
  <defs>
    <radialGradient id="radial-gradient" cx="0.5" cy="0.5" r="0.5" gradientUnits="objectBoundingBox">
      <stop offset="0" stop-color="#3fc8d6"/>
      <stop offset="1" stop-color="#3fc8d6" stop-opacity="0"/>
    </radialGradient>
    <linearGradient id="linear-gradient" x1="0.5" x2="0.5" y2="1" gradientUnits="objectBoundingBox">
      <stop offset="0" stop-color="#fff" stop-opacity="0.502"/>
      <stop offset="1" stop-color="#fff" stop-opacity="0"/>
    </linearGradient>
  </defs>
  <rect id="Rectangle_2827" data-name="Rectangle 2827" width="140" height="140" rx="40" transform="translate(72)" fill="#fff"/>
  <ellipse id="Ellipse_100" data-name="Ellipse 100" cx="142" cy="56" rx="142" ry="56" transform="translate(0 28)" opacity="0.4" fill="url(#radial-gradient)"/>
  <g id="Group_99" data-name="Group 99" transform="translate(91.484 16.818)">
    <g id="Group_643" data-name="Group 643" transform="translate(26.516 102.182)">
      <path id="Rectangle_2843" data-name="Rectangle 2843" d="M4,0H25a0,0,0,0,1,0,0V7a0,0,0,0,1,0,0H0A0,0,0,0,1,0,7V4A4,4,0,0,1,4,0Z" fill="#dadde2"/>
      <path id="Rectangle_2844" data-name="Rectangle 2844" d="M0,0H20a4,4,0,0,1,4,4V7a0,0,0,0,1,0,0H0A0,0,0,0,1,0,7V0A0,0,0,0,1,0,0Z" transform="translate(25)" fill="#959ba6"/>
    </g>
    <g id="Group_644" data-name="Group 644" transform="translate(37.812 70.804)">
      <path id="Path_851" data-name="Path 851" d="M43.139,53H39.421c0,10.955-1.394,23.577-9.62,28.454H43.139Z" transform="translate(-29.801 -53)" fill="#dadde2"/>
      <path id="Path_1050" data-name="Path 1050" d="M23.3,53h3.718c0,10.955,1.393,23.577,9.62,28.454H23.3Z" transform="translate(-9.962 -53)" fill="#959ba6"/>
    </g>
    <g id="Group_655" data-name="Group 655" transform="translate(0 11.956)">
      <path id="Path_852" data-name="Path 852" d="M51.653,14.152H.5C3.559,38.074,24.877,56.406,51.653,56.406Z" transform="translate(-0.503 -14.152)" fill="none" stroke="#dadde2" stroke-linejoin="round" stroke-miterlimit="10" stroke-width="4"/>
    </g>
    <g id="Group_656" data-name="Group 656" transform="translate(50.926 11.956)">
      <path id="Path_852-2" data-name="Path 852" d="M.5,14.152h51.15C48.6,38.074,27.279,56.406.5,56.406Z" transform="translate(-0.503 -14.152)" fill="none" stroke="#959ba6" stroke-linejoin="round" stroke-miterlimit="10" stroke-width="4"/>
    </g>
    <path id="Subtraction_20" data-name="Subtraction 20" d="M34.726,77.467c-2.869,0-6.267-1.675-9.825-4.845A56.043,56.043,0,0,1,14.229,58.857,99.842,99.842,0,0,1,5.2,37.326,129.157,129.157,0,0,1,.295,9.182H69.177a131.076,131.076,0,0,1-4.868,28.751A95.582,95.582,0,0,1,55.273,59.4a53.205,53.205,0,0,1-10.7,13.428C41.033,75.861,37.626,77.467,34.726,77.467ZM69.284,7.182H.18C.06,4.8,0,2.389,0,0H69.452c0,2.408-.057,4.824-.168,7.181h0Z" transform="translate(16.449 0)" fill="#3fc8d6"/>
    <path id="Subtraction_21" data-name="Subtraction 21" d="M0,77.378H0V9.093H34.416a131,131,0,0,1-4.854,28.749,95.544,95.544,0,0,1-9.025,21.464A53.19,53.19,0,0,1,9.847,72.735C6.3,75.772,2.9,77.378,0,77.378ZM34.522,7.093H0V0H34.686c0,2.379-.055,4.765-.164,7.092Z" transform="translate(51.175 0.089)" fill="#008b9a"/>
    <path id="Path_1048" data-name="Path 1048" d="M76.394,2H39.36V67.476C85.28,67.476,76.394,2,76.394,2Z" transform="translate(11.815 -1.911)" fill="none"/>
    <path id="Polygon_23" data-name="Polygon 23" d="M14.918,1.335a1,1,0,0,1,1.69,0l4.453,7.036a1,1,0,0,0,.617.439L29.9,10.735a1,1,0,0,1,.523,1.633l-5.457,6.215a1,1,0,0,0-.245.739l.653,8.169A1,1,0,0,1,24.007,28.5l-7.873-3.155a1,1,0,0,0-.744,0L7.518,28.5a1,1,0,0,1-1.369-1.008L6.8,19.323a1,1,0,0,0-.245-.739L1.1,12.369a1,1,0,0,1,.523-1.633L9.848,8.81a1,1,0,0,0,.617-.439Z" transform="translate(34.78 19.232)" fill="#fff"/>
    <path id="Intersection_8" data-name="Intersection 8" d="M0,0H63.972L9.92,50.3C4.181,37.27,0,20.1,0,0Z" transform="translate(16.449)" fill="url(#linear-gradient)"/>
  </g>
</svg>
