<svg width="36" height="36" viewBox="0 0 36 36" fill="none" xmlns="http://www.w3.org/2000/svg">
  <g clip-path="url(#clip0)">
    <path d="M35.9208 3.29987L33.5214 7.49387C33.4814 7.56407 33.4276 7.62544 33.3632 7.67432C33.2989 7.72319 33.2253 7.75855 33.147 7.77827L30.9086 8.33807L22.173 16.9961L21.3252 16.1483L30.1814 7.37417C30.2581 7.29744 30.3542 7.24299 30.4595 7.21667L32.6106 6.67667L34.6527 3.10007L32.9013 1.34867L29.3228 3.39347L28.7828 5.54447C28.7566 5.65006 28.7021 5.74652 28.6253 5.82347L19.7699 14.5976L18.9221 13.7498L27.6577 5.09447L28.2175 2.85797C28.2372 2.77948 28.2725 2.70577 28.3214 2.64127C28.3703 2.57678 28.4317 2.52283 28.502 2.48267L32.6997 0.0832732C32.8137 0.0182999 32.9459 -0.00746605 33.0759 0.00992997C33.206 0.027326 33.3268 0.0869227 33.4197 0.179573L35.8182 2.57897C35.9121 2.67121 35.973 2.79177 35.9916 2.92206C36.0101 3.05234 35.9853 3.18511 35.9208 3.29987V3.29987Z" fill="black"/>
    <path d="M26.4894 25.4808C26.5427 25.3921 26.618 25.3188 26.7081 25.2678C26.7981 25.2169 26.8999 25.1901 27.0033 25.1901H30.6034C30.7069 25.1901 30.8086 25.2169 30.8986 25.2678C30.9887 25.3188 31.064 25.3921 31.1173 25.4808L32.9174 28.4796C32.9734 28.5729 33.003 28.6796 33.003 28.7883C33.003 28.8971 32.9734 29.0038 32.9174 29.097L31.1173 32.0958C31.064 32.1845 30.9887 32.2579 30.8986 32.3088C30.8086 32.3598 30.7069 32.3865 30.6034 32.3865H27.0033C26.8999 32.3865 26.7982 32.3597 26.7082 32.3087C26.6181 32.2578 26.5428 32.1845 26.4894 32.0958L24.6894 29.097C24.6334 29.0038 24.6038 28.8971 24.6038 28.7883C24.6038 28.6796 24.6334 28.5729 24.6894 28.4796L26.4894 25.4808ZM27.3426 31.1868H30.2623L31.7023 28.7883L30.2623 26.3889H27.3471L25.9071 28.7883L27.3426 31.1868Z" fill="black"/>
    <path d="M7.21273 14.3948C6.11861 14.3985 5.03815 14.1518 4.05404 13.6737C3.06994 13.1955 2.20828 12.4985 1.53501 11.6361C0.86174 10.7737 0.394714 9.76864 0.169674 8.69793C-0.0553666 7.62722 -0.0324548 6.51922 0.236656 5.45873C0.262199 5.35572 0.314636 5.26134 0.388607 5.18523C0.462578 5.10912 0.555431 5.05402 0.657675 5.02555C0.759919 4.99709 0.867888 4.99628 0.970548 5.02321C1.07321 5.05014 1.16688 5.10384 1.24198 5.17883L4.97437 8.91023L7.93725 7.92023L8.92727 4.95923L5.19218 1.22783C5.11696 1.15269 5.06308 1.05889 5.03606 0.956058C5.00905 0.853225 5.00987 0.745058 5.03845 0.642649C5.06703 0.54024 5.12234 0.447276 5.1987 0.373291C5.27506 0.299306 5.36972 0.246962 5.47299 0.22163C6.53368 -0.0469736 7.64177 -0.0694315 8.71248 0.155974C9.78319 0.381379 10.7882 0.848675 11.6505 1.52212C12.5129 2.19557 13.2098 3.05732 13.688 4.04147C14.1661 5.02561 14.4129 6.10608 14.4093 7.20023C14.4079 7.67223 14.3591 8.1429 14.2635 8.60513L27.3984 21.737C27.8607 21.6417 28.3314 21.5928 28.8034 21.5912C30.2274 21.5912 31.6195 22.0135 32.8036 22.8047C33.9876 23.5958 34.9105 24.7203 35.4555 26.0359C36.0004 27.3515 36.143 28.7992 35.8652 30.1959C35.5874 31.5925 34.9016 32.8755 33.8947 33.8824C32.8877 34.8893 31.6048 35.5751 30.2081 35.8529C28.8114 36.1307 27.3636 35.9881 26.048 35.4432C24.7323 34.8982 23.6078 33.9754 22.8166 32.7913C22.0255 31.6073 21.6032 30.2153 21.6032 28.7912C21.6047 28.3192 21.6535 27.8486 21.749 27.3863L18.6043 24.2417L17.2327 25.6142C17.1201 25.7265 16.9677 25.7895 16.8088 25.7895C16.6498 25.7895 16.4974 25.7265 16.3849 25.6142L16.0852 25.3145C15.9591 25.1883 15.7881 25.1172 15.6097 25.1171C15.4313 25.1169 15.2601 25.1876 15.1338 25.3136C15.0076 25.4397 14.9365 25.6107 14.9364 25.7891C14.9362 25.9675 15.0069 26.1387 15.1329 26.2649L15.4326 26.5646C15.4883 26.6203 15.5325 26.6864 15.5626 26.7591C15.5928 26.8318 15.6083 26.9098 15.6083 26.9885C15.6083 27.0673 15.5928 27.1452 15.5626 27.218C15.5325 27.2907 15.4883 27.3568 15.4326 27.4124L8.27926 34.5674C7.83251 35.0219 7.30041 35.3837 6.7135 35.632C6.12658 35.8803 5.49641 36.0103 4.85913 36.0145C4.22186 36.0187 3.59003 35.897 2.99991 35.6564C2.40979 35.4158 1.87299 35.061 1.42032 34.6124C0.967648 34.1639 0.608017 33.6303 0.362064 33.0424C0.116111 32.4545 -0.011323 31.8238 -0.0129242 31.1866C-0.0145254 30.5493 0.109737 29.918 0.352733 29.3288C0.595729 28.7397 0.952674 28.2044 1.40308 27.7535L1.43369 27.722L8.58796 20.5679C8.64363 20.5123 8.70971 20.4681 8.78245 20.438C8.85518 20.4078 8.93314 20.3923 9.01188 20.3923C9.09061 20.3923 9.16856 20.4078 9.2413 20.438C9.31404 20.4681 9.38012 20.5123 9.43579 20.5679L9.73549 20.8676C9.86141 20.9939 10.0323 21.065 10.2106 21.0652C10.389 21.0655 10.5601 20.9949 10.6864 20.869C10.8126 20.7431 10.8837 20.5722 10.884 20.3938C10.8842 20.2155 10.8136 20.0444 10.6877 19.9181L10.388 19.6184C10.3323 19.5628 10.2882 19.4967 10.258 19.424C10.2279 19.3512 10.2124 19.2733 10.2124 19.1945C10.2124 19.1158 10.2279 19.0378 10.258 18.9651C10.2882 18.8924 10.3323 18.8263 10.388 18.7706L11.7632 17.3954L8.61766 14.249C8.15541 14.3445 7.68474 14.3933 7.21273 14.3948V14.3948ZM4.85647 34.7861C5.29204 34.7856 5.72399 34.7069 6.1318 34.5539L1.45169 29.8739C1.24468 30.4246 1.17433 31.0172 1.24667 31.601C1.319 32.1847 1.53187 32.7423 1.86701 33.2257C2.20215 33.7092 2.64956 34.1041 3.17086 34.3767C3.69217 34.6492 4.27181 34.7913 4.86007 34.7906L4.85647 34.7861ZM11.6507 19.199C11.9507 19.558 12.1053 20.0163 12.0843 20.4836C12.0632 20.9509 11.868 21.3934 11.537 21.7239C11.206 22.0544 10.7632 22.2491 10.2958 22.2695C9.8285 22.2899 9.37045 22.1346 9.01188 21.8342L2.28151 28.5698C2.2086 28.6427 2.1402 28.7201 2.0736 28.7984L7.20373 33.9284C7.28203 33.8627 7.35943 33.7943 7.43323 33.7205L14.169 26.9849C13.8691 26.626 13.7144 26.1677 13.7355 25.7004C13.7565 25.2331 13.9518 24.7906 14.2828 24.4601C14.6138 24.1295 15.0566 23.9349 15.5239 23.9145C15.9912 23.894 16.4493 24.0493 16.8079 24.3497L17.7673 23.3903L12.6129 18.2432L11.6507 19.199ZM9.22878 13.169L22.8344 26.7689C22.9077 26.8421 22.9609 26.9331 22.9886 27.0329C23.0164 27.1328 23.0178 27.2381 22.9928 27.3386C22.6666 28.6203 22.7702 29.9736 23.2878 31.1906C23.8054 32.4076 24.7083 33.421 25.8578 34.0751C27.0073 34.7291 28.3397 34.9877 29.6504 34.8109C30.9611 34.6342 32.1775 34.032 33.1127 33.0968C34.0478 32.1617 34.6501 30.9453 34.8268 29.6347C35.0035 28.324 34.745 26.9916 34.0909 25.8421C33.4369 24.6927 32.4235 23.7898 31.2064 23.2722C29.9893 22.7546 28.636 22.651 27.3543 22.9772C27.2538 23.0018 27.1486 23.0001 27.0488 22.9724C26.949 22.9447 26.8581 22.8918 26.7846 22.8188L13.1817 9.21713C13.1084 9.14388 13.0554 9.05289 13.0278 8.95304C13.0002 8.8532 12.999 8.74791 13.0242 8.64743C13.2576 7.73569 13.2721 6.78167 13.0665 5.86326C12.8609 4.94484 12.441 4.08808 11.841 3.36292C11.2411 2.63776 10.4782 2.06477 9.6145 1.69074C8.75085 1.3167 7.81097 1.15222 6.87162 1.21073L10.0352 4.37513C10.1138 4.45379 10.169 4.55277 10.1946 4.66102C10.2202 4.76926 10.2152 4.88248 10.1801 4.98803L8.98037 8.58803C8.95079 8.67632 8.90107 8.75651 8.83515 8.82227C8.76923 8.88803 8.68892 8.93756 8.60056 8.96693L5.00047 10.1666C4.89493 10.2017 4.7817 10.2068 4.67345 10.1812C4.56521 10.1556 4.46622 10.1004 4.38756 10.0217L1.22578 6.85733C1.21858 6.97163 1.21498 7.08503 1.21498 7.19753C1.21 8.11008 1.41444 9.01161 1.81255 9.83275C2.21066 10.6539 2.79184 11.3728 3.51138 11.9341C4.23091 12.4954 5.06962 12.8842 5.96298 13.0705C6.85634 13.2568 7.78054 13.2357 8.66447 13.0088C8.76495 12.9837 8.87022 12.985 8.97005 13.0126C9.06988 13.0402 9.16087 13.0932 9.23418 13.1663L9.22878 13.169Z" fill="black"/>
  </g>
  <clipPath id="clip0">
    <rect width="36" height="36" fill="white"/>
  </clipPath>
</svg>
