<svg width="36" height="31" viewBox="0 0 36 31" fill="black" xmlns="http://www.w3.org/2000/svg">
  <g clip-path="url(#clip0)">
    <path d="M31.051 26.002H4.95106C4.45106 26.002 4.05106 25.7019 3.95106 25.2019L-0.0489402 9.302C-0.14894 8.902 0.0510842 8.502 0.351084 8.302C0.651084 8.102 1.15106 8.002 1.45106 8.302L9.95106 13.6019L17.551 0.601929C17.751 0.301929 18.0511 0.101929 18.4511 0.101929C18.8511 0.101929 19.1511 0.301929 19.3511 0.601929L26.151 13.6019L34.4511 8.40198C34.7511 8.20198 35.251 8.20198 35.551 8.40198C35.851 8.60198 36.0511 9.10195 35.9511 9.50195L32.051 25.402C31.951 25.702 31.551 26.002 31.051 26.002V26.002ZM5.75099 24.002H30.251L33.4511 11.302L26.3511 15.802C26.1511 15.902 25.851 16.002 25.551 15.902C25.251 15.802 25.0511 15.602 24.9511 15.402L18.4511 3.10193L11.251 15.502C11.151 15.702 10.851 15.902 10.651 16.002C10.351 16.102 10.1511 16.002 9.85108 15.902L2.65101 11.402L5.75099 24.002Z"/>
    <path d="M31.151 30.402H4.35107C3.75107 30.402 3.35107 30.002 3.35107 29.402C3.35107 28.802 3.75107 28.402 4.35107 28.402H31.151C31.751 28.402 32.151 28.802 32.151 29.402C32.151 30.002 31.751 30.402 31.151 30.402Z"/>
  </g>
  <clipPath id="clip0">
    <rect width="36" height="30.4" fill="white"/>
  </clipPath>
</svg>
