<svg width="14" height="17" viewBox="0 0 14 17" fill="none" xmlns="http://www.w3.org/2000/svg">
<path fill-rule="evenodd" clip-rule="evenodd" d="M10.5 1C10.7761 1 11 0.776142 11 0.5C11 0.223858 10.7761 0 10.5 0H1C0.447715 0 0 0.447715 0 1V13.5C0 13.7761 0.223858 14 0.5 14C0.776142 14 1 13.7761 1 13.5L1 1.5C1 1.22386 0.986929 1.09886 1.04289 1.04289C1.09886 0.986929 1.22386 1 1.5 1H10.5ZM3 3H13V16H3L3 3ZM2 3C2 2.44772 2.44772 2 3 2H13C13.5523 2 14 2.44772 14 3V16C14 16.5523 13.5523 17 13 17H3C2.44772 17 2 16.5523 2 16V3Z" fill="white"/>
</svg>
