<svg width="16" height="18" viewBox="0 0 16 18" fill="none" xmlns="http://www.w3.org/2000/svg">
<path fill-rule="evenodd" clip-rule="evenodd" d="M3.50049 9.49994C3.50049 9.19994 3.70049 8.99994 4.00049 8.99994C4.15049 8.99994 4.25048 9.04994 4.35048 9.14994L7.50047 12.2999V0.499998C7.50047 0.199999 7.70047 0 8.00047 0C8.30047 0 8.50047 0.199999 8.50047 0.499998V12.2999L11.6505 9.14994C11.7505 9.04994 11.8505 8.99994 12.0005 8.99994C12.3004 8.99994 12.5004 9.19994 12.5004 9.49994C12.5004 9.64994 12.4504 9.74994 12.3504 9.84994L8.35047 13.8499C8.25047 13.9499 8.15047 13.9999 8.00047 13.9999C7.85047 13.9999 7.75047 13.9499 7.65047 13.8499L3.65049 9.84994C3.55049 9.74994 3.50049 9.64994 3.50049 9.49994ZM9.99995 3H15.4999C15.7999 3 15.9999 3.2 15.9999 3.5V17.4999C15.9999 17.7999 15.7999 17.9999 15.4999 17.9999H0.499998C0.199999 17.9999 0 17.7999 0 17.4999V3.5C0 3.2 0.199999 3 0.499998 3H5.99997C6.29997 3 6.49997 3.2 6.49997 3.5C6.49997 3.8 6.29997 4 5.99997 4H0.999995V16.9999H14.9999V4H9.99995C9.69996 4 9.49996 3.8 9.49996 3.5C9.49996 3.2 9.69996 3 9.99995 3Z" fill="#008CFF"/>
</svg>
