<svg width="192" height="296" viewBox="0 0 192 296" fill="none" xmlns="http://www.w3.org/2000/svg">
<path opacity="0.3" d="M126.474 186.46H-0.959409V-70.8362H126.474V186.46Z" fill="url(#paint0_linear)"/>
<path d="M62.3629 146.199L-1.35379 183.253V108.372L62.3629 71.3184V146.199Z" fill="url(#paint1_linear)"/>
<path d="M-65.0717 71.3384L-1.37522 34.2935L62.3617 71.3384L-1.37522 108.343L-65.0717 71.3384Z" fill="url(#paint2_linear)"/>
<path opacity="0.3" d="M-64.2101 145.819L-1.37437 109.205L61.5012 145.819L-1.37437 182.393L-64.2101 145.819Z" fill="url(#paint3_linear)"/>
<path opacity="0.2" d="M-1.35501 108.599L62.3617 145.367V71.0621L-1.35501 34.2935V108.599Z" fill="url(#paint4_linear)"/>
<path d="M-1.63226 297.128L62.0642 260.083L125.801 297.128L62.0642 334.132L-1.63226 297.128Z" fill="url(#paint5_linear)"/>
<path opacity="0.2" d="M62.0846 334.388L125.801 371.157V296.852L62.0846 260.083V334.388Z" fill="url(#paint6_linear)"/>
<path d="M126.281 298.644L62.3448 335.637V260.92L126.281 223.887V298.644Z" fill="url(#paint7_linear)"/>
<path d="M-1.63196 298.644L62.3449 335.637V260.92L-1.63196 223.887V298.644Z" fill="url(#paint8_linear)"/>
<path fill-rule="evenodd" clip-rule="evenodd" d="M126.282 223.887L62.3455 186.854L-1.63135 223.887L62.3455 260.92L126.282 223.887ZM-1.63196 298.645L62.3449 335.637V260.921L-1.63196 223.887V298.645ZM62.4425 335.761L126.518 298.717V223.854L62.4425 260.94V335.761Z" fill="url(#paint9_radial)"/>
<path d="M126.282 223.887L62.3457 186.854L-1.6311 223.887L62.3457 260.92L126.282 223.887Z" fill="url(#paint10_linear)"/>
<path opacity="0.6" d="M126.281 298.792L62.3449 261.759L-1.63196 298.792L62.3449 335.825L126.281 298.792Z" fill="url(#paint11_linear)"/>
<path opacity="0.3" d="M62.4436 261.716L-1.63208 298.761V223.939L62.4436 186.854V261.716Z" fill="url(#paint12_linear)"/>
<g opacity="0.7">
<path opacity="0.5" d="M191.858 164.56H177.078V29.0708H191.858V164.56Z" fill="url(#paint13_linear)"/>
<path fill-rule="evenodd" clip-rule="evenodd" d="M191.858 20.9077V29.6226L184.468 33.9204L177.078 29.6226V20.9374L177.08 20.9386L184.465 16.6431L184.468 16.6445V16.6431L191.858 20.9077Z" fill="#05FFF3"/>
</g>
<path opacity="0.3" d="M176.672 321.218H126.952V161.658H176.672V321.218Z" fill="url(#paint14_linear)"/>
<path d="M126.952 161.647L151.812 176.104V146.888L126.952 132.431V161.647Z" fill="url(#paint15_linear)"/>
<path d="M176.672 161.647L151.812 176.104V146.888L176.672 132.431V161.647Z" fill="url(#paint16_linear)"/>
<path d="M126.952 132.439L151.804 117.985L176.673 132.439L151.804 146.877L126.952 132.439Z" fill="url(#paint17_linear)"/>
<path opacity="0.3" d="M127.288 161.498L151.804 147.212L176.337 161.498L151.804 175.768L127.288 161.498Z" fill="url(#paint18_linear)"/>
<path opacity="0.2" d="M151.812 146.976L176.673 161.322V132.331L151.812 117.985V146.976Z" fill="url(#paint19_linear)"/>
<defs>
<linearGradient id="paint0_linear" x1="63.0516" y1="186.46" x2="61.3583" y2="-62.8834" gradientUnits="userSpaceOnUse">
<stop stop-color="#00FFF0" stop-opacity="0"/>
<stop offset="1" stop-color="#00FFF8"/>
</linearGradient>
<linearGradient id="paint1_linear" x1="61.9899" y1="146.679" x2="-106.305" y2="30.9627" gradientUnits="userSpaceOnUse">
<stop stop-color="#00EADC"/>
<stop offset="0.393961" stop-color="#008B9A"/>
</linearGradient>
<linearGradient id="paint2_linear" x1="-1.3194" y1="108.632" x2="-1.3194" y2="-31.4396" gradientUnits="userSpaceOnUse">
<stop stop-color="#EFF0F2"/>
<stop offset="0.4469" stop-color="#00DDD2"/>
<stop offset="1" stop-color="#008B9A"/>
</linearGradient>
<linearGradient id="paint3_linear" x1="-0.609639" y1="108.258" x2="-1.56205" y2="182.102" gradientUnits="userSpaceOnUse">
<stop stop-color="#E7FFFE" stop-opacity="0"/>
<stop offset="1" stop-color="#008B9A"/>
</linearGradient>
<linearGradient id="paint4_linear" x1="14.1712" y1="100.441" x2="17.019" y2="42.3827" gradientUnits="userSpaceOnUse">
<stop stop-color="#00DED3" stop-opacity="0"/>
<stop offset="1" stop-color="#008B9A"/>
</linearGradient>
<linearGradient id="paint5_linear" x1="62.1201" y1="334.421" x2="62.1201" y2="194.35" gradientUnits="userSpaceOnUse">
<stop stop-color="#EFF0F2"/>
<stop offset="0.4469" stop-color="#00DDD2"/>
<stop offset="1" stop-color="#008B9A"/>
</linearGradient>
<linearGradient id="paint6_linear" x1="77.6108" y1="326.231" x2="80.4586" y2="268.172" gradientUnits="userSpaceOnUse">
<stop stop-color="#00DED3" stop-opacity="0"/>
<stop offset="1" stop-color="#008B9A"/>
</linearGradient>
<linearGradient id="paint7_linear" x1="126.519" y1="223.855" x2="57.8008" y2="332.834" gradientUnits="userSpaceOnUse">
<stop stop-color="#A6D7E8"/>
<stop offset="1" stop-color="#F2FFF7"/>
</linearGradient>
<linearGradient id="paint8_linear" x1="62.4437" y1="298.309" x2="5.47169" y2="322.537" gradientUnits="userSpaceOnUse">
<stop stop-color="#A6D7E8"/>
<stop offset="1" stop-color="#F2FFF7"/>
</linearGradient>
<radialGradient id="paint9_radial" cx="0" cy="0" r="1" gradientUnits="userSpaceOnUse" gradientTransform="translate(62.4431 260.856) rotate(-90) scale(74.0026 69.1309)">
<stop stop-color="#A6D7E8" stop-opacity="0"/>
<stop offset="1" stop-color="white" stop-opacity="0.13"/>
</radialGradient>
<linearGradient id="paint10_linear" x1="62.4439" y1="186.854" x2="62.4439" y2="260.857" gradientUnits="userSpaceOnUse">
<stop stop-color="#CCE9F5"/>
<stop offset="0.860723" stop-color="white"/>
</linearGradient>
<linearGradient id="paint11_linear" x1="62.4431" y1="261.759" x2="62.4431" y2="335.762" gradientUnits="userSpaceOnUse">
<stop stop-color="white" stop-opacity="0"/>
<stop offset="1" stop-color="white"/>
</linearGradient>
<linearGradient id="paint12_linear" x1="62.6825" y1="186.822" x2="59.1643" y2="267.137" gradientUnits="userSpaceOnUse">
<stop stop-color="#A6D7E8"/>
<stop offset="1" stop-color="#F2FFF7" stop-opacity="0"/>
</linearGradient>
<linearGradient id="paint13_linear" x1="184.502" y1="164.56" x2="180.457" y2="33.3773" gradientUnits="userSpaceOnUse">
<stop stop-color="#00ABA1" stop-opacity="0"/>
<stop offset="1" stop-color="#00D6CF"/>
</linearGradient>
<linearGradient id="paint14_linear" x1="151.927" y1="321.218" x2="150.258" y2="166.601" gradientUnits="userSpaceOnUse">
<stop stop-color="#00FFF0" stop-opacity="0"/>
<stop offset="1" stop-color="#00FFF8"/>
</linearGradient>
<linearGradient id="paint15_linear" x1="148.859" y1="154.264" x2="122.176" y2="154.264" gradientUnits="userSpaceOnUse">
<stop stop-color="#00DED3"/>
<stop offset="1" stop-color="#008B9A"/>
</linearGradient>
<linearGradient id="paint16_linear" x1="176.527" y1="161.834" x2="110.863" y2="116.685" gradientUnits="userSpaceOnUse">
<stop stop-color="#00EADC"/>
<stop offset="0.393961" stop-color="#008B9A"/>
</linearGradient>
<linearGradient id="paint17_linear" x1="151.826" y1="146.989" x2="151.826" y2="92.3378" gradientUnits="userSpaceOnUse">
<stop stop-color="#EFF0F2"/>
<stop offset="0.4469" stop-color="#00DDD2"/>
<stop offset="1" stop-color="#008B9A"/>
</linearGradient>
<linearGradient id="paint18_linear" x1="152.103" y1="146.843" x2="151.731" y2="175.655" gradientUnits="userSpaceOnUse">
<stop stop-color="#E7FFFE" stop-opacity="0"/>
<stop offset="1" stop-color="#008B9A"/>
</linearGradient>
<linearGradient id="paint19_linear" x1="157.87" y1="143.794" x2="158.981" y2="121.141" gradientUnits="userSpaceOnUse">
<stop stop-color="#00DED3" stop-opacity="0"/>
<stop offset="1" stop-color="#008B9A"/>
</linearGradient>
</defs>
</svg>
