<svg width="439" height="615" viewBox="0 0 439 615" fill="none" xmlns="http://www.w3.org/2000/svg">
<g opacity="0.5" filter="url(#filter0_f)">
<circle cx="230.044" cy="328.139" r="108.297" fill="#008B9A"/>
</g>
<path d="M63.9238 350.276C61.9806 345.095 84.4008 345.246 84.4008 345.246C84.4008 345.246 84.4008 371.151 85.6963 382.16C86.9918 398.351 86.9918 406.123 81.8099 428.79C79.8666 438.504 77.2757 475.419 77.9234 488.372C79.2189 507.153 87.6396 516.22 90.8783 521.401C94.117 525.934 82.4576 530.468 75.3324 523.991C68.2072 516.867 67.5595 515.572 63.0253 513.629C59.1388 511.686 60.4343 506.505 60.4343 495.496C60.4343 487.076 65.2195 459.273 63.924 441.787C61.9808 416.529 64.5718 415.753 63.924 402.8C63.2763 377.543 65.2193 353.514 63.9238 350.276Z" fill="white"/>
<path d="M57.8442 500.029C57.8442 499.382 57.8442 499.382 57.8442 499.382C58.4919 496.791 61.0829 494.848 61.0829 494.848C61.0829 494.848 59.4479 504.599 67.7145 506.765C75.981 508.931 81.2516 505.682 81.2516 502.975C81.2516 502.975 84.3458 513.263 89.9153 517.595C94.7887 521.385 98.0376 524.902 98.0376 529.172C98.0376 532.756 96.9546 537.164 90.8791 536.296C86.3449 535.649 79.8675 533.706 75.981 529.172C72.0946 523.991 61.0829 517.053 58.4919 511.687C55.901 506.32 57.1964 501.324 57.8442 500.029Z" fill="url(#paint0_linear)"/>
<path d="M26.2912 506.452C25.6435 495.443 38.5907 456.365 41.1817 443.412L18.9808 440.705C17.0376 451.067 10.7454 488.966 10.0976 506.452C10.0976 518.11 17.0001 544.015 24.773 541.424C28.6595 540.129 31.2505 535.596 29.3072 529.767C27.364 523.938 26.939 513.576 26.2912 506.452Z" fill="white"/>
<path d="M33.6007 539.254C31.6575 530.835 27.1029 512.18 27.1029 512.18C27.1029 512.18 26.87 519.219 21.6881 519.219C17.1539 519.219 14.4261 517.209 12.4829 514.888C10.5396 512.566 10.0982 505.156 10.0982 505.156C10.0982 505.156 6.85945 507.747 8.15494 512.928C8.15494 512.928 8.80268 520.052 8.80268 523.938C9.77545 529.508 14.0011 539.913 14.6488 542.503C16.592 546.389 20.0942 552.462 29.8104 551.167C34.3446 549.872 34.6006 543.586 33.6007 539.254Z" fill="url(#paint1_linear)"/>
<path d="M5.9854 499.185C15.1902 455.324 13.0243 439.08 23.3125 415.255C26.5614 404.966 16.8147 358.94 16.8147 334.032C16.8147 300.813 32.7314 297.237 32.7314 297.237C32.1108 291.634 43.9017 292.879 56.3131 295.369C56.3131 302.218 58.1748 297.402 58.1748 304.25C60.0366 298.025 59.416 302.218 60.0366 292.879C71.2069 295.992 81.7566 300.35 81.7566 300.35C81.7566 300.35 89.2038 340.104 91.0655 372.477C93.5478 409.209 81.2513 496.477 81.2513 496.477C81.2513 496.477 81.2513 501.892 70.9635 501.892C60.4137 501.269 59.5919 493.77 59.5919 493.77C59.5919 493.77 62.841 413.63 61.758 404.966C60.675 396.303 56.3131 360.565 56.3131 360.565C55.072 373.639 50.7373 405.862 48.2211 419.586C42.3984 451.347 29.7123 509.396 29.7123 509.396C29.7123 509.396 26.5997 516.684 13.4936 512.519C4.36056 509.396 5.44431 500.809 5.9854 499.185Z" fill="url(#paint2_linear)"/>
<path d="M51.0393 209.081C51.0393 209.081 65.0373 208.454 72.9416 208.279C80.463 207.583 96.9334 205.946 96.9334 205.946C96.9334 205.946 119.36 192.713 132.662 184.565C136.702 182.406 140.079 181.536 141.264 179.864C144.677 175.755 147.567 172.03 149.552 168.165C152.06 163.917 152.791 168.199 151.99 170.393C151.328 171.681 150.387 174.78 150.387 174.78C150.387 174.78 154.287 173.527 157.804 171.751C161.844 169.592 164.978 167.294 167.833 166.806C172.499 166.597 173.857 172.829 168.494 177.565C159.718 186.409 152.092 184.773 150.003 186.305C148.436 187.454 137.988 195.115 128.447 202.915C122.178 207.511 116.815 212.247 113.159 214.928C110.547 216.843 105.706 221.196 100.379 222.693C94.1455 224.052 81.2964 226.246 77.3963 227.499C67.7855 229.728 60.7865 230.042 60.7865 230.042L51.0393 209.081Z" fill="white"/>
<path d="M87.08 206.748C87.08 206.748 61.8703 201.944 53.1296 207.55C44.7719 213.678 45.8151 224.96 46.964 226.527C48.1129 228.093 88.8539 222.312 88.8539 222.312C88.8539 222.312 88.1936 211.553 87.08 206.748Z" fill="url(#paint3_linear)"/>
<path d="M84.3639 206.329L90.3182 206.782C90.3182 206.782 89.4113 218.69 92.5792 225.201C90.1068 226.211 89.2015 226.071 86.8685 226.176C82.2729 219.909 84.3639 206.329 84.3639 206.329Z" fill="url(#paint4_linear)"/>
<path d="M79.219 274.007C79.219 278.541 81.5803 296.256 82.8758 302.084C75.1028 320.866 36.3082 322.119 18.4392 310.207C19.7347 301.14 30.6382 270.121 27.3995 262.35C22.8653 251.34 7.31946 239.683 13.1492 217.016C16.3879 213.13 31.286 204.063 31.286 204.063C31.286 204.063 42.9454 213.13 46.8318 216.368C50.7183 219.606 57.1957 227.378 57.8435 228.025C57.8435 226.73 57.1957 216.368 52.6615 205.358C51.366 202.12 53.3093 191.758 53.3093 191.758C53.3093 191.758 55.2525 191.111 57.1957 191.111C60.4345 194.996 67.5596 205.358 71.4461 209.892C75.3326 213.778 85.6965 228.673 82.4577 242.273C80.5145 253.283 78.5713 268.179 79.219 274.007Z" fill="url(#paint5_linear)"/>
<path d="M35.8197 196.291C35.8197 196.291 39.0584 209.891 44.2403 214.425C48.7746 218.958 59.1385 229.968 59.1385 229.968C59.1385 229.968 48.1268 231.263 41.0016 233.206C35.8197 228.025 28.6945 213.777 28.6945 209.244C29.3422 196.939 35.8197 196.291 35.8197 196.291Z" fill="url(#paint6_linear)"/>
<path d="M59.7878 196.939C59.7878 196.939 70.1517 212.482 72.7426 219.606C68.2084 222.197 59.7878 229.968 59.7878 229.968L53.9581 200.177L59.7878 196.939Z" fill="url(#paint7_linear)"/>
<path d="M74.0387 158.081C74.0387 158.081 78.5729 171.034 75.9819 201.472C74.6864 213.777 69.5044 223.492 69.5044 223.492C69.5044 223.492 63.027 205.358 53.3108 199.53C46.8334 195.644 56.5496 187.225 56.5496 187.225L74.0387 158.081Z" fill="url(#paint8_linear)"/>
<path d="M57.194 211.188C59.1372 213.778 60.4327 222.197 59.785 229.969C55.2507 227.378 48.1256 220.254 44.2391 215.721C39.7049 210.54 37.1139 206.654 35.8184 200.825C36.4662 195.644 36.4662 187.225 33.8752 176.216C41.0004 172.977 55.2507 193.054 55.2507 193.054C55.2507 193.054 54.603 204.711 57.194 211.188Z" fill="url(#paint9_linear)"/>
<path d="M35.8196 150.957C42.9447 144.481 61.0816 140.595 69.5022 158.729C78.5707 177.51 63.0248 204.063 53.3086 200.825C47.479 198.882 35.8196 191.758 31.9331 182.043C26.7512 170.386 29.9899 156.138 35.8196 150.957Z" fill="white"/>
<path d="M53.9557 160.671C53.9557 160.671 54.6034 174.272 48.126 184.634C41.7229 193.246 49.4217 207.301 49.4217 207.301C49.4217 207.301 29.8109 201.369 25.4787 179.168C23.9223 168.88 23.3128 158.05 28.7276 151.011C35.2452 142.538 44.2395 142.538 44.2395 142.538C44.2395 142.538 59.1376 131.528 72.0925 152.9C77.9222 162.614 74.6835 170.386 72.0925 174.272C66.2628 161.319 53.9557 160.671 53.9557 160.671Z" fill="url(#paint10_linear)"/>
<path d="M233.827 238.025L164.586 278.087V197.171L233.827 157.066V238.025Z" fill="url(#paint11_linear)"/>
<path d="M95.3015 238.025L164.586 278.087V197.171L95.3015 157.066V238.025Z" fill="url(#paint12_linear)"/>
<path fill-rule="evenodd" clip-rule="evenodd" d="M233.828 157.066L164.587 116.96L95.3024 157.066L164.587 197.172L233.828 157.066ZM95.3015 238.027L164.586 278.088V197.172L95.3015 157.067V238.027ZM164.692 278.223L234.084 238.105V157.031L164.692 197.193V278.223Z" fill="url(#paint13_radial)"/>
<path d="M233.828 157.066L164.587 116.96L95.3025 157.066L164.587 197.172L233.828 157.066Z" fill="url(#paint14_linear)"/>
<path opacity="0.6" d="M233.827 238.186L164.586 198.08L95.3015 238.186L164.586 278.291L233.827 238.186Z" fill="url(#paint15_linear)"/>
<path opacity="0.3" d="M164.693 198.034L95.3015 238.152V157.122L164.693 116.96V198.034Z" fill="url(#paint16_linear)"/>
<path d="M30.5294 224.138C30.5294 224.138 67.2843 224.919 76.9019 225.377C85.6039 221.254 114.458 210.718 121.328 207.511C126.366 204.305 128.198 197.893 133.695 194.229C135.985 192.855 137.816 194.686 135.984 196.518C134.152 198.351 131.404 202.015 131.404 202.015C131.404 202.015 135.984 200.182 141.022 197.892C143.312 196.518 152.014 194.227 153.387 200.181C155.219 205.676 149.264 215.295 135.525 216.212C132.319 216.67 128.655 215.754 126.365 217.129C119.495 221.251 110.792 229.038 101.632 234.534C94.7621 238.657 86.0599 243.695 81.48 244.612C73.6942 245.986 51.7109 246.904 39.8034 245.989C27.438 244.616 30.5294 224.138 30.5294 224.138Z" fill="white"/>
<path d="M54.8654 246.673L60.3614 246.673C60.3614 246.673 64.4838 242.55 64.9425 234.764C65.4012 226.978 64.0275 224.688 64.0275 224.688L58.9895 224.231L54.8654 246.673Z" fill="url(#paint17_linear)"/>
<path d="M59.4472 223.774C59.9043 234.307 58.5296 242.093 54.8653 246.673C38.3775 251.255 24.1805 246.218 15.9372 240.723C9.06794 235.686 9.06866 227.442 10.443 223.32C11.8175 217.366 16.3976 213.702 35.1747 216.906C40.6704 217.822 52.1197 221.027 59.4472 223.774Z" fill="url(#paint18_linear)"/>
<path d="M346.546 251.677C346.546 251.677 330.352 259.449 321.932 263.335C313.511 267.22 291.488 274.992 291.488 274.992C291.488 274.992 261.044 274.344 241.611 273.697C235.782 273.697 231.247 274.344 229.304 273.697C222.827 271.106 218.292 269.163 213.111 265.925C207.929 262.687 209.224 267.868 211.815 269.811C213.111 270.459 216.349 273.697 216.349 273.697C216.349 273.697 211.167 274.992 206.633 274.344C201.451 274.344 196.269 273.697 193.03 274.992C187.849 276.935 189.792 284.706 198.86 287.944C214.406 292.478 220.883 286.649 224.77 286.649C226.713 286.649 242.907 289.24 259.1 291.83C268.817 293.126 277.885 295.068 283.715 295.716C288.249 296.364 295.374 298.307 302.499 296.364C310.272 293.773 325.17 289.24 330.352 287.297C342.012 284.059 349.785 280.173 349.785 280.173L346.546 251.677Z" fill="white"/>
<path d="M360.795 255.563C360.795 255.563 361.443 245.848 347.193 248.439C340.068 249.734 335.533 251.677 326.465 256.858C316.749 262.039 304.442 267.868 304.442 267.868C304.442 267.868 307.033 284.058 314.806 294.42C321.283 294.42 343.306 288.592 349.784 282.763C361.443 272.401 360.795 255.563 360.795 255.563Z" fill="url(#paint19_linear)"/>
<path d="M312.752 562.452C319.23 556.624 323.764 551.443 323.764 551.443L352.265 550.147V559.862C352.265 559.862 351.617 563.748 347.083 566.338C342.549 568.929 334.128 574.11 328.946 575.405C322.468 577.995 310.161 580.586 304.979 580.586C299.15 580.586 296.559 577.995 299.797 574.757C304.979 569.576 306.923 567.633 312.752 562.452Z" fill="url(#paint20_linear)"/>
<path d="M378.934 567.511L404.844 564.92C404.844 564.92 408.73 581.111 402.253 598.597C396.423 615.436 385.411 615.436 381.525 614.14C377.639 612.845 376.343 601.835 376.991 589.53C377.639 577.225 378.934 567.511 378.934 567.511Z" fill="url(#paint21_linear)"/>
<path d="M405.059 562.602C405.059 562.602 400.727 507.912 391.239 466.482C389.944 439.281 400.308 407.548 393.83 380.347C386.058 346.67 373.75 347.318 373.75 347.318C374.398 341.489 362.091 342.785 349.136 345.375C349.136 352.499 349.136 358.975 349.136 366.099C347.193 359.623 345.897 352.499 345.25 342.785C333.59 346.023 322.579 350.556 322.579 350.556C322.579 350.556 314.806 406.252 312.862 439.929C310.271 478.139 318.692 553.264 318.692 553.264C318.692 553.264 319.988 561.683 334.238 560.388C345.25 559.74 353.023 550.026 353.023 550.026L347.193 463.244L352.848 435.058C354.143 448.658 355.614 471.663 358.852 482.673C367.273 514.406 376.902 568.017 376.902 568.017C376.902 568.017 380.151 575.597 393.83 571.265C405.059 568.017 405.059 562.602 405.059 562.602Z" fill="url(#paint22_linear)"/>
<path d="M345.719 343.438C346.367 353.152 334.292 361.994 329.653 373.011C329.653 373.011 328.165 390.408 334.708 406.644C341.251 422.881 352.268 435.638 352.268 435.638L347.662 463.897L353.492 550.679C353.492 550.679 345.719 560.394 334.708 561.041C320.457 562.337 319.162 553.918 319.162 553.918C319.162 553.918 310.741 478.793 313.332 440.582C315.275 406.906 323.048 351.21 323.048 351.21C323.048 351.21 334.06 346.676 345.719 343.438Z" fill="url(#paint23_linear)"/>
<path d="M340.716 251.468C346.037 249.624 352.535 249.624 352.535 249.624L369.321 254.706C369.321 254.706 379.958 257.438 387.731 262.619C393.561 266.505 400.309 269.602 402.252 278.021C402.9 283.85 394.479 302.631 394.479 303.926C387.354 325.298 391.24 353.146 393.183 374.518C367.274 393.299 335.534 383.585 319.988 371.927C325.17 329.831 307.681 281.259 340.716 251.468Z" fill="url(#paint24_linear)"/>
<path d="M351.885 248.276L373.909 232.733L374.991 255.743C374.991 255.743 376.616 261.158 371.201 265.49C366.869 269.822 352.791 278.486 349.294 274.181C346.562 270.817 349.294 263.172 349.294 263.172L351.885 248.276Z" fill="url(#paint25_linear)"/>
<path d="M375.854 204.239C380.389 210.067 382.332 225.61 375.854 236.62C370.025 246.334 356.422 251.516 350.592 252.811C340.228 254.754 328.569 224.963 340.876 206.829C351.888 189.343 370.025 195.819 375.854 204.239Z" fill="white"/>
<path d="M365.489 190.638C371.319 191.933 376.501 195.171 379.74 199.705C390.751 202.295 389.456 217.838 386.865 223.667C381.683 235.324 375.853 235.972 375.853 235.972C375.853 235.972 377.149 229.496 375.853 226.905C374.558 224.315 370.671 224.315 370.024 228.2C368.728 228.848 366.785 228.2 366.785 228.2L368.08 219.781C368.08 219.781 361.603 223.019 354.478 219.134C348 215.248 341.523 217.838 338.932 219.781C337.636 216.543 337.636 213.953 337.636 211.362C333.102 208.124 329.216 205.533 329.863 203.591C333.102 204.238 336.989 204.886 340.227 202.943C337.636 201 336.341 199.057 334.398 196.467C342.171 198.409 358.364 189.99 365.489 190.638Z" fill="url(#paint26_linear)"/>
<path d="M164.613 358.36L233.616 398.488V317.395L164.613 277.267V358.36Z" fill="url(#paint27_linear)"/>
<path d="M302.619 358.36L233.616 398.488V317.395L302.619 277.267V358.36Z" fill="url(#paint28_linear)"/>
<path d="M164.611 277.288L233.593 237.17L302.618 277.288L233.593 317.363L164.611 277.288Z" fill="url(#paint29_linear)"/>
<path opacity="0.3" d="M165.545 357.948L233.594 318.296L301.686 357.948L233.594 397.556L165.545 357.948Z" fill="url(#paint30_linear)"/>
<path opacity="0.2" d="M233.615 317.64L302.618 357.459V276.989L233.615 237.17V317.64Z" fill="url(#paint31_linear)"/>
<path d="M375.693 282.556C375.693 282.556 350.431 309.757 342.658 318.824C331.647 323.357 297.964 338.253 289.543 341.491C282.418 343.434 275.293 339.548 267.52 340.195C264.281 340.843 264.281 344.081 267.52 344.081C270.759 344.081 275.941 345.376 275.941 345.376C275.941 345.376 270.759 347.967 263.633 349.91C260.395 350.557 251.326 356.386 254.565 362.215C257.804 368.043 271.406 371.929 284.361 360.92C286.952 358.329 290.191 355.091 292.782 353.796C301.85 351.205 316.101 351.205 328.408 347.967C337.476 345.376 349.783 342.138 353.67 338.9C362.091 333.071 378.932 318.824 388 307.814C399.66 296.804 375.693 282.556 375.693 282.556Z" fill="white"/>
<path d="M398.365 269.604C405.49 276.728 405.49 285.795 400.956 296.157C397.717 303.929 388.001 316.234 377.637 325.301C365.33 320.12 358.205 314.939 354.318 303.929C357.557 300.043 366.625 286.443 371.807 279.967C379.58 271.547 388.649 260.538 398.365 269.604Z" fill="url(#paint32_linear)"/>
<g opacity="0.7">
<path opacity="0.5" d="M304.213 160.189H288.206V13.4587H304.213V160.189Z" fill="url(#paint33_linear)"/>
<path fill-rule="evenodd" clip-rule="evenodd" d="M304.213 4.6185V14.0564L296.209 18.7107L288.206 14.0564V4.65066L288.208 4.65195L296.207 8.14153e-05L296.209 0.00160415V0L304.213 4.6185Z" fill="#05FFF3"/>
</g>
<path opacity="0.3" d="M287.767 284.36H233.921V111.562H287.767V284.36Z" fill="url(#paint34_linear)"/>
<path d="M233.921 111.55L260.844 127.207V95.5666L233.921 79.9099V111.55Z" fill="url(#paint35_linear)"/>
<path d="M287.767 111.55L260.844 127.207V95.5666L287.767 79.9099V111.55Z" fill="url(#paint36_linear)"/>
<path d="M233.921 79.9181L260.836 64.2651L287.767 79.9181L260.836 95.5539L233.921 79.9181Z" fill="url(#paint37_linear)"/>
<path opacity="0.3" d="M234.285 111.389L260.836 95.9177L287.403 111.389L260.836 126.843L234.285 111.389Z" fill="url(#paint38_linear)"/>
<path opacity="0.2" d="M260.844 95.662L287.767 111.198V79.8014L260.844 64.2651V95.662Z" fill="url(#paint39_linear)"/>
<defs>
<filter id="filter0_f" x="21.7475" y="119.842" width="416.594" height="416.594" filterUnits="userSpaceOnUse" color-interpolation-filters="sRGB">
<feFlood flood-opacity="0" result="BackgroundImageFix"/>
<feBlend mode="normal" in="SourceGraphic" in2="BackgroundImageFix" result="shape"/>
<feGaussianBlur stdDeviation="50" result="effect1_foregroundBlur"/>
</filter>
<linearGradient id="paint0_linear" x1="57.1962" y1="515.633" x2="102.799" y2="515.633" gradientUnits="userSpaceOnUse">
<stop stop-color="#00BEBD"/>
<stop offset="1" stop-color="#008B9A"/>
</linearGradient>
<linearGradient id="paint1_linear" x1="7.84904" y1="528.576" x2="36.6689" y2="528.576" gradientUnits="userSpaceOnUse">
<stop stop-color="#00BEBD"/>
<stop offset="1" stop-color="#008B9A"/>
</linearGradient>
<linearGradient id="paint2_linear" x1="91.5399" y1="403.934" x2="-11.4524" y2="403.934" gradientUnits="userSpaceOnUse">
<stop stop-color="#00BEBD"/>
<stop offset="1" stop-color="#008B9A"/>
</linearGradient>
<linearGradient id="paint3_linear" x1="40.1324" y1="237.557" x2="85.3415" y2="204.406" gradientUnits="userSpaceOnUse">
<stop offset="0.00518135" stop-color="#1A646F"/>
<stop offset="1" stop-color="#1A3437"/>
</linearGradient>
<linearGradient id="paint4_linear" x1="82.4697" y1="220.177" x2="94.5339" y2="211.331" gradientUnits="userSpaceOnUse">
<stop stop-color="#00BEBD"/>
<stop offset="1" stop-color="#008B9A"/>
</linearGradient>
<linearGradient id="paint5_linear" x1="-7.59498" y1="251.298" x2="83.0475" y2="251.298" gradientUnits="userSpaceOnUse">
<stop offset="0.00518135" stop-color="#1A646F"/>
<stop offset="1" stop-color="#1A3437"/>
</linearGradient>
<linearGradient id="paint6_linear" x1="20.3785" y1="214.746" x2="59.1265" y2="214.746" gradientUnits="userSpaceOnUse">
<stop offset="0.00518135" stop-color="#1A646F"/>
<stop offset="1" stop-color="#1A3437"/>
</linearGradient>
<linearGradient id="paint7_linear" x1="48.8269" y1="213.451" x2="72.7353" y2="213.451" gradientUnits="userSpaceOnUse">
<stop offset="0.00518135" stop-color="#1A646F"/>
<stop offset="1" stop-color="#1A3437"/>
</linearGradient>
<linearGradient id="paint8_linear" x1="76.6777" y1="199.635" x2="51.27" y2="192.413" gradientUnits="userSpaceOnUse">
<stop stop-color="#008B9A"/>
<stop offset="1" stop-color="#00DBD2"/>
</linearGradient>
<linearGradient id="paint9_linear" x1="46.9143" y1="175.862" x2="46.9143" y2="229.969" gradientUnits="userSpaceOnUse">
<stop stop-color="#F2F2F2"/>
<stop offset="1" stop-color="white"/>
</linearGradient>
<linearGradient id="paint10_linear" x1="75.1404" y1="201.16" x2="25.346" y2="180.947" gradientUnits="userSpaceOnUse">
<stop stop-color="#008B9A"/>
<stop offset="1" stop-color="#00DBD2"/>
</linearGradient>
<linearGradient id="paint11_linear" x1="234.085" y1="157.031" x2="159.665" y2="275.052" gradientUnits="userSpaceOnUse">
<stop stop-color="#A6D7E8"/>
<stop offset="1" stop-color="#F2FFF7"/>
</linearGradient>
<linearGradient id="paint12_linear" x1="164.693" y1="237.663" x2="102.995" y2="263.9" gradientUnits="userSpaceOnUse">
<stop stop-color="#A6D7E8"/>
<stop offset="1" stop-color="#F2FFF7"/>
</linearGradient>
<radialGradient id="paint13_radial" cx="0" cy="0" r="1" gradientUnits="userSpaceOnUse" gradientTransform="translate(164.693 197.103) rotate(-90) scale(80.1425 74.8666)">
<stop stop-color="#A6D7E8" stop-opacity="0"/>
<stop offset="1" stop-color="white" stop-opacity="0.13"/>
</radialGradient>
<linearGradient id="paint14_linear" x1="164.694" y1="116.96" x2="164.694" y2="197.103" gradientUnits="userSpaceOnUse">
<stop stop-color="#CCE9F5"/>
<stop offset="0.860723" stop-color="white"/>
</linearGradient>
<linearGradient id="paint15_linear" x1="164.693" y1="198.08" x2="164.693" y2="278.223" gradientUnits="userSpaceOnUse">
<stop stop-color="white" stop-opacity="0"/>
<stop offset="1" stop-color="white"/>
</linearGradient>
<linearGradient id="paint16_linear" x1="164.952" y1="116.926" x2="161.142" y2="203.904" gradientUnits="userSpaceOnUse">
<stop stop-color="#A6D7E8"/>
<stop offset="1" stop-color="#F2FFF7" stop-opacity="0"/>
</linearGradient>
<linearGradient id="paint17_linear" x1="51.665" y1="243.473" x2="68.014" y2="227.124" gradientUnits="userSpaceOnUse">
<stop stop-color="#00BEBD"/>
<stop offset="1" stop-color="#008B9A"/>
</linearGradient>
<linearGradient id="paint18_linear" x1="12.4527" y1="254.085" x2="51.0935" y2="215.444" gradientUnits="userSpaceOnUse">
<stop offset="0.00518135" stop-color="#1A646F"/>
<stop offset="1" stop-color="#1A3437"/>
</linearGradient>
<linearGradient id="paint19_linear" x1="289.047" y1="271.207" x2="360.78" y2="271.207" gradientUnits="userSpaceOnUse">
<stop offset="0.00518135" stop-color="#1A646F"/>
<stop offset="1" stop-color="#1A3437"/>
</linearGradient>
<linearGradient id="paint20_linear" x1="283.669" y1="565.365" x2="352.244" y2="565.365" gradientUnits="userSpaceOnUse">
<stop offset="0.00518135" stop-color="#1A646F"/>
<stop offset="1" stop-color="#1A3437"/>
</linearGradient>
<linearGradient id="paint21_linear" x1="368.864" y1="589.778" x2="405.989" y2="589.778" gradientUnits="userSpaceOnUse">
<stop offset="0.00518135" stop-color="#1A646F"/>
<stop offset="1" stop-color="#1A3437"/>
</linearGradient>
<linearGradient id="paint22_linear" x1="312.367" y1="458.31" x2="419.869" y2="458.31" gradientUnits="userSpaceOnUse">
<stop stop-color="#00BEBD"/>
<stop offset="1" stop-color="#008B9A"/>
</linearGradient>
<linearGradient id="paint23_linear" x1="369.084" y1="469.27" x2="312.837" y2="462.312" gradientUnits="userSpaceOnUse">
<stop stop-color="#007481"/>
<stop offset="0.62601" stop-color="#008B9A" stop-opacity="0"/>
</linearGradient>
<linearGradient id="paint24_linear" x1="297.357" y1="318.265" x2="402.255" y2="318.265" gradientUnits="userSpaceOnUse">
<stop offset="0.00518135" stop-color="#1A646F"/>
<stop offset="1" stop-color="#1A3437"/>
</linearGradient>
<linearGradient id="paint25_linear" x1="363.293" y1="232.733" x2="363.293" y2="274.181" gradientUnits="userSpaceOnUse">
<stop stop-color="#F2F2F2"/>
<stop offset="1" stop-color="white"/>
</linearGradient>
<linearGradient id="paint26_linear" x1="388.415" y1="219.424" x2="354.978" y2="188.038" gradientUnits="userSpaceOnUse">
<stop stop-color="#008B9A"/>
<stop offset="1" stop-color="#00DBD2"/>
</linearGradient>
<linearGradient id="paint27_linear" x1="225.419" y1="337.869" x2="151.356" y2="337.869" gradientUnits="userSpaceOnUse">
<stop stop-color="#00DED3"/>
<stop offset="1" stop-color="#008B9A"/>
</linearGradient>
<linearGradient id="paint28_linear" x1="302.215" y1="358.88" x2="119.957" y2="233.563" gradientUnits="userSpaceOnUse">
<stop stop-color="#00EADC"/>
<stop offset="0.393961" stop-color="#008B9A"/>
</linearGradient>
<linearGradient id="paint29_linear" x1="233.653" y1="317.676" x2="233.653" y2="165.983" gradientUnits="userSpaceOnUse">
<stop stop-color="#EFF0F2"/>
<stop offset="0.4469" stop-color="#00DDD2"/>
<stop offset="1" stop-color="#008B9A"/>
</linearGradient>
<linearGradient id="paint30_linear" x1="234.422" y1="317.27" x2="233.39" y2="397.241" gradientUnits="userSpaceOnUse">
<stop stop-color="#E7FFFE" stop-opacity="0"/>
<stop offset="1" stop-color="#008B9A"/>
</linearGradient>
<linearGradient id="paint31_linear" x1="250.429" y1="308.805" x2="253.513" y2="245.93" gradientUnits="userSpaceOnUse">
<stop stop-color="#00DED3" stop-opacity="0"/>
<stop offset="1" stop-color="#008B9A"/>
</linearGradient>
<linearGradient id="paint32_linear" x1="340.724" y1="295.749" x2="404.068" y2="295.749" gradientUnits="userSpaceOnUse">
<stop offset="0.00518135" stop-color="#1A646F"/>
<stop offset="1" stop-color="#1A3437"/>
</linearGradient>
<linearGradient id="paint33_linear" x1="296.246" y1="160.189" x2="291.866" y2="18.1225" gradientUnits="userSpaceOnUse">
<stop stop-color="#00ABA1" stop-opacity="0"/>
<stop offset="1" stop-color="#00D6CF"/>
</linearGradient>
<linearGradient id="paint34_linear" x1="260.969" y1="284.36" x2="259.161" y2="116.915" gradientUnits="userSpaceOnUse">
<stop stop-color="#00FFF0" stop-opacity="0"/>
<stop offset="1" stop-color="#00FFF8"/>
</linearGradient>
<linearGradient id="paint35_linear" x1="257.646" y1="103.555" x2="228.749" y2="103.555" gradientUnits="userSpaceOnUse">
<stop stop-color="#00DED3"/>
<stop offset="1" stop-color="#008B9A"/>
</linearGradient>
<linearGradient id="paint36_linear" x1="287.61" y1="111.753" x2="216.498" y2="62.858" gradientUnits="userSpaceOnUse">
<stop stop-color="#00EADC"/>
<stop offset="0.393961" stop-color="#008B9A"/>
</linearGradient>
<linearGradient id="paint37_linear" x1="260.859" y1="95.6761" x2="260.859" y2="36.4902" gradientUnits="userSpaceOnUse">
<stop stop-color="#EFF0F2"/>
<stop offset="0.4469" stop-color="#00DDD2"/>
<stop offset="1" stop-color="#008B9A"/>
</linearGradient>
<linearGradient id="paint38_linear" x1="261.159" y1="95.5177" x2="260.757" y2="126.72" gradientUnits="userSpaceOnUse">
<stop stop-color="#E7FFFE" stop-opacity="0"/>
<stop offset="1" stop-color="#008B9A"/>
</linearGradient>
<linearGradient id="paint39_linear" x1="267.405" y1="92.2151" x2="268.608" y2="67.6832" gradientUnits="userSpaceOnUse">
<stop stop-color="#00DED3" stop-opacity="0"/>
<stop offset="1" stop-color="#008B9A"/>
</linearGradient>
</defs>
</svg>
