<svg width="240" height="80" viewBox="0 0 240 80" fill="none" xmlns="http://www.w3.org/2000/svg">
<g clip-path="url(#clip0)">
<path d="M0 19.0128V60.9888L36.688 40L0 19.0128Z" fill="#FF1635"/>
<path d="M54.848 38.7248C55.5056 38.0288 56.2176 37.2688 56.9824 36.448L59.7392 33.5024C60.6848 32.4928 61.6112 31.4912 62.5216 30.4944C63.4256 29.5024 64.2752 28.5904 65.0496 27.7712C65.1572 27.6704 65.237 27.5434 65.281 27.4027C65.325 27.2619 65.3318 27.1122 65.3008 26.968C65.2368 26.6432 64.944 26.3168 64.4448 26.3168H62.8112C62.6549 26.3169 62.5008 26.3532 62.3608 26.4228C62.2209 26.4925 62.0991 26.5937 62.0048 26.7184C61.2752 27.4864 60.4928 28.3296 59.6576 29.2432L54.6096 34.7456C53.8016 35.6304 53.0624 36.4288 52.4048 37.1296C52.2848 37.248 52.2192 37.2928 52.2208 37.296C52.0996 37.3148 51.977 37.3223 51.8544 37.3184H50.8944V27.2352C50.8944 26.7024 50.52 26.3168 50.0032 26.3168H48.624C48.5064 26.3121 48.3891 26.3317 48.2794 26.3744C48.1697 26.417 48.0699 26.4817 47.9863 26.5646C47.9027 26.6474 47.8371 26.7466 47.7935 26.8559C47.7499 26.9652 47.7292 27.0824 47.7328 27.2V50.6784C47.7328 51.232 48.1232 51.6336 48.6608 51.6336H50.0048C50.52 51.6336 50.8944 51.2464 50.8944 50.7136V40.3072H51.7808C51.944 40.3072 52.0336 40.32 52.0528 40.3104C52.0832 40.3344 52.1472 40.3856 52.2528 40.488L62.68 51.1744C62.864 51.416 63.072 51.5568 63.3008 51.6016C63.408 51.6224 63.52 51.6336 63.6464 51.6336H65.4592C65.6507 51.6398 65.8382 51.5782 65.9887 51.4597C66.1391 51.3411 66.2429 51.1732 66.2816 50.9856C66.3129 50.8437 66.3074 50.6962 66.2657 50.557C66.224 50.4179 66.1474 50.2917 66.0432 50.1904L54.848 38.7264" fill="#0055A2"/>
<path d="M81.8753 28.584C81.0593 27.8528 80.0353 27.272 78.8385 26.8592C77.6545 26.4512 76.2801 26.2448 74.7585 26.2448C73.0166 26.2451 71.2749 26.2809 69.5345 26.352C69.0161 26.352 68.6433 26.7392 68.6433 27.2704V50.752C68.6433 51.264 69.0161 51.6352 69.5345 51.6352H70.9137C71.0312 51.6397 71.1483 51.6199 71.2578 51.5772C71.3673 51.5344 71.4669 51.4696 71.5503 51.3868C71.6338 51.304 71.6993 51.2049 71.7428 51.0957C71.7863 50.9865 71.8069 50.8695 71.8033 50.752V42.84C71.9409 42.8448 72.0849 42.8528 72.2353 42.8608C72.6913 42.8864 73.3857 42.8976 74.3233 42.8976C75.6033 42.9033 76.8779 42.731 78.1105 42.3856C79.2717 42.0674 80.3623 41.5327 81.3249 40.8096C82.2574 40.0932 83.0147 39.174 83.5393 38.1216C84.0833 37.0448 84.3585 35.7776 84.3585 34.3552C84.3585 33.2352 84.1505 32.1712 83.7409 31.1936C83.323 30.1951 82.6853 29.3037 81.8753 28.5856V28.584ZM81.1985 34.4288C81.1985 35.4336 81.0177 36.2864 80.6609 36.9616C80.319 37.6234 79.8209 38.1918 79.2097 38.6176C78.5857 39.0544 77.8577 39.376 77.0433 39.5696C76.1937 39.7712 75.2785 39.8736 74.3233 39.8736C73.4832 39.8752 72.6431 39.8646 71.8033 39.8416V29.2688C72.0385 29.256 72.2993 29.2448 72.5905 29.2336C73.8673 29.1856 75.8193 29.1056 77.3553 29.5472C78.1313 29.7728 78.8161 30.1072 79.3857 30.5424C79.9393 30.968 80.3841 31.5104 80.7105 32.1536C81.0353 32.7952 81.1985 33.5616 81.1985 34.4288Z" fill="#0055A2"/>
<path d="M105.534 26.3168H104.046C103.659 26.3168 103.326 26.5168 103.203 26.7712L93.6209 40.9392C93.1361 41.6608 92.6513 42.3872 92.1697 43.12C91.6833 43.8528 91.2225 44.5552 90.7857 45.2288L90.1937 46.1536C90.2001 45.6848 90.2049 45.1936 90.2049 44.6752V27.2C90.2085 27.0824 90.1878 26.9652 90.1442 26.8559C90.1006 26.7466 90.035 26.6474 89.9514 26.5646C89.8678 26.4817 89.768 26.417 89.6583 26.3744C89.5486 26.3317 89.4313 26.3121 89.3137 26.3168H87.9361C87.821 26.3159 87.707 26.3383 87.6008 26.3826C87.4946 26.427 87.3986 26.4925 87.3184 26.575C87.2382 26.6576 87.1757 26.7555 87.1344 26.8629C87.0932 26.9704 87.0742 27.085 87.0785 27.2V50.7136C87.0785 51.2448 87.4545 51.6336 87.9697 51.6336H89.5681C89.8881 51.6336 90.1793 51.4832 90.4113 51.1792L99.8513 37.2912L102.715 32.9424C102.926 32.624 103.125 32.3168 103.312 32.0192C103.278 33.4387 103.262 34.8585 103.264 36.2784V50.7488C103.264 51.2608 103.637 51.632 104.155 51.632H105.533C105.648 51.633 105.762 51.6106 105.868 51.5662C105.974 51.5218 106.07 51.4563 106.15 51.3737C106.23 51.2911 106.292 51.1932 106.334 51.0858C106.375 50.9784 106.393 50.8637 106.389 50.7488V27.2C106.389 26.6992 106.021 26.32 105.533 26.32" fill="#0055A2"/>
<path d="M128.341 26.3168H111.357C111.239 26.3124 111.122 26.3321 111.013 26.3749C110.903 26.4176 110.804 26.4824 110.721 26.5653C110.637 26.6481 110.572 26.7472 110.529 26.8564C110.485 26.9656 110.465 27.0826 110.469 27.2V50.7136C110.469 51.2448 110.842 51.6336 111.357 51.6336H112.738C113.254 51.6336 113.63 51.2464 113.63 50.7136V29.3376H126.07V50.7488C126.07 51.2608 126.443 51.632 126.962 51.632H128.341C128.458 51.6364 128.575 51.6167 128.685 51.574C128.794 51.5312 128.894 51.4664 128.977 51.3836C129.061 51.3008 129.126 51.2017 129.17 51.0925C129.213 50.9833 129.234 50.8663 129.23 50.7488V27.2352C129.23 26.704 128.858 26.3168 128.341 26.3168ZM150.522 29.296L150.734 29.0496C150.819 28.95 150.879 28.8327 150.912 28.7063C150.945 28.58 150.948 28.448 150.923 28.32L150.731 27.0592C150.693 26.8467 150.58 26.6549 150.413 26.5187C150.246 26.3824 150.035 26.3108 149.819 26.3168H132.331C131.941 26.3168 131.605 26.5584 131.424 27.0384L131.123 28.3104C131.096 28.4396 131.099 28.5733 131.131 28.7014C131.163 28.8294 131.224 28.9485 131.309 29.0496L131.64 29.3408H139.459V50.7136C139.459 51.2448 139.85 51.6336 140.387 51.6336H141.693C142.23 51.6336 142.621 51.2464 142.621 50.7136V29.3408H150.074L150.522 29.296ZM171.811 33.8112C171.288 32.2432 170.523 30.8704 169.534 29.7264C168.542 28.5769 167.32 27.6477 165.947 26.9984C163.28 25.7232 159.634 25.6384 156.736 26.8976C155.359 27.4958 154.126 28.3824 153.12 29.4976C152.106 30.616 151.302 31.9888 150.73 33.5792C150.16 35.16 149.87 36.9552 149.87 38.92C149.87 40.7568 150.126 42.4848 150.63 44.0592C151.102 45.579 151.867 46.9914 152.883 48.216C153.879 49.3947 155.12 50.3416 156.52 50.9904C157.939 51.6576 159.568 51.992 161.357 51.992C162.92 51.992 164.41 51.704 165.789 51.128C167.171 50.5538 168.405 49.6743 169.398 48.5552C170.402 47.4368 171.19 46.0432 171.754 44.416C172.307 42.8 172.59 40.928 172.59 38.848C172.603 37.1381 172.34 35.4374 171.811 33.8112ZM169.392 38.8832C169.392 40.4192 169.206 41.8352 168.84 43.0944C168.48 44.3328 167.947 45.4 167.258 46.272C166.588 47.1217 165.731 47.8037 164.752 48.264C163.765 48.7312 162.624 48.968 161.357 48.968C160.005 48.968 158.802 48.6976 157.787 48.168C156.779 47.6495 155.899 46.9133 155.211 46.0128C154.489 45.0493 153.949 43.9614 153.619 42.8032C153.248 41.5304 153.062 40.2107 153.067 38.8848C153.067 37.2256 153.291 35.7584 153.736 34.5184C154.174 33.2928 154.768 32.2576 155.501 31.4432C156.227 30.6384 157.085 30.0192 158.046 29.608C159.037 29.1885 160.102 28.9756 161.178 28.9824C162.39 28.9824 163.512 29.2304 164.509 29.7184C165.505 30.2053 166.383 30.9024 167.083 31.7616C167.833 32.6973 168.407 33.7615 168.776 34.9024C169.184 36.1184 169.392 37.456 169.392 38.8848" fill="#0055A2"/>
<path d="M193.861 26.3168H176.88C176.762 26.3121 176.645 26.3317 176.535 26.3744C176.426 26.417 176.326 26.4817 176.242 26.5646C176.159 26.6474 176.093 26.7466 176.049 26.8559C176.006 26.9652 175.985 27.0824 175.989 27.2V50.7136C175.989 51.2448 176.363 51.6336 176.88 51.6336H178.259C178.776 51.6336 179.15 51.2464 179.15 50.7136V29.3376H191.592V50.7488C191.592 51.2608 191.966 51.632 192.483 51.632H193.859C193.977 51.6369 194.094 51.6175 194.204 51.5749C194.314 51.5324 194.414 51.4677 194.498 51.3848C194.582 51.302 194.647 51.2027 194.691 51.0933C194.735 50.9838 194.756 50.8666 194.752 50.7488V27.2352C194.752 26.704 194.377 26.3168 193.861 26.3168ZM212.987 28.584C212.173 27.8528 211.15 27.272 209.95 26.8592C208.766 26.4512 207.393 26.2448 205.873 26.2448C204.753 26.2448 203.713 26.2576 202.753 26.2816C201.789 26.3056 201.073 26.3296 200.648 26.352C200.129 26.352 199.755 26.7392 199.755 27.2704V50.752C199.755 51.264 200.129 51.6352 200.648 51.6352H202.025C202.143 51.6399 202.26 51.6203 202.37 51.5776C202.48 51.535 202.579 51.4702 202.663 51.3873C202.746 51.3045 202.812 51.2053 202.855 51.096C202.898 50.9867 202.919 50.8696 202.915 50.752V42.84C203.053 42.8448 203.197 42.8528 203.347 42.8608C203.803 42.8864 204.499 42.8976 205.438 42.8976C206.718 42.9027 207.992 42.7304 209.224 42.3856C210.386 42.0673 211.477 41.5326 212.44 40.8096C213.372 40.0932 214.128 39.1739 214.651 38.1216C215.195 37.0448 215.47 35.7776 215.47 34.3552C215.47 33.24 215.264 32.1744 214.856 31.192C214.436 30.194 213.798 29.3032 212.987 28.5856V28.584ZM212.31 34.4288C212.31 35.432 212.131 36.2848 211.774 36.9616C211.421 37.6352 210.933 38.1936 210.325 38.6192C209.701 39.0544 208.973 39.376 208.157 39.5696C207.309 39.7712 206.393 39.8736 205.437 39.8736C204.596 39.8752 203.755 39.8645 202.915 39.8416V29.2688C203.15 29.2576 203.411 29.2448 203.704 29.2336C204.979 29.1856 206.936 29.1056 208.465 29.5472C209.246 29.7728 209.929 30.1072 210.499 30.5456C211.054 30.9664 211.498 31.5088 211.822 32.1536C212.146 32.7952 212.31 33.5616 212.31 34.4288ZM239.217 33.8112C238.697 32.2464 237.931 30.872 236.944 29.7264C235.95 28.5769 234.727 27.6477 233.353 26.9984C231.958 26.3312 230.366 25.9936 228.621 25.9936C227.082 25.9829 225.558 26.2907 224.144 26.8976C222.767 27.4958 221.533 28.3824 220.528 29.4976C219.512 30.6192 218.707 31.9936 218.139 33.5792C217.568 35.1568 217.281 36.952 217.281 38.92C217.281 40.76 217.536 42.488 218.04 44.0608C218.549 45.6528 219.31 47.0528 220.294 48.216C221.288 49.3946 222.528 50.3415 223.926 50.9904C225.349 51.6576 226.976 51.992 228.766 51.992C230.328 51.992 231.817 51.704 233.198 51.128C234.58 50.553 235.814 49.6735 236.808 48.5552C237.809 47.4352 238.6 46.0432 239.161 44.416C239.718 42.8 239.998 40.928 239.998 38.848C240.011 37.138 239.747 35.4372 239.217 33.8112ZM236.8 38.8832C236.8 40.416 236.614 41.832 236.25 43.0944C235.888 44.3344 235.353 45.4032 234.665 46.272C233.997 47.1208 233.14 47.8028 232.163 48.264C231.174 48.7312 230.032 48.968 228.766 48.968C227.413 48.968 226.211 48.6976 225.198 48.168C224.19 47.649 223.309 46.913 222.619 46.0128C221.898 45.0491 221.359 43.9613 221.03 42.8032C220.657 41.5302 220.471 40.2098 220.477 38.8832C220.477 37.2224 220.701 35.7536 221.144 34.5168C221.581 33.2944 222.174 32.2592 222.909 31.4432C223.614 30.6529 224.483 30.0261 225.456 29.6064C226.445 29.1871 227.51 28.9742 228.584 28.9808C229.8 28.9808 230.92 29.2288 231.917 29.7168C232.913 30.2034 233.791 30.8999 234.493 31.7584C235.211 32.6368 235.779 33.6944 236.182 34.9024C236.593 36.1136 236.8 37.4528 236.8 38.8848" fill="#FF1635"/>
<path d="M80.3199 57.0464L79.9599 57.84C73.5775 68.5152 61.9039 75.1392 49.4399 75.1392C35.6559 75.1392 23.0111 67.0768 17.2271 54.6032L12.8447 56.8592C19.4655 70.9168 33.8303 80 49.4399 80C63.2335 80 75.8607 73.1456 83.3567 61.632L240 61.6288V57.0432L80.3199 57.0464ZM79.1199 20.872H84.8575C81.3627 14.5412 76.2326 9.26473 70.0026 5.59332C63.7726 1.92192 56.6712 -0.00974376 49.4399 6.20966e-06C33.8303 6.20966e-06 19.4655 9.08321 12.8479 23.1424L17.2271 25.3984C23.0095 12.92 35.6543 4.85921 49.4399 4.85921C61.3855 4.85921 72.5935 10.9584 79.1231 20.8704" fill="#0055A2"/>
</g>
<defs>
<clipPath id="clip0">
<rect width="240" height="80" fill="white"/>
</clipPath>
</defs>
</svg>
