<svg width="240" height="71" viewBox="0 0 240 71" fill="none" xmlns="http://www.w3.org/2000/svg">
<path d="M19.3909 62.8148V68.5702H17.383V64.6471H2.0079V68.5702H0V62.8148H1.39876L8.90017 46.3017H10.4569L17.9357 62.8148H19.3909ZM3.59842 62.8148H15.7924L9.67851 49.112L3.59842 62.8148Z" fill="#004584"/>
<path d="M22.3011 64.6471V51.1578H24.309V61.6907L32.7129 51.1129H34.5177V64.6021H32.4534V54.0918L24.0834 64.6471H22.3011Z" fill="#004584"/>
<path d="M37.5971 57.8687C37.5926 56.9376 37.7739 56.0148 38.1304 55.1541C38.4869 54.2933 39.0116 53.5118 39.6739 52.855C40.3362 52.1981 41.1229 51.679 41.9884 51.3278C42.8538 50.9766 43.7806 50.8004 44.715 50.8094C46.3371 50.7799 47.9235 51.2858 49.2271 52.2482L48.3585 53.7545C47.3038 53.0195 46.0471 52.6269 44.7601 52.6304C43.372 52.6304 42.0407 53.1799 41.0591 54.1581C40.0775 55.1362 39.5261 56.4629 39.5261 57.8462C39.5261 59.2295 40.0775 60.5562 41.0591 61.5344C42.0407 62.5125 43.372 63.0621 44.7601 63.0621C46.048 63.0715 47.3065 62.6784 48.3585 61.938L49.2271 63.4442C47.9249 64.4107 46.3384 64.9205 44.715 64.8943C43.7843 64.9003 42.8616 64.7231 41.9997 64.3729C41.1379 64.0228 40.3539 63.5066 39.6926 62.8539C39.0313 62.2012 38.5059 61.4249 38.1463 60.5694C37.7867 59.714 37.6001 58.7962 37.5971 57.8687Z" fill="#004584"/>
<path d="M56.2211 64.6471V52.9452H51.6188V51.1129H62.8314V52.9452H58.229V64.6471H56.2211Z" fill="#004584"/>
<path d="M67.6819 62.6237V70.4924H65.6515V51.1129H66.5539L67.6819 53.0576C68.2253 52.3486 68.9276 51.7761 69.7326 51.3857C70.5376 50.9954 71.423 50.798 72.3182 50.8094C73.2207 50.8251 74.111 51.0205 74.9366 51.3842C75.7622 51.748 76.5065 52.2726 77.1256 52.9272C77.7447 53.5819 78.2261 54.3533 78.5415 55.1962C78.857 56.039 79 56.9362 78.9623 57.835C79.0094 58.7411 78.8726 59.6474 78.56 60.4996C78.2474 61.3518 77.7654 62.1324 77.143 62.7947C76.5206 63.4569 75.7704 63.9872 74.9375 64.3538C74.1046 64.7203 73.206 64.9157 72.2956 64.9281C71.4007 64.9225 70.5191 64.7117 69.7191 64.3121C68.919 63.9125 68.222 63.3348 67.6819 62.6237ZM77.0333 57.835C77.0809 57.1833 76.995 56.5288 76.781 55.9112C76.567 55.2935 76.2292 54.7257 75.7883 54.2421C75.3473 53.7585 74.8123 53.3693 74.2158 53.098C73.6193 52.8268 72.9737 52.6792 72.3182 52.6641C71.6681 52.6929 71.0302 52.8499 70.4414 53.126C69.8526 53.4022 69.3247 53.7921 68.8882 54.273C68.4518 54.754 68.1154 55.3165 67.8987 55.9279C67.6819 56.5393 67.5891 57.1876 67.6255 57.835C67.5575 59.1503 68.0116 60.4396 68.8897 61.424C69.7678 62.4084 70.9993 63.0089 72.3182 63.0958C74.9126 63.0958 77.0108 60.9263 77.0108 57.835H77.0333Z" fill="#004584"/>
<path d="M82.053 64.647V51.1578H84.0609V61.6907L92.4083 51.1578H94.2132V64.647H92.2053V54.0917L83.8353 64.647H82.053Z" fill="#004584"/>
<path d="M98.1387 57.3291V54.9685C98.1387 48.4937 99.6728 46.1556 106.396 44.7392C107.522 44.5193 108.63 44.2188 109.712 43.8399L110.603 45.4137C109.343 45.9489 108.02 46.3265 106.667 46.5378C101.929 47.5045 100.135 49.0895 100.135 54.0468C100.715 53.2003 101.494 52.5086 102.405 52.0323C103.316 51.556 104.33 51.3098 105.358 51.3152C106.253 51.3152 107.138 51.4918 107.964 51.835C108.789 52.1781 109.539 52.681 110.168 53.3144C110.797 53.9479 111.295 54.6994 111.631 55.5255C111.967 56.3516 112.135 57.2359 112.126 58.1273C112.115 59.0394 111.922 59.9403 111.558 60.7776C111.195 61.615 110.669 62.3723 110.01 63.0058C109.351 63.6393 108.573 64.1363 107.72 64.4682C106.868 64.8001 105.957 64.9602 105.042 64.9393C100.891 64.9281 98.1387 61.8256 98.1387 57.3291ZM110.107 58.1385C110.107 57.156 109.815 56.1955 109.269 55.3778C108.722 54.5602 107.945 53.9219 107.035 53.5434C106.125 53.1649 105.123 53.0631 104.156 53.2507C103.188 53.4383 102.297 53.9071 101.596 54.5979C100.895 55.2887 100.415 56.1708 100.216 57.133C100.017 58.0953 100.108 59.0947 100.477 60.0056C100.847 60.9164 101.478 61.698 102.293 62.2518C103.107 62.8057 104.068 63.1072 105.054 63.1183C106.39 63.1184 107.673 62.5931 108.623 61.6566C109.573 60.7201 110.115 59.4478 110.13 58.116L110.107 58.1385Z" fill="#004584"/>
<path d="M118.443 64.1749L112.803 51.1129H115.059L119.571 61.9829L124.174 51.1129H126.43L118.003 70.4924H115.747L118.443 64.1749Z" fill="#004584"/>
<path d="M129.103 64.6471V51.1578H131.111V62.8148H137.778V51.1129H139.785V62.8148H141.737V68.1767H139.729V64.6471H129.103Z" fill="#004584"/>
<path d="M144.873 64.647V51.1578H146.892V61.6907L155.228 51.1578H157.045V64.647H155.037V54.0917L146.644 64.647H144.873Z" fill="#004584"/>
<path d="M163.801 59.42C162.893 59.2224 162.08 58.721 161.497 57.9991C160.914 57.2772 160.597 56.3784 160.598 55.4519C160.598 52.8103 162.493 51.1129 165.392 51.1129H170.637V64.6021H168.629V59.656H165.922L162.188 64.6021H159.842L163.801 59.42ZM168.629 57.9249V52.9452H165.539C163.835 52.9452 162.606 53.8332 162.606 55.4182C162.619 55.7818 162.707 56.1388 162.866 56.4664C163.025 56.794 163.251 57.085 163.529 57.3209C163.807 57.5567 164.131 57.7322 164.481 57.8362C164.831 57.9402 165.199 57.9704 165.561 57.9249H168.629Z" fill="#004584"/>
<path d="M172.397 32.8912H201.489V27.2595H178.06V19.4919H198.996V13.8827H178.06V6.18257H201.489V0.539581H172.397V32.8912Z" fill="#004584"/>
<path d="M123.993 11.1736C123.99 8.3552 122.865 5.65329 120.864 3.66146C118.863 1.66963 116.15 0.55081 113.322 0.550812H90.7614V32.8912H96.4015V21.8076H110.953L117.349 32.8912H123.937L117.169 21.0881C119.177 20.3146 120.904 18.9537 122.122 17.1842C123.34 15.4147 123.992 13.3194 123.993 11.1736ZM113.491 16.1421H96.4579V6.21628H113.491C114.14 6.20468 114.785 6.32619 115.385 6.57328C115.985 6.82036 116.528 7.18774 116.98 7.65261C117.431 8.11747 117.782 8.6699 118.011 9.27559C118.239 9.88128 118.34 10.5273 118.308 11.1736C118.345 11.8215 118.248 12.4702 118.021 13.0788C117.795 13.6873 117.444 14.2425 116.992 14.7093C116.539 15.1761 115.995 15.5444 115.392 15.791C114.79 16.0376 114.142 16.1571 113.491 16.1421Z" fill="#004584"/>
<path d="M215.544 27.2595V0.539581H209.893V32.8912H240V27.2595H215.544Z" fill="#004584"/>
<path d="M19.8759 21.2905L7.91878 0.539581H1.10547V32.8912H6.95995V10.2855L20.0564 32.8912L33.3221 9.98203V32.8912H39.1765V0.539581H31.991L19.8759 21.2905Z" fill="#004584"/>
<path d="M153.254 0.550812H150.096L151.675 3.28238L153.254 6.01394L154.845 8.7455L154.676 9.03777L153.254 11.4883L150.084 16.9514L149.611 17.7833L146.915 22.4258L144.23 17.7833L143.756 16.9514L140.586 11.4883L138.669 8.1947L137.417 6.01394L135.555 2.81025L134.247 0.550812H127.907L129.216 2.81025L131.077 6.01394L132.341 8.1947L134.247 11.4883L137.417 16.9514L138.353 18.5814L140.586 22.4258L143.756 27.8889L146.915 33.3633L150.084 27.8889L153.254 22.4258L155.95 17.7833L156.424 16.9514L159.594 11.4883L161.015 9.03777L162.764 6.01394L165.933 0.550812H159.594H153.254Z" fill="#004584"/>
<path d="M45.8544 32.8912H52.6226L55.5554 27.6978H74.45L77.3828 32.8912H83.9254L64.9068 0L45.8544 32.8912ZM58.5222 22.4033L64.873 11.1623L71.3704 22.4033H58.5222Z" fill="#004584"/>
</svg>
