<svg width="240" height="54" viewBox="0 0 240 54" fill="none" xmlns="http://www.w3.org/2000/svg">
<path d="M90.4685 33.442C86.3137 33.442 82.1182 31.9756 78.0448 30.4684C74.053 29.002 69.9797 27.4949 65.9064 27.4949C63.0143 27.4949 60.3259 28.2281 57.8412 29.8167V36.5784C60.3259 35.112 62.9328 34.3381 65.9064 34.3381C70.0611 34.3381 74.2567 35.8045 78.33 37.3116C82.3218 38.6965 86.3952 40.2851 90.387 40.2851C93.7271 40.2851 96.7007 39.2668 99.552 37.1487V30.4684C96.7414 32.5051 93.8086 33.442 90.4685 33.442Z" fill="#FF5252"/>
<path d="M78.0448 17.2301C74.053 15.7637 69.9797 14.2566 65.9064 14.2566C63.0143 14.2566 60.3259 14.9898 57.8412 16.5784V23.3401C60.3259 21.8737 62.9328 21.0998 65.9064 21.0998C70.0611 21.0998 74.2567 22.5662 78.33 24.0733C82.3218 25.4583 86.3952 27.0468 90.387 27.0468C93.7271 27.0468 96.7007 26.0285 99.552 23.9104V17.2301C96.7821 19.1853 93.7271 20.1222 90.387 20.1222C86.273 20.2037 82.1182 18.6965 78.0448 17.2301Z" fill="#FF5252"/>
<path d="M78.3299 50.6721C82.3218 52.1385 86.3951 53.6456 90.3869 53.6456C93.7271 53.6456 96.7006 52.6273 99.5519 50.5092V43.8289C96.782 45.7841 93.7271 46.721 90.3869 46.721C86.2321 46.721 82.0366 45.2546 77.9633 43.7475C73.9715 42.2811 69.8981 40.7739 65.8248 40.7739C62.9328 40.7739 60.2444 41.5071 57.7596 43.0957V49.8574C60.2444 48.391 62.8513 47.6171 65.8248 47.6171C70.1425 47.6986 74.3381 49.2057 78.3299 50.6721Z" fill="#FF5252"/>
<path d="M197.475 20.3666C194.582 17.7597 190.876 16.4562 185.988 16.4562C181.1 16.4562 177.352 17.7597 174.501 20.3666C170.061 24.4399 169.491 30.1018 169.491 33.9715C169.491 37.8411 170.061 43.4216 174.501 47.5764C177.393 50.1833 181.1 51.4868 185.988 51.4868C190.916 51.4868 194.623 50.1833 197.475 47.5764C201.914 43.5031 202.485 37.8411 202.485 33.9715C202.485 30.1018 201.955 24.4399 197.475 20.3666ZM193.035 36.6599C193.035 38.3299 193.035 41.0998 190.998 43.055C189.776 44.1548 188.024 44.8065 186.273 44.8065C184.521 44.8065 182.77 44.1548 181.548 43.055C179.511 41.0998 179.511 38.3299 179.511 36.6599V30.6314C179.511 28.9613 179.511 26.1914 181.548 24.2363C182.77 23.1365 184.521 22.4847 186.273 22.4847C188.024 22.4847 189.776 23.1365 190.998 24.2363C193.035 26.1914 193.035 28.9613 193.035 30.6314V36.6599ZM153.279 50.3055V24.0733L149.654 17.0265H162.525V50.3055H153.279ZM221.141 23.6253C220.326 24.0733 219.267 24.8473 218.656 25.2953L218.452 25.499V50.3462H209.287V23.666L205.662 17.0672H216.782V20.6925L217.515 19.9593C218.737 18.8595 219.837 18.0041 221.222 17.4745C223.096 16.6599 224.725 16.2525 227.169 16.2525C231.324 16.2525 234.379 17.2709 236.619 19.389C240.041 22.6477 240.041 26.8024 240.041 29.2872V50.4277H230.876V28.391C230.876 26.9247 230.876 25.2546 229.409 23.8697C228.391 22.9328 226.925 22.4033 225.255 22.4033C223.544 22.4033 222.159 23.055 221.141 23.6253ZM37.9226 22.4033C35.6823 22.4033 33.8493 23.7067 32.4644 24.888L32.2607 24.9694V50.3055H23.0957V27.4949C23.0957 26.7617 23.0957 25.0102 21.7923 23.5845C20.9776 22.7699 19.8371 22.2811 18.3707 22.2811C16.1303 22.2811 14.2974 23.5845 12.9124 24.7658L12.7088 24.8473V50.1426H3.62525V23.5438L0 16.8635H11.1202V20.3666L12.5866 19.1446C15.0713 17.1079 18.0448 16.0896 21.5886 16.0896C25.1324 16.0896 27.6986 17.1894 29.7352 19.7149L30.1018 20.1629L30.4684 19.7149C32.5051 17.3116 35.2749 16.0896 38.9002 16.0896C44.725 16.0896 51.7719 18.2077 51.7719 28.5947V50.2648H42.6069V27.4949C42.6069 26.6802 42.6069 24.888 41.3035 23.5845C40.4888 22.7699 39.3075 22.4033 37.9226 22.4033ZM131.405 22.6884L124.44 25.9471C123.707 24.4807 122.118 23.5438 120.367 23.5438C118.778 23.5438 117.312 24.1955 116.578 25.2138C115.642 26.3136 115.193 28.1874 115.193 30.6721V50.3055H106.029V16.945H113.727V22.1181L115.316 19.8778C115.967 18.9409 118.371 16.0896 123.299 16.0896C124.236 16.0896 127.21 16.0896 129.124 17.556C129.857 18.3299 131.324 20 131.405 22.6884ZM162.566 7.00612C162.566 10.0611 160.163 12.4644 157.108 12.4644C154.053 12.4644 151.65 10.0611 151.65 7.00612C151.65 3.95113 154.053 1.54786 157.108 1.54786C160.041 1.54786 162.566 3.95113 162.566 7.00612ZM143.544 0V50.3055H134.379V0H143.544Z" fill="#202020"/>
</svg>
