<svg width="178" height="193" viewBox="0 0 178 193" fill="none" xmlns="http://www.w3.org/2000/svg">
<path d="M175.777 106.432C177.111 105.246 177.852 103.615 178 101.688C178.148 97.8341 175.332 94.7212 171.479 94.4247C169.7 94.2765 167.922 95.0177 166.588 96.0553L42.388 164.094C39.572 165.28 37.0524 167.356 35.4221 170.172C31.124 177.287 33.4954 186.478 40.7577 190.777C45.7968 193.741 51.8734 193.445 56.6161 190.48C56.9125 190.184 57.3572 190.035 57.6536 189.739L173.257 108.507C173.85 108.062 175.48 106.876 175.777 106.432Z" fill="url(#paint0_linear)"/>
<path d="M176.073 96.5L81.5154 3.70584C79.4405 1.48233 76.4763 0 73.0674 0C66.6944 0 61.6553 5.18817 61.6553 11.414C61.6553 14.5269 62.841 17.1951 64.7677 19.2704C65.3605 19.8633 65.9534 20.308 66.5462 20.7527L166.44 106.283C167.625 107.321 169.107 108.062 170.886 108.21C174.739 108.359 177.852 105.542 178.148 101.688C178.148 99.7611 177.407 97.8341 176.073 96.5Z" fill="url(#paint1_linear)"/>
<path d="M84.6277 88.1989C84.4795 88.1989 26.233 42.2465 25.0473 41.5054C24.1581 41.0607 23.2688 40.616 22.3796 40.1713C13.7834 36.9101 4.29797 41.3571 1.03736 49.9547C-1.77863 57.5146 1.33378 65.8157 7.85501 69.818C8.89248 70.4109 9.78174 70.8556 10.8192 71.1521C11.412 71.4485 78.1065 99.02 78.1065 99.02C80.7742 100.206 83.8866 99.4647 85.6652 97.2412C87.8883 94.4247 87.4437 90.4224 84.6277 88.1989Z" fill="url(#paint2_linear)"/>
<path d="M73.0671 0C70.5475 0 68.1761 0.889401 66.2494 2.2235L7.2619 41.9501C7.11369 42.0983 6.96548 42.0983 6.96548 42.2465H6.81727C4.29771 44.0253 2.22277 46.6936 1.03709 49.8065C-2.22352 58.404 2.22277 68.0392 10.8189 71.1521C16.1545 73.2273 21.9347 72.1897 26.2328 69.0768C27.2702 68.3356 28.1595 67.5945 28.9005 66.7051L80.1811 20.4562C82.8489 18.381 84.6274 15.1198 84.6274 11.414C84.6274 5.18817 79.4401 0 73.0671 0Z" fill="url(#paint3_linear)"/>
<path d="M126.868 55.4393H51.2805V131.038H126.868V55.4393Z" fill="black"/>
<path d="M86.1098 116.808H57.8018V121.551H86.1098V116.808Z" fill="white"/>
<path d="M57.5054 75.3026L59.7285 73.2273C60.3214 73.9685 60.9142 74.4132 61.6552 74.4132C62.5445 74.4132 62.9891 73.8203 62.9891 72.6344V64.778H66.398V72.6344C66.398 74.1167 65.9533 75.3026 65.2123 76.0438C64.4712 76.7849 63.2856 77.2296 61.8035 77.2296C59.5803 77.3779 58.3946 76.4885 57.5054 75.3026Z" fill="white"/>
<path d="M67.1389 64.9263H77.069V67.7427H70.5477V69.6697H76.4761V72.3379H70.5477V74.265H77.2172V77.2296H67.2871L67.1389 64.9263Z" fill="white"/>
<path d="M81.5153 67.8909H77.8101V64.9263H88.6294V67.8909H84.9241V77.2296H81.5153V67.8909Z" fill="white"/>
<path d="M57.8018 80.0461H64.1748C65.6569 80.0461 66.8426 80.4908 67.5836 81.0837C68.0282 81.5284 68.3247 82.2696 68.3247 83.159C68.3247 84.6413 67.5836 85.3825 66.3979 85.9754C67.88 86.4201 68.7693 87.3095 68.7693 88.9401C68.7693 91.0154 66.9908 92.3495 64.1748 92.3495H57.8018V80.0461ZM64.9158 83.9001C64.9158 83.159 64.323 82.8625 63.4337 82.8625H61.2106V85.086H63.2855C64.323 84.9378 64.9158 84.6413 64.9158 83.9001ZM63.7302 87.4578H61.0624V89.6813H63.7302C64.7676 89.6813 65.3605 89.2366 65.3605 88.4954C65.3605 87.7542 64.7676 87.4578 63.7302 87.4578Z" fill="white"/>
<path d="M69.3621 80.0461H75.1422C77.069 80.0461 78.2547 80.4908 79.1439 81.3802C79.885 82.1214 80.1814 83.0107 80.1814 84.1966C80.1814 86.1237 79.1439 87.3095 77.6618 88.0507L80.626 92.3495H76.7726L74.253 88.6436H72.7709V92.3495H69.3621V80.0461ZM74.994 85.9754C76.1797 85.9754 76.7726 85.3825 76.7726 84.4931C76.7726 83.4555 76.0315 83.0108 74.994 83.0108H72.7709V85.9754H74.994Z" fill="white"/>
<path d="M84.1832 80.0461H87.4438L92.6312 92.4977H88.9259L88.0367 90.2742H83.294L82.4047 92.4977H78.8477L84.1832 80.0461ZM87.1474 87.4578L85.8135 84.0484L84.4796 87.4578H87.1474Z" fill="white"/>
<path d="M93.0757 80.0461H96.4845V92.3495H93.0757V80.0461Z" fill="white"/>
<path d="M97.3738 80.0461H100.486L105.525 86.5684V80.0461H108.934V92.3495H105.97L100.783 85.679V92.4977H97.3738V80.0461Z" fill="white"/>
<path d="M109.231 90.5707L111.157 88.3472C112.343 89.3848 113.677 89.8295 115.159 89.8295C116.048 89.8295 116.641 89.533 116.641 88.9401C116.641 88.3472 116.196 88.1989 114.566 87.7542C111.898 87.1613 109.972 86.4201 109.972 83.9001C109.972 81.6766 111.75 79.8979 114.714 79.8979C116.789 79.8979 118.42 80.4908 119.753 81.5284L117.975 83.9001C116.789 83.159 115.604 82.7143 114.566 82.7143C113.677 82.7143 113.38 83.0107 113.38 83.4554C113.38 84.0484 113.825 84.1966 115.455 84.6413C118.271 85.2342 120.05 86.1237 120.05 88.4954C120.05 91.0154 118.123 92.4977 115.011 92.4977C112.788 92.6459 110.713 91.9048 109.231 90.5707Z" fill="white"/>
<defs>
<linearGradient id="paint0_linear" x1="47.1918" y1="178.707" x2="163.397" y2="108.583" gradientUnits="userSpaceOnUse">
<stop stop-color="#FCEE39"/>
<stop offset="1" stop-color="#F37B3D"/>
</linearGradient>
<linearGradient id="paint1_linear" x1="71.6753" y1="10.2404" x2="177.745" y2="103.086" gradientUnits="userSpaceOnUse">
<stop stop-color="#EF5A6B"/>
<stop offset="0.57" stop-color="#F26F4E"/>
<stop offset="1" stop-color="#F37B3D"/>
</linearGradient>
<linearGradient id="paint2_linear" x1="78.4721" y1="94.3368" x2="15.6125" y2="55.087" gradientUnits="userSpaceOnUse">
<stop stop-color="#7C59A4"/>
<stop offset="0.3852" stop-color="#AF4C92"/>
<stop offset="0.7654" stop-color="#DC4183"/>
<stop offset="0.957" stop-color="#ED3D7D"/>
</linearGradient>
<linearGradient id="paint3_linear" x1="77.326" y1="5.48745" x2="15.9548" y2="56.1666" gradientUnits="userSpaceOnUse">
<stop stop-color="#EF5A6B"/>
<stop offset="0.364" stop-color="#EE4E72"/>
<stop offset="1" stop-color="#ED3D7D"/>
</linearGradient>
</defs>
</svg>
