<svg width="44" height="44" viewBox="0 0 44 44" fill="none" xmlns="http://www.w3.org/2000/svg">
<path fill-rule="evenodd" clip-rule="evenodd" d="M42.4 19.2C43.3 19.7 44 20.6 44 21.8C44 23 43.3 23.9 42.4 24.4L38.9 26.2L42.4 28C43.3 28.5 44 29.5 44 30.6C44 31.7 43.4 32.7 42.4 33.2L23.4 43.2C23 43.5 22.5 43.6 22 43.6C21.5 43.6 21 43.4 20.6 43.2L1.6 33.2C0.7 32.7 0 31.7 0 30.6C0 29.5 0.6 28.5 1.6 28L5.1 26.2L1.6 24.4C0.7 23.9 0 22.9 0 21.8C0 20.7 0.6 19.7 1.6 19.2L5.1 17.4L1.6 15.6C0.7 15.1 0 14.1 0 13C0 11.9 0.6 10.9 1.6 10.4L20.6 0.4C21 0.0999999 21.5 0 22 0C22.5 0 23 0.2 23.4 0.4L42.4 10.4C43.3 10.9 44 11.9 44 13C44 14.1 43.4 15.1 42.4 15.6L38.9 17.4L42.4 19.2ZM2 12.8C2 13.2 2.2 13.5 2.5 13.7L21.5 23.7C21.6 23.7 21.675 23.725 21.75 23.75C21.825 23.775 21.9 23.8 22 23.8C22.2 23.8 22.4 23.8 22.5 23.7L41.5 13.7C41.8 13.5 42 13.2 42 12.8C42 12.4 41.8 12.1 41.5 11.9L22.5 1.90005C22.4 1.90005 22.325 1.87505 22.25 1.85005C22.175 1.82505 22.1 1.80005 22 1.80005C21.8 1.80005 21.6 1.80005 21.5 1.90005L2.5 11.9C2.2 12.1 2 12.4 2 12.8ZM41.5 29.8999C41.8 30.0999 42 30.3999 42 30.7999C42 31.1999 41.8 31.4999 41.5 31.6999L22.5 41.6999C22.4 41.7999 22.2 41.7999 22 41.7999C21.9 41.7999 21.825 41.7749 21.75 41.7499C21.675 41.7249 21.6 41.6999 21.5 41.6999L2.5 31.6999C2.2 31.4999 2 31.1999 2 30.7999C2 30.3999 2.2 30.0999 2.5 29.8999L7.2 27.3999L20.5 34.3999C20.9 34.5999 21.4 34.7999 21.9 34.7999C22.4 34.7999 22.9 34.6999 23.3 34.3999L36.6 27.3999L41.5 29.8999ZM22.5 32.6999L41.5 22.6999C41.8 22.4999 42 22.1999 41.8 21.7999C41.8 21.3999 41.6 21.0999 41.3 20.8999L36.6 18.3999L23.3 25.3999C22.9 25.6999 22.4 25.7999 21.9 25.7999C21.4 25.7999 20.9 25.5999 20.5 25.3999L7.2 18.3999L2.5 20.8999C2.2 21.0999 2 21.3999 2 21.7999C2 22.1999 2.2 22.4999 2.5 22.6999L21.5 32.6999C21.6 32.6999 21.675 32.7249 21.75 32.7499C21.825 32.7749 21.9 32.7999 22 32.7999C22.2 32.7999 22.4 32.7999 22.5 32.6999Z" fill="url(#paint0_linear_188_1139)"/>
<defs>
<linearGradient id="paint0_linear_188_1139" x1="-3.91808e-07" y1="-44.7679" x2="59.6698" y2="-37.8924" gradientUnits="userSpaceOnUse">
<stop stop-color="#00FFA6"/>
<stop offset="0.497631" stop-color="#008CFF"/>
<stop offset="1" stop-color="#0026FF"/>
</linearGradient>
</defs>
</svg>
