<svg width="111" height="151" viewBox="0 0 111 151" fill="none" xmlns="http://www.w3.org/2000/svg">
<path d="M14.4043 125.418C18.683 154.514 30.2863 155.79 37.6398 137.877C42.1361 138.98 46.9079 139.589 51.9118 139.589C56.3936 139.589 60.7303 138.936 64.8784 137.761C72.4495 157.211 84.9085 155.688 88.8681 123.214C98.2523 113.627 104.17 101.066 104.533 89.0132H104.547C104.547 88.8682 104.547 88.7377 104.547 88.5926C104.547 88.346 104.576 88.0995 104.576 87.8529C104.576 87.4613 104.547 87.0842 104.547 86.6926C104.416 62.9495 102.371 44.6163 99.137 31.4612C104.286 30.736 109.087 28.9665 110.044 24.9633C110.958 21.1488 103.981 12.1998 94.4087 7.89207C97.5416 1.58281 95.2354 -1.62258 87.1712 5.73097C86.446 5.62944 85.7062 5.54242 84.952 5.51341C85.2131 -1.28899 81.7466 -2.98597 77.2069 7.31191C77.0038 7.42794 76.8008 7.52947 76.5977 7.66001C64.5158 15.6372 76.1916 45.3995 46.7629 48.4744C45.9797 48.5614 45.2254 48.663 44.5147 48.7935C33.1726 49.9248 23.4259 54.1455 16.0288 60.4548C4.61412 54.131 -3.72571 60.6433 5.22329 74.1756C2.09041 80.4123 0.436952 87.4468 0.596496 94.8729C0.814057 106.665 5.94849 117.412 14.4043 125.418Z" fill="url(#paint0_linear_188_1011)"/>
<defs>
<linearGradient id="paint0_linear_188_1011" x1="9.30836" y1="25.2436" x2="260.57" y2="276.505" gradientUnits="userSpaceOnUse">
<stop stop-color="#00FFA6"/>
<stop offset="0.5" stop-color="#008CFF"/>
<stop offset="1" stop-color="#0026FF"/>
</linearGradient>
</defs>
</svg>
