<svg width="44" height="44" viewBox="0 0 44 44" fill="none" xmlns="http://www.w3.org/2000/svg">
<path fill-rule="evenodd" clip-rule="evenodd" d="M42 0C42.8 0 43.4 0.0999999 43.6 0.3C45.1 1.8 42.1 16.1 35.1 23.2C34.7088 23.5912 34.0912 24.2322 33.3737 24.977C31.5234 26.8974 29.0088 29.5074 28 30.3C27 33.7 25.1 38.8 22.3 41.6C22.3 41.6 22.3 38.2 19.6 34C19.525 34.0125 19.4514 34.025 19.3791 34.0373L19.3767 34.0378L19.3758 34.0379C18.8714 34.1238 18.4238 34.2 17.9 34.2C15.9 34.2 14 33.4 12.3 31.7C10.2 29.6 9.40002 27 10 24.5C5.80002 21.8 2.40002 21.8 2.40002 21.8C5.20002 18.9 10.2 17 13.7 16.1C14.4927 15.0191 17.1026 12.5364 19.0231 10.7094L19.0231 10.7094C19.7678 10.001 20.4088 9.39119 20.8 9C26.7 3.1 37.8 0 42 0ZM23.2 36.7999C24.3 34.7999 25.3 32.3999 26 29.6999C26 29.6706 26.0086 29.6499 26.0157 29.6327C26.0328 29.5913 26.0414 29.5706 25.9 29.4999L14.3 17.8999C14.3 17.9499 14.3 17.9749 14.2875 17.9874C14.275 17.9999 14.25 17.9999 14.2 17.9999C11.5 18.7999 9.09998 19.6999 7.09998 20.7999C8.29998 21.2999 9.59998 21.8999 11 22.7999C11.8 23.2999 12.1 24.1999 11.9 24.9999C11.5 26.7999 12.1 28.6999 13.7 30.2999C14.9 31.4999 16.3 32.1999 17.8 32.1999C18.2 32.1999 18.6 32.1999 19 32.0999C19.2 31.9999 19.3 31.9999 19.5 31.9999C20.2 31.9999 20.8 32.2999 21.2 32.8999C22.1 34.2999 22.8 35.5999 23.2 36.7999ZM33.6 21.7001C33.2 22.1001 32.6 22.7001 31.9 23.5001C31.2228 24.1772 30.3558 25.0714 29.5249 25.9283C28.7607 26.7164 28.027 27.4731 27.5 28.0001L16.1 16.6001C17.2 15.4001 19.3 13.4001 20.6 12.2001C21.4 11.5001 22 10.9001 22.4 10.5001L22.4 10.5001C27.8 5.1001 38.2 2.1001 42.1 2.1001C42 5.2001 39.3 16.1001 33.6 21.7001ZM0 44.0001L7.8 24.6001C7.1 30.6001 12.5 36.3001 18.4 36.3001C18.55 36.3001 18.725 36.2751 18.9 36.2501C19.075 36.2251 19.25 36.2001 19.4 36.2001L0 44.0001ZM3.59998 40.4L7.19998 31.3C7.69998 32.2001 8.29998 33.1 8.99998 33.8C10.1 35 11.3 36 12.6 36.7001L3.59998 40.4ZM20 17C20 16.4 20.4 16 21 16C21.6 16 22 16.4 22 17C22 17.6 21.6 18 21 18C20.4 18 20 17.6 20 17ZM27 24C27.6 24 28 23.6 28 23C28 22.4 27.6 22 27 22C26.4 22 26 22.4 26 23C26 23.6 26.4 24 27 24ZM36 11C36 12.7 34.7 14 33 14C31.3 14 30 12.7 30 11C30 9.3 31.3 8 33 8C34.7 8 36 9.3 36 11ZM33 10C33.6 10 34 10.4 34 11C34 11.6 33.6 12 33 12C32.4 12 32 11.6 32 11C32 10.4 32.4 10 33 10ZM25 20C25 20.6 24.6 21 24 21C23.4 21 23 20.6 23 20C23 19.4 23.4 19 24 19C24.6 19 25 19.4 25 20Z" fill="url(#paint0_linear_188_1151)"/>
<defs>
<linearGradient id="paint0_linear_188_1151" x1="-3.91607e-07" y1="-45.1787" x2="59.654" y2="-38.371" gradientUnits="userSpaceOnUse">
<stop stop-color="#00FFA6"/>
<stop offset="0.497631" stop-color="#008CFF"/>
<stop offset="1" stop-color="#0026FF"/>
</linearGradient>
</defs>
</svg>
