<svg width="44" height="49" viewBox="0 0 44 49" fill="none" xmlns="http://www.w3.org/2000/svg">
<path d="M21.9095 0.0047615C21.7787 0.0132423 21.6503 0.0435304 21.5295 0.0952222L0.687372 10.3586C0.266166 10.546 -0.00360274 10.9648 3.63639e-05 11.4255V36.8993C0.00367092 37.3536 0.272225 37.7639 0.687775 37.9484L21.5299 48.2118C21.8296 48.3447 22.1708 48.3447 22.4705 48.2118L43.3126 37.9484C43.7282 37.7639 43.9963 37.3535 44 36.8993V11.4255C44.0036 10.9648 43.7334 10.5456 43.3122 10.3582L22.4701 0.094818C22.2936 0.0184919 22.101 -0.0118006 21.9095 0.0047615ZM22 2.429L39.9836 11.4073L22 20.4043L4.01641 11.4073L22 2.429ZM2.31575 13.1988L20.8421 22.4307V45.3715L2.31575 36.1396V13.1988ZM41.6843 13.1988V36.1396L23.1579 45.3715V22.4307L41.6843 13.1988Z" fill="url(#paint0_linear_188_1137)"/>
<defs>
<linearGradient id="paint0_linear_188_1137" x1="-3.91808e-07" y1="-49.6048" x2="59.8152" y2="-43.3846" gradientUnits="userSpaceOnUse">
<stop stop-color="#00FFA6"/>
<stop offset="0.497631" stop-color="#008CFF"/>
<stop offset="1" stop-color="#0026FF"/>
</linearGradient>
</defs>
</svg>
