<svg width="12" height="12" viewBox="0 0 12 12" fill="none" xmlns="http://www.w3.org/2000/svg">
              <path fill-rule="evenodd" clip-rule="evenodd"
                d="M10.2252 11.193C10.5787 11.5465 11.0501 11.5465 11.4037 11.193C11.5805 11.0162 11.6394 10.8394 11.6394 10.6037L11.6394 1.17564C11.6394 0.939936 11.5805 0.76316 11.4037 0.586383C11.2269 0.409606 11.0501 0.350681 10.8144 0.35068L1.38635 0.350682C1.15065 0.350682 0.973869 0.409607 0.797092 0.586384C0.443539 0.939938 0.44354 1.41134 0.797093 1.7649C0.97387 1.94167 1.15065 2.0006 1.38635 2.0006L8.81097 2.0006L1.30217 9.5094C0.948615 9.86295 0.948615 10.3344 1.30217 10.6879C1.65572 11.0415 2.12713 11.0415 2.48068 10.6879L9.98948 3.17911L9.98948 10.6037C9.98948 10.8394 10.0484 11.0162 10.2252 11.193Z"
                fill="black" />
            </svg>