<svg width="44" height="44" viewBox="0 0 44 44" fill="none" xmlns="http://www.w3.org/2000/svg">
<path fill-rule="evenodd" clip-rule="evenodd" d="M39.4 0.0750001C39.7 0.175 39.9 0.375 40 0.675C40 0.697868 40.0523 0.876308 40.1449 1.19238C40.8624 3.64068 44 14.3471 44 24.975C44 37.675 23.1 43.775 22.2 43.975H22H21.8C20.9 43.775 0 37.675 0 24.975C0 13.9788 3.35878 2.81468 3.92071 0.946903C3.97201 0.7764 4 0.683365 4 0.675C4.1 0.475 4.3 0.175 4.6 0.0750001C4.8 -0.025 5.1 -0.025 5.4 0.0750001C5.40973 0.0750001 5.49337 0.11195 5.64435 0.178658C7.04455 0.797276 14.2371 3.975 22 3.975C29.8576 3.975 36.981 0.793703 38.3605 0.177617C38.5084 0.111566 38.5903 0.0750001 38.6 0.0750001C38.8 -0.025 39.1 -0.025 39.4 0.0750001ZM2 24.975C2 35.475 20 41.575 22 41.975C24 41.475 42 35.475 42 24.975C42 16.213 39.7617 7.8507 38.6443 3.67606C38.512 3.1815 38.3953 2.74572 38.3 2.375C35.8 3.475 29.3 5.975 22 5.975C14.8 5.975 8.2 3.475 5.7 2.375C5.65504 2.53686 5.60664 2.71004 5.55521 2.89408C4.46267 6.80349 2 15.6156 2 24.975ZM25.4 17.9751L22 8.9751L18.6 17.9751H9.5L16.9 23.6751L13.5 33.8751L22 27.6751L30.5 33.8751L27.1 23.6751L34.5 17.9751H25.4ZM26.6 28.5751L25.2 24.2751L24.4 22.9751L25.5 22.0751L28.3 19.8751H23.7L23.2 18.5751L21.7 14.4751L20.2 18.5751L19.7 19.8751H15.1L17.9 22.0751L19 22.9751L18.6 24.2751L17.2 28.5751L20.7 26.0751L21.9 25.1751L23.1 26.0751L26.6 28.5751Z" fill="url(#paint0_linear_188_1145)"/>
<defs>
<linearGradient id="paint0_linear_188_1145" x1="-3.91808e-07" y1="-45.1529" x2="59.683" y2="-38.3346" gradientUnits="userSpaceOnUse">
<stop stop-color="#00FFA6"/>
<stop offset="0.497631" stop-color="#008CFF"/>
<stop offset="1" stop-color="#0026FF"/>
</linearGradient>
</defs>
</svg>
