<svg width="1920" height="348" viewBox="0 0 1920 348" fill="none" xmlns="http://www.w3.org/2000/svg">
<path opacity="0.3" d="M445.474 408.46H318.041V151.164H445.474V408.46Z" fill="url(#paint0_linear)"/>
<path d="M318.041 151.136L381.757 188.19V113.309L318.041 76.2549V151.136Z" fill="url(#paint1_linear)"/>
<path d="M445.474 151.136L381.758 188.19V113.309L445.474 76.2549V151.136Z" fill="url(#paint2_linear)"/>
<path d="M318.039 76.2744L381.736 39.2295L445.473 76.2744L381.736 113.279L318.039 76.2744Z" fill="url(#paint3_linear)"/>
<path opacity="0.3" d="M318.901 150.755L381.737 114.141L444.613 150.755L381.737 187.329L318.901 150.755Z" fill="url(#paint4_linear)"/>
<path opacity="0.2" d="M381.756 113.535L445.473 150.303V75.9982L381.756 39.2295V113.535Z" fill="url(#paint5_linear)"/>
<path d="M253.929 368.2L317.646 405.254V330.373L253.929 293.319V368.2Z" fill="url(#paint6_linear)"/>
<path d="M381.363 368.2L317.646 405.254V330.373L381.363 293.319V368.2Z" fill="url(#paint7_linear)"/>
<path d="M253.928 293.339L317.625 256.294L381.362 293.339L317.625 330.343L253.928 293.339Z" fill="url(#paint8_linear)"/>
<path opacity="0.3" d="M254.79 367.819L317.626 331.205L380.501 367.819L317.626 404.393L254.79 367.819Z" fill="url(#paint9_linear)"/>
<path opacity="0.2" d="M317.645 330.599L381.362 367.368V293.063L317.645 256.294V330.599Z" fill="url(#paint10_linear)"/>
<path d="M189.854 404.816L253.571 441.869V366.988L189.854 329.935V404.816Z" fill="url(#paint11_linear)"/>
<path d="M317.287 404.816L253.571 441.869V366.988L317.287 329.935V404.816Z" fill="url(#paint12_linear)"/>
<path d="M189.853 329.954L253.549 292.909L317.286 329.954L253.549 366.958L189.853 329.954Z" fill="url(#paint13_linear)"/>
<path opacity="0.2" d="M253.57 367.214L317.286 403.983V329.678L253.57 292.909V367.214Z" fill="url(#paint14_linear)"/>
<path d="M189.854 331.585L253.571 368.639V293.758L189.854 256.704V331.585Z" fill="url(#paint15_linear)"/>
<path d="M317.287 331.585L253.571 368.639V293.758L317.287 256.704V331.585Z" fill="url(#paint16_linear)"/>
<path d="M189.853 256.725L253.549 219.68L317.286 256.725L253.549 293.729L189.853 256.725Z" fill="url(#paint17_linear)"/>
<path opacity="0.3" d="M190.715 331.205L253.55 294.591L316.426 331.205L253.55 367.779L190.715 331.205Z" fill="url(#paint18_linear)"/>
<path opacity="0.2" d="M253.57 293.985L317.286 330.753V256.448L253.57 219.68V293.985Z" fill="url(#paint19_linear)"/>
<path d="M64.7544 404.816L128.471 441.869V366.988L64.7544 329.935V404.816Z" fill="url(#paint20_linear)"/>
<path d="M192.188 404.816L128.471 441.869V366.988L192.188 329.935V404.816Z" fill="url(#paint21_linear)"/>
<path d="M64.7531 329.954L128.45 292.909L192.187 329.954L128.45 366.958L64.7531 329.954Z" fill="url(#paint22_linear)"/>
<path opacity="0.2" d="M128.47 367.214L192.187 403.983V329.678L128.47 292.909V367.214Z" fill="url(#paint23_linear)"/>
<path d="M64.7544 328.535L128.471 365.589V290.708L64.7544 253.654V328.535Z" fill="url(#paint24_linear)"/>
<path d="M192.188 328.535L128.471 365.589V290.708L192.188 253.654V328.535Z" fill="url(#paint25_linear)"/>
<path d="M64.7531 253.674L128.45 216.629L192.187 253.674L128.45 290.678L64.7531 253.674Z" fill="url(#paint26_linear)"/>
<path opacity="0.3" d="M65.615 328.154L128.451 291.54L191.326 328.154L128.451 364.728L65.615 328.154Z" fill="url(#paint27_linear)"/>
<path opacity="0.2" d="M128.47 290.934L192.187 327.703V253.398L128.47 216.629V290.934Z" fill="url(#paint28_linear)"/>
<path d="M64.5598 253.567L128.276 290.62V215.739L64.5598 178.686V253.567Z" fill="url(#paint29_linear)"/>
<path d="M191.993 253.567L128.277 290.62V215.739L191.993 178.686V253.567Z" fill="url(#paint30_linear)"/>
<path d="M64.5585 178.706L128.255 141.661L191.992 178.706L128.255 215.71L64.5585 178.706Z" fill="url(#paint31_linear)"/>
<path opacity="0.3" d="M65.4204 253.185L128.256 216.571L191.132 253.185L128.256 289.759L65.4204 253.185Z" fill="url(#paint32_linear)"/>
<path opacity="0.2" d="M128.275 215.966L191.992 252.735V178.43L128.275 141.661V215.966Z" fill="url(#paint33_linear)"/>
<path fill-rule="evenodd" clip-rule="evenodd" d="M128.591 366.557L64.6552 329.523L0.678345 366.557L64.6552 403.59L128.591 366.557ZM0.677612 441.314L64.6545 478.307V403.59L0.677612 366.557V441.314ZM64.7521 478.431L128.828 441.386V366.524L64.7521 403.609V478.431Z" fill="url(#paint34_radial)"/>
<path d="M128.592 366.557L64.6553 329.523L0.678467 366.557L64.6553 403.59L128.592 366.557Z" fill="url(#paint35_linear)"/>
<path opacity="0.3" d="M64.7533 404.386L0.677612 441.43V366.609L64.7533 329.523V404.386Z" fill="url(#paint36_linear)"/>
<path d="M0.678432 365.149L64.3951 402.202V327.321L0.678432 290.268V365.149Z" fill="url(#paint37_linear)"/>
<path d="M128.112 365.149L64.3952 402.202V327.321L128.112 290.268V365.149Z" fill="url(#paint38_linear)"/>
<path d="M0.677185 290.288L64.3737 253.243L128.111 290.288L64.3737 327.292L0.677185 290.288Z" fill="url(#paint39_linear)"/>
<path opacity="0.3" d="M1.53903 364.767L64.3748 328.153L127.25 364.767L64.3748 401.341L1.53903 364.767Z" fill="url(#paint40_linear)"/>
<path opacity="0.2" d="M64.394 327.548L128.111 364.317V290.012L64.394 253.243V327.548Z" fill="url(#paint41_linear)"/>
<path opacity="0.3" d="M0.356812 549.833H-47.68V199.11H0.356812V549.833Z" fill="url(#paint42_linear)"/>
<path d="M0.356812 199.1L-23.6616 213.068V184.841L0.356812 170.873V199.1Z" fill="url(#paint43_linear)"/>
<path d="M-47.6802 170.88L-23.6694 156.916L0.356689 170.88L-23.6694 184.829L-47.6802 170.88Z" fill="url(#paint44_linear)"/>
<path opacity="0.3" d="M-47.3555 198.956L-23.6691 185.154L0.0322266 198.956L-23.6691 212.743L-47.3555 198.956Z" fill="url(#paint45_linear)"/>
<path opacity="0.2" d="M-23.6616 184.926L0.356812 198.786V170.776L-23.6616 156.916V184.926Z" fill="url(#paint46_linear)"/>
<g opacity="0.7">
<path opacity="0.5" d="M510.858 386.56H496.078V251.071H510.858V386.56Z" fill="url(#paint47_linear)"/>
<path fill-rule="evenodd" clip-rule="evenodd" d="M510.858 242.908V251.623L503.468 255.921L496.078 251.623V242.938L496.08 242.939L503.465 238.644L503.468 238.645V238.644L510.858 242.908Z" fill="#05FFF3"/>
</g>
<path d="M445.952 354.438L470.804 339.984L495.673 354.438L470.804 368.876L445.952 354.438Z" fill="url(#paint48_linear)"/>
<path opacity="0.2" d="M470.812 368.976L495.673 383.322V354.33L470.812 339.984V368.976Z" fill="url(#paint49_linear)"/>
<path opacity="0.3" d="M1954.47 409.46H1827.04V152.164H1954.47V409.46Z" fill="url(#paint50_linear)"/>
<path d="M1827.04 152.136L1890.76 189.19V114.309L1827.04 77.2549V152.136Z" fill="url(#paint51_linear)"/>
<path d="M1954.47 152.136L1890.76 189.19V114.309L1954.47 77.2549V152.136Z" fill="url(#paint52_linear)"/>
<path d="M1827.04 77.2744L1890.74 40.2295L1954.47 77.2744L1890.74 114.279L1827.04 77.2744Z" fill="url(#paint53_linear)"/>
<path opacity="0.3" d="M1827.9 151.755L1890.74 115.141L1953.61 151.755L1890.74 188.329L1827.9 151.755Z" fill="url(#paint54_linear)"/>
<path opacity="0.2" d="M1890.76 114.535L1954.47 151.303V76.9982L1890.76 40.2295V114.535Z" fill="url(#paint55_linear)"/>
<path d="M1762.93 369.2L1826.65 406.254V331.373L1762.93 294.319V369.2Z" fill="url(#paint56_linear)"/>
<path d="M1890.36 369.2L1826.65 406.254V331.373L1890.36 294.319V369.2Z" fill="url(#paint57_linear)"/>
<path d="M1762.93 294.339L1826.62 257.294L1890.36 294.339L1826.62 331.343L1762.93 294.339Z" fill="url(#paint58_linear)"/>
<path opacity="0.3" d="M1763.79 368.819L1826.63 332.205L1889.5 368.819L1826.63 405.393L1763.79 368.819Z" fill="url(#paint59_linear)"/>
<path opacity="0.2" d="M1826.64 331.599L1890.36 368.368V294.063L1826.64 257.294V331.599Z" fill="url(#paint60_linear)"/>
<path d="M1698.85 405.816L1762.57 442.869V367.988L1698.85 330.935V405.816Z" fill="url(#paint61_linear)"/>
<path d="M1826.29 405.816L1762.57 442.869V367.988L1826.29 330.935V405.816Z" fill="url(#paint62_linear)"/>
<path d="M1698.85 330.954L1762.55 293.909L1826.29 330.954L1762.55 367.958L1698.85 330.954Z" fill="url(#paint63_linear)"/>
<path opacity="0.2" d="M1762.57 368.214L1826.29 404.983V330.678L1762.57 293.909V368.214Z" fill="url(#paint64_linear)"/>
<path d="M1698.85 332.585L1762.57 369.639V294.758L1698.85 257.704V332.585Z" fill="url(#paint65_linear)"/>
<path d="M1826.29 332.585L1762.57 369.639V294.758L1826.29 257.704V332.585Z" fill="url(#paint66_linear)"/>
<path d="M1698.85 257.725L1762.55 220.68L1826.29 257.725L1762.55 294.729L1698.85 257.725Z" fill="url(#paint67_linear)"/>
<path opacity="0.3" d="M1699.71 332.205L1762.55 295.591L1825.43 332.205L1762.55 368.779L1699.71 332.205Z" fill="url(#paint68_linear)"/>
<path opacity="0.2" d="M1762.57 294.985L1826.29 331.753V257.448L1762.57 220.68V294.985Z" fill="url(#paint69_linear)"/>
<path d="M1573.75 405.816L1637.47 442.869V367.988L1573.75 330.935V405.816Z" fill="url(#paint70_linear)"/>
<path d="M1701.19 405.816L1637.47 442.869V367.988L1701.19 330.935V405.816Z" fill="url(#paint71_linear)"/>
<path d="M1573.75 330.954L1637.45 293.909L1701.19 330.954L1637.45 367.958L1573.75 330.954Z" fill="url(#paint72_linear)"/>
<path opacity="0.2" d="M1637.47 368.214L1701.19 404.983V330.678L1637.47 293.909V368.214Z" fill="url(#paint73_linear)"/>
<path d="M1573.75 329.535L1637.47 366.589V291.708L1573.75 254.654V329.535Z" fill="url(#paint74_linear)"/>
<path d="M1701.19 329.535L1637.47 366.589V291.708L1701.19 254.654V329.535Z" fill="url(#paint75_linear)"/>
<path d="M1573.75 254.674L1637.45 217.629L1701.19 254.674L1637.45 291.678L1573.75 254.674Z" fill="url(#paint76_linear)"/>
<path opacity="0.3" d="M1574.61 329.154L1637.45 292.54L1700.33 329.154L1637.45 365.728L1574.61 329.154Z" fill="url(#paint77_linear)"/>
<path opacity="0.2" d="M1637.47 291.934L1701.19 328.703V254.398L1637.47 217.629V291.934Z" fill="url(#paint78_linear)"/>
<path d="M1573.56 254.567L1637.28 291.62V216.739L1573.56 179.686V254.567Z" fill="url(#paint79_linear)"/>
<path d="M1700.99 254.567L1637.28 291.62V216.739L1700.99 179.686V254.567Z" fill="url(#paint80_linear)"/>
<path d="M1573.56 179.706L1637.26 142.661L1700.99 179.706L1637.26 216.71L1573.56 179.706Z" fill="url(#paint81_linear)"/>
<path opacity="0.3" d="M1574.42 254.185L1637.26 217.571L1700.13 254.185L1637.26 290.759L1574.42 254.185Z" fill="url(#paint82_linear)"/>
<path opacity="0.2" d="M1637.28 216.966L1700.99 253.735V179.43L1637.28 142.661V216.966Z" fill="url(#paint83_linear)"/>
<path fill-rule="evenodd" clip-rule="evenodd" d="M1637.59 367.557L1573.66 330.523L1509.68 367.557L1573.66 404.59L1637.59 367.557ZM1509.68 442.314L1573.65 479.307V404.59L1509.68 367.557V442.314ZM1573.75 479.431L1637.83 442.386V367.524L1573.75 404.609V479.431Z" fill="url(#paint84_radial)"/>
<path d="M1637.59 367.557L1573.66 330.523L1509.68 367.557L1573.66 404.59L1637.59 367.557Z" fill="url(#paint85_linear)"/>
<path opacity="0.3" d="M1573.75 405.386L1509.68 442.43V367.609L1573.75 330.523V405.386Z" fill="url(#paint86_linear)"/>
<path d="M1509.68 366.149L1573.4 403.202V328.321L1509.68 291.268V366.149Z" fill="url(#paint87_linear)"/>
<path d="M1637.11 366.149L1573.4 403.202V328.321L1637.11 291.268V366.149Z" fill="url(#paint88_linear)"/>
<path d="M1509.68 291.288L1573.37 254.243L1637.11 291.288L1573.37 328.292L1509.68 291.288Z" fill="url(#paint89_linear)"/>
<path opacity="0.3" d="M1510.54 365.767L1573.37 329.153L1636.25 365.767L1573.37 402.341L1510.54 365.767Z" fill="url(#paint90_linear)"/>
<path opacity="0.2" d="M1573.39 328.548L1637.11 365.317V291.012L1573.39 254.243V328.548Z" fill="url(#paint91_linear)"/>
<path opacity="0.3" d="M1509.36 550.833H1461.32V200.11H1509.36V550.833Z" fill="url(#paint92_linear)"/>
<path d="M1461.32 200.1L1485.34 214.068V185.841L1461.32 171.873V200.1Z" fill="url(#paint93_linear)"/>
<path d="M1509.36 200.1L1485.34 214.068V185.841L1509.36 171.873V200.1Z" fill="url(#paint94_linear)"/>
<path d="M1461.32 171.88L1485.33 157.916L1509.36 171.88L1485.33 185.829L1461.32 171.88Z" fill="url(#paint95_linear)"/>
<path opacity="0.3" d="M1461.64 199.956L1485.33 186.154L1509.03 199.956L1485.33 213.743L1461.64 199.956Z" fill="url(#paint96_linear)"/>
<path opacity="0.2" d="M1485.34 185.926L1509.36 199.786V171.776L1485.34 157.916V185.926Z" fill="url(#paint97_linear)"/>
<g opacity="0.7">
<path opacity="0.5" d="M1463.78 148.916H1449V13.4277H1463.78V148.916Z" fill="url(#paint98_linear)"/>
<path fill-rule="evenodd" clip-rule="evenodd" d="M1463.78 5.26467V13.9796L1456.39 18.2773L1449 13.9796V5.29436L1449 5.29556L1456.39 1.00008L1456.39 1.00148V1L1463.78 5.26467Z" fill="#05FFF3"/>
</g>
<defs>
<linearGradient id="paint0_linear" x1="382.052" y1="408.46" x2="380.358" y2="159.117" gradientUnits="userSpaceOnUse">
<stop stop-color="#00FFF0" stop-opacity="0"/>
<stop offset="1" stop-color="#00FFF8"/>
</linearGradient>
<linearGradient id="paint1_linear" x1="374.189" y1="132.214" x2="305.799" y2="132.214" gradientUnits="userSpaceOnUse">
<stop stop-color="#00DED3"/>
<stop offset="1" stop-color="#008B9A"/>
</linearGradient>
<linearGradient id="paint2_linear" x1="445.101" y1="151.616" x2="276.806" y2="35.8992" gradientUnits="userSpaceOnUse">
<stop stop-color="#00EADC"/>
<stop offset="0.393961" stop-color="#008B9A"/>
</linearGradient>
<linearGradient id="paint3_linear" x1="381.792" y1="113.568" x2="381.792" y2="-26.5036" gradientUnits="userSpaceOnUse">
<stop stop-color="#EFF0F2"/>
<stop offset="0.4469" stop-color="#00DDD2"/>
<stop offset="1" stop-color="#008B9A"/>
</linearGradient>
<linearGradient id="paint4_linear" x1="382.502" y1="113.194" x2="381.549" y2="187.038" gradientUnits="userSpaceOnUse">
<stop stop-color="#E7FFFE" stop-opacity="0"/>
<stop offset="1" stop-color="#008B9A"/>
</linearGradient>
<linearGradient id="paint5_linear" x1="397.282" y1="105.377" x2="400.13" y2="47.3187" gradientUnits="userSpaceOnUse">
<stop stop-color="#00DED3" stop-opacity="0"/>
<stop offset="1" stop-color="#008B9A"/>
</linearGradient>
<linearGradient id="paint6_linear" x1="310.078" y1="349.279" x2="241.688" y2="349.279" gradientUnits="userSpaceOnUse">
<stop stop-color="#00DED3"/>
<stop offset="1" stop-color="#008B9A"/>
</linearGradient>
<linearGradient id="paint7_linear" x1="380.99" y1="368.68" x2="212.695" y2="252.964" gradientUnits="userSpaceOnUse">
<stop stop-color="#00EADC"/>
<stop offset="0.393961" stop-color="#008B9A"/>
</linearGradient>
<linearGradient id="paint8_linear" x1="317.681" y1="330.632" x2="317.681" y2="190.561" gradientUnits="userSpaceOnUse">
<stop stop-color="#EFF0F2"/>
<stop offset="0.4469" stop-color="#00DDD2"/>
<stop offset="1" stop-color="#008B9A"/>
</linearGradient>
<linearGradient id="paint9_linear" x1="318.39" y1="330.258" x2="317.438" y2="404.103" gradientUnits="userSpaceOnUse">
<stop stop-color="#E7FFFE" stop-opacity="0"/>
<stop offset="1" stop-color="#008B9A"/>
</linearGradient>
<linearGradient id="paint10_linear" x1="333.171" y1="322.441" x2="336.019" y2="264.383" gradientUnits="userSpaceOnUse">
<stop stop-color="#00DED3" stop-opacity="0"/>
<stop offset="1" stop-color="#008B9A"/>
</linearGradient>
<linearGradient id="paint11_linear" x1="246.002" y1="385.894" x2="177.613" y2="385.894" gradientUnits="userSpaceOnUse">
<stop stop-color="#00DED3"/>
<stop offset="1" stop-color="#008B9A"/>
</linearGradient>
<linearGradient id="paint12_linear" x1="316.914" y1="405.295" x2="148.62" y2="289.579" gradientUnits="userSpaceOnUse">
<stop stop-color="#00EADC"/>
<stop offset="0.393961" stop-color="#008B9A"/>
</linearGradient>
<linearGradient id="paint13_linear" x1="253.605" y1="367.248" x2="253.605" y2="227.176" gradientUnits="userSpaceOnUse">
<stop stop-color="#EFF0F2"/>
<stop offset="0.4469" stop-color="#00DDD2"/>
<stop offset="1" stop-color="#008B9A"/>
</linearGradient>
<linearGradient id="paint14_linear" x1="269.096" y1="359.057" x2="271.944" y2="300.998" gradientUnits="userSpaceOnUse">
<stop stop-color="#00DED3" stop-opacity="0"/>
<stop offset="1" stop-color="#008B9A"/>
</linearGradient>
<linearGradient id="paint15_linear" x1="246.002" y1="312.663" x2="177.613" y2="312.663" gradientUnits="userSpaceOnUse">
<stop stop-color="#00DED3"/>
<stop offset="1" stop-color="#008B9A"/>
</linearGradient>
<linearGradient id="paint16_linear" x1="316.914" y1="332.065" x2="148.62" y2="216.348" gradientUnits="userSpaceOnUse">
<stop stop-color="#00EADC"/>
<stop offset="0.393961" stop-color="#008B9A"/>
</linearGradient>
<linearGradient id="paint17_linear" x1="253.605" y1="294.018" x2="253.605" y2="153.947" gradientUnits="userSpaceOnUse">
<stop stop-color="#EFF0F2"/>
<stop offset="0.4469" stop-color="#00DDD2"/>
<stop offset="1" stop-color="#008B9A"/>
</linearGradient>
<linearGradient id="paint18_linear" x1="254.315" y1="293.644" x2="253.363" y2="367.488" gradientUnits="userSpaceOnUse">
<stop stop-color="#E7FFFE" stop-opacity="0"/>
<stop offset="1" stop-color="#008B9A"/>
</linearGradient>
<linearGradient id="paint19_linear" x1="269.096" y1="285.827" x2="271.944" y2="227.769" gradientUnits="userSpaceOnUse">
<stop stop-color="#00DED3" stop-opacity="0"/>
<stop offset="1" stop-color="#008B9A"/>
</linearGradient>
<linearGradient id="paint20_linear" x1="120.903" y1="385.894" x2="52.5131" y2="385.894" gradientUnits="userSpaceOnUse">
<stop stop-color="#00DED3"/>
<stop offset="1" stop-color="#008B9A"/>
</linearGradient>
<linearGradient id="paint21_linear" x1="191.815" y1="405.295" x2="23.5199" y2="289.579" gradientUnits="userSpaceOnUse">
<stop stop-color="#00EADC"/>
<stop offset="0.393961" stop-color="#008B9A"/>
</linearGradient>
<linearGradient id="paint22_linear" x1="128.505" y1="367.248" x2="128.505" y2="227.176" gradientUnits="userSpaceOnUse">
<stop stop-color="#EFF0F2"/>
<stop offset="0.4469" stop-color="#00DDD2"/>
<stop offset="1" stop-color="#008B9A"/>
</linearGradient>
<linearGradient id="paint23_linear" x1="143.996" y1="359.057" x2="146.844" y2="300.998" gradientUnits="userSpaceOnUse">
<stop stop-color="#00DED3" stop-opacity="0"/>
<stop offset="1" stop-color="#008B9A"/>
</linearGradient>
<linearGradient id="paint24_linear" x1="120.903" y1="309.614" x2="52.5131" y2="309.614" gradientUnits="userSpaceOnUse">
<stop stop-color="#00DED3"/>
<stop offset="1" stop-color="#008B9A"/>
</linearGradient>
<linearGradient id="paint25_linear" x1="191.815" y1="329.015" x2="23.5199" y2="213.299" gradientUnits="userSpaceOnUse">
<stop stop-color="#00EADC"/>
<stop offset="0.393961" stop-color="#008B9A"/>
</linearGradient>
<linearGradient id="paint26_linear" x1="128.505" y1="290.967" x2="128.505" y2="150.896" gradientUnits="userSpaceOnUse">
<stop stop-color="#EFF0F2"/>
<stop offset="0.4469" stop-color="#00DDD2"/>
<stop offset="1" stop-color="#008B9A"/>
</linearGradient>
<linearGradient id="paint27_linear" x1="129.215" y1="290.593" x2="128.263" y2="364.438" gradientUnits="userSpaceOnUse">
<stop stop-color="#E7FFFE" stop-opacity="0"/>
<stop offset="1" stop-color="#008B9A"/>
</linearGradient>
<linearGradient id="paint28_linear" x1="143.996" y1="282.776" x2="146.844" y2="224.718" gradientUnits="userSpaceOnUse">
<stop stop-color="#00DED3" stop-opacity="0"/>
<stop offset="1" stop-color="#008B9A"/>
</linearGradient>
<linearGradient id="paint29_linear" x1="120.708" y1="234.645" x2="52.3186" y2="234.645" gradientUnits="userSpaceOnUse">
<stop stop-color="#00DED3"/>
<stop offset="1" stop-color="#008B9A"/>
</linearGradient>
<linearGradient id="paint30_linear" x1="191.62" y1="254.046" x2="23.3253" y2="138.33" gradientUnits="userSpaceOnUse">
<stop stop-color="#00EADC"/>
<stop offset="0.393961" stop-color="#008B9A"/>
</linearGradient>
<linearGradient id="paint31_linear" x1="128.311" y1="215.999" x2="128.311" y2="75.928" gradientUnits="userSpaceOnUse">
<stop stop-color="#EFF0F2"/>
<stop offset="0.4469" stop-color="#00DDD2"/>
<stop offset="1" stop-color="#008B9A"/>
</linearGradient>
<linearGradient id="paint32_linear" x1="129.021" y1="215.625" x2="128.068" y2="289.469" gradientUnits="userSpaceOnUse">
<stop stop-color="#E7FFFE" stop-opacity="0"/>
<stop offset="1" stop-color="#008B9A"/>
</linearGradient>
<linearGradient id="paint33_linear" x1="143.802" y1="207.809" x2="146.649" y2="149.75" gradientUnits="userSpaceOnUse">
<stop stop-color="#00DED3" stop-opacity="0"/>
<stop offset="1" stop-color="#008B9A"/>
</linearGradient>
<radialGradient id="paint34_radial" cx="0" cy="0" r="1" gradientUnits="userSpaceOnUse" gradientTransform="translate(64.7527 403.526) rotate(-90) scale(74.0025 69.1309)">
<stop stop-color="#A6D7E8" stop-opacity="0"/>
<stop offset="1" stop-color="white" stop-opacity="0.13"/>
</radialGradient>
<linearGradient id="paint35_linear" x1="64.7535" y1="329.523" x2="64.7535" y2="403.526" gradientUnits="userSpaceOnUse">
<stop stop-color="#CCE9F5"/>
<stop offset="0.860723" stop-color="white"/>
</linearGradient>
<linearGradient id="paint36_linear" x1="64.9922" y1="329.491" x2="61.474" y2="409.807" gradientUnits="userSpaceOnUse">
<stop stop-color="#A6D7E8"/>
<stop offset="1" stop-color="#F2FFF7" stop-opacity="0"/>
</linearGradient>
<linearGradient id="paint37_linear" x1="56.8267" y1="346.227" x2="-11.5628" y2="346.227" gradientUnits="userSpaceOnUse">
<stop stop-color="#00DED3"/>
<stop offset="1" stop-color="#008B9A"/>
</linearGradient>
<linearGradient id="paint38_linear" x1="127.739" y1="365.628" x2="-40.556" y2="249.912" gradientUnits="userSpaceOnUse">
<stop stop-color="#00EADC"/>
<stop offset="0.393961" stop-color="#008B9A"/>
</linearGradient>
<linearGradient id="paint39_linear" x1="64.4295" y1="327.582" x2="64.4295" y2="187.51" gradientUnits="userSpaceOnUse">
<stop stop-color="#EFF0F2"/>
<stop offset="0.4469" stop-color="#00DDD2"/>
<stop offset="1" stop-color="#008B9A"/>
</linearGradient>
<linearGradient id="paint40_linear" x1="65.1395" y1="327.207" x2="64.1871" y2="401.051" gradientUnits="userSpaceOnUse">
<stop stop-color="#E7FFFE" stop-opacity="0"/>
<stop offset="1" stop-color="#008B9A"/>
</linearGradient>
<linearGradient id="paint41_linear" x1="79.9202" y1="319.391" x2="82.768" y2="261.332" gradientUnits="userSpaceOnUse">
<stop stop-color="#00DED3" stop-opacity="0"/>
<stop offset="1" stop-color="#008B9A"/>
</linearGradient>
<linearGradient id="paint42_linear" x1="-23.5507" y1="549.833" x2="-31.8928" y2="210.14" gradientUnits="userSpaceOnUse">
<stop stop-color="#00FFF0" stop-opacity="0"/>
<stop offset="1" stop-color="#00FFF8"/>
</linearGradient>
<linearGradient id="paint43_linear" x1="0.216206" y1="199.281" x2="-63.2237" y2="155.661" gradientUnits="userSpaceOnUse">
<stop stop-color="#00EADC"/>
<stop offset="0.393961" stop-color="#008B9A"/>
</linearGradient>
<linearGradient id="paint44_linear" x1="-23.6483" y1="184.938" x2="-23.6483" y2="132.137" gradientUnits="userSpaceOnUse">
<stop stop-color="#EFF0F2"/>
<stop offset="0.4469" stop-color="#00DDD2"/>
<stop offset="1" stop-color="#008B9A"/>
</linearGradient>
<linearGradient id="paint45_linear" x1="-23.3809" y1="184.797" x2="-23.7399" y2="212.633" gradientUnits="userSpaceOnUse">
<stop stop-color="#E7FFFE" stop-opacity="0"/>
<stop offset="1" stop-color="#008B9A"/>
</linearGradient>
<linearGradient id="paint46_linear" x1="-17.8089" y1="181.851" x2="-16.7354" y2="159.965" gradientUnits="userSpaceOnUse">
<stop stop-color="#00DED3" stop-opacity="0"/>
<stop offset="1" stop-color="#008B9A"/>
</linearGradient>
<linearGradient id="paint47_linear" x1="503.502" y1="386.56" x2="499.457" y2="255.378" gradientUnits="userSpaceOnUse">
<stop stop-color="#00ABA1" stop-opacity="0"/>
<stop offset="1" stop-color="#00D6CF"/>
</linearGradient>
<linearGradient id="paint48_linear" x1="470.826" y1="368.989" x2="470.826" y2="314.337" gradientUnits="userSpaceOnUse">
<stop stop-color="#EFF0F2"/>
<stop offset="0.4469" stop-color="#00DDD2"/>
<stop offset="1" stop-color="#008B9A"/>
</linearGradient>
<linearGradient id="paint49_linear" x1="476.87" y1="365.793" x2="477.981" y2="343.141" gradientUnits="userSpaceOnUse">
<stop stop-color="#00DED3" stop-opacity="0"/>
<stop offset="1" stop-color="#008B9A"/>
</linearGradient>
<linearGradient id="paint50_linear" x1="1891.05" y1="409.46" x2="1889.36" y2="160.117" gradientUnits="userSpaceOnUse">
<stop stop-color="#00FFF0" stop-opacity="0"/>
<stop offset="1" stop-color="#00FFF8"/>
</linearGradient>
<linearGradient id="paint51_linear" x1="1883.19" y1="133.214" x2="1814.8" y2="133.214" gradientUnits="userSpaceOnUse">
<stop stop-color="#00DED3"/>
<stop offset="1" stop-color="#008B9A"/>
</linearGradient>
<linearGradient id="paint52_linear" x1="1954.1" y1="152.616" x2="1785.81" y2="36.8992" gradientUnits="userSpaceOnUse">
<stop stop-color="#00EADC"/>
<stop offset="0.393961" stop-color="#008B9A"/>
</linearGradient>
<linearGradient id="paint53_linear" x1="1890.79" y1="114.568" x2="1890.79" y2="-25.5036" gradientUnits="userSpaceOnUse">
<stop stop-color="#EFF0F2"/>
<stop offset="0.4469" stop-color="#00DDD2"/>
<stop offset="1" stop-color="#008B9A"/>
</linearGradient>
<linearGradient id="paint54_linear" x1="1891.5" y1="114.194" x2="1890.55" y2="188.038" gradientUnits="userSpaceOnUse">
<stop stop-color="#E7FFFE" stop-opacity="0"/>
<stop offset="1" stop-color="#008B9A"/>
</linearGradient>
<linearGradient id="paint55_linear" x1="1906.28" y1="106.377" x2="1909.13" y2="48.3187" gradientUnits="userSpaceOnUse">
<stop stop-color="#00DED3" stop-opacity="0"/>
<stop offset="1" stop-color="#008B9A"/>
</linearGradient>
<linearGradient id="paint56_linear" x1="1819.08" y1="350.279" x2="1750.69" y2="350.279" gradientUnits="userSpaceOnUse">
<stop stop-color="#00DED3"/>
<stop offset="1" stop-color="#008B9A"/>
</linearGradient>
<linearGradient id="paint57_linear" x1="1889.99" y1="369.68" x2="1721.69" y2="253.964" gradientUnits="userSpaceOnUse">
<stop stop-color="#00EADC"/>
<stop offset="0.393961" stop-color="#008B9A"/>
</linearGradient>
<linearGradient id="paint58_linear" x1="1826.68" y1="331.632" x2="1826.68" y2="191.561" gradientUnits="userSpaceOnUse">
<stop stop-color="#EFF0F2"/>
<stop offset="0.4469" stop-color="#00DDD2"/>
<stop offset="1" stop-color="#008B9A"/>
</linearGradient>
<linearGradient id="paint59_linear" x1="1827.39" y1="331.258" x2="1826.44" y2="405.103" gradientUnits="userSpaceOnUse">
<stop stop-color="#E7FFFE" stop-opacity="0"/>
<stop offset="1" stop-color="#008B9A"/>
</linearGradient>
<linearGradient id="paint60_linear" x1="1842.17" y1="323.441" x2="1845.02" y2="265.383" gradientUnits="userSpaceOnUse">
<stop stop-color="#00DED3" stop-opacity="0"/>
<stop offset="1" stop-color="#008B9A"/>
</linearGradient>
<linearGradient id="paint61_linear" x1="1755" y1="386.894" x2="1686.61" y2="386.894" gradientUnits="userSpaceOnUse">
<stop stop-color="#00DED3"/>
<stop offset="1" stop-color="#008B9A"/>
</linearGradient>
<linearGradient id="paint62_linear" x1="1825.91" y1="406.295" x2="1657.62" y2="290.579" gradientUnits="userSpaceOnUse">
<stop stop-color="#00EADC"/>
<stop offset="0.393961" stop-color="#008B9A"/>
</linearGradient>
<linearGradient id="paint63_linear" x1="1762.61" y1="368.248" x2="1762.61" y2="228.176" gradientUnits="userSpaceOnUse">
<stop stop-color="#EFF0F2"/>
<stop offset="0.4469" stop-color="#00DDD2"/>
<stop offset="1" stop-color="#008B9A"/>
</linearGradient>
<linearGradient id="paint64_linear" x1="1778.1" y1="360.057" x2="1780.94" y2="301.998" gradientUnits="userSpaceOnUse">
<stop stop-color="#00DED3" stop-opacity="0"/>
<stop offset="1" stop-color="#008B9A"/>
</linearGradient>
<linearGradient id="paint65_linear" x1="1755" y1="313.663" x2="1686.61" y2="313.663" gradientUnits="userSpaceOnUse">
<stop stop-color="#00DED3"/>
<stop offset="1" stop-color="#008B9A"/>
</linearGradient>
<linearGradient id="paint66_linear" x1="1825.91" y1="333.065" x2="1657.62" y2="217.348" gradientUnits="userSpaceOnUse">
<stop stop-color="#00EADC"/>
<stop offset="0.393961" stop-color="#008B9A"/>
</linearGradient>
<linearGradient id="paint67_linear" x1="1762.61" y1="295.018" x2="1762.61" y2="154.947" gradientUnits="userSpaceOnUse">
<stop stop-color="#EFF0F2"/>
<stop offset="0.4469" stop-color="#00DDD2"/>
<stop offset="1" stop-color="#008B9A"/>
</linearGradient>
<linearGradient id="paint68_linear" x1="1763.32" y1="294.644" x2="1762.36" y2="368.488" gradientUnits="userSpaceOnUse">
<stop stop-color="#E7FFFE" stop-opacity="0"/>
<stop offset="1" stop-color="#008B9A"/>
</linearGradient>
<linearGradient id="paint69_linear" x1="1778.1" y1="286.827" x2="1780.94" y2="228.769" gradientUnits="userSpaceOnUse">
<stop stop-color="#00DED3" stop-opacity="0"/>
<stop offset="1" stop-color="#008B9A"/>
</linearGradient>
<linearGradient id="paint70_linear" x1="1629.9" y1="386.894" x2="1561.51" y2="386.894" gradientUnits="userSpaceOnUse">
<stop stop-color="#00DED3"/>
<stop offset="1" stop-color="#008B9A"/>
</linearGradient>
<linearGradient id="paint71_linear" x1="1700.81" y1="406.295" x2="1532.52" y2="290.579" gradientUnits="userSpaceOnUse">
<stop stop-color="#00EADC"/>
<stop offset="0.393961" stop-color="#008B9A"/>
</linearGradient>
<linearGradient id="paint72_linear" x1="1637.51" y1="368.248" x2="1637.51" y2="228.176" gradientUnits="userSpaceOnUse">
<stop stop-color="#EFF0F2"/>
<stop offset="0.4469" stop-color="#00DDD2"/>
<stop offset="1" stop-color="#008B9A"/>
</linearGradient>
<linearGradient id="paint73_linear" x1="1653" y1="360.057" x2="1655.84" y2="301.998" gradientUnits="userSpaceOnUse">
<stop stop-color="#00DED3" stop-opacity="0"/>
<stop offset="1" stop-color="#008B9A"/>
</linearGradient>
<linearGradient id="paint74_linear" x1="1629.9" y1="310.614" x2="1561.51" y2="310.614" gradientUnits="userSpaceOnUse">
<stop stop-color="#00DED3"/>
<stop offset="1" stop-color="#008B9A"/>
</linearGradient>
<linearGradient id="paint75_linear" x1="1700.81" y1="330.015" x2="1532.52" y2="214.299" gradientUnits="userSpaceOnUse">
<stop stop-color="#00EADC"/>
<stop offset="0.393961" stop-color="#008B9A"/>
</linearGradient>
<linearGradient id="paint76_linear" x1="1637.51" y1="291.967" x2="1637.51" y2="151.896" gradientUnits="userSpaceOnUse">
<stop stop-color="#EFF0F2"/>
<stop offset="0.4469" stop-color="#00DDD2"/>
<stop offset="1" stop-color="#008B9A"/>
</linearGradient>
<linearGradient id="paint77_linear" x1="1638.22" y1="291.593" x2="1637.26" y2="365.438" gradientUnits="userSpaceOnUse">
<stop stop-color="#E7FFFE" stop-opacity="0"/>
<stop offset="1" stop-color="#008B9A"/>
</linearGradient>
<linearGradient id="paint78_linear" x1="1653" y1="283.776" x2="1655.84" y2="225.718" gradientUnits="userSpaceOnUse">
<stop stop-color="#00DED3" stop-opacity="0"/>
<stop offset="1" stop-color="#008B9A"/>
</linearGradient>
<linearGradient id="paint79_linear" x1="1629.71" y1="235.645" x2="1561.32" y2="235.645" gradientUnits="userSpaceOnUse">
<stop stop-color="#00DED3"/>
<stop offset="1" stop-color="#008B9A"/>
</linearGradient>
<linearGradient id="paint80_linear" x1="1700.62" y1="255.046" x2="1532.33" y2="139.33" gradientUnits="userSpaceOnUse">
<stop stop-color="#00EADC"/>
<stop offset="0.393961" stop-color="#008B9A"/>
</linearGradient>
<linearGradient id="paint81_linear" x1="1637.31" y1="216.999" x2="1637.31" y2="76.928" gradientUnits="userSpaceOnUse">
<stop stop-color="#EFF0F2"/>
<stop offset="0.4469" stop-color="#00DDD2"/>
<stop offset="1" stop-color="#008B9A"/>
</linearGradient>
<linearGradient id="paint82_linear" x1="1638.02" y1="216.625" x2="1637.07" y2="290.469" gradientUnits="userSpaceOnUse">
<stop stop-color="#E7FFFE" stop-opacity="0"/>
<stop offset="1" stop-color="#008B9A"/>
</linearGradient>
<linearGradient id="paint83_linear" x1="1652.8" y1="208.809" x2="1655.65" y2="150.75" gradientUnits="userSpaceOnUse">
<stop stop-color="#00DED3" stop-opacity="0"/>
<stop offset="1" stop-color="#008B9A"/>
</linearGradient>
<radialGradient id="paint84_radial" cx="0" cy="0" r="1" gradientUnits="userSpaceOnUse" gradientTransform="translate(1573.75 404.526) rotate(-90) scale(74.0025 69.1309)">
<stop stop-color="#A6D7E8" stop-opacity="0"/>
<stop offset="1" stop-color="white" stop-opacity="0.13"/>
</radialGradient>
<linearGradient id="paint85_linear" x1="1573.75" y1="330.523" x2="1573.75" y2="404.526" gradientUnits="userSpaceOnUse">
<stop stop-color="#CCE9F5"/>
<stop offset="0.860723" stop-color="white"/>
</linearGradient>
<linearGradient id="paint86_linear" x1="1573.99" y1="330.491" x2="1570.47" y2="410.807" gradientUnits="userSpaceOnUse">
<stop stop-color="#A6D7E8"/>
<stop offset="1" stop-color="#F2FFF7" stop-opacity="0"/>
</linearGradient>
<linearGradient id="paint87_linear" x1="1565.83" y1="347.227" x2="1497.44" y2="347.227" gradientUnits="userSpaceOnUse">
<stop stop-color="#00DED3"/>
<stop offset="1" stop-color="#008B9A"/>
</linearGradient>
<linearGradient id="paint88_linear" x1="1636.74" y1="366.628" x2="1468.44" y2="250.912" gradientUnits="userSpaceOnUse">
<stop stop-color="#00EADC"/>
<stop offset="0.393961" stop-color="#008B9A"/>
</linearGradient>
<linearGradient id="paint89_linear" x1="1573.43" y1="328.582" x2="1573.43" y2="188.51" gradientUnits="userSpaceOnUse">
<stop stop-color="#EFF0F2"/>
<stop offset="0.4469" stop-color="#00DDD2"/>
<stop offset="1" stop-color="#008B9A"/>
</linearGradient>
<linearGradient id="paint90_linear" x1="1574.14" y1="328.207" x2="1573.19" y2="402.051" gradientUnits="userSpaceOnUse">
<stop stop-color="#E7FFFE" stop-opacity="0"/>
<stop offset="1" stop-color="#008B9A"/>
</linearGradient>
<linearGradient id="paint91_linear" x1="1588.92" y1="320.391" x2="1591.77" y2="262.332" gradientUnits="userSpaceOnUse">
<stop stop-color="#00DED3" stop-opacity="0"/>
<stop offset="1" stop-color="#008B9A"/>
</linearGradient>
<linearGradient id="paint92_linear" x1="1485.45" y1="550.833" x2="1477.11" y2="211.14" gradientUnits="userSpaceOnUse">
<stop stop-color="#00FFF0" stop-opacity="0"/>
<stop offset="1" stop-color="#00FFF8"/>
</linearGradient>
<linearGradient id="paint93_linear" x1="1482.49" y1="192.967" x2="1456.71" y2="192.967" gradientUnits="userSpaceOnUse">
<stop stop-color="#00DED3"/>
<stop offset="1" stop-color="#008B9A"/>
</linearGradient>
<linearGradient id="paint94_linear" x1="1509.22" y1="200.281" x2="1445.78" y2="156.661" gradientUnits="userSpaceOnUse">
<stop stop-color="#00EADC"/>
<stop offset="0.393961" stop-color="#008B9A"/>
</linearGradient>
<linearGradient id="paint95_linear" x1="1485.35" y1="185.938" x2="1485.35" y2="133.137" gradientUnits="userSpaceOnUse">
<stop stop-color="#EFF0F2"/>
<stop offset="0.4469" stop-color="#00DDD2"/>
<stop offset="1" stop-color="#008B9A"/>
</linearGradient>
<linearGradient id="paint96_linear" x1="1485.62" y1="185.797" x2="1485.26" y2="213.633" gradientUnits="userSpaceOnUse">
<stop stop-color="#E7FFFE" stop-opacity="0"/>
<stop offset="1" stop-color="#008B9A"/>
</linearGradient>
<linearGradient id="paint97_linear" x1="1491.19" y1="182.851" x2="1492.26" y2="160.965" gradientUnits="userSpaceOnUse">
<stop stop-color="#00DED3" stop-opacity="0"/>
<stop offset="1" stop-color="#008B9A"/>
</linearGradient>
<linearGradient id="paint98_linear" x1="1456.42" y1="148.916" x2="1452.38" y2="17.7342" gradientUnits="userSpaceOnUse">
<stop stop-color="#00ABA1" stop-opacity="0"/>
<stop offset="1" stop-color="#00D6CF"/>
</linearGradient>
</defs>
</svg>
