<svg width="23" height="118" viewBox="0 0 23 118" fill="none" xmlns="http://www.w3.org/2000/svg">
<path opacity="0.3" d="M22.6763 118H9.34601e-05V19.7368H22.6763V118Z" fill="url(#paint0_linear)"/>
<path d="M0.000196457 19.8565L11.3059 26.4312V13.1445L0.000196457 6.56982V19.8565Z" fill="url(#paint1_linear)"/>
<path d="M22.6116 19.8565L11.3059 26.4312V13.1445L22.6116 6.56982V19.8565Z" fill="url(#paint2_linear)"/>
<path d="M2.67029e-05 6.57314L11.3022 0L22.6115 6.57314L11.3022 13.1391L2.67029e-05 6.57314Z" fill="url(#paint3_linear)"/>
<path opacity="0.3" d="M0.152878 19.7885L11.3023 13.2917L22.4587 19.7885L11.3023 26.278L0.152878 19.7885Z" fill="url(#paint4_linear)"/>
<path opacity="0.2" d="M11.3057 13.1845L22.6115 19.7086V6.52413L11.3057 0V13.1845Z" fill="url(#paint5_linear)"/>
<defs>
<linearGradient id="paint0_linear" x1="11.3906" y1="118" x2="10.0028" y2="22.7899" gradientUnits="userSpaceOnUse">
<stop stop-color="#00FFF0" stop-opacity="0"/>
<stop offset="1" stop-color="#00FFF8"/>
</linearGradient>
<linearGradient id="paint1_linear" x1="9.96298" y1="16.4991" x2="-2.17185" y2="16.4991" gradientUnits="userSpaceOnUse">
<stop stop-color="#00DED3"/>
<stop offset="1" stop-color="#008B9A"/>
</linearGradient>
<linearGradient id="paint2_linear" x1="22.5454" y1="19.9416" x2="-7.31639" y2="-0.590774" gradientUnits="userSpaceOnUse">
<stop stop-color="#00EADC"/>
<stop offset="0.393961" stop-color="#008B9A"/>
</linearGradient>
<linearGradient id="paint3_linear" x1="11.3121" y1="13.1904" x2="11.3121" y2="-11.6635" gradientUnits="userSpaceOnUse">
<stop stop-color="#EFF0F2"/>
<stop offset="0.4469" stop-color="#00DDD2"/>
<stop offset="1" stop-color="#008B9A"/>
</linearGradient>
<linearGradient id="paint4_linear" x1="11.438" y1="13.1238" x2="11.269" y2="26.2265" gradientUnits="userSpaceOnUse">
<stop stop-color="#E7FFFE" stop-opacity="0"/>
<stop offset="1" stop-color="#008B9A"/>
</linearGradient>
<linearGradient id="paint5_linear" x1="14.0607" y1="11.737" x2="14.566" y2="1.43533" gradientUnits="userSpaceOnUse">
<stop stop-color="#00DED3" stop-opacity="0"/>
<stop offset="1" stop-color="#008B9A"/>
</linearGradient>
</defs>
</svg>
