<svg width="35" height="143" viewBox="0 0 35 143" fill="none" xmlns="http://www.w3.org/2000/svg">
<path opacity="0.3" d="M34.985 143H0.000366211V30.7297H34.985V143Z" fill="url(#paint0_linear)"/>
<path d="M0.000518799 30.722L17.4929 40.8945V20.3371L0.000518799 10.1647V30.722Z" fill="url(#paint1_linear)"/>
<path d="M34.9852 30.722L17.4928 40.8945V20.3371L34.9852 10.1647V30.722Z" fill="url(#paint2_linear)"/>
<path d="M0 10.17L17.4868 0L34.9847 10.17L17.4868 20.3289L0 10.17Z" fill="url(#paint3_linear)"/>
<path opacity="0.3" d="M0.236927 30.6171L17.4874 20.5653L34.7488 30.6171L17.4874 40.6579L0.236927 30.6171Z" fill="url(#paint4_linear)"/>
<path opacity="0.2" d="M17.4923 20.3992L34.9847 30.4934V10.0942L17.4923 0V20.3992Z" fill="url(#paint5_linear)"/>
<defs>
<linearGradient id="paint0_linear" x1="17.5735" y1="143" x2="16.3992" y2="34.2075" gradientUnits="userSpaceOnUse">
<stop stop-color="#00FFF0" stop-opacity="0"/>
<stop offset="1" stop-color="#00FFF8"/>
</linearGradient>
<linearGradient id="paint1_linear" x1="15.4151" y1="25.5274" x2="-3.3601" y2="25.5274" gradientUnits="userSpaceOnUse">
<stop stop-color="#00DED3"/>
<stop offset="1" stop-color="#008B9A"/>
</linearGradient>
<linearGradient id="paint2_linear" x1="34.8828" y1="30.8537" x2="-11.3198" y2="-0.914293" gradientUnits="userSpaceOnUse">
<stop stop-color="#00EADC"/>
<stop offset="0.393961" stop-color="#008B9A"/>
</linearGradient>
<linearGradient id="paint3_linear" x1="17.5021" y1="20.4083" x2="17.5021" y2="-18.0459" gradientUnits="userSpaceOnUse">
<stop stop-color="#EFF0F2"/>
<stop offset="0.4469" stop-color="#00DDD2"/>
<stop offset="1" stop-color="#008B9A"/>
</linearGradient>
<linearGradient id="paint4_linear" x1="17.6974" y1="20.3054" x2="17.4359" y2="40.5781" gradientUnits="userSpaceOnUse">
<stop stop-color="#E7FFFE" stop-opacity="0"/>
<stop offset="1" stop-color="#008B9A"/>
</linearGradient>
<linearGradient id="paint5_linear" x1="21.7548" y1="18.1597" x2="22.5366" y2="2.22077" gradientUnits="userSpaceOnUse">
<stop stop-color="#00DED3" stop-opacity="0"/>
<stop offset="1" stop-color="#008B9A"/>
</linearGradient>
</defs>
</svg>
