<svg width="1920" height="968" viewBox="0 0 1920 968" fill="none" xmlns="http://www.w3.org/2000/svg">
<path opacity="0.3" d="M554.846 821.095H501V648.297H554.846V821.095Z" fill="url(#paint0_linear)"/>
<path d="M501 648.285L527.923 663.942V632.301L501 616.645V648.285Z" fill="url(#paint1_linear)"/>
<path d="M554.846 648.285L527.923 663.942V632.301L554.846 616.645V648.285Z" fill="url(#paint2_linear)"/>
<path d="M501 616.653L527.915 601L554.846 616.653L527.915 632.289L501 616.653Z" fill="url(#paint3_linear)"/>
<path opacity="0.3" d="M501.364 648.124L527.915 632.653L554.482 648.124L527.915 663.578L501.364 648.124Z" fill="url(#paint4_linear)"/>
<path opacity="0.2" d="M527.923 632.397L554.846 647.933V616.536L527.923 601V632.397Z" fill="url(#paint5_linear)"/>
<path opacity="0.3" d="M500.985 934H466V821.73H500.985V934Z" fill="url(#paint6_linear)"/>
<path d="M466.001 821.722L483.493 831.894V811.337L466.001 801.165V821.722Z" fill="url(#paint7_linear)"/>
<path d="M500.985 821.722L483.493 831.894V811.337L500.985 801.165V821.722Z" fill="url(#paint8_linear)"/>
<path d="M466 801.17L483.487 791L500.985 801.17L483.487 811.329L466 801.17Z" fill="url(#paint9_linear)"/>
<path opacity="0.3" d="M466.237 821.617L483.487 811.565L500.749 821.617L483.487 831.658L466.237 821.617Z" fill="url(#paint10_linear)"/>
<path opacity="0.2" d="M483.492 811.399L500.985 821.493V801.094L483.492 791V811.399Z" fill="url(#paint11_linear)"/>
<path opacity="0.3" d="M1643.24 507H1600V319.634H1643.24V507Z" fill="url(#paint12_linear)"/>
<path d="M1600 319.862L1621.56 332.398V307.063L1600 294.527V319.862Z" fill="url(#paint13_linear)"/>
<path d="M1643.12 319.862L1621.56 332.398V307.063L1643.12 294.527V319.862Z" fill="url(#paint14_linear)"/>
<path d="M1600 294.534L1621.55 282L1643.11 294.534L1621.55 307.053L1600 294.534Z" fill="url(#paint15_linear)"/>
<path opacity="0.3" d="M1600.29 319.733L1621.55 307.345L1642.82 319.733L1621.55 332.107L1600.29 319.733Z" fill="url(#paint16_linear)"/>
<path opacity="0.2" d="M1621.56 307.14L1643.11 319.58V294.44L1621.56 282V307.14Z" fill="url(#paint17_linear)"/>
<path opacity="0.3" d="M1599.68 263H1577V164.737H1599.68V263Z" fill="url(#paint18_linear)"/>
<path d="M1577 164.857L1588.31 171.431V158.145L1577 151.57V164.857Z" fill="url(#paint19_linear)"/>
<path d="M1599.61 164.857L1588.31 171.431V158.145L1599.61 151.57V164.857Z" fill="url(#paint20_linear)"/>
<path d="M1577 151.573L1588.3 145L1599.61 151.573L1588.3 158.139L1577 151.573Z" fill="url(#paint21_linear)"/>
<path opacity="0.3" d="M1577.15 164.788L1588.3 158.292L1599.46 164.788L1588.3 171.278L1577.15 164.788Z" fill="url(#paint22_linear)"/>
<path opacity="0.2" d="M1588.31 158.184L1599.61 164.709V151.524L1588.31 145V158.184Z" fill="url(#paint23_linear)"/>
<defs>
<linearGradient id="paint0_linear" x1="528.047" y1="821.095" x2="526.24" y2="653.65" gradientUnits="userSpaceOnUse">
<stop stop-color="#00FFF0" stop-opacity="0"/>
<stop offset="1" stop-color="#00FFF8"/>
</linearGradient>
<linearGradient id="paint1_linear" x1="524.725" y1="640.29" x2="495.828" y2="640.29" gradientUnits="userSpaceOnUse">
<stop stop-color="#00DED3"/>
<stop offset="1" stop-color="#008B9A"/>
</linearGradient>
<linearGradient id="paint2_linear" x1="554.688" y1="648.488" x2="483.577" y2="599.593" gradientUnits="userSpaceOnUse">
<stop stop-color="#00EADC"/>
<stop offset="0.393961" stop-color="#008B9A"/>
</linearGradient>
<linearGradient id="paint3_linear" x1="527.938" y1="632.411" x2="527.938" y2="573.225" gradientUnits="userSpaceOnUse">
<stop stop-color="#EFF0F2"/>
<stop offset="0.4469" stop-color="#00DDD2"/>
<stop offset="1" stop-color="#008B9A"/>
</linearGradient>
<linearGradient id="paint4_linear" x1="528.238" y1="632.253" x2="527.835" y2="663.455" gradientUnits="userSpaceOnUse">
<stop stop-color="#E7FFFE" stop-opacity="0"/>
<stop offset="1" stop-color="#008B9A"/>
</linearGradient>
<linearGradient id="paint5_linear" x1="534.484" y1="628.95" x2="535.687" y2="604.418" gradientUnits="userSpaceOnUse">
<stop stop-color="#00DED3" stop-opacity="0"/>
<stop offset="1" stop-color="#008B9A"/>
</linearGradient>
<linearGradient id="paint6_linear" x1="483.574" y1="934" x2="482.399" y2="825.208" gradientUnits="userSpaceOnUse">
<stop stop-color="#00FFF0" stop-opacity="0"/>
<stop offset="1" stop-color="#00FFF8"/>
</linearGradient>
<linearGradient id="paint7_linear" x1="481.415" y1="816.527" x2="462.64" y2="816.527" gradientUnits="userSpaceOnUse">
<stop stop-color="#00DED3"/>
<stop offset="1" stop-color="#008B9A"/>
</linearGradient>
<linearGradient id="paint8_linear" x1="500.883" y1="821.854" x2="454.68" y2="790.086" gradientUnits="userSpaceOnUse">
<stop stop-color="#00EADC"/>
<stop offset="0.393961" stop-color="#008B9A"/>
</linearGradient>
<linearGradient id="paint9_linear" x1="483.502" y1="811.408" x2="483.502" y2="772.954" gradientUnits="userSpaceOnUse">
<stop stop-color="#EFF0F2"/>
<stop offset="0.4469" stop-color="#00DDD2"/>
<stop offset="1" stop-color="#008B9A"/>
</linearGradient>
<linearGradient id="paint10_linear" x1="483.697" y1="811.305" x2="483.436" y2="831.578" gradientUnits="userSpaceOnUse">
<stop stop-color="#E7FFFE" stop-opacity="0"/>
<stop offset="1" stop-color="#008B9A"/>
</linearGradient>
<linearGradient id="paint11_linear" x1="487.755" y1="809.16" x2="488.537" y2="793.221" gradientUnits="userSpaceOnUse">
<stop stop-color="#00DED3" stop-opacity="0"/>
<stop offset="1" stop-color="#008B9A"/>
</linearGradient>
<linearGradient id="paint12_linear" x1="1621.72" y1="507" x2="1619.07" y2="325.455" gradientUnits="userSpaceOnUse">
<stop stop-color="#00FFF0" stop-opacity="0"/>
<stop offset="1" stop-color="#00FFF8"/>
</linearGradient>
<linearGradient id="paint13_linear" x1="1619" y1="313.46" x2="1595.86" y2="313.46" gradientUnits="userSpaceOnUse">
<stop stop-color="#00DED3"/>
<stop offset="1" stop-color="#008B9A"/>
</linearGradient>
<linearGradient id="paint14_linear" x1="1642.99" y1="320.024" x2="1586.05" y2="280.873" gradientUnits="userSpaceOnUse">
<stop stop-color="#00EADC"/>
<stop offset="0.393961" stop-color="#008B9A"/>
</linearGradient>
<linearGradient id="paint15_linear" x1="1621.57" y1="307.151" x2="1621.57" y2="259.76" gradientUnits="userSpaceOnUse">
<stop stop-color="#EFF0F2"/>
<stop offset="0.4469" stop-color="#00DDD2"/>
<stop offset="1" stop-color="#008B9A"/>
</linearGradient>
<linearGradient id="paint16_linear" x1="1621.81" y1="307.024" x2="1621.49" y2="332.008" gradientUnits="userSpaceOnUse">
<stop stop-color="#E7FFFE" stop-opacity="0"/>
<stop offset="1" stop-color="#008B9A"/>
</linearGradient>
<linearGradient id="paint17_linear" x1="1626.81" y1="304.38" x2="1627.77" y2="284.737" gradientUnits="userSpaceOnUse">
<stop stop-color="#00DED3" stop-opacity="0"/>
<stop offset="1" stop-color="#008B9A"/>
</linearGradient>
<linearGradient id="paint18_linear" x1="1588.39" y1="263" x2="1587" y2="167.79" gradientUnits="userSpaceOnUse">
<stop stop-color="#00FFF0" stop-opacity="0"/>
<stop offset="1" stop-color="#00FFF8"/>
</linearGradient>
<linearGradient id="paint19_linear" x1="1586.96" y1="161.499" x2="1574.83" y2="161.499" gradientUnits="userSpaceOnUse">
<stop stop-color="#00DED3"/>
<stop offset="1" stop-color="#008B9A"/>
</linearGradient>
<linearGradient id="paint20_linear" x1="1599.55" y1="164.942" x2="1569.68" y2="144.409" gradientUnits="userSpaceOnUse">
<stop stop-color="#00EADC"/>
<stop offset="0.393961" stop-color="#008B9A"/>
</linearGradient>
<linearGradient id="paint21_linear" x1="1588.31" y1="158.19" x2="1588.31" y2="133.337" gradientUnits="userSpaceOnUse">
<stop stop-color="#EFF0F2"/>
<stop offset="0.4469" stop-color="#00DDD2"/>
<stop offset="1" stop-color="#008B9A"/>
</linearGradient>
<linearGradient id="paint22_linear" x1="1588.44" y1="158.124" x2="1588.27" y2="171.226" gradientUnits="userSpaceOnUse">
<stop stop-color="#E7FFFE" stop-opacity="0"/>
<stop offset="1" stop-color="#008B9A"/>
</linearGradient>
<linearGradient id="paint23_linear" x1="1591.06" y1="156.737" x2="1591.57" y2="146.435" gradientUnits="userSpaceOnUse">
<stop stop-color="#00DED3" stop-opacity="0"/>
<stop offset="1" stop-color="#008B9A"/>
</linearGradient>
</defs>
</svg>
