<svg width="54" height="221" viewBox="0 0 54 221" fill="none" xmlns="http://www.w3.org/2000/svg">
<path opacity="0.3" d="M53.8458 220.095H2.67029e-05V47.2969H53.8458V220.095Z" fill="url(#paint0_linear)"/>
<path d="M7.43866e-05 47.2851L26.923 62.9418V31.3015L7.43866e-05 15.6448V47.2851Z" fill="url(#paint1_linear)"/>
<path d="M53.8458 47.2851L26.9229 62.9418V31.3015L53.8458 15.6448V47.2851Z" fill="url(#paint2_linear)"/>
<path d="M0.000148773 15.653L26.9145 0L53.8459 15.653L26.9145 31.2888L0.000148773 15.653Z" fill="url(#paint3_linear)"/>
<path opacity="0.3" d="M0.363846 47.1235L26.9145 31.6526L53.482 47.1235L26.9145 62.5775L0.363846 47.1235Z" fill="url(#paint4_linear)"/>
<path opacity="0.2" d="M26.923 31.3969L53.8459 46.9332V15.5363L26.923 0V31.3969Z" fill="url(#paint5_linear)"/>
<defs>
<linearGradient id="paint0_linear" x1="27.0473" y1="220.095" x2="25.2399" y2="52.6496" gradientUnits="userSpaceOnUse">
<stop stop-color="#00FFF0" stop-opacity="0"/>
<stop offset="1" stop-color="#00FFF8"/>
</linearGradient>
<linearGradient id="paint1_linear" x1="23.725" y1="39.2899" x2="-5.17234" y2="39.2899" gradientUnits="userSpaceOnUse">
<stop stop-color="#00DED3"/>
<stop offset="1" stop-color="#008B9A"/>
</linearGradient>
<linearGradient id="paint2_linear" x1="53.6882" y1="47.4878" x2="-17.4232" y2="-1.40714" gradientUnits="userSpaceOnUse">
<stop stop-color="#00EADC"/>
<stop offset="0.393961" stop-color="#008B9A"/>
</linearGradient>
<linearGradient id="paint3_linear" x1="26.9381" y1="31.411" x2="26.9381" y2="-27.7749" gradientUnits="userSpaceOnUse">
<stop stop-color="#EFF0F2"/>
<stop offset="0.4469" stop-color="#00DDD2"/>
<stop offset="1" stop-color="#008B9A"/>
</linearGradient>
<linearGradient id="paint4_linear" x1="27.2376" y1="31.2526" x2="26.8352" y2="62.4547" gradientUnits="userSpaceOnUse">
<stop stop-color="#E7FFFE" stop-opacity="0"/>
<stop offset="1" stop-color="#008B9A"/>
</linearGradient>
<linearGradient id="paint5_linear" x1="33.4835" y1="27.95" x2="34.6868" y2="3.41804" gradientUnits="userSpaceOnUse">
<stop stop-color="#00DED3" stop-opacity="0"/>
<stop offset="1" stop-color="#008B9A"/>
</linearGradient>
</defs>
</svg>
