<svg width="44" height="225" viewBox="0 0 44 225" fill="none" xmlns="http://www.w3.org/2000/svg">
<path opacity="0.3" d="M43.2385 225H7.24792e-05V37.6335H43.2385V225Z" fill="url(#paint0_linear)"/>
<path d="M0.000247955 37.8616L21.5577 50.3981V25.0634L0.000247955 12.5269V37.8616Z" fill="url(#paint1_linear)"/>
<path d="M43.1151 37.8616L21.5576 50.3981V25.0634L43.1151 12.5269V37.8616Z" fill="url(#paint2_linear)"/>
<path d="M7.62939e-06 12.5335L21.5507 0L43.115 12.5335L21.5507 25.0533L7.62939e-06 12.5335Z" fill="url(#paint3_linear)"/>
<path opacity="0.3" d="M0.291508 37.7325L21.5509 25.3447L42.8239 37.7325L21.5509 50.1067L0.291508 37.7325Z" fill="url(#paint4_linear)"/>
<path opacity="0.2" d="M21.5575 25.1399L43.115 37.5799V12.4401L21.5575 0V25.1399Z" fill="url(#paint5_linear)"/>
<defs>
<linearGradient id="paint0_linear" x1="21.7192" y1="225" x2="19.0731" y2="43.455" gradientUnits="userSpaceOnUse">
<stop stop-color="#00FFF0" stop-opacity="0"/>
<stop offset="1" stop-color="#00FFF8"/>
</linearGradient>
<linearGradient id="paint1_linear" x1="18.9971" y1="31.4598" x2="-4.14137" y2="31.4598" gradientUnits="userSpaceOnUse">
<stop stop-color="#00DED3"/>
<stop offset="1" stop-color="#008B9A"/>
</linearGradient>
<linearGradient id="paint2_linear" x1="42.9889" y1="38.024" x2="-13.9509" y2="-1.12682" gradientUnits="userSpaceOnUse">
<stop stop-color="#00EADC"/>
<stop offset="0.393961" stop-color="#008B9A"/>
</linearGradient>
<linearGradient id="paint3_linear" x1="21.5695" y1="25.1511" x2="21.5695" y2="-22.2397" gradientUnits="userSpaceOnUse">
<stop stop-color="#EFF0F2"/>
<stop offset="0.4469" stop-color="#00DDD2"/>
<stop offset="1" stop-color="#008B9A"/>
</linearGradient>
<linearGradient id="paint4_linear" x1="21.8097" y1="25.0244" x2="21.4874" y2="50.0084" gradientUnits="userSpaceOnUse">
<stop stop-color="#E7FFFE" stop-opacity="0"/>
<stop offset="1" stop-color="#008B9A"/>
</linearGradient>
<linearGradient id="paint5_linear" x1="26.8105" y1="22.3799" x2="27.774" y2="2.73686" gradientUnits="userSpaceOnUse">
<stop stop-color="#00DED3" stop-opacity="0"/>
<stop offset="1" stop-color="#008B9A"/>
</linearGradient>
</defs>
</svg>
