<svg width="41" height="40" viewBox="0 0 41 40" fill="none" xmlns="http://www.w3.org/2000/svg">
<path d="M23.4031 16.1471L26.1477 18.2982L23.6055 22.6926L20.3732 21.3923C20.043 21.2594 19.667 21.3121 19.3861 21.5306C18.7395 22.0336 18.0147 22.4515 17.2461 22.7809C16.9246 22.9186 16.6984 23.2144 16.6497 23.5608L16.1664 27H11.0708L10.5903 23.5808C10.5412 23.2314 10.3116 22.9338 9.98615 22.7976C9.20924 22.4723 8.50562 22.0575 7.85395 21.5506C7.57297 21.3321 7.19701 21.2794 6.86678 21.4123L3.63448 22.7126L1.09228 18.3182L3.83689 16.1671C4.11485 15.9492 4.25729 15.6009 4.21161 15.2507C4.15512 14.8176 4.12001 14.4032 4.12001 14C4.12001 13.5964 4.15521 13.1831 4.21084 12.7751C4.25884 12.4231 4.11649 12.0721 3.83689 11.8529L1.09228 9.70177L3.63448 5.30739L6.86678 6.60774C7.19701 6.74059 7.57297 6.68789 7.85395 6.46935C8.50056 5.96643 9.22534 5.54854 9.99393 5.21915C10.3154 5.08135 10.5416 4.78557 10.5903 4.43917L11.0736 1H16.1692L16.6497 4.41917C16.6988 4.76855 16.9284 5.06621 17.2539 5.20244C18.0308 5.52766 18.7344 5.94249 19.3861 6.44935C19.667 6.66789 20.043 6.72059 20.3732 6.58774L23.6055 5.28739L26.1477 9.68177L23.4031 11.8329C23.1252 12.0508 22.9827 12.3991 23.0284 12.7493C23.0849 13.1824 23.12 13.5968 23.12 14C23.12 14.4036 23.0848 14.8169 23.0292 15.2249C22.9812 15.5769 23.1235 15.9279 23.4031 16.1471ZM36.9301 31.7186C36.8791 32.0754 37.024 32.432 37.3095 32.652L38.8284 33.8229L37.5097 36.0941L35.7128 35.3721C35.3745 35.2362 34.989 35.2951 34.7068 35.526C34.3642 35.8063 33.9343 36.0438 33.4339 36.2662C33.1197 36.4058 32.8993 36.6971 32.8502 37.0374L32.579 38.92H29.961L29.6898 37.0374C29.6385 36.6816 29.4002 36.3807 29.0657 36.2492C28.6072 36.0691 28.1905 35.821 27.7963 35.5125C27.5144 35.2919 27.1361 35.2388 26.8043 35.3733L25.0296 36.0927L23.7023 33.8069L25.2145 32.6289C25.497 32.4089 25.6403 32.0546 25.5902 31.7001C25.5208 31.2091 25.5208 30.7109 25.5902 30.2199C25.6403 29.8654 25.497 29.5111 25.2145 29.2911L23.7023 28.1131L25.0296 25.8273L26.8043 26.5467C27.1361 26.6812 27.5144 26.6281 27.7963 26.4075C28.1687 26.1161 28.6086 25.8749 29.1061 25.6538C29.4203 25.5142 29.6408 25.2229 29.6898 24.8826L29.961 23H32.5561L32.8302 24.9026C32.8815 25.2584 33.1198 25.5593 33.4544 25.6908C33.9128 25.8708 34.3295 26.119 34.7237 26.4275C35.0056 26.6481 35.384 26.7012 35.7157 26.5667L37.4904 25.8473L38.8177 28.1331L37.3055 29.3111C37.003 29.5467 36.8619 29.9346 36.9422 30.3095C36.9821 30.4959 37 30.7195 37 30.98C37 31.2007 36.9703 31.4366 36.9301 31.7186ZM8.62001 14C8.62001 16.7523 10.8677 19 13.62 19C16.3723 19 18.62 16.7523 18.62 14C18.62 11.2477 16.3723 9 13.62 9C10.8677 9 8.62001 11.2477 8.62001 14Z" stroke="#008B9A" stroke-width="2" stroke-linecap="round" stroke-linejoin="round"/>
</svg>
