<svg width="40" height="44" viewBox="0 0 40 44" fill="none" xmlns="http://www.w3.org/2000/svg">
<path d="M18.4839 1.39734C19.4212 0.867554 20.5788 0.867554 21.5161 1.39734L37.4998 10.4314C38.4349 10.9599 39 11.9289 39 12.9659V31.0341C39 32.0711 38.4349 33.0401 37.4998 33.5686L21.5161 42.6027C20.5788 43.1324 19.4212 43.1324 18.4839 42.6027L2.50022 33.5686C1.56513 33.0401 1 32.0711 1 31.0341V12.9659C1 11.9289 1.56513 10.9599 2.50022 10.4314L18.4839 1.39734Z" stroke="#008B9A" stroke-width="2"/>
<path d="M18.3816 11.4319C19.3829 10.856 20.6171 10.856 21.6184 11.4319L28.3845 15.3232C29.3854 15.8988 30 16.9611 30 18.1087V25.8913C30 27.0389 29.3854 28.1012 28.3845 28.6768L21.6184 32.5681C20.6171 33.144 19.3829 33.144 18.3816 32.5681L11.6155 28.6768C10.6146 28.1012 10 27.0389 10 25.8913V18.1087C10 16.9611 10.6146 15.8988 11.6155 15.3232L18.3816 11.4319Z" stroke="#008B9A" stroke-width="2"/>
<path d="M20 33V22M20 22L10.5 16.5M20 22L30 17" stroke="#008B9A" stroke-width="2"/>
<path d="M1.5 32.5L10.5 27.5M29.5 27.5L38.5 32.5M20 11V1" stroke="#008B9A" stroke-width="2"/>
</svg>
