<svg width="42" height="46" viewBox="0 0 42 46" fill="none" xmlns="http://www.w3.org/2000/svg">
<path d="M40.2098 10.3413L40.21 10.3414C40.4109 10.4411 40.5818 10.5889 40.7074 10.77C40.8329 10.9509 40.9095 11.1593 40.9309 11.3759C41.0112 12.1998 42.8137 33.0434 21.7316 44.827L21.7285 44.8288C21.5334 44.9387 21.3124 44.9979 21.0865 44.9999C20.8606 45.002 20.6385 44.9469 20.4413 44.8405L20.4402 44.8399C9.44873 38.9278 4.62726 30.5892 2.53812 23.7133C1.49069 20.2659 1.12893 17.1795 1.03091 14.9449C0.933246 12.7182 1.09807 11.3523 1.09964 11.3393L1.09965 11.3392L1.09968 11.3392L1.10053 11.3325C1.15456 10.9126 1.41991 10.5364 1.81835 10.3366C1.81904 10.3362 1.81973 10.3359 1.82042 10.3355L20.4784 1.13861L20.4792 1.13819C20.6637 1.04704 20.8678 0.999545 21.0751 1C21.2823 1.00046 21.4862 1.04886 21.6702 1.14082L21.6726 1.14202L40.2098 10.3413Z" stroke="#008B9A" stroke-width="2" stroke-linecap="round" stroke-linejoin="round"/>
<path d="M12.5 22.5L18 28L30 16" stroke="#008B9A" stroke-width="2" stroke-linecap="round" stroke-linejoin="round"/>
</svg>
