<svg width="1920" height="480" viewBox="0 0 1920 480" fill="none" xmlns="http://www.w3.org/2000/svg">
<path opacity="0.3" d="M515.846 457.095H462V284.297H515.846V457.095Z" fill="url(#paint0_linear)"/>
<path d="M462 284.285L488.923 299.942V268.301L462 252.645V284.285Z" fill="url(#paint1_linear)"/>
<path d="M515.846 284.285L488.923 299.942V268.301L515.846 252.645V284.285Z" fill="url(#paint2_linear)"/>
<path d="M462 252.653L488.915 237L515.846 252.653L488.915 268.289L462 252.653Z" fill="url(#paint3_linear)"/>
<path opacity="0.3" d="M462.364 284.123L488.915 268.652L515.482 284.123L488.915 299.577L462.364 284.123Z" fill="url(#paint4_linear)"/>
<path opacity="0.2" d="M488.923 268.397L515.846 283.933V252.536L488.923 237V268.397Z" fill="url(#paint5_linear)"/>
<path opacity="0.3" d="M1341.98 231H1307V118.729H1341.98V231Z" fill="url(#paint6_linear)"/>
<path d="M1307 118.722L1324.49 128.895V108.338L1307 98.165V118.722Z" fill="url(#paint7_linear)"/>
<path d="M1341.99 118.722L1324.49 128.895V108.338L1341.99 98.165V118.722Z" fill="url(#paint8_linear)"/>
<path d="M1307 98.17L1324.49 88L1341.98 98.17L1324.49 108.329L1307 98.17Z" fill="url(#paint9_linear)"/>
<path opacity="0.3" d="M1307.24 118.617L1324.49 108.565L1341.75 118.617L1324.49 128.658L1307.24 118.617Z" fill="url(#paint10_linear)"/>
<path opacity="0.2" d="M1324.49 108.399L1341.98 118.493V98.0942L1324.49 88V108.399Z" fill="url(#paint11_linear)"/>
<path opacity="0.3" d="M1420.24 431H1377V243.634H1420.24V431Z" fill="url(#paint12_linear)"/>
<path d="M1377 243.862L1398.56 256.399V231.064L1377 218.527V243.862Z" fill="url(#paint13_linear)"/>
<path d="M1420.12 243.862L1398.56 256.399V231.064L1420.12 218.527V243.862Z" fill="url(#paint14_linear)"/>
<path d="M1377 218.534L1398.55 206L1420.11 218.534L1398.55 231.053L1377 218.534Z" fill="url(#paint15_linear)"/>
<path opacity="0.3" d="M1377.29 243.733L1398.55 231.345L1419.82 243.733L1398.55 256.107L1377.29 243.733Z" fill="url(#paint16_linear)"/>
<path opacity="0.2" d="M1398.56 231.14L1420.11 243.58V218.44L1398.56 206V231.14Z" fill="url(#paint17_linear)"/>
<path opacity="0.3" d="M1486.68 225H1464V126.736H1486.68V225Z" fill="url(#paint18_linear)"/>
<path d="M1464 126.856L1475.31 133.431V120.144L1464 113.569V126.856Z" fill="url(#paint19_linear)"/>
<path d="M1486.61 126.856L1475.31 133.431V120.144L1486.61 113.569V126.856Z" fill="url(#paint20_linear)"/>
<path d="M1464 113.573L1475.3 107L1486.61 113.573L1475.3 120.139L1464 113.573Z" fill="url(#paint21_linear)"/>
<path opacity="0.3" d="M1464.15 126.789L1475.3 120.292L1486.46 126.789L1475.3 133.278L1464.15 126.789Z" fill="url(#paint22_linear)"/>
<path opacity="0.2" d="M1475.31 120.184L1486.61 126.709V113.524L1475.31 107V120.184Z" fill="url(#paint23_linear)"/>
<path opacity="0.3" d="M605.676 149H583V50.7363H605.676V149Z" fill="url(#paint24_linear)"/>
<path d="M583 50.856L594.306 57.4307V44.144L583 37.5693V50.856Z" fill="url(#paint25_linear)"/>
<path d="M605.611 50.856L594.306 57.4307V44.144L605.611 37.5693V50.856Z" fill="url(#paint26_linear)"/>
<path d="M583 37.5731L594.302 31L605.611 37.5731L594.302 44.1391L583 37.5731Z" fill="url(#paint27_linear)"/>
<path opacity="0.3" d="M583.153 50.7887L594.302 44.292L605.459 50.7887L594.302 57.2783L583.153 50.7887Z" fill="url(#paint28_linear)"/>
<path opacity="0.2" d="M594.306 44.1845L605.611 50.7086V37.5241L594.306 31V44.1845Z" fill="url(#paint29_linear)"/>
<defs>
<linearGradient id="paint0_linear" x1="489.047" y1="457.095" x2="487.24" y2="289.65" gradientUnits="userSpaceOnUse">
<stop stop-color="#00FFF0" stop-opacity="0"/>
<stop offset="1" stop-color="#00FFF8"/>
</linearGradient>
<linearGradient id="paint1_linear" x1="485.725" y1="276.29" x2="456.828" y2="276.29" gradientUnits="userSpaceOnUse">
<stop stop-color="#00DED3"/>
<stop offset="1" stop-color="#008B9A"/>
</linearGradient>
<linearGradient id="paint2_linear" x1="515.688" y1="284.488" x2="444.577" y2="235.593" gradientUnits="userSpaceOnUse">
<stop stop-color="#00EADC"/>
<stop offset="0.393961" stop-color="#008B9A"/>
</linearGradient>
<linearGradient id="paint3_linear" x1="488.938" y1="268.411" x2="488.938" y2="209.225" gradientUnits="userSpaceOnUse">
<stop stop-color="#EFF0F2"/>
<stop offset="0.4469" stop-color="#00DDD2"/>
<stop offset="1" stop-color="#008B9A"/>
</linearGradient>
<linearGradient id="paint4_linear" x1="489.238" y1="268.252" x2="488.835" y2="299.454" gradientUnits="userSpaceOnUse">
<stop stop-color="#E7FFFE" stop-opacity="0"/>
<stop offset="1" stop-color="#008B9A"/>
</linearGradient>
<linearGradient id="paint5_linear" x1="495.484" y1="264.95" x2="496.687" y2="240.418" gradientUnits="userSpaceOnUse">
<stop stop-color="#00DED3" stop-opacity="0"/>
<stop offset="1" stop-color="#008B9A"/>
</linearGradient>
<linearGradient id="paint6_linear" x1="1324.57" y1="231" x2="1323.4" y2="122.207" gradientUnits="userSpaceOnUse">
<stop stop-color="#00FFF0" stop-opacity="0"/>
<stop offset="1" stop-color="#00FFF8"/>
</linearGradient>
<linearGradient id="paint7_linear" x1="1322.42" y1="113.528" x2="1303.64" y2="113.528" gradientUnits="userSpaceOnUse">
<stop stop-color="#00DED3"/>
<stop offset="1" stop-color="#008B9A"/>
</linearGradient>
<linearGradient id="paint8_linear" x1="1341.88" y1="118.854" x2="1295.68" y2="87.0861" gradientUnits="userSpaceOnUse">
<stop stop-color="#00EADC"/>
<stop offset="0.393961" stop-color="#008B9A"/>
</linearGradient>
<linearGradient id="paint9_linear" x1="1324.5" y1="108.408" x2="1324.5" y2="69.9541" gradientUnits="userSpaceOnUse">
<stop stop-color="#EFF0F2"/>
<stop offset="0.4469" stop-color="#00DDD2"/>
<stop offset="1" stop-color="#008B9A"/>
</linearGradient>
<linearGradient id="paint10_linear" x1="1324.7" y1="108.306" x2="1324.44" y2="128.578" gradientUnits="userSpaceOnUse">
<stop stop-color="#E7FFFE" stop-opacity="0"/>
<stop offset="1" stop-color="#008B9A"/>
</linearGradient>
<linearGradient id="paint11_linear" x1="1328.75" y1="106.16" x2="1329.54" y2="90.2208" gradientUnits="userSpaceOnUse">
<stop stop-color="#00DED3" stop-opacity="0"/>
<stop offset="1" stop-color="#008B9A"/>
</linearGradient>
<linearGradient id="paint12_linear" x1="1398.72" y1="431" x2="1396.07" y2="249.455" gradientUnits="userSpaceOnUse">
<stop stop-color="#00FFF0" stop-opacity="0"/>
<stop offset="1" stop-color="#00FFF8"/>
</linearGradient>
<linearGradient id="paint13_linear" x1="1396" y1="237.46" x2="1372.86" y2="237.46" gradientUnits="userSpaceOnUse">
<stop stop-color="#00DED3"/>
<stop offset="1" stop-color="#008B9A"/>
</linearGradient>
<linearGradient id="paint14_linear" x1="1419.99" y1="244.024" x2="1363.05" y2="204.874" gradientUnits="userSpaceOnUse">
<stop stop-color="#00EADC"/>
<stop offset="0.393961" stop-color="#008B9A"/>
</linearGradient>
<linearGradient id="paint15_linear" x1="1398.57" y1="231.151" x2="1398.57" y2="183.76" gradientUnits="userSpaceOnUse">
<stop stop-color="#EFF0F2"/>
<stop offset="0.4469" stop-color="#00DDD2"/>
<stop offset="1" stop-color="#008B9A"/>
</linearGradient>
<linearGradient id="paint16_linear" x1="1398.81" y1="231.024" x2="1398.49" y2="256.008" gradientUnits="userSpaceOnUse">
<stop stop-color="#E7FFFE" stop-opacity="0"/>
<stop offset="1" stop-color="#008B9A"/>
</linearGradient>
<linearGradient id="paint17_linear" x1="1403.81" y1="228.38" x2="1404.77" y2="208.737" gradientUnits="userSpaceOnUse">
<stop stop-color="#00DED3" stop-opacity="0"/>
<stop offset="1" stop-color="#008B9A"/>
</linearGradient>
<linearGradient id="paint18_linear" x1="1475.39" y1="225" x2="1474" y2="129.789" gradientUnits="userSpaceOnUse">
<stop stop-color="#00FFF0" stop-opacity="0"/>
<stop offset="1" stop-color="#00FFF8"/>
</linearGradient>
<linearGradient id="paint19_linear" x1="1473.96" y1="123.499" x2="1461.83" y2="123.499" gradientUnits="userSpaceOnUse">
<stop stop-color="#00DED3"/>
<stop offset="1" stop-color="#008B9A"/>
</linearGradient>
<linearGradient id="paint20_linear" x1="1486.55" y1="126.941" x2="1456.68" y2="106.409" gradientUnits="userSpaceOnUse">
<stop stop-color="#00EADC"/>
<stop offset="0.393961" stop-color="#008B9A"/>
</linearGradient>
<linearGradient id="paint21_linear" x1="1475.31" y1="120.19" x2="1475.31" y2="95.3365" gradientUnits="userSpaceOnUse">
<stop stop-color="#EFF0F2"/>
<stop offset="0.4469" stop-color="#00DDD2"/>
<stop offset="1" stop-color="#008B9A"/>
</linearGradient>
<linearGradient id="paint22_linear" x1="1475.44" y1="120.124" x2="1475.27" y2="133.227" gradientUnits="userSpaceOnUse">
<stop stop-color="#E7FFFE" stop-opacity="0"/>
<stop offset="1" stop-color="#008B9A"/>
</linearGradient>
<linearGradient id="paint23_linear" x1="1478.06" y1="118.737" x2="1478.57" y2="108.435" gradientUnits="userSpaceOnUse">
<stop stop-color="#00DED3" stop-opacity="0"/>
<stop offset="1" stop-color="#008B9A"/>
</linearGradient>
<linearGradient id="paint24_linear" x1="594.39" y1="149" x2="593.003" y2="53.7894" gradientUnits="userSpaceOnUse">
<stop stop-color="#00FFF0" stop-opacity="0"/>
<stop offset="1" stop-color="#00FFF8"/>
</linearGradient>
<linearGradient id="paint25_linear" x1="592.963" y1="47.4986" x2="580.828" y2="47.4986" gradientUnits="userSpaceOnUse">
<stop stop-color="#00DED3"/>
<stop offset="1" stop-color="#008B9A"/>
</linearGradient>
<linearGradient id="paint26_linear" x1="605.545" y1="50.9412" x2="575.683" y2="30.4087" gradientUnits="userSpaceOnUse">
<stop stop-color="#00EADC"/>
<stop offset="0.393961" stop-color="#008B9A"/>
</linearGradient>
<linearGradient id="paint27_linear" x1="594.312" y1="44.1904" x2="594.312" y2="19.3365" gradientUnits="userSpaceOnUse">
<stop stop-color="#EFF0F2"/>
<stop offset="0.4469" stop-color="#00DDD2"/>
<stop offset="1" stop-color="#008B9A"/>
</linearGradient>
<linearGradient id="paint28_linear" x1="594.438" y1="44.124" x2="594.269" y2="57.2267" gradientUnits="userSpaceOnUse">
<stop stop-color="#E7FFFE" stop-opacity="0"/>
<stop offset="1" stop-color="#008B9A"/>
</linearGradient>
<linearGradient id="paint29_linear" x1="597.061" y1="42.737" x2="597.566" y2="32.4353" gradientUnits="userSpaceOnUse">
<stop stop-color="#00DED3" stop-opacity="0"/>
<stop offset="1" stop-color="#008B9A"/>
</linearGradient>
</defs>
</svg>
