<svg width="23" height="118" viewBox="0 0 23 118" fill="none" xmlns="http://www.w3.org/2000/svg">
<path opacity="0.3" d="M22.6761 118H-2.86102e-05V19.7363H22.6761V118Z" fill="url(#paint0_linear)"/>
<path d="M1.33514e-05 19.856L11.3057 26.4307V13.144L1.33514e-05 6.56934V19.856Z" fill="url(#paint1_linear)"/>
<path d="M22.6114 19.856L11.3057 26.4307V13.144L22.6114 6.56934V19.856Z" fill="url(#paint2_linear)"/>
<path d="M-9.53674e-05 6.57314L11.302 0L22.6113 6.57314L11.302 13.1391L-9.53674e-05 6.57314Z" fill="url(#paint3_linear)"/>
<path opacity="0.3" d="M0.152756 19.7887L11.3022 13.292L22.4586 19.7887L11.3022 26.2783L0.152756 19.7887Z" fill="url(#paint4_linear)"/>
<path opacity="0.2" d="M11.3056 13.1845L22.6113 19.7086V6.52413L11.3056 0V13.1845Z" fill="url(#paint5_linear)"/>
<defs>
<linearGradient id="paint0_linear" x1="11.3904" y1="118" x2="10.0027" y2="22.7894" gradientUnits="userSpaceOnUse">
<stop stop-color="#00FFF0" stop-opacity="0"/>
<stop offset="1" stop-color="#00FFF8"/>
</linearGradient>
<linearGradient id="paint1_linear" x1="9.9628" y1="16.4986" x2="-2.17203" y2="16.4986" gradientUnits="userSpaceOnUse">
<stop stop-color="#00DED3"/>
<stop offset="1" stop-color="#008B9A"/>
</linearGradient>
<linearGradient id="paint2_linear" x1="22.5452" y1="19.9412" x2="-7.31657" y2="-0.591262" gradientUnits="userSpaceOnUse">
<stop stop-color="#00EADC"/>
<stop offset="0.393961" stop-color="#008B9A"/>
</linearGradient>
<linearGradient id="paint3_linear" x1="11.3119" y1="13.1904" x2="11.3119" y2="-11.6635" gradientUnits="userSpaceOnUse">
<stop stop-color="#EFF0F2"/>
<stop offset="0.4469" stop-color="#00DDD2"/>
<stop offset="1" stop-color="#008B9A"/>
</linearGradient>
<linearGradient id="paint4_linear" x1="11.4378" y1="13.124" x2="11.2689" y2="26.2267" gradientUnits="userSpaceOnUse">
<stop stop-color="#E7FFFE" stop-opacity="0"/>
<stop offset="1" stop-color="#008B9A"/>
</linearGradient>
<linearGradient id="paint5_linear" x1="14.0605" y1="11.737" x2="14.5659" y2="1.43533" gradientUnits="userSpaceOnUse">
<stop stop-color="#00DED3" stop-opacity="0"/>
<stop offset="1" stop-color="#008B9A"/>
</linearGradient>
</defs>
</svg>
