<svg width="35" height="143" viewBox="0 0 35 143" fill="none" xmlns="http://www.w3.org/2000/svg">
<path opacity="0.3" d="M34.985 143H0.000305176V30.7295H34.985V143Z" fill="url(#paint0_linear)"/>
<path d="M0.000457764 30.7224L17.4928 40.8948V20.3375L0.000457764 10.165V30.7224Z" fill="url(#paint1_linear)"/>
<path d="M34.9851 30.7224L17.4928 40.8948V20.3375L34.9851 10.165V30.7224Z" fill="url(#paint2_linear)"/>
<path d="M-6.10352e-05 10.17L17.4867 0L34.9846 10.17L17.4867 20.3289L-6.10352e-05 10.17Z" fill="url(#paint3_linear)"/>
<path opacity="0.3" d="M0.236866 30.6172L17.4874 20.5654L34.7488 30.6172L17.4874 40.658L0.236866 30.6172Z" fill="url(#paint4_linear)"/>
<path opacity="0.2" d="M17.4923 20.3992L34.9846 30.4934V10.0942L17.4923 0V20.3992Z" fill="url(#paint5_linear)"/>
<defs>
<linearGradient id="paint0_linear" x1="17.5735" y1="143" x2="16.3991" y2="34.2073" gradientUnits="userSpaceOnUse">
<stop stop-color="#00FFF0" stop-opacity="0"/>
<stop offset="1" stop-color="#00FFF8"/>
</linearGradient>
<linearGradient id="paint1_linear" x1="15.415" y1="25.5277" x2="-3.36016" y2="25.5277" gradientUnits="userSpaceOnUse">
<stop stop-color="#00DED3"/>
<stop offset="1" stop-color="#008B9A"/>
</linearGradient>
<linearGradient id="paint2_linear" x1="34.8827" y1="30.8541" x2="-11.3198" y2="-0.913927" gradientUnits="userSpaceOnUse">
<stop stop-color="#00EADC"/>
<stop offset="0.393961" stop-color="#008B9A"/>
</linearGradient>
<linearGradient id="paint3_linear" x1="17.5021" y1="20.4083" x2="17.5021" y2="-18.0459" gradientUnits="userSpaceOnUse">
<stop stop-color="#EFF0F2"/>
<stop offset="0.4469" stop-color="#00DDD2"/>
<stop offset="1" stop-color="#008B9A"/>
</linearGradient>
<linearGradient id="paint4_linear" x1="17.6973" y1="20.3055" x2="17.4358" y2="40.5782" gradientUnits="userSpaceOnUse">
<stop stop-color="#E7FFFE" stop-opacity="0"/>
<stop offset="1" stop-color="#008B9A"/>
</linearGradient>
<linearGradient id="paint5_linear" x1="21.7547" y1="18.1597" x2="22.5366" y2="2.22077" gradientUnits="userSpaceOnUse">
<stop stop-color="#00DED3" stop-opacity="0"/>
<stop offset="1" stop-color="#008B9A"/>
</linearGradient>
</defs>
</svg>
